<?xml version="1.0" encoding="utf-8"?>
<svg xmlns="http://www.w3.org/2000/svg" xmlns:xlink="http://www.w3.org/1999/xlink" width="350" height="110" viewBox="0 0 1400 440">
<defs>
  <clipPath id="clip010">
    <rect x="0" y="0" width="1400" height="440"/>
  </clipPath>
</defs>
<path clip-path="url(#clip010)" d="
M0 440 L1400 440 L1400 0 L0 0  Z
  " fill="#ffffff" fill-rule="evenodd" fill-opacity="1"/>
<defs>
  <clipPath id="clip011">
    <rect x="280" y="0" width="981" height="440"/>
  </clipPath>
</defs>
<path clip-path="url(#clip010)" d="
M75.2116 348.169 L469.564 348.169 L469.564 0 L75.2116 0  Z
  " fill="#ffffff" fill-rule="evenodd" fill-opacity="1"/>
<defs>
  <clipPath id="clip012">
    <rect x="75" y="0" width="395" height="349"/>
  </clipPath>
</defs>
<polyline clip-path="url(#clip010)" style="stroke:#000000; stroke-linecap:butt; stroke-linejoin:round; stroke-width:4; stroke-opacity:1; fill:none" points="
  75.2116,348.169 469.564,348.169 
  "/>
<polyline clip-path="url(#clip010)" style="stroke:#000000; stroke-linecap:butt; stroke-linejoin:round; stroke-width:4; stroke-opacity:1; fill:none" points="
  79.5932,348.169 79.5932,367.067 
  "/>
<polyline clip-path="url(#clip010)" style="stroke:#000000; stroke-linecap:butt; stroke-linejoin:round; stroke-width:4; stroke-opacity:1; fill:none" points="
  167.227,348.169 167.227,367.067 
  "/>
<polyline clip-path="url(#clip010)" style="stroke:#000000; stroke-linecap:butt; stroke-linejoin:round; stroke-width:4; stroke-opacity:1; fill:none" points="
  254.861,348.169 254.861,367.067 
  "/>
<polyline clip-path="url(#clip010)" style="stroke:#000000; stroke-linecap:butt; stroke-linejoin:round; stroke-width:4; stroke-opacity:1; fill:none" points="
  342.495,348.169 342.495,367.067 
  "/>
<polyline clip-path="url(#clip010)" style="stroke:#000000; stroke-linecap:butt; stroke-linejoin:round; stroke-width:4; stroke-opacity:1; fill:none" points="
  430.128,348.169 430.128,367.067 
  "/>
<path clip-path="url(#clip010)" d="M79.5932 373.758 Q76.8849 373.758 75.5134 376.432 Q74.1592 379.088 74.1592 384.435 Q74.1592 389.765 75.5134 392.438 Q76.8849 395.095 79.5932 395.095 Q82.3189 395.095 83.6731 392.438 Q85.0446 389.765 85.0446 384.435 Q85.0446 379.088 83.6731 376.432 Q82.3189 373.758 79.5932 373.758 M79.5932 370.98 Q83.9509 370.98 86.2425 374.435 Q88.5515 377.873 88.5515 384.435 Q88.5515 390.98 86.2425 394.435 Q83.9509 397.872 79.5932 397.872 Q75.2356 397.872 72.9266 394.435 Q70.635 390.98 70.635 384.435 Q70.635 377.873 72.9266 374.435 Q75.2356 370.98 79.5932 370.98 Z" fill="#000000" fill-rule="evenodd" fill-opacity="1" /><path clip-path="url(#clip010)" d="M148.243 394.418 L153.972 394.418 L153.972 374.643 L147.739 375.893 L147.739 372.699 L153.937 371.449 L157.444 371.449 L157.444 394.418 L163.173 394.418 L163.173 397.369 L148.243 397.369 L148.243 394.418 Z" fill="#000000" fill-rule="evenodd" fill-opacity="1" /><path clip-path="url(#clip010)" d="M177.756 373.758 Q175.048 373.758 173.677 376.432 Q172.322 379.088 172.322 384.435 Q172.322 389.765 173.677 392.438 Q175.048 395.095 177.756 395.095 Q180.482 395.095 181.836 392.438 Q183.208 389.765 183.208 384.435 Q183.208 379.088 181.836 376.432 Q180.482 373.758 177.756 373.758 M177.756 370.98 Q182.114 370.98 184.406 374.435 Q186.715 377.873 186.715 384.435 Q186.715 390.98 184.406 394.435 Q182.114 397.872 177.756 397.872 Q173.399 397.872 171.09 394.435 Q168.798 390.98 168.798 384.435 Q168.798 377.873 171.09 374.435 Q173.399 370.98 177.756 370.98 Z" fill="#000000" fill-rule="evenodd" fill-opacity="1" /><path clip-path="url(#clip010)" d="M238.941 394.418 L251.18 394.418 L251.18 397.369 L234.722 397.369 L234.722 394.418 Q236.719 392.352 240.156 388.879 Q243.611 385.39 244.496 384.383 Q246.18 382.491 246.84 381.189 Q247.517 379.869 247.517 378.602 Q247.517 376.536 246.059 375.234 Q244.618 373.932 242.291 373.932 Q240.642 373.932 238.802 374.505 Q236.979 375.077 234.896 376.241 L234.896 372.699 Q237.014 371.848 238.854 371.414 Q240.694 370.98 242.222 370.98 Q246.25 370.98 248.646 372.994 Q251.041 375.008 251.041 378.376 Q251.041 379.973 250.434 381.414 Q249.843 382.838 248.264 384.782 Q247.83 385.286 245.503 387.699 Q243.177 390.095 238.941 394.418 Z" fill="#000000" fill-rule="evenodd" fill-opacity="1" /><path clip-path="url(#clip010)" d="M266.041 373.758 Q263.333 373.758 261.961 376.432 Q260.607 379.088 260.607 384.435 Q260.607 389.765 261.961 392.438 Q263.333 395.095 266.041 395.095 Q268.767 395.095 270.121 392.438 Q271.493 389.765 271.493 384.435 Q271.493 379.088 270.121 376.432 Q268.767 373.758 266.041 373.758 M266.041 370.98 Q270.399 370.98 272.691 374.435 Q275 377.873 275 384.435 Q275 390.98 272.691 394.435 Q270.399 397.872 266.041 397.872 Q261.684 397.872 259.375 394.435 Q257.083 390.98 257.083 384.435 Q257.083 377.873 259.375 374.435 Q261.684 370.98 266.041 370.98 Z" fill="#000000" fill-rule="evenodd" fill-opacity="1" /><path clip-path="url(#clip010)" d="M334.127 383.393 Q336.644 383.932 338.05 385.633 Q339.474 387.334 339.474 389.834 Q339.474 393.671 336.835 395.772 Q334.196 397.872 329.335 397.872 Q327.703 397.872 325.967 397.543 Q324.248 397.23 322.408 396.588 L322.408 393.202 Q323.866 394.053 325.602 394.487 Q327.338 394.921 329.231 394.921 Q332.529 394.921 334.248 393.619 Q335.984 392.317 335.984 389.834 Q335.984 387.543 334.37 386.258 Q332.772 384.956 329.908 384.956 L326.887 384.956 L326.887 382.074 L330.047 382.074 Q332.634 382.074 334.005 381.05 Q335.377 380.008 335.377 378.064 Q335.377 376.067 333.953 375.008 Q332.547 373.932 329.908 373.932 Q328.467 373.932 326.818 374.244 Q325.168 374.557 323.189 375.216 L323.189 372.091 Q325.186 371.536 326.922 371.258 Q328.675 370.98 330.22 370.98 Q334.213 370.98 336.54 372.803 Q338.866 374.609 338.866 377.699 Q338.866 379.852 337.634 381.345 Q336.401 382.82 334.127 383.393 Z" fill="#000000" fill-rule="evenodd" fill-opacity="1" /><path clip-path="url(#clip010)" d="M353.623 373.758 Q350.915 373.758 349.543 376.432 Q348.189 379.088 348.189 384.435 Q348.189 389.765 349.543 392.438 Q350.915 395.095 353.623 395.095 Q356.349 395.095 357.703 392.438 Q359.074 389.765 359.074 384.435 Q359.074 379.088 357.703 376.432 Q356.349 373.758 353.623 373.758 M353.623 370.98 Q357.981 370.98 360.272 374.435 Q362.581 377.873 362.581 384.435 Q362.581 390.98 360.272 394.435 Q357.981 397.872 353.623 397.872 Q349.265 397.872 346.956 394.435 Q344.665 390.98 344.665 384.435 Q344.665 377.873 346.956 374.435 Q349.265 370.98 353.623 370.98 Z" fill="#000000" fill-rule="evenodd" fill-opacity="1" /><path clip-path="url(#clip010)" d="M421.257 374.505 L412.403 388.341 L421.257 388.341 L421.257 374.505 M420.337 371.449 L424.746 371.449 L424.746 388.341 L428.444 388.341 L428.444 391.258 L424.746 391.258 L424.746 397.369 L421.257 397.369 L421.257 391.258 L409.556 391.258 L409.556 387.873 L420.337 371.449 Z" fill="#000000" fill-rule="evenodd" fill-opacity="1" /><path clip-path="url(#clip010)" d="M441.743 373.758 Q439.035 373.758 437.663 376.432 Q436.309 379.088 436.309 384.435 Q436.309 389.765 437.663 392.438 Q439.035 395.095 441.743 395.095 Q444.469 395.095 445.823 392.438 Q447.194 389.765 447.194 384.435 Q447.194 379.088 445.823 376.432 Q444.469 373.758 441.743 373.758 M441.743 370.98 Q446.101 370.98 448.392 374.435 Q450.701 377.873 450.701 384.435 Q450.701 390.98 448.392 394.435 Q446.101 397.872 441.743 397.872 Q437.385 397.872 435.076 394.435 Q432.785 390.98 432.785 384.435 Q432.785 377.873 435.076 374.435 Q437.385 370.98 441.743 370.98 Z" fill="#000000" fill-rule="evenodd" fill-opacity="1" /><polyline clip-path="url(#clip010)" style="stroke:#000000; stroke-linecap:butt; stroke-linejoin:round; stroke-width:4; stroke-opacity:1; fill:none" points="
  75.2116,348.169 75.2116,0 
  "/>
<path clip-path="url(#clip010)" d="M2.39748 262.278 L12.137 262.278 L12.137 257.869 Q12.137 255.421 10.8697 254.084 Q9.60231 252.747 7.25857 252.747 Q4.93219 252.747 3.66484 254.084 Q2.39748 255.421 2.39748 257.869 L2.39748 262.278 M-0.484445 265.785 L-0.484445 257.869 Q-0.484445 253.511 1.49471 251.289 Q3.45651 249.049 7.25857 249.049 Q11.0954 249.049 13.0571 251.289 Q15.0189 253.511 15.0189 257.869 L15.0189 262.278 L25.4356 262.278 L25.4356 265.785 L-0.484445 265.785 Z" fill="#000000" fill-rule="evenodd" fill-opacity="1" /><path clip-path="url(#clip010)" d="M8.97731 233.841 Q8.66481 234.379 8.52592 235.022 Q8.36967 235.647 8.36967 236.411 Q8.36967 239.119 10.1405 240.577 Q11.894 242.018 15.1926 242.018 L25.4356 242.018 L25.4356 245.23 L5.99121 245.23 L5.99121 242.018 L9.01203 242.018 Q7.24121 241.011 6.39052 239.397 Q5.52247 237.782 5.52247 235.473 Q5.52247 235.143 5.57455 234.744 Q5.60927 234.345 5.69608 233.858 L8.97731 233.841 Z" fill="#000000" fill-rule="evenodd" fill-opacity="1" /><path clip-path="url(#clip010)" d="M8.23079 223.737 Q8.23079 226.306 10.2447 227.799 Q12.2412 229.293 15.7307 229.293 Q19.2203 229.293 21.2342 227.817 Q23.2307 226.324 23.2307 223.737 Q23.2307 221.185 21.2168 219.692 Q19.2029 218.199 15.7307 218.199 Q12.2759 218.199 10.262 219.692 Q8.23079 221.185 8.23079 223.737 M5.52247 223.737 Q5.52247 219.57 8.23079 217.192 Q10.9391 214.813 15.7307 214.813 Q20.505 214.813 23.2307 217.192 Q25.939 219.57 25.939 223.737 Q25.939 227.921 23.2307 230.299 Q20.505 232.661 15.7307 232.661 Q10.9391 232.661 8.23079 230.299 Q5.52247 227.921 5.52247 223.737 Z" fill="#000000" fill-rule="evenodd" fill-opacity="1" /><path clip-path="url(#clip010)" d="M15.7307 195.56 Q12.2065 195.56 10.2099 197.018 Q8.19606 198.459 8.19606 200.994 Q8.19606 203.529 10.2099 204.987 Q12.2065 206.428 15.7307 206.428 Q19.255 206.428 21.2689 204.987 Q23.2654 203.529 23.2654 200.994 Q23.2654 198.459 21.2689 197.018 Q19.255 195.56 15.7307 195.56 M8.94259 206.428 Q7.20649 205.421 6.37316 203.893 Q5.52247 202.348 5.52247 200.213 Q5.52247 196.671 8.33495 194.466 Q11.1474 192.244 15.7307 192.244 Q20.3141 192.244 23.1265 194.466 Q25.939 196.671 25.939 200.213 Q25.939 202.348 25.1057 203.893 Q24.255 205.421 22.5189 206.428 L25.4356 206.428 L25.4356 209.64 L-1.57819 209.64 L-1.57819 206.428 L8.94259 206.428 Z" fill="#000000" fill-rule="evenodd" fill-opacity="1" /><path clip-path="url(#clip010)" d="M15.6613 178.112 Q15.6613 181.984 16.5467 183.477 Q17.4321 184.97 19.5675 184.97 Q21.2689 184.97 22.2758 183.859 Q23.2654 182.73 23.2654 180.803 Q23.2654 178.147 21.3904 176.55 Q19.4981 174.935 16.3731 174.935 L15.6613 174.935 L15.6613 178.112 M14.3419 171.741 L25.4356 171.741 L25.4356 174.935 L22.4842 174.935 Q24.255 176.029 25.1057 177.661 Q25.939 179.293 25.939 181.654 Q25.939 184.64 24.2724 186.411 Q22.5883 188.164 19.7759 188.164 Q16.4946 188.164 14.828 185.977 Q13.1613 183.772 13.1613 179.414 L13.1613 174.935 L12.8488 174.935 Q10.644 174.935 9.44606 176.394 Q8.23079 177.834 8.23079 180.456 Q8.23079 182.123 8.63009 183.703 Q9.02939 185.282 9.828 186.741 L6.87663 186.741 Q6.19955 184.987 5.86969 183.338 Q5.52247 181.689 5.52247 180.126 Q5.52247 175.907 7.70996 173.824 Q9.89744 171.741 14.3419 171.741 Z" fill="#000000" fill-rule="evenodd" fill-opacity="1" /><path clip-path="url(#clip010)" d="M15.7307 151.203 Q12.2065 151.203 10.2099 152.661 Q8.19606 154.102 8.19606 156.637 Q8.19606 159.171 10.2099 160.63 Q12.2065 162.071 15.7307 162.071 Q19.255 162.071 21.2689 160.63 Q23.2654 159.171 23.2654 156.637 Q23.2654 154.102 21.2689 152.661 Q19.255 151.203 15.7307 151.203 M8.94259 162.071 Q7.20649 161.064 6.37316 159.536 Q5.52247 157.991 5.52247 155.855 Q5.52247 152.314 8.33495 150.109 Q11.1474 147.887 15.7307 147.887 Q20.3141 147.887 23.1265 150.109 Q25.939 152.314 25.939 155.855 Q25.939 157.991 25.1057 159.536 Q24.255 161.064 22.5189 162.071 L25.4356 162.071 L25.4356 165.282 L-1.57819 165.282 L-1.57819 162.071 L8.94259 162.071 Z" fill="#000000" fill-rule="evenodd" fill-opacity="1" /><path clip-path="url(#clip010)" d="M5.99121 142.592 L5.99121 139.397 L25.4356 139.397 L25.4356 142.592 L5.99121 142.592 M-1.57819 142.592 L-1.57819 139.397 L2.46693 139.397 L2.46693 142.592 L-1.57819 142.592 Z" fill="#000000" fill-rule="evenodd" fill-opacity="1" /><path clip-path="url(#clip010)" d="M-1.57819 132.713 L-1.57819 129.519 L25.4356 129.519 L25.4356 132.713 L-1.57819 132.713 Z" fill="#000000" fill-rule="evenodd" fill-opacity="1" /><path clip-path="url(#clip010)" d="M5.99121 122.835 L5.99121 119.64 L25.4356 119.64 L25.4356 122.835 L5.99121 122.835 M-1.57819 122.835 L-1.57819 119.64 L2.46693 119.64 L2.46693 122.835 L-1.57819 122.835 Z" fill="#000000" fill-rule="evenodd" fill-opacity="1" /><path clip-path="url(#clip010)" d="M0.470411 109.797 L5.99121 109.797 L5.99121 103.217 L8.47384 103.217 L8.47384 109.797 L19.0293 109.797 Q21.4078 109.797 22.0849 109.154 Q22.762 108.495 22.762 106.498 L22.762 103.217 L25.4356 103.217 L25.4356 106.498 Q25.4356 110.196 24.064 111.602 Q22.6752 113.008 19.0293 113.008 L8.47384 113.008 L8.47384 115.352 L5.99121 115.352 L5.99121 113.008 L0.470411 113.008 L0.470411 109.797 Z" fill="#000000" fill-rule="evenodd" fill-opacity="1" /><path clip-path="url(#clip010)" d="M27.2411 90.9252 Q30.7133 92.2794 31.7723 93.5641 Q32.8313 94.8488 32.8313 97.0016 L32.8313 99.5537 L30.1578 99.5537 L30.1578 97.6787 Q30.1578 96.3592 29.5328 95.6301 Q28.9078 94.9009 26.5814 94.0155 L25.1231 93.4426 L5.99121 101.307 L5.99121 97.9217 L21.1995 91.8454 L5.99121 85.769 L5.99121 82.3836 L27.2411 90.9252 Z" fill="#000000" fill-rule="evenodd" fill-opacity="1" /><path clip-path="url(#clip012)" d="
M75.2116 348.169 L83.9749 348.169 L83.9749 348.169 L92.7383 348.169 L92.7383 348.169 L101.502 348.169 L101.502 348.169 L110.265 348.169 L110.265 348.169 L119.028 348.169 
  L119.028 348.169 L127.792 348.169 L127.792 348.169 L136.555 348.169 L136.555 348.169 L145.319 348.169 L145.319 348.169 L154.082 348.169 L154.082 348.169 L162.845 348.169 
  L162.845 348.169 L171.609 348.169 L171.609 348.169 L180.372 348.169 L180.372 348.169 L189.135 348.169 L189.135 348.169 L197.899 348.169 L197.899 348.169 L206.662 348.169 
  L206.662 348.169 L215.426 348.169 L215.426 348.169 L224.189 348.169 L224.189 348.169 L232.952 348.169 L232.952 348.169 L241.716 348.169 L241.716 348.169 L250.479 348.169 
  L250.479 348.169 L259.243 348.169 L259.243 348.169 L268.006 348.169 L268.006 348.169 L276.769 348.169 L276.769 348.169 L285.533 348.169 L285.533 348.169 L294.296 348.169 
  L294.296 348.169 L303.059 348.169 L303.059 348.169 L311.823 348.169 L311.823 348.169 L320.586 348.169 L320.586 348.169 L329.35 348.169 L329.35 348.169 L338.113 348.169 
  L338.113 348.169 L346.876 348.169 L346.876 348.169 L355.64 348.169 L355.64 348.169 L364.403 348.169 L364.403 348.169 L373.166 348.169 L373.166 348.169 L381.93 348.169 
  L381.93 348.169 L390.693 348.169 L390.693 348.169 L399.457 348.169 L399.457 348.169 L408.22 348.169 L408.22 348.169 L416.983 348.169 L416.983 348.169 L425.747 348.169 
  L425.747 348.169 L434.51 348.169 L434.51 348.169 L443.273 348.169 L443.273 348.169 L452.037 348.169 L452.037 348.169 L460.8 348.169 L460.8 348.169 L469.564 348.169 
  L469.564 348.169 L469.564 348.169 L469.564 348.129 L460.8 348.129 L460.8 348.103 L452.037 348.103 L452.037 348.062 L443.273 348.062 L443.273 348 L434.51 348 
  L434.51 347.907 L425.747 347.907 L425.747 347.771 L416.983 347.771 L416.983 347.578 L408.22 347.578 L408.22 347.308 L399.457 347.308 L399.457 346.943 L390.693 346.943 
  L390.693 346.462 L381.93 346.462 L381.93 345.841 L373.166 345.841 L373.166 345.065 L364.403 345.065 L364.403 344.118 L355.64 344.118 L355.64 342.994 L346.876 342.994 
  L346.876 341.698 L338.113 341.698 L338.113 340.241 L329.35 340.241 L329.35 338.646 L320.586 338.646 L320.586 336.942 L311.823 336.942 L311.823 335.163 L303.059 335.163 
  L303.059 333.337 L294.296 333.337 L294.296 331.48 L285.533 331.48 L285.533 329.591 L276.769 329.591 L276.769 327.63 L268.006 327.63 L268.006 325.504 L259.243 325.504 
  L259.243 323.024 L250.479 323.024 L250.479 319.84 L241.716 319.84 L241.716 315.339 L232.952 315.339 L232.952 308.501 L224.189 308.501 L224.189 297.755 L215.426 297.755 
  L215.426 280.936 L206.662 280.936 L206.662 255.528 L197.899 255.528 L197.899 219.431 L189.135 219.431 L189.135 172.37 L180.372 172.37 L180.372 117.712 L171.609 117.712 
  L171.609 63.7992 L162.845 63.7992 L162.845 23.4261 L154.082 23.4261 L154.082 10.3196 L145.319 10.3196 L145.319 33.0864 L136.555 33.0864 L136.555 89.5014 L127.792 89.5014 
  L127.792 165.354 L119.028 165.354 L119.028 240.146 L110.265 240.146 L110.265 296.979 L101.502 296.979 L101.502 329.94 L92.7383 329.94 L92.7383 343.835 L83.9749 343.835 
  L83.9749 347.653 L75.2116 347.653  Z
  " fill="#e4f0f8" fill-rule="evenodd" fill-opacity="1"/>
<polyline clip-path="url(#clip012)" style="stroke:#000000; stroke-linecap:butt; stroke-linejoin:round; stroke-width:4; stroke-opacity:0; fill:none" points="
  75.2116,348.169 83.9749,348.169 92.7383,348.169 101.502,348.169 110.265,348.169 119.028,348.169 
  127.792,348.169 136.555,348.169 145.319,348.169 154.082,348.169 162.845,348.169 
  171.609,348.169 180.372,348.169 189.135,348.169 197.899,348.169 206.662,348.169 
  215.426,348.169 224.189,348.169 232.952,348.169 241.716,348.169 250.479,348.169 
  259.243,348.169 268.006,348.169 276.769,348.169 285.533,348.169 294.296,348.169 
  303.059,348.169 311.823,348.169 320.586,348.169 329.35,348.169 338.113,348.169 
  346.876,348.169 355.64,348.169 364.403,348.169 373.166,348.169 381.93,348.169 
  390.693,348.169 399.457,348.169 408.22,348.169 416.983,348.169 425.747,348.169 
  434.51,348.169 443.273,348.169 452.037,348.169 460.8,348.169 469.564,348.169 
  
  "/>
<polyline clip-path="url(#clip012)" style="stroke:#808080; stroke-linecap:butt; stroke-linejoin:round; stroke-width:2; stroke-opacity:0.8; fill:none" points="
  75.2116,347.653 83.9749,347.653 83.9749,343.835 92.7383,343.835 92.7383,329.94 101.502,329.94 101.502,296.979 110.265,296.979 110.265,240.146 119.028,240.146 
  119.028,165.354 127.792,165.354 127.792,89.5014 136.555,89.5014 136.555,33.0864 145.319,33.0864 145.319,10.3196 154.082,10.3196 154.082,23.4261 162.845,23.4261 
  162.845,63.7992 171.609,63.7992 171.609,117.712 180.372,117.712 180.372,172.37 189.135,172.37 189.135,219.431 197.899,219.431 197.899,255.528 206.662,255.528 
  206.662,280.936 215.426,280.936 215.426,297.755 224.189,297.755 224.189,308.501 232.952,308.501 232.952,315.339 241.716,315.339 241.716,319.84 250.479,319.84 
  250.479,323.024 259.243,323.024 259.243,325.504 268.006,325.504 268.006,327.63 276.769,327.63 276.769,329.591 285.533,329.591 285.533,331.48 294.296,331.48 
  294.296,333.337 303.059,333.337 303.059,335.163 311.823,335.163 311.823,336.942 320.586,336.942 320.586,338.646 329.35,338.646 329.35,340.241 338.113,340.241 
  338.113,341.698 346.876,341.698 346.876,342.994 355.64,342.994 355.64,344.118 364.403,344.118 364.403,345.065 373.166,345.065 373.166,345.841 381.93,345.841 
  381.93,346.462 390.693,346.462 390.693,346.943 399.457,346.943 399.457,347.308 408.22,347.308 408.22,347.578 416.983,347.578 416.983,347.771 425.747,347.771 
  425.747,347.907 434.51,347.907 434.51,348 443.273,348 443.273,348.062 452.037,348.062 452.037,348.103 460.8,348.103 460.8,348.129 469.564,348.129 
  469.564,348.169 
  "/>
<polyline clip-path="url(#clip012)" style="stroke:#0088c3; stroke-linecap:butt; stroke-linejoin:round; stroke-width:6; stroke-opacity:0.9; fill:none" points="
  75.2116,347.6 83.9749,347.6 83.9749,343.494 92.7383,343.494 92.7383,328.881 101.502,328.881 101.502,294.853 110.265,294.853 110.265,237.088 119.028,237.088 
  119.028,162.065 127.792,162.065 127.792,86.8649 136.555,86.8649 136.555,31.6665 145.319,31.6665 145.319,10.1408 154.082,10.1408 154.082,24.1326 162.845,24.1326 
  162.845,64.9775 171.609,64.9775 171.609,119.084 180.372,119.084 180.372,173.822 189.135,173.822 189.135,220.936 197.899,220.936 197.899,257.061 206.662,257.061 
  206.662,282.446 215.426,282.446 215.426,299.178 224.189,299.178 224.189,309.773 232.952,309.773 232.952,316.414 241.716,316.414 241.716,320.694 250.479,320.694 
  250.479,323.653 259.243,323.653 259.243,325.925 268.006,325.925 268.006,327.872 276.769,327.872 276.769,329.693 285.533,329.693 285.533,331.485 294.296,331.485 
  294.296,333.283 303.059,333.283 303.059,335.083 311.823,335.083 311.823,336.858 320.586,336.858 320.586,338.569 329.35,338.569 329.35,340.176 338.113,340.176 
  338.113,341.643 346.876,341.643 346.876,342.946 355.64,342.946 355.64,344.071 364.403,344.071 364.403,345.016 373.166,345.016 373.166,345.79 381.93,345.79 
  381.93,346.408 390.693,346.408 390.693,346.889 399.457,346.889 399.457,347.256 408.22,347.256 408.22,347.529 416.983,347.529 416.983,347.727 425.747,347.727 
  425.747,347.869 434.51,347.869 434.51,347.969 443.273,347.969 443.273,348.037 452.037,348.037 452.037,348.083 460.8,348.083 460.8,348.114 469.564,348.114 
  469.564,348.134 
  "/>
<path clip-path="url(#clip010)" d="
M300.71 128.246 L456.419 128.246 L456.419 11.6056 L300.71 11.6056  Z
  " fill="#ffffff" fill-rule="evenodd" fill-opacity="1"/>
<polyline clip-path="url(#clip010)" style="stroke:#000000; stroke-linecap:butt; stroke-linejoin:round; stroke-width:4; stroke-opacity:0; fill:none" points="
  300.71,128.246 456.419,128.246 456.419,11.6056 300.71,11.6056 300.71,128.246 
  "/>
<path clip-path="url(#clip010)" d="
M305.092 66.0376 L331.382 66.0376 L331.382 34.9336 L305.092 34.9336 L305.092 66.0376  Z
  " fill="#e4f0f8" fill-rule="evenodd" fill-opacity="1"/>
<polyline clip-path="url(#clip010)" style="stroke:#000000; stroke-linecap:butt; stroke-linejoin:round; stroke-width:4; stroke-opacity:0; fill:none" points="
  305.092,34.9336 331.382,34.9336 
  "/>
<path clip-path="url(#clip010)" d="M335.763 37.5256 L350.659 37.5256 L350.659 40.477 L339.27 40.477 L339.27 48.1159 L349.548 48.1159 L349.548 51.0672 L339.27 51.0672 L339.27 63.4456 L335.763 63.4456 L335.763 37.5256 Z" fill="#000000" fill-rule="evenodd" fill-opacity="1" /><path clip-path="url(#clip010)" d="M371.128 38.3763 L371.128 41.7964 Q369.131 40.8416 367.36 40.3728 Q365.59 39.9041 363.94 39.9041 Q361.076 39.9041 359.513 41.0152 Q357.968 42.1263 357.968 44.1749 Q357.968 45.8936 358.992 46.7791 Q360.034 47.6471 362.916 48.1853 L365.034 48.6193 Q368.958 49.3658 370.815 51.2582 Q372.69 53.1332 372.69 56.2929 Q372.69 60.0602 370.156 62.0047 Q367.638 63.9491 362.76 63.9491 Q360.92 63.9491 358.836 63.5324 Q356.77 63.1158 354.548 62.2998 L354.548 58.6887 Q356.683 59.8866 358.732 60.4943 Q360.781 61.1019 362.76 61.1019 Q365.763 61.1019 367.395 59.9213 Q369.027 58.7408 369.027 56.5533 Q369.027 54.6436 367.847 53.5672 Q366.683 52.4908 364.01 51.9526 L361.874 51.536 Q357.951 50.7547 356.197 49.0881 Q354.444 47.4214 354.444 44.4527 Q354.444 41.0152 356.857 39.036 Q359.288 37.0569 363.541 37.0569 Q365.364 37.0569 367.256 37.3867 Q369.149 37.7166 371.128 38.3763 Z" fill="#000000" fill-rule="evenodd" fill-opacity="1" /><path clip-path="url(#clip010)" d="M381.666 40.4076 L381.666 50.1471 L386.076 50.1471 Q388.524 50.1471 389.86 48.8797 Q391.197 47.6124 391.197 45.2686 Q391.197 42.9423 389.86 41.6749 Q388.524 40.4076 386.076 40.4076 L381.666 40.4076 M378.159 37.5256 L386.076 37.5256 Q390.433 37.5256 392.655 39.5048 Q394.895 41.4666 394.895 45.2686 Q394.895 49.1054 392.655 51.0672 Q390.433 53.029 386.076 53.029 L381.666 53.029 L381.666 63.4456 L378.159 63.4456 L378.159 37.5256 Z" fill="#000000" fill-rule="evenodd" fill-opacity="1" /><polyline clip-path="url(#clip010)" style="stroke:#0088c3; stroke-linecap:butt; stroke-linejoin:round; stroke-width:3; stroke-opacity:0.9; fill:none" points="
  305.092,89.3656 331.382,89.3656 
  "/>
<path clip-path="url(#clip010)" d="M335.763 76.4056 L340.486 76.4056 L351.979 98.0895 L351.979 76.4056 L355.381 76.4056 L355.381 102.326 L350.659 102.326 L339.166 80.6417 L339.166 102.326 L335.763 102.326 L335.763 76.4056 Z" fill="#000000" fill-rule="evenodd" fill-opacity="1" /><path clip-path="url(#clip010)" d="M378.853 91.8049 L378.853 93.3673 L364.166 93.3673 Q364.374 96.6659 366.145 98.402 Q367.933 100.121 371.11 100.121 Q372.951 100.121 374.669 99.6694 Q376.406 99.218 378.107 98.3152 L378.107 101.336 Q376.388 102.065 374.583 102.447 Q372.777 102.829 370.919 102.829 Q366.267 102.829 363.541 100.121 Q360.833 97.4125 360.833 92.7944 Q360.833 88.0202 363.402 85.225 Q365.989 82.4125 370.364 82.4125 Q374.287 82.4125 376.562 84.9473 Q378.853 87.4646 378.853 91.8049 M375.659 90.8674 Q375.624 88.2458 374.183 86.6834 Q372.76 85.1209 370.399 85.1209 Q367.725 85.1209 366.11 86.6313 Q364.513 88.1417 364.27 90.8847 L375.659 90.8674 Z" fill="#000000" fill-rule="evenodd" fill-opacity="1" /><path clip-path="url(#clip010)" d="M396.492 83.4542 L396.492 86.475 Q395.138 85.7806 393.68 85.4334 Q392.221 85.0861 390.659 85.0861 Q388.28 85.0861 387.083 85.8153 Q385.902 86.5445 385.902 88.0028 Q385.902 89.1139 386.753 89.7563 Q387.603 90.3813 390.173 90.9542 L391.267 91.1972 Q394.669 91.9264 396.093 93.2632 Q397.534 94.5826 397.534 96.9611 Q397.534 99.6694 395.381 101.249 Q393.246 102.829 389.496 102.829 Q387.933 102.829 386.232 102.517 Q384.548 102.221 382.673 101.614 L382.673 98.3152 Q384.444 99.2354 386.162 99.7041 Q387.881 100.156 389.565 100.156 Q391.822 100.156 393.037 99.3916 Q394.253 98.6104 394.253 97.2041 Q394.253 95.9021 393.367 95.2076 Q392.499 94.5132 389.53 93.8708 L388.419 93.6104 Q385.451 92.9854 384.131 91.7007 Q382.812 90.3986 382.812 88.1417 Q382.812 85.3986 384.756 83.9056 Q386.701 82.4125 390.277 82.4125 Q392.048 82.4125 393.61 82.673 Q395.173 82.9334 396.492 83.4542 Z" fill="#000000" fill-rule="evenodd" fill-opacity="1" /><path clip-path="url(#clip010)" d="M415.016 83.4542 L415.016 86.475 Q413.662 85.7806 412.204 85.4334 Q410.746 85.0861 409.183 85.0861 Q406.805 85.0861 405.607 85.8153 Q404.426 86.5445 404.426 88.0028 Q404.426 89.1139 405.277 89.7563 Q406.128 90.3813 408.697 90.9542 L409.791 91.1972 Q413.194 91.9264 414.617 93.2632 Q416.058 94.5826 416.058 96.9611 Q416.058 99.6694 413.905 101.249 Q411.77 102.829 408.02 102.829 Q406.457 102.829 404.756 102.517 Q403.072 102.221 401.197 101.614 L401.197 98.3152 Q402.968 99.2354 404.687 99.7041 Q406.405 100.156 408.089 100.156 Q410.346 100.156 411.562 99.3916 Q412.777 98.6104 412.777 97.2041 Q412.777 95.9021 411.891 95.2076 Q411.023 94.5132 408.055 93.8708 L406.944 93.6104 Q403.975 92.9854 402.655 91.7007 Q401.336 90.3986 401.336 88.1417 Q401.336 85.3986 403.28 83.9056 Q405.225 82.4125 408.801 82.4125 Q410.572 82.4125 412.135 82.673 Q413.697 82.9334 415.016 83.4542 Z" fill="#000000" fill-rule="evenodd" fill-opacity="1" /><path clip-path="url(#clip010)" d="M421.145 82.8813 L424.339 82.8813 L424.339 102.326 L421.145 102.326 L421.145 82.8813 M421.145 75.3119 L424.339 75.3119 L424.339 79.357 L421.145 79.357 L421.145 75.3119 Z" fill="#000000" fill-rule="evenodd" fill-opacity="1" /><path clip-path="url(#clip010)" d="M447.655 91.8049 L447.655 93.3673 L432.968 93.3673 Q433.176 96.6659 434.947 98.402 Q436.735 100.121 439.912 100.121 Q441.752 100.121 443.471 99.6694 Q445.207 99.218 446.909 98.3152 L446.909 101.336 Q445.19 102.065 443.384 102.447 Q441.579 102.829 439.721 102.829 Q435.068 102.829 432.343 100.121 Q429.634 97.4125 429.634 92.7944 Q429.634 88.0202 432.204 85.225 Q434.791 82.4125 439.166 82.4125 Q443.089 82.4125 445.364 84.9473 Q447.655 87.4646 447.655 91.8049 M444.461 90.8674 Q444.426 88.2458 442.985 86.6834 Q441.561 85.1209 439.2 85.1209 Q436.527 85.1209 434.912 86.6313 Q433.315 88.1417 433.072 90.8847 L444.461 90.8674 Z" fill="#000000" fill-rule="evenodd" fill-opacity="1" /><path clip-path="url(#clip010)" d="
M532.556 348.169 L926.908 348.169 L926.908 0 L532.556 0  Z
  " fill="#ffffff" fill-rule="evenodd" fill-opacity="1"/>
<defs>
  <clipPath id="clip013">
    <rect x="532" y="0" width="395" height="349"/>
  </clipPath>
</defs>
<polyline clip-path="url(#clip010)" style="stroke:#000000; stroke-linecap:butt; stroke-linejoin:round; stroke-width:4; stroke-opacity:1; fill:none" points="
  532.556,348.169 926.908,348.169 
  "/>
<polyline clip-path="url(#clip010)" style="stroke:#000000; stroke-linecap:butt; stroke-linejoin:round; stroke-width:4; stroke-opacity:1; fill:none" points="
  535.499,348.169 535.499,367.067 
  "/>
<polyline clip-path="url(#clip010)" style="stroke:#000000; stroke-linecap:butt; stroke-linejoin:round; stroke-width:4; stroke-opacity:1; fill:none" points="
  653.216,348.169 653.216,367.067 
  "/>
<polyline clip-path="url(#clip010)" style="stroke:#000000; stroke-linecap:butt; stroke-linejoin:round; stroke-width:4; stroke-opacity:1; fill:none" points="
  770.933,348.169 770.933,367.067 
  "/>
<polyline clip-path="url(#clip010)" style="stroke:#000000; stroke-linecap:butt; stroke-linejoin:round; stroke-width:4; stroke-opacity:1; fill:none" points="
  888.65,348.169 888.65,367.067 
  "/>
<path clip-path="url(#clip010)" d="M535.499 373.758 Q532.79 373.758 531.419 376.432 Q530.065 379.088 530.065 384.435 Q530.065 389.765 531.419 392.438 Q532.79 395.095 535.499 395.095 Q538.224 395.095 539.578 392.438 Q540.95 389.765 540.95 384.435 Q540.95 379.088 539.578 376.432 Q538.224 373.758 535.499 373.758 M535.499 370.98 Q539.856 370.98 542.148 374.435 Q544.457 377.873 544.457 384.435 Q544.457 390.98 542.148 394.435 Q539.856 397.872 535.499 397.872 Q531.141 397.872 528.832 394.435 Q526.54 390.98 526.54 384.435 Q526.54 377.873 528.832 374.435 Q531.141 370.98 535.499 370.98 Z" fill="#000000" fill-rule="evenodd" fill-opacity="1" /><path clip-path="url(#clip010)" d="M637.296 394.418 L649.535 394.418 L649.535 397.369 L633.077 397.369 L633.077 394.418 Q635.073 392.352 638.511 388.879 Q641.966 385.39 642.851 384.383 Q644.535 382.491 645.195 381.189 Q645.872 379.869 645.872 378.602 Q645.872 376.536 644.414 375.234 Q642.973 373.932 640.646 373.932 Q638.997 373.932 637.157 374.505 Q635.334 375.077 633.251 376.241 L633.251 372.699 Q635.369 371.848 637.209 371.414 Q639.049 370.98 640.577 370.98 Q644.605 370.98 647 372.994 Q649.396 375.008 649.396 378.376 Q649.396 379.973 648.789 381.414 Q648.198 382.838 646.619 384.782 Q646.184 385.286 643.858 387.699 Q641.532 390.095 637.296 394.418 Z" fill="#000000" fill-rule="evenodd" fill-opacity="1" /><path clip-path="url(#clip010)" d="M664.396 373.758 Q661.688 373.758 660.316 376.432 Q658.962 379.088 658.962 384.435 Q658.962 389.765 660.316 392.438 Q661.688 395.095 664.396 395.095 Q667.122 395.095 668.476 392.438 Q669.848 389.765 669.848 384.435 Q669.848 379.088 668.476 376.432 Q667.122 373.758 664.396 373.758 M664.396 370.98 Q668.754 370.98 671.045 374.435 Q673.354 377.873 673.354 384.435 Q673.354 390.98 671.045 394.435 Q668.754 397.872 664.396 397.872 Q660.039 397.872 657.73 394.435 Q655.438 390.98 655.438 384.435 Q655.438 377.873 657.73 374.435 Q660.039 370.98 664.396 370.98 Z" fill="#000000" fill-rule="evenodd" fill-opacity="1" /><path clip-path="url(#clip010)" d="M762.061 374.505 L753.207 388.341 L762.061 388.341 L762.061 374.505 M761.141 371.449 L765.551 371.449 L765.551 388.341 L769.249 388.341 L769.249 391.258 L765.551 391.258 L765.551 397.369 L762.061 397.369 L762.061 391.258 L750.36 391.258 L750.36 387.873 L761.141 371.449 Z" fill="#000000" fill-rule="evenodd" fill-opacity="1" /><path clip-path="url(#clip010)" d="M782.547 373.758 Q779.839 373.758 778.467 376.432 Q777.113 379.088 777.113 384.435 Q777.113 389.765 778.467 392.438 Q779.839 395.095 782.547 395.095 Q785.273 395.095 786.627 392.438 Q787.999 389.765 787.999 384.435 Q787.999 379.088 786.627 376.432 Q785.273 373.758 782.547 373.758 M782.547 370.98 Q786.905 370.98 789.197 374.435 Q791.506 377.873 791.506 384.435 Q791.506 390.98 789.197 394.435 Q786.905 397.872 782.547 397.872 Q778.19 397.872 775.881 394.435 Q773.589 390.98 773.589 384.435 Q773.589 377.873 775.881 374.435 Q778.19 370.98 782.547 370.98 Z" fill="#000000" fill-rule="evenodd" fill-opacity="1" /><path clip-path="url(#clip010)" d="M877.704 383.011 Q875.343 383.011 873.954 384.626 Q872.582 386.241 872.582 389.053 Q872.582 391.848 873.954 393.48 Q875.343 395.095 877.704 395.095 Q880.065 395.095 881.436 393.48 Q882.825 391.848 882.825 389.053 Q882.825 386.241 881.436 384.626 Q880.065 383.011 877.704 383.011 M884.665 372.022 L884.665 375.216 Q883.346 374.591 881.992 374.262 Q880.655 373.932 879.336 373.932 Q875.863 373.932 874.023 376.275 Q872.2 378.619 871.94 383.359 Q872.964 381.848 874.509 381.05 Q876.054 380.234 877.912 380.234 Q881.818 380.234 884.075 382.612 Q886.349 384.973 886.349 389.053 Q886.349 393.046 883.988 395.459 Q881.627 397.872 877.704 397.872 Q873.207 397.872 870.829 394.435 Q868.45 390.98 868.45 384.435 Q868.45 378.289 871.367 374.643 Q874.284 370.98 879.197 370.98 Q880.516 370.98 881.853 371.241 Q883.207 371.501 884.665 372.022 Z" fill="#000000" fill-rule="evenodd" fill-opacity="1" /><path clip-path="url(#clip010)" d="M899.891 373.758 Q897.183 373.758 895.811 376.432 Q894.457 379.088 894.457 384.435 Q894.457 389.765 895.811 392.438 Q897.183 395.095 899.891 395.095 Q902.617 395.095 903.971 392.438 Q905.342 389.765 905.342 384.435 Q905.342 379.088 903.971 376.432 Q902.617 373.758 899.891 373.758 M899.891 370.98 Q904.249 370.98 906.54 374.435 Q908.849 377.873 908.849 384.435 Q908.849 390.98 906.54 394.435 Q904.249 397.872 899.891 397.872 Q895.533 397.872 893.224 394.435 Q890.933 390.98 890.933 384.435 Q890.933 377.873 893.224 374.435 Q895.533 370.98 899.891 370.98 Z" fill="#000000" fill-rule="evenodd" fill-opacity="1" /><path clip-path="url(#clip010)" d="M597.632 416.115 L597.632 425.854 L602.041 425.854 Q604.489 425.854 605.826 424.587 Q607.163 423.32 607.163 420.976 Q607.163 418.65 605.826 417.382 Q604.489 416.115 602.041 416.115 L597.632 416.115 M594.125 413.233 L602.041 413.233 Q606.399 413.233 608.621 415.212 Q610.861 417.174 610.861 420.976 Q610.861 424.813 608.621 426.775 Q606.399 428.736 602.041 428.736 L597.632 428.736 L597.632 439.153 L594.125 439.153 L594.125 413.233 Z" fill="#000000" fill-rule="evenodd" fill-opacity="1" /><path clip-path="url(#clip010)" d="M626.069 422.695 Q625.531 422.382 624.889 422.243 Q624.264 422.087 623.5 422.087 Q620.791 422.087 619.333 423.858 Q617.892 425.611 617.892 428.91 L617.892 439.153 L614.68 439.153 L614.68 419.709 L617.892 419.709 L617.892 422.729 Q618.899 420.959 620.514 420.108 Q622.128 419.24 624.437 419.24 Q624.767 419.24 625.166 419.292 Q625.566 419.327 626.052 419.414 L626.069 422.695 Z" fill="#000000" fill-rule="evenodd" fill-opacity="1" /><path clip-path="url(#clip010)" d="M636.173 421.948 Q633.604 421.948 632.111 423.962 Q630.618 425.959 630.618 429.448 Q630.618 432.938 632.093 434.952 Q633.586 436.948 636.173 436.948 Q638.725 436.948 640.218 434.934 Q641.711 432.92 641.711 429.448 Q641.711 425.993 640.218 423.979 Q638.725 421.948 636.173 421.948 M636.173 419.24 Q640.34 419.24 642.718 421.948 Q645.097 424.657 645.097 429.448 Q645.097 434.222 642.718 436.948 Q640.34 439.656 636.173 439.656 Q631.989 439.656 629.611 436.948 Q627.25 434.222 627.25 429.448 Q627.25 424.657 629.611 421.948 Q631.989 419.24 636.173 419.24 Z" fill="#000000" fill-rule="evenodd" fill-opacity="1" /><path clip-path="url(#clip010)" d="M653.552 414.188 L653.552 419.709 L660.131 419.709 L660.131 422.191 L653.552 422.191 L653.552 432.747 Q653.552 435.125 654.194 435.802 Q654.854 436.479 656.85 436.479 L660.131 436.479 L660.131 439.153 L656.85 439.153 Q653.152 439.153 651.746 437.781 Q650.34 436.393 650.34 432.747 L650.34 422.191 L647.996 422.191 L647.996 419.709 L650.34 419.709 L650.34 414.188 L653.552 414.188 Z" fill="#000000" fill-rule="evenodd" fill-opacity="1" /><path clip-path="url(#clip010)" d="M680.965 428.632 L680.965 430.195 L666.277 430.195 Q666.486 433.493 668.256 435.229 Q670.045 436.948 673.222 436.948 Q675.062 436.948 676.781 436.497 Q678.517 436.045 680.218 435.143 L680.218 438.163 Q678.499 438.893 676.694 439.275 Q674.888 439.656 673.031 439.656 Q668.378 439.656 665.652 436.948 Q662.944 434.24 662.944 429.622 Q662.944 424.848 665.513 422.052 Q668.1 419.24 672.475 419.24 Q676.399 419.24 678.673 421.775 Q680.965 424.292 680.965 428.632 M677.77 427.695 Q677.736 425.073 676.295 423.511 Q674.871 421.948 672.51 421.948 Q669.836 421.948 668.222 423.459 Q666.624 424.969 666.381 427.712 L677.77 427.695 Z" fill="#000000" fill-rule="evenodd" fill-opacity="1" /><path clip-path="url(#clip010)" d="M686.208 419.709 L689.402 419.709 L689.402 439.153 L686.208 439.153 L686.208 419.709 M686.208 412.139 L689.402 412.139 L689.402 416.184 L686.208 416.184 L686.208 412.139 Z" fill="#000000" fill-rule="evenodd" fill-opacity="1" /><path clip-path="url(#clip010)" d="M712.249 427.417 L712.249 439.153 L709.055 439.153 L709.055 427.521 Q709.055 424.761 707.978 423.389 Q706.902 422.018 704.749 422.018 Q702.162 422.018 700.669 423.667 Q699.176 425.316 699.176 428.163 L699.176 439.153 L695.965 439.153 L695.965 419.709 L699.176 419.709 L699.176 422.729 Q700.322 420.976 701.867 420.108 Q703.43 419.24 705.461 419.24 Q708.812 419.24 710.53 421.323 Q712.249 423.389 712.249 427.417 Z" fill="#000000" fill-rule="evenodd" fill-opacity="1" /><path clip-path="url(#clip010)" d="M746.086 427.417 L746.086 439.153 L742.891 439.153 L742.891 427.521 Q742.891 424.761 741.815 423.389 Q740.739 422.018 738.586 422.018 Q735.999 422.018 734.506 423.667 Q733.013 425.316 733.013 428.163 L733.013 439.153 L729.801 439.153 L729.801 419.709 L733.013 419.709 L733.013 422.729 Q734.159 420.976 735.704 420.108 Q737.266 419.24 739.298 419.24 Q742.648 419.24 744.367 421.323 Q746.086 423.389 746.086 427.417 Z" fill="#000000" fill-rule="evenodd" fill-opacity="1" /><path clip-path="url(#clip010)" d="M752.127 431.479 L752.127 419.709 L755.322 419.709 L755.322 431.358 Q755.322 434.118 756.398 435.507 Q757.475 436.879 759.627 436.879 Q762.214 436.879 763.707 435.229 Q765.218 433.58 765.218 430.733 L765.218 419.709 L768.412 419.709 L768.412 439.153 L765.218 439.153 L765.218 436.167 Q764.054 437.938 762.509 438.806 Q760.982 439.656 758.95 439.656 Q755.6 439.656 753.864 437.573 Q752.127 435.49 752.127 431.479 M760.166 419.24 L760.166 419.24 Z" fill="#000000" fill-rule="evenodd" fill-opacity="1" /><path clip-path="url(#clip010)" d="M790.131 423.441 Q791.329 421.289 792.995 420.264 Q794.662 419.24 796.919 419.24 Q799.957 419.24 801.606 421.375 Q803.256 423.493 803.256 427.417 L803.256 439.153 L800.044 439.153 L800.044 427.521 Q800.044 424.726 799.054 423.372 Q798.065 422.018 796.033 422.018 Q793.551 422.018 792.11 423.667 Q790.669 425.316 790.669 428.163 L790.669 439.153 L787.457 439.153 L787.457 427.521 Q787.457 424.709 786.468 423.372 Q785.478 422.018 783.412 422.018 Q780.964 422.018 779.523 423.684 Q778.082 425.334 778.082 428.163 L778.082 439.153 L774.87 439.153 L774.87 419.709 L778.082 419.709 L778.082 422.729 Q779.176 420.941 780.704 420.091 Q782.231 419.24 784.332 419.24 Q786.45 419.24 787.926 420.316 Q789.419 421.393 790.131 423.441 Z" fill="#000000" fill-rule="evenodd" fill-opacity="1" /><path clip-path="url(#clip010)" d="M823.585 429.448 Q823.585 425.924 822.127 423.927 Q820.686 421.914 818.151 421.914 Q815.617 421.914 814.158 423.927 Q812.717 425.924 812.717 429.448 Q812.717 432.972 814.158 434.986 Q815.617 436.983 818.151 436.983 Q820.686 436.983 822.127 434.986 Q823.585 432.972 823.585 429.448 M812.717 422.66 Q813.724 420.924 815.252 420.091 Q816.797 419.24 818.933 419.24 Q822.474 419.24 824.679 422.052 Q826.901 424.865 826.901 429.448 Q826.901 434.032 824.679 436.844 Q822.474 439.656 818.933 439.656 Q816.797 439.656 815.252 438.823 Q813.724 437.972 812.717 436.236 L812.717 439.153 L809.506 439.153 L809.506 412.139 L812.717 412.139 L812.717 422.66 Z" fill="#000000" fill-rule="evenodd" fill-opacity="1" /><path clip-path="url(#clip010)" d="M848.828 428.632 L848.828 430.195 L834.141 430.195 Q834.349 433.493 836.12 435.229 Q837.908 436.948 841.085 436.948 Q842.926 436.948 844.644 436.497 Q846.38 436.045 848.082 435.143 L848.082 438.163 Q846.363 438.893 844.558 439.275 Q842.752 439.656 840.894 439.656 Q836.242 439.656 833.516 436.948 Q830.808 434.24 830.808 429.622 Q830.808 424.848 833.377 422.052 Q835.964 419.24 840.339 419.24 Q844.262 419.24 846.537 421.775 Q848.828 424.292 848.828 428.632 M845.634 427.695 Q845.599 425.073 844.158 423.511 Q842.735 421.948 840.374 421.948 Q837.7 421.948 836.085 423.459 Q834.488 424.969 834.245 427.712 L845.634 427.695 Z" fill="#000000" fill-rule="evenodd" fill-opacity="1" /><path clip-path="url(#clip010)" d="M865.339 422.695 Q864.8 422.382 864.158 422.243 Q863.533 422.087 862.769 422.087 Q860.061 422.087 858.603 423.858 Q857.162 425.611 857.162 428.91 L857.162 439.153 L853.95 439.153 L853.95 419.709 L857.162 419.709 L857.162 422.729 Q858.169 420.959 859.783 420.108 Q861.398 419.24 863.707 419.24 Q864.037 419.24 864.436 419.292 Q864.835 419.327 865.321 419.414 L865.339 422.695 Z" fill="#000000" fill-rule="evenodd" fill-opacity="1" /><polyline clip-path="url(#clip010)" style="stroke:#000000; stroke-linecap:butt; stroke-linejoin:round; stroke-width:4; stroke-opacity:1; fill:none" points="
  532.556,348.169 532.556,0 
  "/>
<path clip-path="url(#clip013)" d="
M532.556 348.169 L538.442 348.169 L538.442 348.169 L544.327 348.169 L544.327 348.169 L550.213 348.169 L550.213 348.169 L556.099 348.169 L556.099 348.169 L561.985 348.169 
  L561.985 348.169 L567.871 348.169 L567.871 348.169 L573.757 348.169 L573.757 348.169 L579.643 348.169 L579.643 348.169 L585.528 348.169 L585.528 348.169 L591.414 348.169 
  L591.414 348.169 L597.3 348.169 L597.3 348.169 L603.186 348.169 L603.186 348.169 L609.072 348.169 L609.072 348.169 L614.958 348.169 L614.958 348.169 L620.844 348.169 
  L620.844 348.169 L626.729 348.169 L626.729 348.169 L632.615 348.169 L632.615 348.169 L638.501 348.169 L638.501 348.169 L644.387 348.169 L644.387 348.169 L650.273 348.169 
  L650.273 348.169 L656.159 348.169 L656.159 348.169 L662.044 348.169 L662.044 348.169 L667.93 348.169 L667.93 348.169 L673.816 348.169 L673.816 348.169 L679.702 348.169 
  L679.702 348.169 L685.588 348.169 L685.588 348.169 L691.474 348.169 L691.474 348.169 L697.36 348.169 L697.36 348.169 L703.245 348.169 L703.245 348.169 L709.131 348.169 
  L709.131 348.169 L715.017 348.169 L715.017 348.169 L720.903 348.169 L720.903 348.169 L726.789 348.169 L726.789 348.169 L732.675 348.169 L732.675 348.169 L738.561 348.169 
  L738.561 348.169 L744.446 348.169 L744.446 348.169 L750.332 348.169 L750.332 348.169 L756.218 348.169 L756.218 348.169 L762.104 348.169 L762.104 348.169 L767.99 348.169 
  L767.99 348.169 L773.876 348.169 L773.876 348.169 L779.761 348.169 L779.761 348.169 L785.647 348.169 L785.647 348.169 L791.533 348.169 L791.533 348.169 L797.419 348.169 
  L797.419 348.169 L803.305 348.169 L803.305 348.169 L809.191 348.169 L809.191 348.169 L815.077 348.169 L815.077 348.169 L820.962 348.169 L820.962 348.169 L826.848 348.169 
  L826.848 348.169 L832.734 348.169 L832.734 348.169 L838.62 348.169 L838.62 348.169 L844.506 348.169 L844.506 348.169 L850.392 348.169 L850.392 348.169 L856.278 348.169 
  L856.278 348.169 L862.163 348.169 L862.163 348.169 L868.049 348.169 L868.049 348.169 L873.935 348.169 L873.935 348.169 L879.821 348.169 L879.821 348.169 L885.707 348.169 
  L885.707 348.169 L891.593 348.169 L891.593 348.169 L897.479 348.169 L897.479 348.169 L903.364 348.169 L903.364 348.169 L909.25 348.169 L909.25 348.169 L915.136 348.169 
  L915.136 348.169 L921.022 348.169 L921.022 348.169 L926.908 348.169 L926.908 348.169 L926.908 348.169 L926.908 348.069 L921.022 348.069 L921.022 348.004 L915.136 348.004 
  L915.136 347.898 L909.25 347.898 L909.25 347.733 L903.364 347.733 L903.364 347.476 L897.479 347.476 L897.479 347.084 L891.593 347.084 L891.593 346.497 L885.707 346.497 
  L885.707 345.632 L879.821 345.632 L879.821 344.379 L873.935 344.379 L873.935 342.598 L868.049 342.598 L868.049 340.112 L862.163 340.112 L862.163 336.705 L856.278 336.705 
  L856.278 332.125 L850.392 332.125 L850.392 326.091 L844.506 326.091 L844.506 318.3 L838.62 318.3 L838.62 308.448 L832.734 308.448 L832.734 296.259 L826.848 296.259 
  L826.848 281.511 L820.962 281.511 L820.962 264.08 L815.077 264.08 L815.077 243.975 L809.191 243.975 L809.191 221.372 L803.305 221.372 L803.305 196.643 L797.419 196.643 
  L797.419 170.364 L791.533 170.364 L791.533 143.308 L785.647 143.308 L785.647 116.407 L779.761 116.407 L779.761 90.7017 L773.876 90.7017 L773.876 67.2621 L767.99 67.2621 
  L767.99 47.1004 L762.104 47.1004 L762.104 31.0806 L756.218 31.0806 L756.218 19.8387 L750.332 19.8387 L750.332 13.7241 L744.446 13.7241 L744.446 12.7701 L738.561 12.7701 
  L738.561 16.6998 L732.675 16.6998 L732.675 24.9647 L726.789 24.9647 L726.789 36.8105 L720.903 36.8105 L720.903 51.36 L715.017 51.36 L715.017 67.7005 L709.131 67.7005 
  L709.131 84.9633 L703.245 84.9633 L703.245 102.387 L697.36 102.387 L697.36 119.356 L691.474 119.356 L691.474 135.42 L685.588 135.42 L685.588 150.284 L679.702 150.284 
  L679.702 163.793 L673.816 163.793 L673.816 175.897 L667.93 175.897 L667.93 186.618 L662.044 186.618 L662.044 196.024 L656.159 196.024 L656.159 204.193 L650.273 204.193 
  L650.273 211.198 L644.387 211.198 L644.387 217.083 L638.501 217.083 L638.501 221.847 L632.615 221.847 L632.615 225.428 L626.729 225.428 L626.729 227.689 L620.844 227.689 
  L620.844 228.423 L614.958 228.423 L614.958 227.405 L609.072 227.405 L609.072 224.531 L603.186 224.531 L603.186 220.086 L597.3 220.086 L597.3 215.109 L591.414 215.109 
  L591.414 211.681 L585.528 211.681 L585.528 212.826 L579.643 212.826 L579.643 221.654 L573.757 221.654 L573.757 239.762 L567.871 239.762 L567.871 265.63 L561.985 265.63 
  L561.985 294.333 L556.099 294.333 L556.099 319.476 L550.213 319.476 L550.213 336.511 L544.327 336.511 L544.327 344.97 L538.442 344.97 L538.442 347.726 L532.556 347.726 
   Z
  " fill="#e4f0f8" fill-rule="evenodd" fill-opacity="1"/>
<polyline clip-path="url(#clip013)" style="stroke:#000000; stroke-linecap:butt; stroke-linejoin:round; stroke-width:4; stroke-opacity:0; fill:none" points="
  532.556,348.169 538.442,348.169 544.327,348.169 550.213,348.169 556.099,348.169 561.985,348.169 
  567.871,348.169 573.757,348.169 579.643,348.169 585.528,348.169 591.414,348.169 
  597.3,348.169 603.186,348.169 609.072,348.169 614.958,348.169 620.844,348.169 
  626.729,348.169 632.615,348.169 638.501,348.169 644.387,348.169 650.273,348.169 
  656.159,348.169 662.044,348.169 667.93,348.169 673.816,348.169 679.702,348.169 
  685.588,348.169 691.474,348.169 697.36,348.169 703.245,348.169 709.131,348.169 
  715.017,348.169 720.903,348.169 726.789,348.169 732.675,348.169 738.561,348.169 
  744.446,348.169 750.332,348.169 756.218,348.169 762.104,348.169 767.99,348.169 
  773.876,348.169 779.761,348.169 785.647,348.169 791.533,348.169 797.419,348.169 
  803.305,348.169 809.191,348.169 815.077,348.169 820.962,348.169 826.848,348.169 
  832.734,348.169 838.62,348.169 844.506,348.169 850.392,348.169 856.278,348.169 
  862.163,348.169 868.049,348.169 873.935,348.169 879.821,348.169 885.707,348.169 
  891.593,348.169 897.479,348.169 903.364,348.169 909.25,348.169 915.136,348.169 
  921.022,348.169 926.908,348.169 
  "/>
<polyline clip-path="url(#clip013)" style="stroke:#808080; stroke-linecap:butt; stroke-linejoin:round; stroke-width:2; stroke-opacity:0.8; fill:none" points="
  532.556,347.726 538.442,347.726 538.442,344.97 544.327,344.97 544.327,336.511 550.213,336.511 550.213,319.476 556.099,319.476 556.099,294.333 561.985,294.333 
  561.985,265.63 567.871,265.63 567.871,239.762 573.757,239.762 573.757,221.654 579.643,221.654 579.643,212.826 585.528,212.826 585.528,211.681 591.414,211.681 
  591.414,215.109 597.3,215.109 597.3,220.086 603.186,220.086 603.186,224.531 609.072,224.531 609.072,227.405 614.958,227.405 614.958,228.423 620.844,228.423 
  620.844,227.689 626.729,227.689 626.729,225.428 632.615,225.428 632.615,221.847 638.501,221.847 638.501,217.083 644.387,217.083 644.387,211.198 650.273,211.198 
  650.273,204.193 656.159,204.193 656.159,196.024 662.044,196.024 662.044,186.618 667.93,186.618 667.93,175.897 673.816,175.897 673.816,163.793 679.702,163.793 
  679.702,150.284 685.588,150.284 685.588,135.42 691.474,135.42 691.474,119.356 697.36,119.356 697.36,102.387 703.245,102.387 703.245,84.9633 709.131,84.9633 
  709.131,67.7005 715.017,67.7005 715.017,51.36 720.903,51.36 720.903,36.8105 726.789,36.8105 726.789,24.9647 732.675,24.9647 732.675,16.6998 738.561,16.6998 
  738.561,12.7701 744.446,12.7701 744.446,13.7241 750.332,13.7241 750.332,19.8387 756.218,19.8387 756.218,31.0806 762.104,31.0806 762.104,47.1004 767.99,47.1004 
  767.99,67.2621 773.876,67.2621 773.876,90.7017 779.761,90.7017 779.761,116.407 785.647,116.407 785.647,143.308 791.533,143.308 791.533,170.364 797.419,170.364 
  797.419,196.643 803.305,196.643 803.305,221.372 809.191,221.372 809.191,243.975 815.077,243.975 815.077,264.08 820.962,264.08 820.962,281.511 826.848,281.511 
  826.848,296.259 832.734,296.259 832.734,308.448 838.62,308.448 838.62,318.3 844.506,318.3 844.506,326.091 850.392,326.091 850.392,332.125 856.278,332.125 
  856.278,336.705 862.163,336.705 862.163,340.112 868.049,340.112 868.049,342.598 873.935,342.598 873.935,344.379 879.821,344.379 879.821,345.632 885.707,345.632 
  885.707,346.497 891.593,346.497 891.593,347.084 897.479,347.084 897.479,347.476 903.364,347.476 903.364,347.733 909.25,347.733 909.25,347.898 915.136,347.898 
  915.136,348.004 921.022,348.004 921.022,348.069 926.908,348.069 926.908,348.169 
  "/>
<polyline clip-path="url(#clip013)" style="stroke:#0088c3; stroke-linecap:butt; stroke-linejoin:round; stroke-width:6; stroke-opacity:0.9; fill:none" points="
  532.556,347.685 538.442,347.685 538.442,344.833 544.327,344.833 544.327,336.336 550.213,336.336 550.213,319.501 556.099,319.501 556.099,294.854 561.985,294.854 
  561.985,266.852 567.871,266.852 567.871,241.807 573.757,241.807 573.757,224.653 579.643,224.653 579.643,216.925 585.528,216.925 585.528,216.909 591.414,216.909 
  591.414,221.249 597.3,221.249 597.3,226.691 603.186,226.691 603.186,231.073 609.072,231.073 609.072,233.465 614.958,233.465 614.958,233.792 620.844,233.792 
  620.844,232.357 626.729,232.357 626.729,229.497 632.615,229.497 632.615,225.437 638.501,225.437 638.501,220.266 644.387,220.266 644.387,213.993 650.273,213.993 
  650.273,206.59 656.159,206.59 656.159,198.023 662.044,198.023 662.044,188.258 667.93,188.258 667.93,177.255 673.816,177.255 673.816,164.968 679.702,164.968 
  679.702,151.359 685.588,151.359 685.588,136.431 691.474,136.431 691.474,120.269 697.36,120.269 697.36,103.103 703.245,103.103 703.245,85.3453 709.131,85.3453 
  709.131,67.601 715.017,67.601 715.017,50.6763 720.903,50.6763 720.903,35.5049 726.789,35.5049 726.789,23.0802 732.675,23.0802 732.675,14.3567 738.561,14.3567 
  738.561,10.1408 744.446,10.1408 744.446,10.9775 750.332,10.9775 750.332,17.1344 756.218,17.1344 756.218,28.5147 762.104,28.5147 762.104,44.6997 767.99,44.6997 
  767.99,64.9842 773.876,64.9842 773.876,88.4578 779.761,88.4578 779.761,114.075 785.647,114.075 785.647,140.774 791.533,140.774 791.533,167.541 797.419,167.541 
  797.419,193.49 803.305,193.49 803.305,217.897 809.191,217.897 809.191,240.236 815.077,240.236 815.077,260.173 820.962,260.173 820.962,277.553 826.848,277.553 
  826.848,292.369 832.734,292.369 832.734,304.743 838.62,304.743 838.62,314.871 844.506,314.871 844.506,323.005 850.392,323.005 850.392,329.42 856.278,329.42 
  856.278,334.393 862.163,334.393 862.163,338.184 868.049,338.184 868.049,341.027 873.935,341.027 873.935,343.126 879.821,343.126 879.821,344.653 885.707,344.653 
  885.707,345.747 891.593,345.747 891.593,346.52 897.479,346.52 897.479,347.06 903.364,347.06 903.364,347.431 909.25,347.431 909.25,347.683 915.136,347.683 
  915.136,347.853 921.022,347.853 921.022,347.965 926.908,347.965 926.908,348.039 
  "/>
<path clip-path="url(#clip010)" d="
M989.9 348.169 L1384.25 348.169 L1384.25 0 L989.9 0  Z
  " fill="#ffffff" fill-rule="evenodd" fill-opacity="1"/>
<defs>
  <clipPath id="clip014">
    <rect x="989" y="0" width="395" height="349"/>
  </clipPath>
</defs>
<polyline clip-path="url(#clip010)" style="stroke:#000000; stroke-linecap:butt; stroke-linejoin:round; stroke-width:4; stroke-opacity:1; fill:none" points="
  989.9,348.169 1384.25,348.169 
  "/>
<polyline clip-path="url(#clip010)" style="stroke:#000000; stroke-linecap:butt; stroke-linejoin:round; stroke-width:4; stroke-opacity:1; fill:none" points="
  992.247,348.169 992.247,367.067 
  "/>
<polyline clip-path="url(#clip010)" style="stroke:#000000; stroke-linecap:butt; stroke-linejoin:round; stroke-width:4; stroke-opacity:1; fill:none" points="
  1086.14,348.169 1086.14,367.067 
  "/>
<polyline clip-path="url(#clip010)" style="stroke:#000000; stroke-linecap:butt; stroke-linejoin:round; stroke-width:4; stroke-opacity:1; fill:none" points="
  1180.03,348.169 1180.03,367.067 
  "/>
<polyline clip-path="url(#clip010)" style="stroke:#000000; stroke-linecap:butt; stroke-linejoin:round; stroke-width:4; stroke-opacity:1; fill:none" points="
  1273.93,348.169 1273.93,367.067 
  "/>
<polyline clip-path="url(#clip010)" style="stroke:#000000; stroke-linecap:butt; stroke-linejoin:round; stroke-width:4; stroke-opacity:1; fill:none" points="
  1367.82,348.169 1367.82,367.067 
  "/>
<path clip-path="url(#clip010)" d="M992.247 373.758 Q989.539 373.758 988.167 376.432 Q986.813 379.088 986.813 384.435 Q986.813 389.765 988.167 392.438 Q989.539 395.095 992.247 395.095 Q994.973 395.095 996.327 392.438 Q997.699 389.765 997.699 384.435 Q997.699 379.088 996.327 376.432 Q994.973 373.758 992.247 373.758 M992.247 370.98 Q996.605 370.98 998.897 374.435 Q1001.21 377.873 1001.21 384.435 Q1001.21 390.98 998.897 394.435 Q996.605 397.872 992.247 397.872 Q987.89 397.872 985.581 394.435 Q983.289 390.98 983.289 384.435 Q983.289 377.873 985.581 374.435 Q987.89 370.98 992.247 370.98 Z" fill="#000000" fill-rule="evenodd" fill-opacity="1" /><path clip-path="url(#clip010)" d="M1070.22 394.418 L1082.46 394.418 L1082.46 397.369 L1066 397.369 L1066 394.418 Q1068 392.352 1071.44 388.879 Q1074.89 385.39 1075.78 384.383 Q1077.46 382.491 1078.12 381.189 Q1078.8 379.869 1078.8 378.602 Q1078.8 376.536 1077.34 375.234 Q1075.9 373.932 1073.57 373.932 Q1071.92 373.932 1070.08 374.505 Q1068.26 375.077 1066.18 376.241 L1066.18 372.699 Q1068.29 371.848 1070.13 371.414 Q1071.97 370.98 1073.5 370.98 Q1077.53 370.98 1079.93 372.994 Q1082.32 375.008 1082.32 378.376 Q1082.32 379.973 1081.71 381.414 Q1081.12 382.838 1079.54 384.782 Q1079.11 385.286 1076.78 387.699 Q1074.46 390.095 1070.22 394.418 Z" fill="#000000" fill-rule="evenodd" fill-opacity="1" /><path clip-path="url(#clip010)" d="M1097.32 373.758 Q1094.61 373.758 1093.24 376.432 Q1091.89 379.088 1091.89 384.435 Q1091.89 389.765 1093.24 392.438 Q1094.61 395.095 1097.32 395.095 Q1100.05 395.095 1101.4 392.438 Q1102.77 389.765 1102.77 384.435 Q1102.77 379.088 1101.4 376.432 Q1100.05 373.758 1097.32 373.758 M1097.32 370.98 Q1101.68 370.98 1103.97 374.435 Q1106.28 377.873 1106.28 384.435 Q1106.28 390.98 1103.97 394.435 Q1101.68 397.872 1097.32 397.872 Q1092.96 397.872 1090.65 394.435 Q1088.36 390.98 1088.36 384.435 Q1088.36 377.873 1090.65 374.435 Q1092.96 370.98 1097.32 370.98 Z" fill="#000000" fill-rule="evenodd" fill-opacity="1" /><path clip-path="url(#clip010)" d="M1171.16 374.505 L1162.31 388.341 L1171.16 388.341 L1171.16 374.505 M1170.24 371.449 L1174.65 371.449 L1174.65 388.341 L1178.35 388.341 L1178.35 391.258 L1174.65 391.258 L1174.65 397.369 L1171.16 397.369 L1171.16 391.258 L1159.46 391.258 L1159.46 387.873 L1170.24 371.449 Z" fill="#000000" fill-rule="evenodd" fill-opacity="1" /><path clip-path="url(#clip010)" d="M1191.65 373.758 Q1188.94 373.758 1187.57 376.432 Q1186.21 379.088 1186.21 384.435 Q1186.21 389.765 1187.57 392.438 Q1188.94 395.095 1191.65 395.095 Q1194.37 395.095 1195.73 392.438 Q1197.1 389.765 1197.1 384.435 Q1197.1 379.088 1195.73 376.432 Q1194.37 373.758 1191.65 373.758 M1191.65 370.98 Q1196.01 370.98 1198.3 374.435 Q1200.61 377.873 1200.61 384.435 Q1200.61 390.98 1198.3 394.435 Q1196.01 397.872 1191.65 397.872 Q1187.29 397.872 1184.98 394.435 Q1182.69 390.98 1182.69 384.435 Q1182.69 377.873 1184.98 374.435 Q1187.29 370.98 1191.65 370.98 Z" fill="#000000" fill-rule="evenodd" fill-opacity="1" /><path clip-path="url(#clip010)" d="M1262.98 383.011 Q1260.62 383.011 1259.23 384.626 Q1257.86 386.241 1257.86 389.053 Q1257.86 391.848 1259.23 393.48 Q1260.62 395.095 1262.98 395.095 Q1265.34 395.095 1266.71 393.48 Q1268.1 391.848 1268.1 389.053 Q1268.1 386.241 1266.71 384.626 Q1265.34 383.011 1262.98 383.011 M1269.94 372.022 L1269.94 375.216 Q1268.62 374.591 1267.27 374.262 Q1265.93 373.932 1264.61 373.932 Q1261.14 373.932 1259.3 376.275 Q1257.48 378.619 1257.22 383.359 Q1258.24 381.848 1259.79 381.05 Q1261.33 380.234 1263.19 380.234 Q1267.1 380.234 1269.35 382.612 Q1271.63 384.973 1271.63 389.053 Q1271.63 393.046 1269.27 395.459 Q1266.9 397.872 1262.98 397.872 Q1258.48 397.872 1256.11 394.435 Q1253.73 390.98 1253.73 384.435 Q1253.73 378.289 1256.64 374.643 Q1259.56 370.98 1264.47 370.98 Q1265.79 370.98 1267.13 371.241 Q1268.48 371.501 1269.94 372.022 Z" fill="#000000" fill-rule="evenodd" fill-opacity="1" /><path clip-path="url(#clip010)" d="M1285.17 373.758 Q1282.46 373.758 1281.09 376.432 Q1279.73 379.088 1279.73 384.435 Q1279.73 389.765 1281.09 392.438 Q1282.46 395.095 1285.17 395.095 Q1287.89 395.095 1289.25 392.438 Q1290.62 389.765 1290.62 384.435 Q1290.62 379.088 1289.25 376.432 Q1287.89 373.758 1285.17 373.758 M1285.17 370.98 Q1289.53 370.98 1291.82 374.435 Q1294.13 377.873 1294.13 384.435 Q1294.13 390.98 1291.82 394.435 Q1289.53 397.872 1285.17 397.872 Q1280.81 397.872 1278.5 394.435 Q1276.21 390.98 1276.21 384.435 Q1276.21 377.873 1278.5 374.435 Q1280.81 370.98 1285.17 370.98 Z" fill="#000000" fill-rule="evenodd" fill-opacity="1" /><path clip-path="url(#clip010)" d="M1356.48 385.06 Q1353.98 385.06 1352.53 386.397 Q1351.11 387.734 1351.11 390.077 Q1351.11 392.421 1352.53 393.758 Q1353.98 395.095 1356.48 395.095 Q1358.98 395.095 1360.42 393.758 Q1361.86 392.404 1361.86 390.077 Q1361.86 387.734 1360.42 386.397 Q1358.99 385.06 1356.48 385.06 M1352.97 383.567 Q1350.71 383.011 1349.44 381.466 Q1348.19 379.921 1348.19 377.699 Q1348.19 374.591 1350.4 372.786 Q1352.62 370.98 1356.48 370.98 Q1360.35 370.98 1362.55 372.786 Q1364.76 374.591 1364.76 377.699 Q1364.76 379.921 1363.49 381.466 Q1362.24 383.011 1360 383.567 Q1362.53 384.157 1363.94 385.876 Q1365.36 387.595 1365.36 390.077 Q1365.36 393.845 1363.06 395.859 Q1360.76 397.872 1356.48 397.872 Q1352.19 397.872 1349.88 395.859 Q1347.59 393.845 1347.59 390.077 Q1347.59 387.595 1349.01 385.876 Q1350.43 384.157 1352.97 383.567 M1351.68 378.029 Q1351.68 380.043 1352.93 381.171 Q1354.2 382.3 1356.48 382.3 Q1358.73 382.3 1360 381.171 Q1361.28 380.043 1361.28 378.029 Q1361.28 376.015 1360 374.886 Q1358.73 373.758 1356.48 373.758 Q1354.2 373.758 1352.93 374.886 Q1351.68 376.015 1351.68 378.029 Z" fill="#000000" fill-rule="evenodd" fill-opacity="1" /><path clip-path="url(#clip010)" d="M1379.1 373.758 Q1376.39 373.758 1375.02 376.432 Q1373.66 379.088 1373.66 384.435 Q1373.66 389.765 1375.02 392.438 Q1376.39 395.095 1379.1 395.095 Q1381.82 395.095 1383.18 392.438 Q1384.55 389.765 1384.55 384.435 Q1384.55 379.088 1383.18 376.432 Q1381.82 373.758 1379.1 373.758 M1379.1 370.98 Q1383.45 370.98 1385.75 374.435 Q1388.05 377.873 1388.05 384.435 Q1388.05 390.98 1385.75 394.435 Q1383.45 397.872 1379.1 397.872 Q1374.74 397.872 1372.43 394.435 Q1370.14 390.98 1370.14 384.435 Q1370.14 377.873 1372.43 374.435 Q1374.74 370.98 1379.1 370.98 Z" fill="#000000" fill-rule="evenodd" fill-opacity="1" /><polyline clip-path="url(#clip010)" style="stroke:#000000; stroke-linecap:butt; stroke-linejoin:round; stroke-width:4; stroke-opacity:1; fill:none" points="
  989.9,348.169 989.9,0 
  "/>
<path clip-path="url(#clip014)" d="
M989.9 348.169 L994.595 348.169 L994.595 348.169 L999.289 348.169 L999.289 348.169 L1003.98 348.169 L1003.98 348.169 L1008.68 348.169 L1008.68 348.169 L1013.37 348.169 
  L1013.37 348.169 L1018.07 348.169 L1018.07 348.169 L1022.76 348.169 L1022.76 348.169 L1027.46 348.169 L1027.46 348.169 L1032.15 348.169 L1032.15 348.169 L1036.85 348.169 
  L1036.85 348.169 L1041.54 348.169 L1041.54 348.169 L1046.24 348.169 L1046.24 348.169 L1050.93 348.169 L1050.93 348.169 L1055.63 348.169 L1055.63 348.169 L1060.32 348.169 
  L1060.32 348.169 L1065.01 348.169 L1065.01 348.169 L1069.71 348.169 L1069.71 348.169 L1074.4 348.169 L1074.4 348.169 L1079.1 348.169 L1079.1 348.169 L1083.79 348.169 
  L1083.79 348.169 L1088.49 348.169 L1088.49 348.169 L1093.18 348.169 L1093.18 348.169 L1097.88 348.169 L1097.88 348.169 L1102.57 348.169 L1102.57 348.169 L1107.27 348.169 
  L1107.27 348.169 L1111.96 348.169 L1111.96 348.169 L1116.66 348.169 L1116.66 348.169 L1121.35 348.169 L1121.35 348.169 L1126.05 348.169 L1126.05 348.169 L1130.74 348.169 
  L1130.74 348.169 L1135.43 348.169 L1135.43 348.169 L1140.13 348.169 L1140.13 348.169 L1144.82 348.169 L1144.82 348.169 L1149.52 348.169 L1149.52 348.169 L1154.21 348.169 
  L1154.21 348.169 L1158.91 348.169 L1158.91 348.169 L1163.6 348.169 L1163.6 348.169 L1168.3 348.169 L1168.3 348.169 L1172.99 348.169 L1172.99 348.169 L1177.69 348.169 
  L1177.69 348.169 L1182.38 348.169 L1182.38 348.169 L1187.08 348.169 L1187.08 348.169 L1191.77 348.169 L1191.77 348.169 L1196.47 348.169 L1196.47 348.169 L1201.16 348.169 
  L1201.16 348.169 L1205.85 348.169 L1205.85 348.169 L1210.55 348.169 L1210.55 348.169 L1215.24 348.169 L1215.24 348.169 L1219.94 348.169 L1219.94 348.169 L1224.63 348.169 
  L1224.63 348.169 L1229.33 348.169 L1229.33 348.169 L1234.02 348.169 L1234.02 348.169 L1238.72 348.169 L1238.72 348.169 L1243.41 348.169 L1243.41 348.169 L1248.11 348.169 
  L1248.11 348.169 L1252.8 348.169 L1252.8 348.169 L1257.5 348.169 L1257.5 348.169 L1262.19 348.169 L1262.19 348.169 L1266.89 348.169 L1266.89 348.169 L1271.58 348.169 
  L1271.58 348.169 L1276.27 348.169 L1276.27 348.169 L1280.97 348.169 L1280.97 348.169 L1285.66 348.169 L1285.66 348.169 L1290.36 348.169 L1290.36 348.169 L1295.05 348.169 
  L1295.05 348.169 L1299.75 348.169 L1299.75 348.169 L1304.44 348.169 L1304.44 348.169 L1309.14 348.169 L1309.14 348.169 L1313.83 348.169 L1313.83 348.169 L1318.53 348.169 
  L1318.53 348.169 L1323.22 348.169 L1323.22 348.169 L1327.92 348.169 L1327.92 348.169 L1332.61 348.169 L1332.61 348.169 L1337.31 348.169 L1337.31 348.169 L1342 348.169 
  L1342 348.169 L1346.69 348.169 L1346.69 348.169 L1351.39 348.169 L1351.39 348.169 L1356.08 348.169 L1356.08 348.169 L1360.78 348.169 L1360.78 348.169 L1365.47 348.169 
  L1365.47 348.169 L1370.17 348.169 L1370.17 348.169 L1374.86 348.169 L1374.86 348.169 L1379.56 348.169 L1379.56 348.169 L1384.25 348.169 L1384.25 348.169 L1384.25 348.169 
  L1384.25 348.109 L1379.56 348.109 L1379.56 348.074 L1374.86 348.074 L1374.86 348.021 L1370.17 348.021 L1370.17 347.94 L1365.47 347.94 L1365.47 347.82 L1360.78 347.82 
  L1360.78 347.643 L1356.08 347.643 L1356.08 347.386 L1351.39 347.386 L1351.39 347.019 L1346.69 347.019 L1346.69 346.5 L1342 346.5 L1342 345.778 L1337.31 345.778 
  L1337.31 344.787 L1332.61 344.787 L1332.61 343.448 L1327.92 343.448 L1327.92 341.664 L1323.22 341.664 L1323.22 339.326 L1318.53 339.326 L1318.53 336.309 L1313.83 336.309 
  L1313.83 332.478 L1309.14 332.478 L1309.14 327.694 L1304.44 327.694 L1304.44 321.822 L1299.75 321.822 L1299.75 314.74 L1295.05 314.74 L1295.05 306.356 L1290.36 306.356 
  L1290.36 296.617 L1285.66 296.617 L1285.66 285.527 L1280.97 285.527 L1280.97 273.161 L1276.27 273.161 L1276.27 259.675 L1271.58 259.675 L1271.58 245.312 L1266.89 245.312 
  L1266.89 230.403 L1262.19 230.403 L1262.19 215.36 L1257.5 215.36 L1257.5 200.657 L1252.8 200.657 L1252.8 186.808 L1248.11 186.808 L1248.11 174.34 L1243.41 174.34 
  L1243.41 163.749 L1238.72 163.749 L1238.72 155.47 L1234.02 155.47 L1234.02 149.844 L1229.33 149.844 L1229.33 147.085 L1224.63 147.085 L1224.63 147.267 L1219.94 147.267 
  L1219.94 150.317 L1215.24 150.317 L1215.24 156.021 L1210.55 156.021 L1210.55 164.044 L1205.85 164.044 L1205.85 173.957 L1201.16 173.957 L1201.16 185.276 L1196.47 185.276 
  L1196.47 197.497 L1191.77 197.497 L1191.77 210.133 L1187.08 210.133 L1187.08 222.745 L1182.38 222.745 L1182.38 234.963 L1177.69 234.963 L1177.69 246.501 L1172.99 246.501 
  L1172.99 257.162 L1168.3 257.162 L1168.3 266.831 L1163.6 266.831 L1163.6 275.466 L1158.91 275.466 L1158.91 283.081 L1154.21 283.081 L1154.21 289.737 L1149.52 289.737 
  L1149.52 295.517 L1144.82 295.517 L1144.82 300.521 L1140.13 300.521 L1140.13 304.85 L1135.43 304.85 L1135.43 308.601 L1130.74 308.601 L1130.74 311.862 L1126.05 311.862 
  L1126.05 314.71 L1121.35 314.71 L1121.35 317.208 L1116.66 317.208 L1116.66 319.411 L1111.96 319.411 L1111.96 321.36 L1107.27 321.36 L1107.27 323.092 L1102.57 323.092 
  L1102.57 324.634 L1097.88 324.634 L1097.88 326.009 L1093.18 326.009 L1093.18 327.235 L1088.49 327.235 L1088.49 328.326 L1083.79 328.326 L1083.79 329.294 L1079.1 329.294 
  L1079.1 330.148 L1074.4 330.148 L1074.4 330.894 L1069.71 330.894 L1069.71 331.538 L1065.01 331.538 L1065.01 332.081 L1060.32 332.081 L1060.32 332.522 L1055.63 332.522 
  L1055.63 332.858 L1050.93 332.858 L1050.93 333.081 L1046.24 333.081 L1046.24 333.178 L1041.54 333.178 L1041.54 333.124 L1036.85 333.124 L1036.85 332.883 L1032.15 332.883 
  L1032.15 332.389 L1027.46 332.389 L1027.46 331.511 L1022.76 331.511 L1022.76 329.905 L1018.07 329.905 L1018.07 326.344 L1013.37 326.344 L1013.37 316.038 L1008.68 316.038 
  L1008.68 283.134 L1003.98 283.134 L1003.98 194.536 L999.289 194.536 L999.289 48.0562 L994.595 48.0562 L994.595 29.3298 L989.9 29.3298  Z
  " fill="#e4f0f8" fill-rule="evenodd" fill-opacity="1"/>
<polyline clip-path="url(#clip014)" style="stroke:#000000; stroke-linecap:butt; stroke-linejoin:round; stroke-width:4; stroke-opacity:0; fill:none" points="
  989.9,348.169 994.595,348.169 999.289,348.169 1003.98,348.169 1008.68,348.169 1013.37,348.169 
  1018.07,348.169 1022.76,348.169 1027.46,348.169 1032.15,348.169 1036.85,348.169 
  1041.54,348.169 1046.24,348.169 1050.93,348.169 1055.63,348.169 1060.32,348.169 
  1065.01,348.169 1069.71,348.169 1074.4,348.169 1079.1,348.169 1083.79,348.169 
  1088.49,348.169 1093.18,348.169 1097.88,348.169 1102.57,348.169 1107.27,348.169 
  1111.96,348.169 1116.66,348.169 1121.35,348.169 1126.05,348.169 1130.74,348.169 
  1135.43,348.169 1140.13,348.169 1144.82,348.169 1149.52,348.169 1154.21,348.169 
  1158.91,348.169 1163.6,348.169 1168.3,348.169 1172.99,348.169 1177.69,348.169 
  1182.38,348.169 1187.08,348.169 1191.77,348.169 1196.47,348.169 1201.16,348.169 
  1205.85,348.169 1210.55,348.169 1215.24,348.169 1219.94,348.169 1224.63,348.169 
  1229.33,348.169 1234.02,348.169 1238.72,348.169 1243.41,348.169 1248.11,348.169 
  1252.8,348.169 1257.5,348.169 1262.19,348.169 1266.89,348.169 1271.58,348.169 
  1276.27,348.169 1280.97,348.169 1285.66,348.169 1290.36,348.169 1295.05,348.169 
  1299.75,348.169 1304.44,348.169 1309.14,348.169 1313.83,348.169 1318.53,348.169 
  1323.22,348.169 1327.92,348.169 1332.61,348.169 1337.31,348.169 1342,348.169 
  1346.69,348.169 1351.39,348.169 1356.08,348.169 1360.78,348.169 1365.47,348.169 
  1370.17,348.169 1374.86,348.169 1379.56,348.169 1384.25,348.169 
  "/>
<polyline clip-path="url(#clip014)" style="stroke:#808080; stroke-linecap:butt; stroke-linejoin:round; stroke-width:2; stroke-opacity:0.8; fill:none" points="
  989.9,29.3298 994.595,29.3298 994.595,48.0562 999.289,48.0562 999.289,194.536 1003.98,194.536 1003.98,283.134 1008.68,283.134 1008.68,316.038 1013.37,316.038 
  1013.37,326.344 1018.07,326.344 1018.07,329.905 1022.76,329.905 1022.76,331.511 1027.46,331.511 1027.46,332.389 1032.15,332.389 1032.15,332.883 1036.85,332.883 
  1036.85,333.124 1041.54,333.124 1041.54,333.178 1046.24,333.178 1046.24,333.081 1050.93,333.081 1050.93,332.858 1055.63,332.858 1055.63,332.522 1060.32,332.522 
  1060.32,332.081 1065.01,332.081 1065.01,331.538 1069.71,331.538 1069.71,330.894 1074.4,330.894 1074.4,330.148 1079.1,330.148 1079.1,329.294 1083.79,329.294 
  1083.79,328.326 1088.49,328.326 1088.49,327.235 1093.18,327.235 1093.18,326.009 1097.88,326.009 1097.88,324.634 1102.57,324.634 1102.57,323.092 1107.27,323.092 
  1107.27,321.36 1111.96,321.36 1111.96,319.411 1116.66,319.411 1116.66,317.208 1121.35,317.208 1121.35,314.71 1126.05,314.71 1126.05,311.862 1130.74,311.862 
  1130.74,308.601 1135.43,308.601 1135.43,304.85 1140.13,304.85 1140.13,300.521 1144.82,300.521 1144.82,295.517 1149.52,295.517 1149.52,289.737 1154.21,289.737 
  1154.21,283.081 1158.91,283.081 1158.91,275.466 1163.6,275.466 1163.6,266.831 1168.3,266.831 1168.3,257.162 1172.99,257.162 1172.99,246.501 1177.69,246.501 
  1177.69,234.963 1182.38,234.963 1182.38,222.745 1187.08,222.745 1187.08,210.133 1191.77,210.133 1191.77,197.497 1196.47,197.497 1196.47,185.276 1201.16,185.276 
  1201.16,173.957 1205.85,173.957 1205.85,164.044 1210.55,164.044 1210.55,156.021 1215.24,156.021 1215.24,150.317 1219.94,150.317 1219.94,147.267 1224.63,147.267 
  1224.63,147.085 1229.33,147.085 1229.33,149.844 1234.02,149.844 1234.02,155.47 1238.72,155.47 1238.72,163.749 1243.41,163.749 1243.41,174.34 1248.11,174.34 
  1248.11,186.808 1252.8,186.808 1252.8,200.657 1257.5,200.657 1257.5,215.36 1262.19,215.36 1262.19,230.403 1266.89,230.403 1266.89,245.312 1271.58,245.312 
  1271.58,259.675 1276.27,259.675 1276.27,273.161 1280.97,273.161 1280.97,285.527 1285.66,285.527 1285.66,296.617 1290.36,296.617 1290.36,306.356 1295.05,306.356 
  1295.05,314.74 1299.75,314.74 1299.75,321.822 1304.44,321.822 1304.44,327.694 1309.14,327.694 1309.14,332.478 1313.83,332.478 1313.83,336.309 1318.53,336.309 
  1318.53,339.326 1323.22,339.326 1323.22,341.664 1327.92,341.664 1327.92,343.448 1332.61,343.448 1332.61,344.787 1337.31,344.787 1337.31,345.778 1342,345.778 
  1342,346.5 1346.69,346.5 1346.69,347.019 1351.39,347.019 1351.39,347.386 1356.08,347.386 1356.08,347.643 1360.78,347.643 1360.78,347.82 1365.47,347.82 
  1365.47,347.94 1370.17,347.94 1370.17,348.021 1374.86,348.021 1374.86,348.074 1379.56,348.074 1379.56,348.109 1384.25,348.109 1384.25,348.169 
  "/>
<polyline clip-path="url(#clip014)" style="stroke:#0088c3; stroke-linecap:butt; stroke-linejoin:round; stroke-width:6; stroke-opacity:0.9; fill:none" points="
  989.9,10.1408 994.595,10.1408 994.595,32.351 999.289,32.351 999.289,187.224 1003.98,187.224 1003.98,282.991 1008.68,282.991 1008.68,318.336 1013.37,318.336 
  1013.37,327.874 1018.07,327.874 1018.07,329.916 1022.76,329.916 1022.76,330.386 1027.46,330.386 1027.46,330.707 1032.15,330.707 1032.15,331.117 1036.85,331.117 
  1036.85,331.609 1041.54,331.609 1041.54,332.128 1046.24,332.128 1046.24,332.618 1050.93,332.618 1050.93,333.022 1055.63,333.022 1055.63,333.286 1060.32,333.286 
  1060.32,333.363 1065.01,333.363 1065.01,333.209 1069.71,333.209 1069.71,332.791 1074.4,332.791 1074.4,332.087 1079.1,332.087 1079.1,331.088 1083.79,331.088 
  1083.79,329.798 1088.49,329.798 1088.49,328.237 1093.18,328.237 1093.18,326.436 1097.88,326.436 1097.88,324.435 1102.57,324.435 1102.57,322.28 1107.27,322.28 
  1107.27,320.015 1111.96,320.015 1111.96,317.676 1116.66,317.676 1116.66,315.284 1121.35,315.284 1121.35,312.835 1126.05,312.835 1126.05,310.294 1130.74,310.294 
  1130.74,307.589 1135.43,307.589 1135.43,304.61 1140.13,304.61 1140.13,301.211 1144.82,301.211 1144.82,297.214 1149.52,297.214 1149.52,292.423 1154.21,292.423 
  1154.21,286.646 1158.91,286.646 1158.91,279.709 1163.6,279.709 1163.6,271.492 1168.3,271.492 1168.3,261.941 1172.99,261.941 1172.99,251.103 1177.69,251.103 
  1177.69,239.13 1182.38,239.13 1182.38,226.29 1187.08,226.29 1187.08,212.963 1191.77,212.963 1191.77,199.619 1196.47,199.619 1196.47,186.795 1201.16,186.795 
  1201.16,175.052 1205.85,175.052 1205.85,164.947 1210.55,164.947 1210.55,156.961 1215.24,156.961 1215.24,151.52 1219.94,151.52 1219.94,148.882 1224.63,148.882 
  1224.63,149.191 1229.33,149.191 1229.33,152.443 1234.02,152.443 1234.02,158.477 1238.72,158.477 1238.72,167.011 1243.41,167.011 1243.41,177.659 1248.11,177.659 
  1248.11,189.973 1252.8,189.973 1252.8,203.467 1257.5,203.467 1257.5,217.644 1262.19,217.644 1262.19,232.035 1266.89,232.035 1266.89,246.222 1271.58,246.222 
  1271.58,259.849 1276.27,259.849 1276.27,272.645 1280.97,272.645 1280.97,284.405 1285.66,284.405 1285.66,295.001 1290.36,295.001 1290.36,304.375 1295.05,304.375 
  1295.05,312.526 1299.75,312.526 1299.75,319.496 1304.44,319.496 1304.44,325.365 1309.14,325.365 1309.14,330.235 1313.83,330.235 1313.83,334.216 1318.53,334.216 
  1318.53,337.427 1323.22,337.427 1323.22,339.983 1327.92,339.983 1327.92,341.992 1332.61,341.992 1332.61,343.552 1337.31,343.552 1337.31,344.749 1342,344.749 
  1342,345.656 1346.69,345.656 1346.69,346.338 1351.39,346.338 1351.39,346.844 1356.08,346.844 1356.08,347.216 1360.78,347.216 1360.78,347.487 1365.47,347.487 
  1365.47,347.683 1370.17,347.683 1370.17,347.824 1374.86,347.824 1374.86,347.924 1379.56,347.924 1379.56,347.995 1384.25,347.995 1384.25,348.045 
  "/>
</svg>
