<?xml version="1.0" encoding="utf-8"?>
<svg xmlns="http://www.w3.org/2000/svg" xmlns:xlink="http://www.w3.org/1999/xlink" width="290" height="130" viewBox="0 0 1160 520">
<defs>
  <clipPath id="clip530">
    <rect x="0" y="0" width="1160" height="520"/>
  </clipPath>
</defs>
<path clip-path="url(#clip530)" d="
M0 520 L1160 520 L1160 0 L0 0  Z
  " fill="#ffffff" fill-rule="evenodd" fill-opacity="1"/>
<defs>
  <clipPath id="clip531">
    <rect x="232" y="0" width="813" height="520"/>
  </clipPath>
</defs>
<path clip-path="url(#clip530)" d="
M150.734 416.95 L1160 416.95 L1160 15.748 L150.734 15.748  Z
  " fill="#ffffff" fill-rule="evenodd" fill-opacity="1"/>
<defs>
  <clipPath id="clip532">
    <rect x="150" y="15" width="1010" height="402"/>
  </clipPath>
</defs>
<polyline clip-path="url(#clip530)" style="stroke:#000000; stroke-linecap:butt; stroke-linejoin:round; stroke-width:4; stroke-opacity:1; fill:none" points="
  150.734,416.95 1160,416.95 
  "/>
<polyline clip-path="url(#clip530)" style="stroke:#000000; stroke-linecap:butt; stroke-linejoin:round; stroke-width:4; stroke-opacity:1; fill:none" points="
  179.299,416.95 179.299,435.848 
  "/>
<polyline clip-path="url(#clip530)" style="stroke:#000000; stroke-linecap:butt; stroke-linejoin:round; stroke-width:4; stroke-opacity:1; fill:none" points="
  285.092,416.95 285.092,435.848 
  "/>
<polyline clip-path="url(#clip530)" style="stroke:#000000; stroke-linecap:butt; stroke-linejoin:round; stroke-width:4; stroke-opacity:1; fill:none" points="
  390.885,416.95 390.885,435.848 
  "/>
<polyline clip-path="url(#clip530)" style="stroke:#000000; stroke-linecap:butt; stroke-linejoin:round; stroke-width:4; stroke-opacity:1; fill:none" points="
  496.678,416.95 496.678,435.848 
  "/>
<polyline clip-path="url(#clip530)" style="stroke:#000000; stroke-linecap:butt; stroke-linejoin:round; stroke-width:4; stroke-opacity:1; fill:none" points="
  602.471,416.95 602.471,435.848 
  "/>
<polyline clip-path="url(#clip530)" style="stroke:#000000; stroke-linecap:butt; stroke-linejoin:round; stroke-width:4; stroke-opacity:1; fill:none" points="
  708.264,416.95 708.264,435.848 
  "/>
<polyline clip-path="url(#clip530)" style="stroke:#000000; stroke-linecap:butt; stroke-linejoin:round; stroke-width:4; stroke-opacity:1; fill:none" points="
  814.057,416.95 814.057,435.848 
  "/>
<polyline clip-path="url(#clip530)" style="stroke:#000000; stroke-linecap:butt; stroke-linejoin:round; stroke-width:4; stroke-opacity:1; fill:none" points="
  919.85,416.95 919.85,435.848 
  "/>
<polyline clip-path="url(#clip530)" style="stroke:#000000; stroke-linecap:butt; stroke-linejoin:round; stroke-width:4; stroke-opacity:1; fill:none" points="
  1025.64,416.95 1025.64,435.848 
  "/>
<polyline clip-path="url(#clip530)" style="stroke:#000000; stroke-linecap:butt; stroke-linejoin:round; stroke-width:4; stroke-opacity:1; fill:none" points="
  1131.44,416.95 1131.44,435.848 
  "/>
<path clip-path="url(#clip530)" d="M172.085 460.319 L177.814 460.319 L177.814 440.544 L171.582 441.794 L171.582 438.6 L177.779 437.35 L181.286 437.35 L181.286 460.319 L187.016 460.319 L187.016 463.27 L172.085 463.27 L172.085 460.319 Z" fill="#000000" fill-rule="evenodd" fill-opacity="1" /><path clip-path="url(#clip530)" d="M281.081 460.319 L293.321 460.319 L293.321 463.27 L276.862 463.27 L276.862 460.319 Q278.859 458.253 282.296 454.78 Q285.751 451.291 286.637 450.284 Q288.321 448.392 288.98 447.089 Q289.658 445.77 289.658 444.503 Q289.658 442.437 288.199 441.135 Q286.758 439.833 284.432 439.833 Q282.783 439.833 280.942 440.405 Q279.119 440.978 277.036 442.142 L277.036 438.6 Q279.154 437.749 280.994 437.315 Q282.835 436.881 284.362 436.881 Q288.39 436.881 290.786 438.895 Q293.182 440.909 293.182 444.277 Q293.182 445.874 292.574 447.315 Q291.984 448.739 290.404 450.683 Q289.97 451.187 287.644 453.6 Q285.317 455.996 281.081 460.319 Z" fill="#000000" fill-rule="evenodd" fill-opacity="1" /><path clip-path="url(#clip530)" d="M394.07 449.294 Q396.588 449.833 397.994 451.534 Q399.418 453.235 399.418 455.735 Q399.418 459.572 396.779 461.673 Q394.14 463.773 389.279 463.773 Q387.647 463.773 385.911 463.444 Q384.192 463.131 382.352 462.489 L382.352 459.103 Q383.81 459.954 385.546 460.388 Q387.282 460.822 389.175 460.822 Q392.473 460.822 394.192 459.52 Q395.928 458.218 395.928 455.735 Q395.928 453.444 394.313 452.159 Q392.716 450.857 389.852 450.857 L386.831 450.857 L386.831 447.975 L389.991 447.975 Q392.577 447.975 393.949 446.951 Q395.32 445.909 395.32 443.964 Q395.32 441.968 393.897 440.909 Q392.491 439.833 389.852 439.833 Q388.411 439.833 386.761 440.145 Q385.112 440.458 383.133 441.117 L383.133 437.992 Q385.129 437.437 386.866 437.159 Q388.619 436.881 390.164 436.881 Q394.157 436.881 396.484 438.704 Q398.81 440.51 398.81 443.6 Q398.81 445.753 397.577 447.246 Q396.345 448.721 394.07 449.294 Z" fill="#000000" fill-rule="evenodd" fill-opacity="1" /><path clip-path="url(#clip530)" d="M498.935 440.405 L490.08 454.242 L498.935 454.242 L498.935 440.405 M498.014 437.35 L502.424 437.35 L502.424 454.242 L506.122 454.242 L506.122 457.159 L502.424 457.159 L502.424 463.27 L498.935 463.27 L498.935 457.159 L487.233 457.159 L487.233 453.773 L498.014 437.35 Z" fill="#000000" fill-rule="evenodd" fill-opacity="1" /><path clip-path="url(#clip530)" d="M595.179 437.35 L608.946 437.35 L608.946 440.301 L598.391 440.301 L598.391 446.655 Q599.155 446.395 599.919 446.274 Q600.683 446.135 601.446 446.135 Q605.787 446.135 608.321 448.513 Q610.856 450.892 610.856 454.954 Q610.856 459.138 608.252 461.464 Q605.648 463.773 600.908 463.773 Q599.276 463.773 597.575 463.496 Q595.891 463.218 594.085 462.662 L594.085 459.138 Q595.648 459.989 597.314 460.405 Q598.981 460.822 600.839 460.822 Q603.842 460.822 605.596 459.242 Q607.349 457.662 607.349 454.954 Q607.349 452.246 605.596 450.666 Q603.842 449.086 600.839 449.086 Q599.433 449.086 598.026 449.398 Q596.637 449.711 595.179 450.371 L595.179 437.35 Z" fill="#000000" fill-rule="evenodd" fill-opacity="1" /><path clip-path="url(#clip530)" d="M708.568 448.912 Q706.206 448.912 704.818 450.527 Q703.446 452.142 703.446 454.954 Q703.446 457.749 704.818 459.381 Q706.206 460.996 708.568 460.996 Q710.929 460.996 712.3 459.381 Q713.689 457.749 713.689 454.954 Q713.689 452.142 712.3 450.527 Q710.929 448.912 708.568 448.912 M715.529 437.923 L715.529 441.117 Q714.21 440.492 712.856 440.162 Q711.519 439.833 710.2 439.833 Q706.727 439.833 704.887 442.176 Q703.064 444.52 702.804 449.26 Q703.828 447.749 705.373 446.951 Q706.918 446.135 708.776 446.135 Q712.682 446.135 714.939 448.513 Q717.213 450.874 717.213 454.954 Q717.213 458.947 714.852 461.36 Q712.491 463.773 708.568 463.773 Q704.071 463.773 701.693 460.336 Q699.314 456.881 699.314 450.336 Q699.314 444.19 702.231 440.544 Q705.147 436.881 710.061 436.881 Q711.38 436.881 712.717 437.142 Q714.071 437.402 715.529 437.923 Z" fill="#000000" fill-rule="evenodd" fill-opacity="1" /><path clip-path="url(#clip530)" d="M805.723 437.35 L822.39 437.35 L822.39 438.843 L812.98 463.27 L809.317 463.27 L818.171 440.301 L805.723 440.301 L805.723 437.35 Z" fill="#000000" fill-rule="evenodd" fill-opacity="1" /><path clip-path="url(#clip530)" d="M919.85 450.961 Q917.35 450.961 915.909 452.298 Q914.485 453.635 914.485 455.978 Q914.485 458.322 915.909 459.659 Q917.35 460.996 919.85 460.996 Q922.35 460.996 923.791 459.659 Q925.232 458.305 925.232 455.978 Q925.232 453.635 923.791 452.298 Q922.367 450.961 919.85 450.961 M916.343 449.468 Q914.086 448.912 912.819 447.367 Q911.569 445.822 911.569 443.6 Q911.569 440.492 913.773 438.687 Q915.996 436.881 919.85 436.881 Q923.721 436.881 925.926 438.687 Q928.131 440.492 928.131 443.6 Q928.131 445.822 926.864 447.367 Q925.614 448.912 923.374 449.468 Q925.909 450.058 927.315 451.777 Q928.739 453.496 928.739 455.978 Q928.739 459.746 926.43 461.76 Q924.138 463.773 919.85 463.773 Q915.562 463.773 913.253 461.76 Q910.961 459.746 910.961 455.978 Q910.961 453.496 912.385 451.777 Q913.808 450.058 916.343 449.468 M915.058 443.93 Q915.058 445.944 916.308 447.072 Q917.576 448.201 919.85 448.201 Q922.107 448.201 923.374 447.072 Q924.659 445.944 924.659 443.93 Q924.659 441.916 923.374 440.787 Q922.107 439.659 919.85 439.659 Q917.576 439.659 916.308 440.787 Q915.058 441.916 915.058 443.93 Z" fill="#000000" fill-rule="evenodd" fill-opacity="1" /><path clip-path="url(#clip530)" d="M1018.37 462.732 L1018.37 459.537 Q1019.69 460.162 1021.04 460.492 Q1022.4 460.822 1023.7 460.822 Q1027.17 460.822 1028.99 458.496 Q1030.83 456.152 1031.09 451.395 Q1030.09 452.888 1028.54 453.687 Q1027 454.485 1025.12 454.485 Q1021.23 454.485 1018.96 452.142 Q1016.7 449.78 1016.7 445.701 Q1016.7 441.708 1019.06 439.294 Q1021.42 436.881 1025.35 436.881 Q1029.84 436.881 1032.21 440.336 Q1034.58 443.774 1034.58 450.336 Q1034.58 456.464 1031.67 460.128 Q1028.77 463.773 1023.85 463.773 Q1022.54 463.773 1021.18 463.513 Q1019.83 463.253 1018.37 462.732 M1025.35 451.742 Q1027.71 451.742 1029.08 450.128 Q1030.47 448.513 1030.47 445.701 Q1030.47 442.905 1029.08 441.291 Q1027.71 439.659 1025.35 439.659 Q1022.99 439.659 1021.6 441.291 Q1020.23 442.905 1020.23 445.701 Q1020.23 448.513 1021.6 450.128 Q1022.99 451.742 1025.35 451.742 Z" fill="#000000" fill-rule="evenodd" fill-opacity="1" /><path clip-path="url(#clip530)" d="M1112.45 460.319 L1118.18 460.319 L1118.18 440.544 L1111.95 441.794 L1111.95 438.6 L1118.15 437.35 L1121.65 437.35 L1121.65 460.319 L1127.38 460.319 L1127.38 463.27 L1112.45 463.27 L1112.45 460.319 Z" fill="#000000" fill-rule="evenodd" fill-opacity="1" /><path clip-path="url(#clip530)" d="M1141.97 439.659 Q1139.26 439.659 1137.89 442.333 Q1136.53 444.989 1136.53 450.336 Q1136.53 455.666 1137.89 458.339 Q1139.26 460.996 1141.97 460.996 Q1144.69 460.996 1146.05 458.339 Q1147.42 455.666 1147.42 450.336 Q1147.42 444.989 1146.05 442.333 Q1144.69 439.659 1141.97 439.659 M1141.97 436.881 Q1146.32 436.881 1148.61 440.336 Q1150.92 443.774 1150.92 450.336 Q1150.92 456.881 1148.61 460.336 Q1146.32 463.773 1141.97 463.773 Q1137.61 463.773 1135.3 460.336 Q1133.01 456.881 1133.01 450.336 Q1133.01 443.774 1135.3 440.336 Q1137.61 436.881 1141.97 436.881 Z" fill="#000000" fill-rule="evenodd" fill-opacity="1" /><path clip-path="url(#clip530)" d="M391.957 492.598 L391.957 504.334 L388.763 504.334 L388.763 492.702 Q388.763 489.942 387.686 488.57 Q386.61 487.199 384.457 487.199 Q381.87 487.199 380.377 488.848 Q378.884 490.497 378.884 493.344 L378.884 504.334 L375.673 504.334 L375.673 484.89 L378.884 484.89 L378.884 487.91 Q380.03 486.157 381.575 485.289 Q383.138 484.421 385.169 484.421 Q388.52 484.421 390.238 486.504 Q391.957 488.57 391.957 492.598 Z" fill="#000000" fill-rule="evenodd" fill-opacity="1" /><path clip-path="url(#clip530)" d="M397.999 496.66 L397.999 484.89 L401.193 484.89 L401.193 496.539 Q401.193 499.299 402.27 500.688 Q403.346 502.06 405.499 502.06 Q408.086 502.06 409.579 500.41 Q411.089 498.761 411.089 495.914 L411.089 484.89 L414.283 484.89 L414.283 504.334 L411.089 504.334 L411.089 501.348 Q409.926 503.119 408.381 503.987 Q406.853 504.837 404.822 504.837 Q401.471 504.837 399.735 502.754 Q397.999 500.671 397.999 496.66 M406.037 484.421 L406.037 484.421 Z" fill="#000000" fill-rule="evenodd" fill-opacity="1" /><path clip-path="url(#clip530)" d="M436.002 488.622 Q437.2 486.469 438.867 485.445 Q440.533 484.421 442.79 484.421 Q445.828 484.421 447.478 486.556 Q449.127 488.674 449.127 492.598 L449.127 504.334 L445.915 504.334 L445.915 492.702 Q445.915 489.907 444.926 488.553 Q443.936 487.199 441.905 487.199 Q439.422 487.199 437.981 488.848 Q436.54 490.497 436.54 493.344 L436.54 504.334 L433.328 504.334 L433.328 492.702 Q433.328 489.89 432.339 488.553 Q431.349 487.199 429.283 487.199 Q426.835 487.199 425.395 488.865 Q423.954 490.515 423.954 493.344 L423.954 504.334 L420.742 504.334 L420.742 484.89 L423.954 484.89 L423.954 487.91 Q425.047 486.122 426.575 485.272 Q428.103 484.421 430.204 484.421 Q432.322 484.421 433.797 485.497 Q435.29 486.574 436.002 488.622 Z" fill="#000000" fill-rule="evenodd" fill-opacity="1" /><path clip-path="url(#clip530)" d="M469.457 494.629 Q469.457 491.105 467.998 489.108 Q466.557 487.094 464.023 487.094 Q461.488 487.094 460.03 489.108 Q458.589 491.105 458.589 494.629 Q458.589 498.153 460.03 500.167 Q461.488 502.164 464.023 502.164 Q466.557 502.164 467.998 500.167 Q469.457 498.153 469.457 494.629 M458.589 487.841 Q459.596 486.105 461.123 485.272 Q462.669 484.421 464.804 484.421 Q468.346 484.421 470.551 487.233 Q472.773 490.046 472.773 494.629 Q472.773 499.212 470.551 502.025 Q468.346 504.837 464.804 504.837 Q462.669 504.837 461.123 504.004 Q459.596 503.153 458.589 501.417 L458.589 504.334 L455.377 504.334 L455.377 477.32 L458.589 477.32 L458.589 487.841 Z" fill="#000000" fill-rule="evenodd" fill-opacity="1" /><path clip-path="url(#clip530)" d="M494.7 493.813 L494.7 495.376 L480.012 495.376 Q480.221 498.674 481.991 500.41 Q483.78 502.129 486.957 502.129 Q488.797 502.129 490.516 501.678 Q492.252 501.226 493.953 500.324 L493.953 503.344 Q492.234 504.074 490.429 504.455 Q488.623 504.837 486.766 504.837 Q482.113 504.837 479.387 502.129 Q476.679 499.421 476.679 494.803 Q476.679 490.028 479.248 487.233 Q481.835 484.421 486.21 484.421 Q490.134 484.421 492.408 486.956 Q494.7 489.473 494.7 493.813 M491.505 492.876 Q491.471 490.254 490.03 488.692 Q488.606 487.129 486.245 487.129 Q483.571 487.129 481.957 488.64 Q480.359 490.15 480.116 492.893 L491.505 492.876 Z" fill="#000000" fill-rule="evenodd" fill-opacity="1" /><path clip-path="url(#clip530)" d="M511.21 487.876 Q510.672 487.563 510.029 487.424 Q509.404 487.268 508.641 487.268 Q505.932 487.268 504.474 489.039 Q503.033 490.792 503.033 494.091 L503.033 504.334 L499.821 504.334 L499.821 484.89 L503.033 484.89 L503.033 487.91 Q504.04 486.14 505.654 485.289 Q507.269 484.421 509.578 484.421 Q509.908 484.421 510.307 484.473 Q510.707 484.508 511.193 484.594 L511.21 487.876 Z" fill="#000000" fill-rule="evenodd" fill-opacity="1" /><path clip-path="url(#clip530)" d="M533.397 487.129 Q530.828 487.129 529.335 489.143 Q527.842 491.14 527.842 494.629 Q527.842 498.119 529.318 500.133 Q530.811 502.129 533.397 502.129 Q535.949 502.129 537.443 500.115 Q538.936 498.101 538.936 494.629 Q538.936 491.174 537.443 489.16 Q535.949 487.129 533.397 487.129 M533.397 484.421 Q537.564 484.421 539.943 487.129 Q542.321 489.837 542.321 494.629 Q542.321 499.403 539.943 502.129 Q537.564 504.837 533.397 504.837 Q529.213 504.837 526.835 502.129 Q524.474 499.403 524.474 494.629 Q524.474 489.837 526.835 487.129 Q529.213 484.421 533.397 484.421 Z" fill="#000000" fill-rule="evenodd" fill-opacity="1" /><path clip-path="url(#clip530)" d="M557.46 477.32 L557.46 479.976 L554.404 479.976 Q552.685 479.976 552.008 480.671 Q551.349 481.365 551.349 483.171 L551.349 484.89 L556.609 484.89 L556.609 487.372 L551.349 487.372 L551.349 504.334 L548.137 504.334 L548.137 487.372 L545.081 487.372 L545.081 484.89 L548.137 484.89 L548.137 483.535 Q548.137 480.289 549.647 478.813 Q551.158 477.32 554.439 477.32 L557.46 477.32 Z" fill="#000000" fill-rule="evenodd" fill-opacity="1" /><path clip-path="url(#clip530)" d="M586.574 488.622 Q587.772 486.469 589.439 485.445 Q591.105 484.421 593.362 484.421 Q596.401 484.421 598.05 486.556 Q599.699 488.674 599.699 492.598 L599.699 504.334 L596.487 504.334 L596.487 492.702 Q596.487 489.907 595.498 488.553 Q594.508 487.199 592.477 487.199 Q589.994 487.199 588.553 488.848 Q587.112 490.497 587.112 493.344 L587.112 504.334 L583.901 504.334 L583.901 492.702 Q583.901 489.89 582.911 488.553 Q581.921 487.199 579.855 487.199 Q577.408 487.199 575.967 488.865 Q574.526 490.515 574.526 493.344 L574.526 504.334 L571.314 504.334 L571.314 484.89 L574.526 484.89 L574.526 487.91 Q575.619 486.122 577.147 485.272 Q578.675 484.421 580.776 484.421 Q582.894 484.421 584.369 485.497 Q585.862 486.574 586.574 488.622 Z" fill="#000000" fill-rule="evenodd" fill-opacity="1" /><path clip-path="url(#clip530)" d="M606.071 484.89 L609.265 484.89 L609.265 504.334 L606.071 504.334 L606.071 484.89 M606.071 477.32 L609.265 477.32 L609.265 481.365 L606.071 481.365 L606.071 477.32 Z" fill="#000000" fill-rule="evenodd" fill-opacity="1" /><path clip-path="url(#clip530)" d="M632.112 484.89 L625.081 494.351 L632.477 504.334 L628.709 504.334 L623.05 496.695 L617.39 504.334 L613.623 504.334 L621.175 494.16 L614.265 484.89 L618.032 484.89 L623.189 491.817 L628.345 484.89 L632.112 484.89 Z" fill="#000000" fill-rule="evenodd" fill-opacity="1" /><path clip-path="url(#clip530)" d="M640.15 479.369 L640.15 484.89 L646.73 484.89 L646.73 487.372 L640.15 487.372 L640.15 497.928 Q640.15 500.306 640.793 500.983 Q641.452 501.66 643.449 501.66 L646.73 501.66 L646.73 504.334 L643.449 504.334 Q639.751 504.334 638.345 502.962 Q636.939 501.574 636.939 497.928 L636.939 487.372 L634.595 487.372 L634.595 484.89 L636.939 484.89 L636.939 479.369 L640.15 479.369 Z" fill="#000000" fill-rule="evenodd" fill-opacity="1" /><path clip-path="url(#clip530)" d="M650.602 496.66 L650.602 484.89 L653.796 484.89 L653.796 496.539 Q653.796 499.299 654.872 500.688 Q655.949 502.06 658.102 502.06 Q660.688 502.06 662.181 500.41 Q663.692 498.761 663.692 495.914 L663.692 484.89 L666.886 484.89 L666.886 504.334 L663.692 504.334 L663.692 501.348 Q662.529 503.119 660.984 503.987 Q659.456 504.837 657.425 504.837 Q654.074 504.837 652.338 502.754 Q650.602 500.671 650.602 496.66 M658.64 484.421 L658.64 484.421 Z" fill="#000000" fill-rule="evenodd" fill-opacity="1" /><path clip-path="url(#clip530)" d="M684.733 487.876 Q684.195 487.563 683.553 487.424 Q682.928 487.268 682.164 487.268 Q679.456 487.268 677.997 489.039 Q676.556 490.792 676.556 494.091 L676.556 504.334 L673.345 504.334 L673.345 484.89 L676.556 484.89 L676.556 487.91 Q677.563 486.14 679.178 485.289 Q680.792 484.421 683.101 484.421 Q683.431 484.421 683.831 484.473 Q684.23 484.508 684.716 484.594 L684.733 487.876 Z" fill="#000000" fill-rule="evenodd" fill-opacity="1" /><path clip-path="url(#clip530)" d="M703.935 493.813 L703.935 495.376 L689.247 495.376 Q689.456 498.674 691.226 500.41 Q693.015 502.129 696.192 502.129 Q698.032 502.129 699.751 501.678 Q701.487 501.226 703.188 500.324 L703.188 503.344 Q701.469 504.074 699.664 504.455 Q697.858 504.837 696.001 504.837 Q691.348 504.837 688.622 502.129 Q685.914 499.421 685.914 494.803 Q685.914 490.028 688.483 487.233 Q691.07 484.421 695.445 484.421 Q699.369 484.421 701.643 486.956 Q703.935 489.473 703.935 493.813 M700.74 492.876 Q700.706 490.254 699.265 488.692 Q697.841 487.129 695.48 487.129 Q692.806 487.129 691.192 488.64 Q689.594 490.15 689.351 492.893 L700.74 492.876 Z" fill="#000000" fill-rule="evenodd" fill-opacity="1" /><path clip-path="url(#clip530)" d="M734.473 485.636 L734.473 488.622 Q733.119 487.876 731.747 487.511 Q730.393 487.129 729.004 487.129 Q725.896 487.129 724.178 489.108 Q722.459 491.07 722.459 494.629 Q722.459 498.188 724.178 500.167 Q725.896 502.129 729.004 502.129 Q730.393 502.129 731.747 501.765 Q733.119 501.383 734.473 500.636 L734.473 503.587 Q733.136 504.212 731.695 504.525 Q730.271 504.837 728.657 504.837 Q724.264 504.837 721.678 502.077 Q719.091 499.317 719.091 494.629 Q719.091 489.872 721.695 487.147 Q724.317 484.421 728.865 484.421 Q730.341 484.421 731.747 484.733 Q733.153 485.028 734.473 485.636 Z" fill="#000000" fill-rule="evenodd" fill-opacity="1" /><path clip-path="url(#clip530)" d="M747.563 487.129 Q744.993 487.129 743.5 489.143 Q742.007 491.14 742.007 494.629 Q742.007 498.119 743.483 500.133 Q744.976 502.129 747.563 502.129 Q750.115 502.129 751.608 500.115 Q753.101 498.101 753.101 494.629 Q753.101 491.174 751.608 489.16 Q750.115 487.129 747.563 487.129 M747.563 484.421 Q751.73 484.421 754.108 487.129 Q756.486 489.837 756.486 494.629 Q756.486 499.403 754.108 502.129 Q751.73 504.837 747.563 504.837 Q743.379 504.837 741 502.129 Q738.639 499.403 738.639 494.629 Q738.639 489.837 741 487.129 Q743.379 484.421 747.563 484.421 Z" fill="#000000" fill-rule="evenodd" fill-opacity="1" /><path clip-path="url(#clip530)" d="M776.92 488.622 Q778.118 486.469 779.785 485.445 Q781.452 484.421 783.709 484.421 Q786.747 484.421 788.396 486.556 Q790.045 488.674 790.045 492.598 L790.045 504.334 L786.834 504.334 L786.834 492.702 Q786.834 489.907 785.844 488.553 Q784.854 487.199 782.823 487.199 Q780.341 487.199 778.9 488.848 Q777.459 490.497 777.459 493.344 L777.459 504.334 L774.247 504.334 L774.247 492.702 Q774.247 489.89 773.257 488.553 Q772.268 487.199 770.202 487.199 Q767.754 487.199 766.313 488.865 Q764.872 490.515 764.872 493.344 L764.872 504.334 L761.66 504.334 L761.66 484.89 L764.872 484.89 L764.872 487.91 Q765.966 486.122 767.493 485.272 Q769.021 484.421 771.122 484.421 Q773.24 484.421 774.716 485.497 Q776.209 486.574 776.92 488.622 Z" fill="#000000" fill-rule="evenodd" fill-opacity="1" /><path clip-path="url(#clip530)" d="M799.507 501.417 L799.507 511.73 L796.295 511.73 L796.295 484.89 L799.507 484.89 L799.507 487.841 Q800.514 486.105 802.042 485.272 Q803.587 484.421 805.722 484.421 Q809.264 484.421 811.469 487.233 Q813.691 490.046 813.691 494.629 Q813.691 499.212 811.469 502.025 Q809.264 504.837 805.722 504.837 Q803.587 504.837 802.042 504.004 Q800.514 503.153 799.507 501.417 M810.375 494.629 Q810.375 491.105 808.917 489.108 Q807.476 487.094 804.941 487.094 Q802.406 487.094 800.948 489.108 Q799.507 491.105 799.507 494.629 Q799.507 498.153 800.948 500.167 Q802.406 502.164 804.941 502.164 Q807.476 502.164 808.917 500.167 Q810.375 498.153 810.375 494.629 Z" fill="#000000" fill-rule="evenodd" fill-opacity="1" /><path clip-path="url(#clip530)" d="M826.521 487.129 Q823.951 487.129 822.458 489.143 Q820.965 491.14 820.965 494.629 Q820.965 498.119 822.441 500.133 Q823.934 502.129 826.521 502.129 Q829.073 502.129 830.566 500.115 Q832.059 498.101 832.059 494.629 Q832.059 491.174 830.566 489.16 Q829.073 487.129 826.521 487.129 M826.521 484.421 Q830.687 484.421 833.066 487.129 Q835.444 489.837 835.444 494.629 Q835.444 499.403 833.066 502.129 Q830.687 504.837 826.521 504.837 Q822.337 504.837 819.958 502.129 Q817.597 499.403 817.597 494.629 Q817.597 489.837 819.958 487.129 Q822.337 484.421 826.521 484.421 Z" fill="#000000" fill-rule="evenodd" fill-opacity="1" /><path clip-path="url(#clip530)" d="M856.903 492.598 L856.903 504.334 L853.708 504.334 L853.708 492.702 Q853.708 489.942 852.632 488.57 Q851.555 487.199 849.403 487.199 Q846.816 487.199 845.323 488.848 Q843.83 490.497 843.83 493.344 L843.83 504.334 L840.618 504.334 L840.618 484.89 L843.83 484.89 L843.83 487.91 Q844.976 486.157 846.521 485.289 Q848.083 484.421 850.114 484.421 Q853.465 484.421 855.184 486.504 Q856.903 488.57 856.903 492.598 Z" fill="#000000" fill-rule="evenodd" fill-opacity="1" /><path clip-path="url(#clip530)" d="M879.906 493.813 L879.906 495.376 L865.219 495.376 Q865.427 498.674 867.198 500.41 Q868.986 502.129 872.163 502.129 Q874.003 502.129 875.722 501.678 Q877.458 501.226 879.159 500.324 L879.159 503.344 Q877.441 504.074 875.635 504.455 Q873.83 504.837 871.972 504.837 Q867.319 504.837 864.594 502.129 Q861.885 499.421 861.885 494.803 Q861.885 490.028 864.455 487.233 Q867.041 484.421 871.416 484.421 Q875.34 484.421 877.614 486.956 Q879.906 489.473 879.906 493.813 M876.712 492.876 Q876.677 490.254 875.236 488.692 Q873.812 487.129 871.451 487.129 Q868.778 487.129 867.163 488.64 Q865.566 490.15 865.323 492.893 L876.712 492.876 Z" fill="#000000" fill-rule="evenodd" fill-opacity="1" /><path clip-path="url(#clip530)" d="M901.312 492.598 L901.312 504.334 L898.118 504.334 L898.118 492.702 Q898.118 489.942 897.041 488.57 Q895.965 487.199 893.812 487.199 Q891.225 487.199 889.732 488.848 Q888.239 490.497 888.239 493.344 L888.239 504.334 L885.027 504.334 L885.027 484.89 L888.239 484.89 L888.239 487.91 Q889.385 486.157 890.93 485.289 Q892.493 484.421 894.524 484.421 Q897.875 484.421 899.593 486.504 Q901.312 488.57 901.312 492.598 Z" fill="#000000" fill-rule="evenodd" fill-opacity="1" /><path clip-path="url(#clip530)" d="M910.843 479.369 L910.843 484.89 L917.423 484.89 L917.423 487.372 L910.843 487.372 L910.843 497.928 Q910.843 500.306 911.486 500.983 Q912.145 501.66 914.142 501.66 L917.423 501.66 L917.423 504.334 L914.142 504.334 Q910.444 504.334 909.038 502.962 Q907.632 501.574 907.632 497.928 L907.632 487.372 L905.288 487.372 L905.288 484.89 L907.632 484.89 L907.632 479.369 L910.843 479.369 Z" fill="#000000" fill-rule="evenodd" fill-opacity="1" /><path clip-path="url(#clip530)" d="M934.02 485.463 L934.02 488.483 Q932.666 487.789 931.208 487.442 Q929.749 487.094 928.187 487.094 Q925.808 487.094 924.611 487.824 Q923.43 488.553 923.43 490.011 Q923.43 491.122 924.281 491.765 Q925.131 492.39 927.701 492.962 L928.795 493.206 Q932.197 493.935 933.621 495.271 Q935.062 496.591 935.062 498.969 Q935.062 501.678 932.909 503.258 Q930.774 504.837 927.024 504.837 Q925.461 504.837 923.76 504.525 Q922.076 504.23 920.201 503.622 L920.201 500.324 Q921.972 501.244 923.69 501.712 Q925.409 502.164 927.093 502.164 Q929.35 502.164 930.565 501.4 Q931.781 500.619 931.781 499.212 Q931.781 497.91 930.895 497.216 Q930.027 496.521 927.058 495.879 L925.947 495.619 Q922.979 494.994 921.659 493.709 Q920.34 492.407 920.34 490.15 Q920.34 487.407 922.284 485.914 Q924.229 484.421 927.805 484.421 Q929.576 484.421 931.138 484.681 Q932.701 484.942 934.02 485.463 Z" fill="#000000" fill-rule="evenodd" fill-opacity="1" /><polyline clip-path="url(#clip530)" style="stroke:#000000; stroke-linecap:butt; stroke-linejoin:round; stroke-width:4; stroke-opacity:1; fill:none" points="
  150.734,416.95 150.734,15.748 
  "/>
<polyline clip-path="url(#clip530)" style="stroke:#000000; stroke-linecap:butt; stroke-linejoin:round; stroke-width:4; stroke-opacity:1; fill:none" points="
  150.734,416.95 131.837,416.95 
  "/>
<polyline clip-path="url(#clip530)" style="stroke:#000000; stroke-linecap:butt; stroke-linejoin:round; stroke-width:4; stroke-opacity:1; fill:none" points="
  150.734,312.202 131.837,312.202 
  "/>
<polyline clip-path="url(#clip530)" style="stroke:#000000; stroke-linecap:butt; stroke-linejoin:round; stroke-width:4; stroke-opacity:1; fill:none" points="
  150.734,207.454 131.837,207.454 
  "/>
<polyline clip-path="url(#clip530)" style="stroke:#000000; stroke-linecap:butt; stroke-linejoin:round; stroke-width:4; stroke-opacity:1; fill:none" points="
  150.734,102.706 131.837,102.706 
  "/>
<path clip-path="url(#clip530)" d="M59.1313 406.299 Q56.423 406.299 55.0515 408.973 Q53.6973 411.629 53.6973 416.976 Q53.6973 422.306 55.0515 424.979 Q56.423 427.636 59.1313 427.636 Q61.857 427.636 63.2112 424.979 Q64.5827 422.306 64.5827 416.976 Q64.5827 411.629 63.2112 408.973 Q61.857 406.299 59.1313 406.299 M59.1313 403.521 Q63.489 403.521 65.7806 406.976 Q68.0896 410.414 68.0896 416.976 Q68.0896 423.521 65.7806 426.976 Q63.489 430.413 59.1313 430.413 Q54.7737 430.413 52.4647 426.976 Q50.1731 423.521 50.1731 416.976 Q50.1731 410.414 52.4647 406.976 Q54.7737 403.521 59.1313 403.521 Z" fill="#000000" fill-rule="evenodd" fill-opacity="1" /><path clip-path="url(#clip530)" d="M74.2528 425.5 L77.916 425.5 L77.916 429.91 L74.2528 429.91 L74.2528 425.5 Z" fill="#000000" fill-rule="evenodd" fill-opacity="1" /><path clip-path="url(#clip530)" d="M93.0548 406.299 Q90.3465 406.299 88.9749 408.973 Q87.6208 411.629 87.6208 416.976 Q87.6208 422.306 88.9749 424.979 Q90.3465 427.636 93.0548 427.636 Q95.7805 427.636 97.1346 424.979 Q98.5061 422.306 98.5061 416.976 Q98.5061 411.629 97.1346 408.973 Q95.7805 406.299 93.0548 406.299 M93.0548 403.521 Q97.4124 403.521 99.704 406.976 Q102.013 410.414 102.013 416.976 Q102.013 423.521 99.704 426.976 Q97.4124 430.413 93.0548 430.413 Q88.6972 430.413 86.3881 426.976 Q84.0965 423.521 84.0965 416.976 Q84.0965 410.414 86.3881 406.976 Q88.6972 403.521 93.0548 403.521 Z" fill="#000000" fill-rule="evenodd" fill-opacity="1" /><path clip-path="url(#clip530)" d="M115.676 406.299 Q112.968 406.299 111.596 408.973 Q110.242 411.629 110.242 416.976 Q110.242 422.306 111.596 424.979 Q112.968 427.636 115.676 427.636 Q118.402 427.636 119.756 424.979 Q121.128 422.306 121.128 416.976 Q121.128 411.629 119.756 408.973 Q118.402 406.299 115.676 406.299 M115.676 403.521 Q120.034 403.521 122.325 406.976 Q124.634 410.414 124.634 416.976 Q124.634 423.521 122.325 426.976 Q120.034 430.413 115.676 430.413 Q111.319 430.413 109.01 426.976 Q106.718 423.521 106.718 416.976 Q106.718 410.414 109.01 406.976 Q111.319 403.521 115.676 403.521 Z" fill="#000000" fill-rule="evenodd" fill-opacity="1" /><path clip-path="url(#clip530)" d="M59.8779 301.551 Q57.1696 301.551 55.798 304.225 Q54.4439 306.881 54.4439 312.228 Q54.4439 317.558 55.798 320.231 Q57.1696 322.888 59.8779 322.888 Q62.6035 322.888 63.9577 320.231 Q65.3292 317.558 65.3292 312.228 Q65.3292 306.881 63.9577 304.225 Q62.6035 301.551 59.8779 301.551 M59.8779 298.773 Q64.2355 298.773 66.5271 302.228 Q68.8362 305.666 68.8362 312.228 Q68.8362 318.773 66.5271 322.228 Q64.2355 325.665 59.8779 325.665 Q55.5203 325.665 53.2112 322.228 Q50.9196 318.773 50.9196 312.228 Q50.9196 305.666 53.2112 302.228 Q55.5203 298.773 59.8779 298.773 Z" fill="#000000" fill-rule="evenodd" fill-opacity="1" /><path clip-path="url(#clip530)" d="M74.9993 320.752 L78.6625 320.752 L78.6625 325.162 L74.9993 325.162 L74.9993 320.752 Z" fill="#000000" fill-rule="evenodd" fill-opacity="1" /><path clip-path="url(#clip530)" d="M93.8013 301.551 Q91.093 301.551 89.7215 304.225 Q88.3673 306.881 88.3673 312.228 Q88.3673 317.558 89.7215 320.231 Q91.093 322.888 93.8013 322.888 Q96.527 322.888 97.8811 320.231 Q99.2527 317.558 99.2527 312.228 Q99.2527 306.881 97.8811 304.225 Q96.527 301.551 93.8013 301.551 M93.8013 298.773 Q98.1589 298.773 100.451 302.228 Q102.76 305.666 102.76 312.228 Q102.76 318.773 100.451 322.228 Q98.1589 325.665 93.8013 325.665 Q89.4437 325.665 87.1347 322.228 Q84.843 318.773 84.843 312.228 Q84.843 305.666 87.1347 302.228 Q89.4437 298.773 93.8013 298.773 Z" fill="#000000" fill-rule="evenodd" fill-opacity="1" /><path clip-path="url(#clip530)" d="M108.957 299.242 L122.725 299.242 L122.725 302.193 L112.169 302.193 L112.169 308.548 Q112.933 308.287 113.697 308.166 Q114.461 308.027 115.225 308.027 Q119.565 308.027 122.1 310.405 Q124.634 312.784 124.634 316.846 Q124.634 321.03 122.03 323.356 Q119.426 325.665 114.687 325.665 Q113.055 325.665 111.353 325.388 Q109.669 325.11 107.864 324.554 L107.864 321.03 Q109.426 321.881 111.093 322.297 Q112.76 322.714 114.617 322.714 Q117.621 322.714 119.374 321.134 Q121.128 319.554 121.128 316.846 Q121.128 314.138 119.374 312.558 Q117.621 310.978 114.617 310.978 Q113.211 310.978 111.805 311.291 Q110.416 311.603 108.957 312.263 L108.957 299.242 Z" fill="#000000" fill-rule="evenodd" fill-opacity="1" /><path clip-path="url(#clip530)" d="M59.1313 196.803 Q56.423 196.803 55.0515 199.477 Q53.6973 202.133 53.6973 207.48 Q53.6973 212.81 55.0515 215.484 Q56.423 218.14 59.1313 218.14 Q61.857 218.14 63.2112 215.484 Q64.5827 212.81 64.5827 207.48 Q64.5827 202.133 63.2112 199.477 Q61.857 196.803 59.1313 196.803 M59.1313 194.025 Q63.489 194.025 65.7806 197.48 Q68.0896 200.918 68.0896 207.48 Q68.0896 214.025 65.7806 217.48 Q63.489 220.918 59.1313 220.918 Q54.7737 220.918 52.4647 217.48 Q50.1731 214.025 50.1731 207.48 Q50.1731 200.918 52.4647 197.48 Q54.7737 194.025 59.1313 194.025 Z" fill="#000000" fill-rule="evenodd" fill-opacity="1" /><path clip-path="url(#clip530)" d="M74.2528 216.004 L77.916 216.004 L77.916 220.414 L74.2528 220.414 L74.2528 216.004 Z" fill="#000000" fill-rule="evenodd" fill-opacity="1" /><path clip-path="url(#clip530)" d="M86.1625 217.463 L91.8916 217.463 L91.8916 197.689 L85.659 198.938 L85.659 195.744 L91.8569 194.494 L95.3638 194.494 L95.3638 217.463 L101.093 217.463 L101.093 220.414 L86.1625 220.414 L86.1625 217.463 Z" fill="#000000" fill-rule="evenodd" fill-opacity="1" /><path clip-path="url(#clip530)" d="M115.676 196.803 Q112.968 196.803 111.596 199.477 Q110.242 202.133 110.242 207.48 Q110.242 212.81 111.596 215.484 Q112.968 218.14 115.676 218.14 Q118.402 218.14 119.756 215.484 Q121.128 212.81 121.128 207.48 Q121.128 202.133 119.756 199.477 Q118.402 196.803 115.676 196.803 M115.676 194.025 Q120.034 194.025 122.325 197.48 Q124.634 200.918 124.634 207.48 Q124.634 214.025 122.325 217.48 Q120.034 220.918 115.676 220.918 Q111.319 220.918 109.01 217.48 Q106.718 214.025 106.718 207.48 Q106.718 200.918 109.01 197.48 Q111.319 194.025 115.676 194.025 Z" fill="#000000" fill-rule="evenodd" fill-opacity="1" /><path clip-path="url(#clip530)" d="M59.8779 92.0552 Q57.1696 92.0552 55.798 94.7288 Q54.4439 97.385 54.4439 102.732 Q54.4439 108.062 55.798 110.736 Q57.1696 113.392 59.8779 113.392 Q62.6035 113.392 63.9577 110.736 Q65.3292 108.062 65.3292 102.732 Q65.3292 97.385 63.9577 94.7288 Q62.6035 92.0552 59.8779 92.0552 M59.8779 89.2774 Q64.2355 89.2774 66.5271 92.7322 Q68.8362 96.1697 68.8362 102.732 Q68.8362 109.277 66.5271 112.732 Q64.2355 116.17 59.8779 116.17 Q55.5203 116.17 53.2112 112.732 Q50.9196 109.277 50.9196 102.732 Q50.9196 96.1697 53.2112 92.7322 Q55.5203 89.2774 59.8779 89.2774 Z" fill="#000000" fill-rule="evenodd" fill-opacity="1" /><path clip-path="url(#clip530)" d="M74.9993 111.256 L78.6625 111.256 L78.6625 115.666 L74.9993 115.666 L74.9993 111.256 Z" fill="#000000" fill-rule="evenodd" fill-opacity="1" /><path clip-path="url(#clip530)" d="M86.909 112.715 L92.6381 112.715 L92.6381 92.9406 L86.4055 94.1906 L86.4055 90.9961 L92.6034 89.7461 L96.1103 89.7461 L96.1103 112.715 L101.839 112.715 L101.839 115.666 L86.909 115.666 L86.909 112.715 Z" fill="#000000" fill-rule="evenodd" fill-opacity="1" /><path clip-path="url(#clip530)" d="M108.957 89.7461 L122.725 89.7461 L122.725 92.6975 L112.169 92.6975 L112.169 99.0517 Q112.933 98.7912 113.697 98.6697 Q114.461 98.5308 115.225 98.5308 Q119.565 98.5308 122.1 100.909 Q124.634 103.288 124.634 107.35 Q124.634 111.534 122.03 113.861 Q119.426 116.17 114.687 116.17 Q113.055 116.17 111.353 115.892 Q109.669 115.614 107.864 115.059 L107.864 111.534 Q109.426 112.385 111.093 112.802 Q112.76 113.218 114.617 113.218 Q117.621 113.218 119.374 111.638 Q121.128 110.059 121.128 107.35 Q121.128 104.642 119.374 103.062 Q117.621 101.482 114.617 101.482 Q113.211 101.482 111.805 101.795 Q110.416 102.107 108.957 102.767 L108.957 89.7461 Z" fill="#000000" fill-rule="evenodd" fill-opacity="1" /><path clip-path="url(#clip530)" d="M7.77706 374.56 L7.77706 371.053 L18.402 371.053 L18.402 358.31 L7.77706 358.31 L7.77706 354.803 L33.6971 354.803 L33.6971 358.31 L21.3534 358.31 L21.3534 371.053 L33.6971 371.053 L33.6971 374.56 L7.77706 374.56 Z" fill="#000000" fill-rule="evenodd" fill-opacity="1" /><path clip-path="url(#clip530)" d="M23.1763 331.331 L24.7388 331.331 L24.7388 346.018 Q28.0374 345.81 29.7735 344.039 Q31.4922 342.251 31.4922 339.074 Q31.4922 337.234 31.0408 335.515 Q30.5894 333.779 29.6867 332.078 L32.7075 332.078 Q33.4366 333.796 33.8186 335.602 Q34.2005 337.407 34.2005 339.265 Q34.2005 343.918 31.4922 346.643 Q28.7839 349.352 24.1659 349.352 Q19.3916 349.352 16.5965 346.782 Q13.784 344.196 13.784 339.821 Q13.784 335.897 16.3187 333.623 Q18.836 331.331 23.1763 331.331 M22.2388 334.525 Q19.6173 334.56 18.0548 336.001 Q16.4923 337.425 16.4923 339.786 Q16.4923 342.459 18.0027 344.074 Q19.5131 345.671 22.2561 345.914 L22.2388 334.525 Z" fill="#000000" fill-rule="evenodd" fill-opacity="1" /><path clip-path="url(#clip530)" d="M6.68332 326.088 L6.68332 322.894 L33.6971 322.894 L33.6971 326.088 L6.68332 326.088 Z" fill="#000000" fill-rule="evenodd" fill-opacity="1" /><path clip-path="url(#clip530)" d="M6.68332 316.21 L6.68332 313.015 L33.6971 313.015 L33.6971 316.21 L6.68332 316.21 Z" fill="#000000" fill-rule="evenodd" fill-opacity="1" /><path clip-path="url(#clip530)" d="M14.2527 306.331 L14.2527 303.137 L33.6971 303.137 L33.6971 306.331 L14.2527 306.331 M6.68332 306.331 L6.68332 303.137 L10.7284 303.137 L10.7284 306.331 L6.68332 306.331 Z" fill="#000000" fill-rule="evenodd" fill-opacity="1" /><path clip-path="url(#clip530)" d="M21.961 280.29 L33.6971 280.29 L33.6971 283.484 L22.0652 283.484 Q19.3048 283.484 17.9333 284.56 Q16.5617 285.637 16.5617 287.79 Q16.5617 290.376 18.211 291.869 Q19.8603 293.362 22.7075 293.362 L33.6971 293.362 L33.6971 296.574 L14.2527 296.574 L14.2527 293.362 L17.2735 293.362 Q15.5201 292.217 14.652 290.672 Q13.784 289.109 13.784 287.078 Q13.784 283.727 15.8673 282.008 Q17.9333 280.29 21.961 280.29 Z" fill="#000000" fill-rule="evenodd" fill-opacity="1" /><path clip-path="url(#clip530)" d="M23.7492 261.123 Q20.277 261.123 18.3673 262.564 Q16.4576 263.988 16.4576 266.574 Q16.4576 269.144 18.3673 270.585 Q20.277 272.008 23.7492 272.008 Q27.204 272.008 29.1138 270.585 Q31.0235 269.144 31.0235 266.574 Q31.0235 263.988 29.1138 262.564 Q27.204 261.123 23.7492 261.123 M31.2839 257.929 Q36.2491 257.929 38.6623 260.133 Q41.0929 262.338 41.0929 266.887 Q41.0929 268.571 40.8324 270.064 Q40.5894 271.557 40.0686 272.963 L36.9609 272.963 Q37.7248 271.557 38.0894 270.186 Q38.454 268.814 38.454 267.39 Q38.454 264.248 36.8047 262.686 Q35.1727 261.123 31.8568 261.123 L30.2769 261.123 Q31.9957 262.113 32.8464 263.658 Q33.6971 265.203 33.6971 267.356 Q33.6971 270.932 30.9714 273.12 Q28.2457 275.307 23.7492 275.307 Q19.2353 275.307 16.5097 273.12 Q13.784 270.932 13.784 267.356 Q13.784 265.203 14.6347 263.658 Q15.4854 262.113 17.2041 261.123 L14.2527 261.123 L14.2527 257.929 L31.2839 257.929 Z" fill="#000000" fill-rule="evenodd" fill-opacity="1" /><path clip-path="url(#clip530)" d="M23.1763 234.717 L24.7388 234.717 L24.7388 249.404 Q28.0374 249.196 29.7735 247.425 Q31.4922 245.637 31.4922 242.46 Q31.4922 240.62 31.0408 238.901 Q30.5894 237.165 29.6867 235.463 L32.7075 235.463 Q33.4366 237.182 33.8186 238.988 Q34.2005 240.793 34.2005 242.651 Q34.2005 247.304 31.4922 250.029 Q28.7839 252.738 24.1659 252.738 Q19.3916 252.738 16.5965 250.168 Q13.784 247.581 13.784 243.206 Q13.784 239.283 16.3187 237.009 Q18.836 234.717 23.1763 234.717 M22.2388 237.911 Q19.6173 237.946 18.0548 239.387 Q16.4923 240.811 16.4923 243.172 Q16.4923 245.845 18.0027 247.46 Q19.5131 249.057 22.2561 249.3 L22.2388 237.911 Z" fill="#000000" fill-rule="evenodd" fill-opacity="1" /><path clip-path="url(#clip530)" d="M17.2388 218.207 Q16.9263 218.745 16.7874 219.387 Q16.6312 220.012 16.6312 220.776 Q16.6312 223.484 18.402 224.943 Q20.1555 226.384 23.4541 226.384 L33.6971 226.384 L33.6971 229.595 L14.2527 229.595 L14.2527 226.384 L17.2735 226.384 Q15.5027 225.377 14.652 223.762 Q13.784 222.148 13.784 219.839 Q13.784 219.509 13.8361 219.109 Q13.8708 218.71 13.9576 218.224 L17.2388 218.207 Z" fill="#000000" fill-rule="evenodd" fill-opacity="1" /><path clip-path="url(#clip530)" d="M17.2041 190.759 L6.68332 190.759 L6.68332 187.564 L33.6971 187.564 L33.6971 190.759 L30.7804 190.759 Q32.5165 191.766 33.3672 193.311 Q34.2005 194.839 34.2005 196.991 Q34.2005 200.516 31.388 202.738 Q28.5756 204.943 23.9923 204.943 Q19.4089 204.943 16.5965 202.738 Q13.784 200.516 13.784 196.991 Q13.784 194.839 14.6347 193.311 Q15.468 191.766 17.2041 190.759 M23.9923 201.644 Q27.5165 201.644 29.5304 200.203 Q31.5269 198.745 31.5269 196.21 Q31.5269 193.675 29.5304 192.217 Q27.5165 190.759 23.9923 190.759 Q20.468 190.759 18.4714 192.217 Q16.4576 193.675 16.4576 196.21 Q16.4576 198.745 18.4714 200.203 Q20.468 201.644 23.9923 201.644 Z" fill="#000000" fill-rule="evenodd" fill-opacity="1" /><path clip-path="url(#clip530)" d="M14.2527 180.985 L14.2527 177.79 L33.6971 177.79 L33.6971 180.985 L14.2527 180.985 M6.68332 180.985 L6.68332 177.79 L10.7284 177.79 L10.7284 180.985 L6.68332 180.985 Z" fill="#000000" fill-rule="evenodd" fill-opacity="1" /><path clip-path="url(#clip530)" d="M14.8256 158.71 L17.8465 158.71 Q17.152 160.065 16.8048 161.523 Q16.4576 162.981 16.4576 164.544 Q16.4576 166.922 17.1867 168.12 Q17.9159 169.301 19.3742 169.301 Q20.4853 169.301 21.1277 168.45 Q21.7527 167.599 22.3256 165.03 L22.5686 163.936 Q23.2978 160.533 24.6346 159.11 Q25.954 157.669 28.3325 157.669 Q31.0408 157.669 32.6207 159.822 Q34.2005 161.957 34.2005 165.707 Q34.2005 167.269 33.888 168.971 Q33.5929 170.655 32.9853 172.53 L29.6867 172.53 Q30.6068 170.759 31.0755 169.04 Q31.5269 167.321 31.5269 165.637 Q31.5269 163.381 30.763 162.165 Q29.9818 160.95 28.5756 160.95 Q27.2735 160.95 26.579 161.835 Q25.8846 162.703 25.2422 165.672 L24.9818 166.783 Q24.3568 169.752 23.0721 171.071 Q21.77 172.391 19.5131 172.391 Q16.7701 172.391 15.277 170.446 Q13.784 168.502 13.784 164.926 Q13.784 163.155 14.0444 161.592 Q14.3048 160.03 14.8256 158.71 Z" fill="#000000" fill-rule="evenodd" fill-opacity="1" /><path clip-path="url(#clip530)" d="M8.73192 149.422 L14.2527 149.422 L14.2527 142.842 L16.7353 142.842 L16.7353 149.422 L27.2908 149.422 Q29.6693 149.422 30.3464 148.78 Q31.0235 148.12 31.0235 146.124 L31.0235 142.842 L33.6971 142.842 L33.6971 146.124 Q33.6971 149.822 32.3255 151.228 Q30.9367 152.634 27.2908 152.634 L16.7353 152.634 L16.7353 154.978 L14.2527 154.978 L14.2527 152.634 L8.73192 152.634 L8.73192 149.422 Z" fill="#000000" fill-rule="evenodd" fill-opacity="1" /><path clip-path="url(#clip530)" d="M23.9228 129.804 Q23.9228 133.676 24.8082 135.169 Q25.6936 136.662 27.829 136.662 Q29.5304 136.662 30.5374 135.551 Q31.5269 134.422 31.5269 132.495 Q31.5269 129.839 29.6519 128.242 Q27.7596 126.627 24.6346 126.627 L23.9228 126.627 L23.9228 129.804 M22.6034 123.433 L33.6971 123.433 L33.6971 126.627 L30.7457 126.627 Q32.5165 127.721 33.3672 129.353 Q34.2005 130.985 34.2005 133.346 Q34.2005 136.332 32.5339 138.103 Q30.8499 139.856 28.0374 139.856 Q24.7561 139.856 23.0895 137.669 Q21.4228 135.464 21.4228 131.106 L21.4228 126.627 L21.1103 126.627 Q18.9055 126.627 17.7076 128.086 Q16.4923 129.527 16.4923 132.148 Q16.4923 133.815 16.8916 135.395 Q17.2909 136.974 18.0895 138.433 L15.1381 138.433 Q14.4611 136.679 14.1312 135.03 Q13.784 133.381 13.784 131.818 Q13.784 127.599 15.9715 125.516 Q18.1589 123.433 22.6034 123.433 Z" fill="#000000" fill-rule="evenodd" fill-opacity="1" /><path clip-path="url(#clip530)" d="M21.961 100.69 L33.6971 100.69 L33.6971 103.884 L22.0652 103.884 Q19.3048 103.884 17.9333 104.961 Q16.5617 106.037 16.5617 108.19 Q16.5617 110.777 18.211 112.27 Q19.8603 113.763 22.7075 113.763 L33.6971 113.763 L33.6971 116.975 L14.2527 116.975 L14.2527 113.763 L17.2735 113.763 Q15.5201 112.617 14.652 111.072 Q13.784 109.509 13.784 107.478 Q13.784 104.127 15.8673 102.409 Q17.9333 100.69 21.961 100.69 Z" fill="#000000" fill-rule="evenodd" fill-opacity="1" /><path clip-path="url(#clip530)" d="M14.9992 80.3254 L17.9853 80.3254 Q17.2388 81.6796 16.8742 83.0511 Q16.4923 84.4052 16.4923 85.7941 Q16.4923 88.9018 18.4714 90.6205 Q20.4332 92.3392 23.9923 92.3392 Q27.5513 92.3392 29.5304 90.6205 Q31.4922 88.9018 31.4922 85.7941 Q31.4922 84.4052 31.1276 83.0511 Q30.7457 81.6796 29.9992 80.3254 L32.9505 80.3254 Q33.5755 81.6622 33.888 83.1032 Q34.2005 84.5268 34.2005 86.1414 Q34.2005 90.5337 31.4401 93.1205 Q28.6797 95.7073 23.9923 95.7073 Q19.2353 95.7073 16.5097 93.1031 Q13.784 90.4816 13.784 85.933 Q13.784 84.4573 14.0965 83.0511 Q14.3916 81.6448 14.9992 80.3254 Z" fill="#000000" fill-rule="evenodd" fill-opacity="1" /><path clip-path="url(#clip530)" d="M23.1763 58.138 L24.7388 58.138 L24.7388 72.8255 Q28.0374 72.6171 29.7735 70.8463 Q31.4922 69.0581 31.4922 65.881 Q31.4922 64.0408 31.0408 62.322 Q30.5894 60.5859 29.6867 58.8846 L32.7075 58.8846 Q33.4366 60.6033 33.8186 62.4088 Q34.2005 64.2144 34.2005 66.072 Q34.2005 70.7248 31.4922 73.4504 Q28.7839 76.1588 24.1659 76.1588 Q19.3916 76.1588 16.5965 73.5893 Q13.784 71.0025 13.784 66.6276 Q13.784 62.704 16.3187 60.4297 Q18.836 58.138 23.1763 58.138 M22.2388 61.3325 Q19.6173 61.3672 18.0548 62.8081 Q16.4923 64.2317 16.4923 66.5928 Q16.4923 69.2664 18.0027 70.881 Q19.5131 72.4782 22.2561 72.7213 L22.2388 61.3325 Z" fill="#000000" fill-rule="evenodd" fill-opacity="1" /><polyline clip-path="url(#clip532)" style="stroke:#0088c3; stroke-linecap:butt; stroke-linejoin:round; stroke-width:6; stroke-opacity:1; fill:none" points="
  179.299,21.7389 285.092,295.875 390.885,370.4 496.678,388.068 602.471,393.388 708.264,394.674 814.057,394.439 919.85,394.293 1025.64,396.144 1131.44,396.773 
  
  "/>
<polyline clip-path="url(#clip532)" style="stroke:#0088c3; stroke-linecap:butt; stroke-linejoin:round; stroke-width:6; stroke-opacity:1; fill:none" points="
  179.299,23.7575 179.299,19.7203 
  "/>
<polyline clip-path="url(#clip532)" style="stroke:#0088c3; stroke-linecap:butt; stroke-linejoin:round; stroke-width:6; stroke-opacity:1; fill:none" points="
  285.092,297.419 285.092,294.33 
  "/>
<polyline clip-path="url(#clip532)" style="stroke:#0088c3; stroke-linecap:butt; stroke-linejoin:round; stroke-width:6; stroke-opacity:1; fill:none" points="
  390.885,372.353 390.885,368.447 
  "/>
<polyline clip-path="url(#clip532)" style="stroke:#0088c3; stroke-linecap:butt; stroke-linejoin:round; stroke-width:6; stroke-opacity:1; fill:none" points="
  496.678,391.859 496.678,384.277 
  "/>
<polyline clip-path="url(#clip532)" style="stroke:#0088c3; stroke-linecap:butt; stroke-linejoin:round; stroke-width:6; stroke-opacity:1; fill:none" points="
  602.471,395.224 602.471,391.551 
  "/>
<polyline clip-path="url(#clip532)" style="stroke:#0088c3; stroke-linecap:butt; stroke-linejoin:round; stroke-width:6; stroke-opacity:1; fill:none" points="
  708.264,396.382 708.264,392.965 
  "/>
<polyline clip-path="url(#clip532)" style="stroke:#0088c3; stroke-linecap:butt; stroke-linejoin:round; stroke-width:6; stroke-opacity:1; fill:none" points="
  814.057,396.667 814.057,392.211 
  "/>
<polyline clip-path="url(#clip532)" style="stroke:#0088c3; stroke-linecap:butt; stroke-linejoin:round; stroke-width:6; stroke-opacity:1; fill:none" points="
  919.85,398.685 919.85,389.902 
  "/>
<polyline clip-path="url(#clip532)" style="stroke:#0088c3; stroke-linecap:butt; stroke-linejoin:round; stroke-width:6; stroke-opacity:1; fill:none" points="
  1025.64,399.428 1025.64,392.86 
  "/>
<polyline clip-path="url(#clip532)" style="stroke:#0088c3; stroke-linecap:butt; stroke-linejoin:round; stroke-width:6; stroke-opacity:1; fill:none" points="
  1131.44,398.688 1131.44,394.859 
  "/>
<line clip-path="url(#clip532)" x1="195.299" y1="23.7575" x2="163.299" y2="23.7575" style="stroke:#0088c3; stroke-width:1.04; stroke-opacity:1"/>
<line clip-path="url(#clip532)" x1="195.299" y1="19.7203" x2="163.299" y2="19.7203" style="stroke:#0088c3; stroke-width:1.04; stroke-opacity:1"/>
<line clip-path="url(#clip532)" x1="301.092" y1="297.419" x2="269.092" y2="297.419" style="stroke:#0088c3; stroke-width:1.04; stroke-opacity:1"/>
<line clip-path="url(#clip532)" x1="301.092" y1="294.33" x2="269.092" y2="294.33" style="stroke:#0088c3; stroke-width:1.04; stroke-opacity:1"/>
<line clip-path="url(#clip532)" x1="406.885" y1="372.353" x2="374.885" y2="372.353" style="stroke:#0088c3; stroke-width:1.04; stroke-opacity:1"/>
<line clip-path="url(#clip532)" x1="406.885" y1="368.447" x2="374.885" y2="368.447" style="stroke:#0088c3; stroke-width:1.04; stroke-opacity:1"/>
<line clip-path="url(#clip532)" x1="512.678" y1="391.859" x2="480.678" y2="391.859" style="stroke:#0088c3; stroke-width:1.04; stroke-opacity:1"/>
<line clip-path="url(#clip532)" x1="512.678" y1="384.277" x2="480.678" y2="384.277" style="stroke:#0088c3; stroke-width:1.04; stroke-opacity:1"/>
<line clip-path="url(#clip532)" x1="618.471" y1="395.224" x2="586.471" y2="395.224" style="stroke:#0088c3; stroke-width:1.04; stroke-opacity:1"/>
<line clip-path="url(#clip532)" x1="618.471" y1="391.551" x2="586.471" y2="391.551" style="stroke:#0088c3; stroke-width:1.04; stroke-opacity:1"/>
<line clip-path="url(#clip532)" x1="724.264" y1="396.382" x2="692.264" y2="396.382" style="stroke:#0088c3; stroke-width:1.04; stroke-opacity:1"/>
<line clip-path="url(#clip532)" x1="724.264" y1="392.965" x2="692.264" y2="392.965" style="stroke:#0088c3; stroke-width:1.04; stroke-opacity:1"/>
<line clip-path="url(#clip532)" x1="830.057" y1="396.667" x2="798.057" y2="396.667" style="stroke:#0088c3; stroke-width:1.04; stroke-opacity:1"/>
<line clip-path="url(#clip532)" x1="830.057" y1="392.211" x2="798.057" y2="392.211" style="stroke:#0088c3; stroke-width:1.04; stroke-opacity:1"/>
<line clip-path="url(#clip532)" x1="935.85" y1="398.685" x2="903.85" y2="398.685" style="stroke:#0088c3; stroke-width:1.04; stroke-opacity:1"/>
<line clip-path="url(#clip532)" x1="935.85" y1="389.902" x2="903.85" y2="389.902" style="stroke:#0088c3; stroke-width:1.04; stroke-opacity:1"/>
<line clip-path="url(#clip532)" x1="1041.64" y1="399.428" x2="1009.64" y2="399.428" style="stroke:#0088c3; stroke-width:1.04; stroke-opacity:1"/>
<line clip-path="url(#clip532)" x1="1041.64" y1="392.86" x2="1009.64" y2="392.86" style="stroke:#0088c3; stroke-width:1.04; stroke-opacity:1"/>
<line clip-path="url(#clip532)" x1="1147.44" y1="398.688" x2="1115.44" y2="398.688" style="stroke:#0088c3; stroke-width:1.04; stroke-opacity:1"/>
<line clip-path="url(#clip532)" x1="1147.44" y1="394.859" x2="1115.44" y2="394.859" style="stroke:#0088c3; stroke-width:1.04; stroke-opacity:1"/>
</svg>
