<?xml version="1.0" encoding="utf-8"?>
<svg xmlns="http://www.w3.org/2000/svg" xmlns:xlink="http://www.w3.org/1999/xlink" width="290" height="130" viewBox="0 0 1160 520">
<defs>
  <clipPath id="clip410">
    <rect x="0" y="0" width="1160" height="520"/>
  </clipPath>
</defs>
<path clip-path="url(#clip410)" d="
M0 520 L1160 520 L1160 0 L0 0  Z
  " fill="#ffffff" fill-rule="evenodd" fill-opacity="1"/>
<defs>
  <clipPath id="clip411">
    <rect x="232" y="0" width="813" height="520"/>
  </clipPath>
</defs>
<path clip-path="url(#clip410)" d="
M151.099 416.95 L1128.5 416.95 L1128.5 15.748 L151.099 15.748  Z
  " fill="#ffffff" fill-rule="evenodd" fill-opacity="1"/>
<defs>
  <clipPath id="clip412">
    <rect x="151" y="15" width="978" height="402"/>
  </clipPath>
</defs>
<polyline clip-path="url(#clip410)" style="stroke:#000000; stroke-linecap:butt; stroke-linejoin:round; stroke-width:4; stroke-opacity:1; fill:none" points="
  151.099,416.95 1128.5,416.95 
  "/>
<polyline clip-path="url(#clip410)" style="stroke:#000000; stroke-linecap:butt; stroke-linejoin:round; stroke-width:4; stroke-opacity:1; fill:none" points="
  151.099,416.95 151.099,435.848 
  "/>
<polyline clip-path="url(#clip410)" style="stroke:#000000; stroke-linecap:butt; stroke-linejoin:round; stroke-width:4; stroke-opacity:1; fill:none" points="
  393.031,416.95 393.031,435.848 
  "/>
<polyline clip-path="url(#clip410)" style="stroke:#000000; stroke-linecap:butt; stroke-linejoin:round; stroke-width:4; stroke-opacity:1; fill:none" points="
  634.963,416.95 634.963,435.848 
  "/>
<polyline clip-path="url(#clip410)" style="stroke:#000000; stroke-linecap:butt; stroke-linejoin:round; stroke-width:4; stroke-opacity:1; fill:none" points="
  876.895,416.95 876.895,435.848 
  "/>
<polyline clip-path="url(#clip410)" style="stroke:#000000; stroke-linecap:butt; stroke-linejoin:round; stroke-width:4; stroke-opacity:1; fill:none" points="
  1118.83,416.95 1118.83,435.848 
  "/>
<path clip-path="url(#clip410)" d="M151.099 439.659 Q148.391 439.659 147.019 442.333 Q145.665 444.989 145.665 450.336 Q145.665 455.666 147.019 458.339 Q148.391 460.996 151.099 460.996 Q153.825 460.996 155.179 458.339 Q156.55 455.666 156.55 450.336 Q156.55 444.989 155.179 442.333 Q153.825 439.659 151.099 439.659 M151.099 436.881 Q155.457 436.881 157.748 440.336 Q160.057 443.774 160.057 450.336 Q160.057 456.881 157.748 460.336 Q155.457 463.773 151.099 463.773 Q146.741 463.773 144.432 460.336 Q142.141 456.881 142.141 450.336 Q142.141 443.774 144.432 440.336 Q146.741 436.881 151.099 436.881 Z" fill="#000000" fill-rule="evenodd" fill-opacity="1" /><path clip-path="url(#clip410)" d="M365.8 460.319 L378.04 460.319 L378.04 463.27 L361.581 463.27 L361.581 460.319 Q363.578 458.253 367.015 454.78 Q370.47 451.291 371.356 450.284 Q373.04 448.392 373.699 447.089 Q374.377 445.77 374.377 444.503 Q374.377 442.437 372.918 441.135 Q371.477 439.833 369.151 439.833 Q367.502 439.833 365.661 440.405 Q363.838 440.978 361.755 442.142 L361.755 438.6 Q363.873 437.749 365.713 437.315 Q367.554 436.881 369.081 436.881 Q373.109 436.881 375.505 438.895 Q377.901 440.909 377.901 444.277 Q377.901 445.874 377.293 447.315 Q376.703 448.739 375.123 450.683 Q374.689 451.187 372.363 453.6 Q370.036 455.996 365.8 460.319 Z" fill="#000000" fill-rule="evenodd" fill-opacity="1" /><path clip-path="url(#clip410)" d="M385.436 437.35 L399.203 437.35 L399.203 440.301 L388.647 440.301 L388.647 446.655 Q389.411 446.395 390.175 446.274 Q390.939 446.135 391.703 446.135 Q396.043 446.135 398.578 448.513 Q401.113 450.892 401.113 454.954 Q401.113 459.138 398.508 461.464 Q395.904 463.773 391.165 463.773 Q389.533 463.773 387.831 463.496 Q386.147 463.218 384.342 462.662 L384.342 459.138 Q385.904 459.989 387.571 460.405 Q389.238 460.822 391.095 460.822 Q394.099 460.822 395.852 459.242 Q397.606 457.662 397.606 454.954 Q397.606 452.246 395.852 450.666 Q394.099 449.086 391.095 449.086 Q389.689 449.086 388.283 449.398 Q386.894 449.711 385.436 450.371 L385.436 437.35 Z" fill="#000000" fill-rule="evenodd" fill-opacity="1" /><path clip-path="url(#clip410)" d="M415.522 439.659 Q412.814 439.659 411.442 442.333 Q410.088 444.989 410.088 450.336 Q410.088 455.666 411.442 458.339 Q412.814 460.996 415.522 460.996 Q418.248 460.996 419.602 458.339 Q420.974 455.666 420.974 450.336 Q420.974 444.989 419.602 442.333 Q418.248 439.659 415.522 439.659 M415.522 436.881 Q419.88 436.881 422.171 440.336 Q424.48 443.774 424.48 450.336 Q424.48 456.881 422.171 460.336 Q419.88 463.773 415.522 463.773 Q411.165 463.773 408.856 460.336 Q406.564 456.881 406.564 450.336 Q406.564 443.774 408.856 440.336 Q411.165 436.881 415.522 436.881 Z" fill="#000000" fill-rule="evenodd" fill-opacity="1" /><path clip-path="url(#clip410)" d="M604.677 437.35 L618.444 437.35 L618.444 440.301 L607.888 440.301 L607.888 446.655 Q608.652 446.395 609.416 446.274 Q610.18 446.135 610.944 446.135 Q615.284 446.135 617.819 448.513 Q620.354 450.892 620.354 454.954 Q620.354 459.138 617.749 461.464 Q615.145 463.773 610.406 463.773 Q608.774 463.773 607.072 463.496 Q605.388 463.218 603.583 462.662 L603.583 459.138 Q605.145 459.989 606.812 460.405 Q608.479 460.822 610.336 460.822 Q613.34 460.822 615.093 459.242 Q616.847 457.662 616.847 454.954 Q616.847 452.246 615.093 450.666 Q613.34 449.086 610.336 449.086 Q608.93 449.086 607.524 449.398 Q606.135 449.711 604.677 450.371 L604.677 437.35 Z" fill="#000000" fill-rule="evenodd" fill-opacity="1" /><path clip-path="url(#clip410)" d="M634.763 439.659 Q632.055 439.659 630.683 442.333 Q629.329 444.989 629.329 450.336 Q629.329 455.666 630.683 458.339 Q632.055 460.996 634.763 460.996 Q637.489 460.996 638.843 458.339 Q640.215 455.666 640.215 450.336 Q640.215 444.989 638.843 442.333 Q637.489 439.659 634.763 439.659 M634.763 436.881 Q639.121 436.881 641.412 440.336 Q643.721 443.774 643.721 450.336 Q643.721 456.881 641.412 460.336 Q639.121 463.773 634.763 463.773 Q630.406 463.773 628.097 460.336 Q625.805 456.881 625.805 450.336 Q625.805 443.774 628.097 440.336 Q630.406 436.881 634.763 436.881 Z" fill="#000000" fill-rule="evenodd" fill-opacity="1" /><path clip-path="url(#clip410)" d="M657.385 439.659 Q654.676 439.659 653.305 442.333 Q651.951 444.989 651.951 450.336 Q651.951 455.666 653.305 458.339 Q654.676 460.996 657.385 460.996 Q660.11 460.996 661.464 458.339 Q662.836 455.666 662.836 450.336 Q662.836 444.989 661.464 442.333 Q660.11 439.659 657.385 439.659 M657.385 436.881 Q661.742 436.881 664.034 440.336 Q666.343 443.774 666.343 450.336 Q666.343 456.881 664.034 460.336 Q661.742 463.773 657.385 463.773 Q653.027 463.773 650.718 460.336 Q648.426 456.881 648.426 450.336 Q648.426 443.774 650.718 440.336 Q653.027 436.881 657.385 436.881 Z" fill="#000000" fill-rule="evenodd" fill-opacity="1" /><path clip-path="url(#clip410)" d="M845.602 437.35 L862.268 437.35 L862.268 438.843 L852.858 463.27 L849.195 463.27 L858.049 440.301 L845.602 440.301 L845.602 437.35 Z" fill="#000000" fill-rule="evenodd" fill-opacity="1" /><path clip-path="url(#clip410)" d="M869.143 437.35 L882.91 437.35 L882.91 440.301 L872.355 440.301 L872.355 446.655 Q873.119 446.395 873.883 446.274 Q874.647 446.135 875.41 446.135 Q879.751 446.135 882.285 448.513 Q884.82 450.892 884.82 454.954 Q884.82 459.138 882.216 461.464 Q879.612 463.773 874.872 463.773 Q873.24 463.773 871.539 463.496 Q869.855 463.218 868.049 462.662 L868.049 459.138 Q869.612 459.989 871.278 460.405 Q872.945 460.822 874.803 460.822 Q877.806 460.822 879.56 459.242 Q881.313 457.662 881.313 454.954 Q881.313 452.246 879.56 450.666 Q877.806 449.086 874.803 449.086 Q873.397 449.086 871.99 449.398 Q870.601 449.711 869.143 450.371 L869.143 437.35 Z" fill="#000000" fill-rule="evenodd" fill-opacity="1" /><path clip-path="url(#clip410)" d="M899.23 439.659 Q896.521 439.659 895.15 442.333 Q893.796 444.989 893.796 450.336 Q893.796 455.666 895.15 458.339 Q896.521 460.996 899.23 460.996 Q901.955 460.996 903.31 458.339 Q904.681 455.666 904.681 450.336 Q904.681 444.989 903.31 442.333 Q901.955 439.659 899.23 439.659 M899.23 436.881 Q903.587 436.881 905.879 440.336 Q908.188 443.774 908.188 450.336 Q908.188 456.881 905.879 460.336 Q903.587 463.773 899.23 463.773 Q894.872 463.773 892.563 460.336 Q890.271 456.881 890.271 450.336 Q890.271 443.774 892.563 440.336 Q894.872 436.881 899.23 436.881 Z" fill="#000000" fill-rule="evenodd" fill-opacity="1" /><path clip-path="url(#clip410)" d="M1077.22 460.319 L1082.95 460.319 L1082.95 440.544 L1076.72 441.794 L1076.72 438.6 L1082.92 437.35 L1086.42 437.35 L1086.42 460.319 L1092.15 460.319 L1092.15 463.27 L1077.22 463.27 L1077.22 460.319 Z" fill="#000000" fill-rule="evenodd" fill-opacity="1" /><path clip-path="url(#clip410)" d="M1106.73 439.659 Q1104.03 439.659 1102.65 442.333 Q1101.3 444.989 1101.3 450.336 Q1101.3 455.666 1102.65 458.339 Q1104.03 460.996 1106.73 460.996 Q1109.46 460.996 1110.81 458.339 Q1112.19 455.666 1112.19 450.336 Q1112.19 444.989 1110.81 442.333 Q1109.46 439.659 1106.73 439.659 M1106.73 436.881 Q1111.09 436.881 1113.38 440.336 Q1115.69 443.774 1115.69 450.336 Q1115.69 456.881 1113.38 460.336 Q1111.09 463.773 1106.73 463.773 Q1102.38 463.773 1100.07 460.336 Q1097.78 456.881 1097.78 450.336 Q1097.78 443.774 1100.07 440.336 Q1102.38 436.881 1106.73 436.881 Z" fill="#000000" fill-rule="evenodd" fill-opacity="1" /><path clip-path="url(#clip410)" d="M1129.36 439.659 Q1126.65 439.659 1125.28 442.333 Q1123.92 444.989 1123.92 450.336 Q1123.92 455.666 1125.28 458.339 Q1126.65 460.996 1129.36 460.996 Q1132.08 460.996 1133.44 458.339 Q1134.81 455.666 1134.81 450.336 Q1134.81 444.989 1133.44 442.333 Q1132.08 439.659 1129.36 439.659 M1129.36 436.881 Q1133.71 436.881 1136.01 440.336 Q1138.31 443.774 1138.31 450.336 Q1138.31 456.881 1136.01 460.336 Q1133.71 463.773 1129.36 463.773 Q1125 463.773 1122.69 460.336 Q1120.4 456.881 1120.4 450.336 Q1120.4 443.774 1122.69 440.336 Q1125 436.881 1129.36 436.881 Z" fill="#000000" fill-rule="evenodd" fill-opacity="1" /><path clip-path="url(#clip410)" d="M1151.98 439.659 Q1149.27 439.659 1147.9 442.333 Q1146.54 444.989 1146.54 450.336 Q1146.54 455.666 1147.9 458.339 Q1149.27 460.996 1151.98 460.996 Q1154.7 460.996 1156.06 458.339 Q1157.43 455.666 1157.43 450.336 Q1157.43 444.989 1156.06 442.333 Q1154.7 439.659 1151.98 439.659 M1151.98 436.881 Q1156.34 436.881 1158.63 440.336 Q1160.94 443.774 1160.94 450.336 Q1160.94 456.881 1158.63 460.336 Q1156.34 463.773 1151.98 463.773 Q1147.62 463.773 1145.31 460.336 Q1143.02 456.881 1143.02 450.336 Q1143.02 443.774 1145.31 440.336 Q1147.62 436.881 1151.98 436.881 Z" fill="#000000" fill-rule="evenodd" fill-opacity="1" /><path clip-path="url(#clip410)" d="M548.578 487.841 L548.578 477.32 L551.772 477.32 L551.772 504.334 L548.578 504.334 L548.578 501.417 Q547.571 503.153 546.026 504.004 Q544.498 504.837 542.345 504.837 Q538.821 504.837 536.599 502.025 Q534.394 499.212 534.394 494.629 Q534.394 490.046 536.599 487.233 Q538.821 484.421 542.345 484.421 Q544.498 484.421 546.026 485.272 Q547.571 486.105 548.578 487.841 M537.693 494.629 Q537.693 498.153 539.134 500.167 Q540.592 502.164 543.127 502.164 Q545.661 502.164 547.12 500.167 Q548.578 498.153 548.578 494.629 Q548.578 491.105 547.12 489.108 Q545.661 487.094 543.127 487.094 Q540.592 487.094 539.134 489.108 Q537.693 491.105 537.693 494.629 Z" fill="#000000" fill-rule="evenodd" fill-opacity="1" /><path clip-path="url(#clip410)" d="M567.189 494.56 Q563.318 494.56 561.824 495.445 Q560.331 496.331 560.331 498.466 Q560.331 500.167 561.443 501.174 Q562.571 502.164 564.498 502.164 Q567.154 502.164 568.752 500.289 Q570.366 498.396 570.366 495.271 L570.366 494.56 L567.189 494.56 M573.561 493.24 L573.561 504.334 L570.366 504.334 L570.366 501.383 Q569.272 503.153 567.64 504.004 Q566.008 504.837 563.647 504.837 Q560.661 504.837 558.89 503.171 Q557.137 501.487 557.137 498.674 Q557.137 495.393 559.324 493.726 Q561.529 492.06 565.887 492.06 L570.366 492.06 L570.366 491.747 Q570.366 489.542 568.908 488.344 Q567.467 487.129 564.845 487.129 Q563.179 487.129 561.599 487.528 Q560.019 487.928 558.561 488.726 L558.561 485.775 Q560.314 485.098 561.963 484.768 Q563.613 484.421 565.175 484.421 Q569.394 484.421 571.477 486.608 Q573.561 488.796 573.561 493.24 Z" fill="#000000" fill-rule="evenodd" fill-opacity="1" /><path clip-path="url(#clip410)" d="M583.3 479.369 L583.3 484.89 L589.88 484.89 L589.88 487.372 L583.3 487.372 L583.3 497.928 Q583.3 500.306 583.942 500.983 Q584.602 501.66 586.599 501.66 L589.88 501.66 L589.88 504.334 L586.599 504.334 Q582.901 504.334 581.495 502.962 Q580.088 501.574 580.088 497.928 L580.088 487.372 L577.745 487.372 L577.745 484.89 L580.088 484.89 L580.088 479.369 L583.3 479.369 Z" fill="#000000" fill-rule="evenodd" fill-opacity="1" /><path clip-path="url(#clip410)" d="M602.918 494.56 Q599.047 494.56 597.553 495.445 Q596.06 496.331 596.06 498.466 Q596.06 500.167 597.172 501.174 Q598.3 502.164 600.227 502.164 Q602.883 502.164 604.481 500.289 Q606.095 498.396 606.095 495.271 L606.095 494.56 L602.918 494.56 M609.29 493.24 L609.29 504.334 L606.095 504.334 L606.095 501.383 Q605.001 503.153 603.369 504.004 Q601.737 504.837 599.376 504.837 Q596.39 504.837 594.619 503.171 Q592.866 501.487 592.866 498.674 Q592.866 495.393 595.053 493.726 Q597.258 492.06 601.616 492.06 L606.095 492.06 L606.095 491.747 Q606.095 489.542 604.637 488.344 Q603.196 487.129 600.574 487.129 Q598.908 487.129 597.328 487.528 Q595.748 487.928 594.29 488.726 L594.29 485.775 Q596.043 485.098 597.692 484.768 Q599.342 484.421 600.904 484.421 Q605.123 484.421 607.206 486.608 Q609.29 488.796 609.29 493.24 Z" fill="#000000" fill-rule="evenodd" fill-opacity="1" /><path clip-path="url(#clip410)" d="M628.265 485.463 L628.265 488.483 Q626.911 487.789 625.453 487.442 Q623.994 487.094 622.432 487.094 Q620.053 487.094 618.855 487.824 Q617.675 488.553 617.675 490.011 Q617.675 491.122 618.526 491.765 Q619.376 492.39 621.946 492.962 L623.039 493.206 Q626.442 493.935 627.866 495.271 Q629.307 496.591 629.307 498.969 Q629.307 501.678 627.154 503.258 Q625.019 504.837 621.269 504.837 Q619.706 504.837 618.005 504.525 Q616.321 504.23 614.446 503.622 L614.446 500.324 Q616.217 501.244 617.935 501.712 Q619.654 502.164 621.338 502.164 Q623.595 502.164 624.81 501.4 Q626.026 500.619 626.026 499.212 Q626.026 497.91 625.14 497.216 Q624.272 496.521 621.303 495.879 L620.192 495.619 Q617.223 494.994 615.904 493.709 Q614.585 492.407 614.585 490.15 Q614.585 487.407 616.529 485.914 Q618.473 484.421 622.05 484.421 Q623.821 484.421 625.383 484.681 Q626.946 484.942 628.265 485.463 Z" fill="#000000" fill-rule="evenodd" fill-opacity="1" /><path clip-path="url(#clip410)" d="M651.025 493.813 L651.025 495.376 L636.338 495.376 Q636.546 498.674 638.317 500.41 Q640.105 502.129 643.282 502.129 Q645.123 502.129 646.841 501.678 Q648.577 501.226 650.279 500.324 L650.279 503.344 Q648.56 504.074 646.755 504.455 Q644.949 504.837 643.091 504.837 Q638.439 504.837 635.713 502.129 Q633.005 499.421 633.005 494.803 Q633.005 490.028 635.574 487.233 Q638.161 484.421 642.536 484.421 Q646.459 484.421 648.734 486.956 Q651.025 489.473 651.025 493.813 M647.831 492.876 Q647.796 490.254 646.355 488.692 Q644.932 487.129 642.571 487.129 Q639.897 487.129 638.282 488.64 Q636.685 490.15 636.442 492.893 L647.831 492.876 Z" fill="#000000" fill-rule="evenodd" fill-opacity="1" /><path clip-path="url(#clip410)" d="M659.428 479.369 L659.428 484.89 L666.008 484.89 L666.008 487.372 L659.428 487.372 L659.428 497.928 Q659.428 500.306 660.07 500.983 Q660.73 501.66 662.727 501.66 L666.008 501.66 L666.008 504.334 L662.727 504.334 Q659.029 504.334 657.623 502.962 Q656.216 501.574 656.216 497.928 L656.216 487.372 L653.873 487.372 L653.873 484.89 L656.216 484.89 L656.216 479.369 L659.428 479.369 Z" fill="#000000" fill-rule="evenodd" fill-opacity="1" /><path clip-path="url(#clip410)" d="M693.907 485.463 L693.907 488.483 Q692.553 487.789 691.095 487.442 Q689.636 487.094 688.074 487.094 Q685.695 487.094 684.497 487.824 Q683.317 488.553 683.317 490.011 Q683.317 491.122 684.168 491.765 Q685.018 492.39 687.588 492.962 L688.681 493.206 Q692.084 493.935 693.508 495.271 Q694.949 496.591 694.949 498.969 Q694.949 501.678 692.796 503.258 Q690.661 504.837 686.911 504.837 Q685.348 504.837 683.647 504.525 Q681.963 504.23 680.088 503.622 L680.088 500.324 Q681.859 501.244 683.577 501.712 Q685.296 502.164 686.98 502.164 Q689.237 502.164 690.452 501.4 Q691.668 500.619 691.668 499.212 Q691.668 497.91 690.782 497.216 Q689.914 496.521 686.945 495.879 L685.834 495.619 Q682.865 494.994 681.546 493.709 Q680.227 492.407 680.227 490.15 Q680.227 487.407 682.171 485.914 Q684.115 484.421 687.692 484.421 Q689.463 484.421 691.025 484.681 Q692.588 484.942 693.907 485.463 Z" fill="#000000" fill-rule="evenodd" fill-opacity="1" /><path clip-path="url(#clip410)" d="M700.036 484.89 L703.23 484.89 L703.23 504.334 L700.036 504.334 L700.036 484.89 M700.036 477.32 L703.23 477.32 L703.23 481.365 L700.036 481.365 L700.036 477.32 Z" fill="#000000" fill-rule="evenodd" fill-opacity="1" /><path clip-path="url(#clip410)" d="M708.525 484.89 L723.699 484.89 L723.699 487.806 L711.685 501.782 L723.699 501.782 L723.699 504.334 L708.091 504.334 L708.091 501.417 L720.105 487.442 L708.525 487.442 L708.525 484.89 Z" fill="#000000" fill-rule="evenodd" fill-opacity="1" /><path clip-path="url(#clip410)" d="M745.209 493.813 L745.209 495.376 L730.521 495.376 Q730.73 498.674 732.501 500.41 Q734.289 502.129 737.466 502.129 Q739.306 502.129 741.025 501.678 Q742.761 501.226 744.462 500.324 L744.462 503.344 Q742.744 504.074 740.938 504.455 Q739.133 504.837 737.275 504.837 Q732.622 504.837 729.896 502.129 Q727.188 499.421 727.188 494.803 Q727.188 490.028 729.758 487.233 Q732.344 484.421 736.719 484.421 Q740.643 484.421 742.917 486.956 Q745.209 489.473 745.209 493.813 M742.014 492.876 Q741.98 490.254 740.539 488.692 Q739.115 487.129 736.754 487.129 Q734.081 487.129 732.466 488.64 Q730.869 490.15 730.626 492.893 L742.014 492.876 Z" fill="#000000" fill-rule="evenodd" fill-opacity="1" /><polyline clip-path="url(#clip410)" style="stroke:#000000; stroke-linecap:butt; stroke-linejoin:round; stroke-width:4; stroke-opacity:1; fill:none" points="
  151.099,416.95 151.099,15.748 
  "/>
<polyline clip-path="url(#clip410)" style="stroke:#000000; stroke-linecap:butt; stroke-linejoin:round; stroke-width:4; stroke-opacity:1; fill:none" points="
  151.099,416.95 132.201,416.95 
  "/>
<polyline clip-path="url(#clip410)" style="stroke:#000000; stroke-linecap:butt; stroke-linejoin:round; stroke-width:4; stroke-opacity:1; fill:none" points="
  151.099,350.7 132.201,350.7 
  "/>
<polyline clip-path="url(#clip410)" style="stroke:#000000; stroke-linecap:butt; stroke-linejoin:round; stroke-width:4; stroke-opacity:1; fill:none" points="
  151.099,284.451 132.201,284.451 
  "/>
<polyline clip-path="url(#clip410)" style="stroke:#000000; stroke-linecap:butt; stroke-linejoin:round; stroke-width:4; stroke-opacity:1; fill:none" points="
  151.099,218.201 132.201,218.201 
  "/>
<polyline clip-path="url(#clip410)" style="stroke:#000000; stroke-linecap:butt; stroke-linejoin:round; stroke-width:4; stroke-opacity:1; fill:none" points="
  151.099,151.951 132.201,151.951 
  "/>
<polyline clip-path="url(#clip410)" style="stroke:#000000; stroke-linecap:butt; stroke-linejoin:round; stroke-width:4; stroke-opacity:1; fill:none" points="
  151.099,85.7015 132.201,85.7015 
  "/>
<polyline clip-path="url(#clip410)" style="stroke:#000000; stroke-linecap:butt; stroke-linejoin:round; stroke-width:4; stroke-opacity:1; fill:none" points="
  151.099,19.4518 132.201,19.4518 
  "/>
<path clip-path="url(#clip410)" d="M59.4959 406.299 Q56.7876 406.299 55.4161 408.973 Q54.0619 411.629 54.0619 416.976 Q54.0619 422.306 55.4161 424.979 Q56.7876 427.636 59.4959 427.636 Q62.2216 427.636 63.5758 424.979 Q64.9473 422.306 64.9473 416.976 Q64.9473 411.629 63.5758 408.973 Q62.2216 406.299 59.4959 406.299 M59.4959 403.521 Q63.8535 403.521 66.1452 406.976 Q68.4542 410.414 68.4542 416.976 Q68.4542 423.521 66.1452 426.976 Q63.8535 430.413 59.4959 430.413 Q55.1383 430.413 52.8293 426.976 Q50.5376 423.521 50.5376 416.976 Q50.5376 410.414 52.8293 406.976 Q55.1383 403.521 59.4959 403.521 Z" fill="#000000" fill-rule="evenodd" fill-opacity="1" /><path clip-path="url(#clip410)" d="M74.6174 425.5 L78.2805 425.5 L78.2805 429.91 L74.6174 429.91 L74.6174 425.5 Z" fill="#000000" fill-rule="evenodd" fill-opacity="1" /><path clip-path="url(#clip410)" d="M93.4194 406.299 Q90.711 406.299 89.3395 408.973 Q87.9854 411.629 87.9854 416.976 Q87.9854 422.306 89.3395 424.979 Q90.711 427.636 93.4194 427.636 Q96.145 427.636 97.4992 424.979 Q98.8707 422.306 98.8707 416.976 Q98.8707 411.629 97.4992 408.973 Q96.145 406.299 93.4194 406.299 M93.4194 403.521 Q97.777 403.521 100.069 406.976 Q102.378 410.414 102.378 416.976 Q102.378 423.521 100.069 426.976 Q97.777 430.413 93.4194 430.413 Q89.0617 430.413 86.7527 426.976 Q84.4611 423.521 84.4611 416.976 Q84.4611 410.414 86.7527 406.976 Q89.0617 403.521 93.4194 403.521 Z" fill="#000000" fill-rule="evenodd" fill-opacity="1" /><path clip-path="url(#clip410)" d="M116.041 406.299 Q113.332 406.299 111.961 408.973 Q110.607 411.629 110.607 416.976 Q110.607 422.306 111.961 424.979 Q113.332 427.636 116.041 427.636 Q118.766 427.636 120.121 424.979 Q121.492 422.306 121.492 416.976 Q121.492 411.629 120.121 408.973 Q118.766 406.299 116.041 406.299 M116.041 403.521 Q120.398 403.521 122.69 406.976 Q124.999 410.414 124.999 416.976 Q124.999 423.521 122.69 426.976 Q120.398 430.413 116.041 430.413 Q111.683 430.413 109.374 426.976 Q107.082 423.521 107.082 416.976 Q107.082 410.414 109.374 406.976 Q111.683 403.521 116.041 403.521 Z" fill="#000000" fill-rule="evenodd" fill-opacity="1" /><path clip-path="url(#clip410)" d="M60.4161 340.049 Q57.7077 340.049 56.3362 342.723 Q54.9821 345.379 54.9821 350.726 Q54.9821 356.056 56.3362 358.73 Q57.7077 361.386 60.4161 361.386 Q63.1417 361.386 64.4959 358.73 Q65.8674 356.056 65.8674 350.726 Q65.8674 345.379 64.4959 342.723 Q63.1417 340.049 60.4161 340.049 M60.4161 337.272 Q64.7737 337.272 67.0653 340.726 Q69.3743 344.164 69.3743 350.726 Q69.3743 357.271 67.0653 360.726 Q64.7737 364.164 60.4161 364.164 Q56.0584 364.164 53.7494 360.726 Q51.4578 357.271 51.4578 350.726 Q51.4578 344.164 53.7494 340.726 Q56.0584 337.272 60.4161 337.272 Z" fill="#000000" fill-rule="evenodd" fill-opacity="1" /><path clip-path="url(#clip410)" d="M75.5375 359.251 L79.2007 359.251 L79.2007 363.66 L75.5375 363.66 L75.5375 359.251 Z" fill="#000000" fill-rule="evenodd" fill-opacity="1" /><path clip-path="url(#clip410)" d="M94.3395 340.049 Q91.6312 340.049 90.2597 342.723 Q88.9055 345.379 88.9055 350.726 Q88.9055 356.056 90.2597 358.73 Q91.6312 361.386 94.3395 361.386 Q97.0652 361.386 98.4193 358.73 Q99.7908 356.056 99.7908 350.726 Q99.7908 345.379 98.4193 342.723 Q97.0652 340.049 94.3395 340.049 M94.3395 337.272 Q98.6971 337.272 100.989 340.726 Q103.298 344.164 103.298 350.726 Q103.298 357.271 100.989 360.726 Q98.6971 364.164 94.3395 364.164 Q89.9819 364.164 87.6729 360.726 Q85.3812 357.271 85.3812 350.726 Q85.3812 344.164 87.6729 340.726 Q89.9819 337.272 94.3395 337.272 Z" fill="#000000" fill-rule="evenodd" fill-opacity="1" /><path clip-path="url(#clip410)" d="M110.069 360.709 L115.798 360.709 L115.798 340.935 L109.565 342.185 L109.565 338.99 L115.763 337.74 L119.27 337.74 L119.27 360.709 L124.999 360.709 L124.999 363.66 L110.069 363.66 L110.069 360.709 Z" fill="#000000" fill-rule="evenodd" fill-opacity="1" /><path clip-path="url(#clip410)" d="M60.6938 273.8 Q57.9855 273.8 56.614 276.473 Q55.2598 279.129 55.2598 284.477 Q55.2598 289.806 56.614 292.48 Q57.9855 295.136 60.6938 295.136 Q63.4195 295.136 64.7737 292.48 Q66.1452 289.806 66.1452 284.477 Q66.1452 279.129 64.7737 276.473 Q63.4195 273.8 60.6938 273.8 M60.6938 271.022 Q65.0515 271.022 67.3431 274.477 Q69.6521 277.914 69.6521 284.477 Q69.6521 291.022 67.3431 294.477 Q65.0515 297.914 60.6938 297.914 Q56.3362 297.914 54.0272 294.477 Q51.7356 291.022 51.7356 284.477 Q51.7356 277.914 54.0272 274.477 Q56.3362 271.022 60.6938 271.022 Z" fill="#000000" fill-rule="evenodd" fill-opacity="1" /><path clip-path="url(#clip410)" d="M75.8153 293.001 L79.4785 293.001 L79.4785 297.411 L75.8153 297.411 L75.8153 293.001 Z" fill="#000000" fill-rule="evenodd" fill-opacity="1" /><path clip-path="url(#clip410)" d="M94.6173 273.8 Q91.9089 273.8 90.5374 276.473 Q89.1833 279.129 89.1833 284.477 Q89.1833 289.806 90.5374 292.48 Q91.9089 295.136 94.6173 295.136 Q97.3429 295.136 98.6971 292.48 Q100.069 289.806 100.069 284.477 Q100.069 279.129 98.6971 276.473 Q97.3429 273.8 94.6173 273.8 M94.6173 271.022 Q98.9749 271.022 101.267 274.477 Q103.576 277.914 103.576 284.477 Q103.576 291.022 101.267 294.477 Q98.9749 297.914 94.6173 297.914 Q90.2597 297.914 87.9506 294.477 Q85.659 291.022 85.659 284.477 Q85.659 277.914 87.9506 274.477 Q90.2597 271.022 94.6173 271.022 Z" fill="#000000" fill-rule="evenodd" fill-opacity="1" /><path clip-path="url(#clip410)" d="M112.76 294.459 L124.999 294.459 L124.999 297.411 L108.541 297.411 L108.541 294.459 Q110.537 292.393 113.975 288.921 Q117.43 285.431 118.315 284.425 Q119.999 282.532 120.659 281.23 Q121.336 279.911 121.336 278.643 Q121.336 276.577 119.878 275.275 Q118.437 273.973 116.11 273.973 Q114.461 273.973 112.621 274.546 Q110.798 275.119 108.714 276.282 L108.714 272.741 Q110.832 271.89 112.673 271.456 Q114.513 271.022 116.041 271.022 Q120.069 271.022 122.464 273.036 Q124.86 275.05 124.86 278.418 Q124.86 280.015 124.253 281.456 Q123.662 282.879 122.082 284.824 Q121.648 285.327 119.322 287.74 Q116.996 290.136 112.76 294.459 Z" fill="#000000" fill-rule="evenodd" fill-opacity="1" /><path clip-path="url(#clip410)" d="M59.982 207.55 Q57.2737 207.55 55.9022 210.223 Q54.548 212.88 54.548 218.227 Q54.548 223.557 55.9022 226.23 Q57.2737 228.887 59.982 228.887 Q62.7077 228.887 64.0619 226.23 Q65.4334 223.557 65.4334 218.227 Q65.4334 212.88 64.0619 210.223 Q62.7077 207.55 59.982 207.55 M59.982 204.772 Q64.3397 204.772 66.6313 208.227 Q68.9403 211.664 68.9403 218.227 Q68.9403 224.772 66.6313 228.227 Q64.3397 231.664 59.982 231.664 Q55.6244 231.664 53.3154 228.227 Q51.0237 224.772 51.0237 218.227 Q51.0237 211.664 53.3154 208.227 Q55.6244 204.772 59.982 204.772 Z" fill="#000000" fill-rule="evenodd" fill-opacity="1" /><path clip-path="url(#clip410)" d="M75.1035 226.751 L78.7667 226.751 L78.7667 231.161 L75.1035 231.161 L75.1035 226.751 Z" fill="#000000" fill-rule="evenodd" fill-opacity="1" /><path clip-path="url(#clip410)" d="M93.9055 207.55 Q91.1971 207.55 89.8256 210.223 Q88.4715 212.88 88.4715 218.227 Q88.4715 223.557 89.8256 226.23 Q91.1971 228.887 93.9055 228.887 Q96.6311 228.887 97.9853 226.23 Q99.3568 223.557 99.3568 218.227 Q99.3568 212.88 97.9853 210.223 Q96.6311 207.55 93.9055 207.55 M93.9055 204.772 Q98.2631 204.772 100.555 208.227 Q102.864 211.664 102.864 218.227 Q102.864 224.772 100.555 228.227 Q98.2631 231.664 93.9055 231.664 Q89.5478 231.664 87.2388 228.227 Q84.9472 224.772 84.9472 218.227 Q84.9472 211.664 87.2388 208.227 Q89.5478 204.772 93.9055 204.772 Z" fill="#000000" fill-rule="evenodd" fill-opacity="1" /><path clip-path="url(#clip410)" d="M119.652 217.185 Q122.169 217.723 123.575 219.425 Q124.999 221.126 124.999 223.626 Q124.999 227.463 122.36 229.564 Q119.721 231.664 114.86 231.664 Q113.228 231.664 111.492 231.334 Q109.773 231.022 107.933 230.38 L107.933 226.994 Q109.391 227.845 111.128 228.279 Q112.864 228.713 114.756 228.713 Q118.055 228.713 119.773 227.411 Q121.509 226.109 121.509 223.626 Q121.509 221.335 119.895 220.05 Q118.298 218.748 115.433 218.748 L112.412 218.748 L112.412 215.866 L115.572 215.866 Q118.159 215.866 119.53 214.842 Q120.902 213.8 120.902 211.855 Q120.902 209.859 119.478 208.8 Q118.072 207.723 115.433 207.723 Q113.992 207.723 112.343 208.036 Q110.694 208.348 108.714 209.008 L108.714 205.883 Q110.711 205.328 112.447 205.05 Q114.2 204.772 115.746 204.772 Q119.739 204.772 122.065 206.595 Q124.391 208.401 124.391 211.491 Q124.391 213.644 123.159 215.137 Q121.926 216.612 119.652 217.185 Z" fill="#000000" fill-rule="evenodd" fill-opacity="1" /><path clip-path="url(#clip410)" d="M59.1313 141.3 Q56.423 141.3 55.0515 143.974 Q53.6973 146.63 53.6973 151.977 Q53.6973 157.307 55.0515 159.981 Q56.423 162.637 59.1313 162.637 Q61.857 162.637 63.2112 159.981 Q64.5827 157.307 64.5827 151.977 Q64.5827 146.63 63.2112 143.974 Q61.857 141.3 59.1313 141.3 M59.1313 138.522 Q63.489 138.522 65.7806 141.977 Q68.0896 145.415 68.0896 151.977 Q68.0896 158.522 65.7806 161.977 Q63.489 165.415 59.1313 165.415 Q54.7737 165.415 52.4647 161.977 Q50.1731 158.522 50.1731 151.977 Q50.1731 145.415 52.4647 141.977 Q54.7737 138.522 59.1313 138.522 Z" fill="#000000" fill-rule="evenodd" fill-opacity="1" /><path clip-path="url(#clip410)" d="M74.2528 160.501 L77.916 160.501 L77.916 164.911 L74.2528 164.911 L74.2528 160.501 Z" fill="#000000" fill-rule="evenodd" fill-opacity="1" /><path clip-path="url(#clip410)" d="M93.0548 141.3 Q90.3465 141.3 88.9749 143.974 Q87.6208 146.63 87.6208 151.977 Q87.6208 157.307 88.9749 159.981 Q90.3465 162.637 93.0548 162.637 Q95.7805 162.637 97.1346 159.981 Q98.5061 157.307 98.5061 151.977 Q98.5061 146.63 97.1346 143.974 Q95.7805 141.3 93.0548 141.3 M93.0548 138.522 Q97.4124 138.522 99.704 141.977 Q102.013 145.415 102.013 151.977 Q102.013 158.522 99.704 161.977 Q97.4124 165.415 93.0548 165.415 Q88.6972 165.415 86.3881 161.977 Q84.0965 158.522 84.0965 151.977 Q84.0965 145.415 86.3881 141.977 Q88.6972 138.522 93.0548 138.522 Z" fill="#000000" fill-rule="evenodd" fill-opacity="1" /><path clip-path="url(#clip410)" d="M117.812 142.047 L108.957 155.883 L117.812 155.883 L117.812 142.047 M116.891 138.991 L121.301 138.991 L121.301 155.883 L124.999 155.883 L124.999 158.8 L121.301 158.8 L121.301 164.911 L117.812 164.911 L117.812 158.8 L106.11 158.8 L106.11 155.415 L116.891 138.991 Z" fill="#000000" fill-rule="evenodd" fill-opacity="1" /><path clip-path="url(#clip410)" d="M60.2425 75.0505 Q57.5341 75.0505 56.1626 77.7241 Q54.8085 80.3803 54.8085 85.7275 Q54.8085 91.0574 56.1626 93.731 Q57.5341 96.3872 60.2425 96.3872 Q62.9681 96.3872 64.3223 93.731 Q65.6938 91.0574 65.6938 85.7275 Q65.6938 80.3803 64.3223 77.7241 Q62.9681 75.0505 60.2425 75.0505 M60.2425 72.2727 Q64.6001 72.2727 66.8917 75.7276 Q69.2007 79.1651 69.2007 85.7275 Q69.2007 92.2726 66.8917 95.7275 Q64.6001 99.165 60.2425 99.165 Q55.8848 99.165 53.5758 95.7275 Q51.2842 92.2726 51.2842 85.7275 Q51.2842 79.1651 53.5758 75.7276 Q55.8848 72.2727 60.2425 72.2727 Z" fill="#000000" fill-rule="evenodd" fill-opacity="1" /><path clip-path="url(#clip410)" d="M75.3639 94.2518 L79.0271 94.2518 L79.0271 98.6615 L75.3639 98.6615 L75.3639 94.2518 Z" fill="#000000" fill-rule="evenodd" fill-opacity="1" /><path clip-path="url(#clip410)" d="M94.1659 75.0505 Q91.4576 75.0505 90.086 77.7241 Q88.7319 80.3803 88.7319 85.7275 Q88.7319 91.0574 90.086 93.731 Q91.4576 96.3872 94.1659 96.3872 Q96.8916 96.3872 98.2457 93.731 Q99.6172 91.0574 99.6172 85.7275 Q99.6172 80.3803 98.2457 77.7241 Q96.8916 75.0505 94.1659 75.0505 M94.1659 72.2727 Q98.5235 72.2727 100.815 75.7276 Q103.124 79.1651 103.124 85.7275 Q103.124 92.2726 100.815 95.7275 Q98.5235 99.165 94.1659 99.165 Q89.8083 99.165 87.4992 95.7275 Q85.2076 92.2726 85.2076 85.7275 Q85.2076 79.1651 87.4992 75.7276 Q89.8083 72.2727 94.1659 72.2727 Z" fill="#000000" fill-rule="evenodd" fill-opacity="1" /><path clip-path="url(#clip410)" d="M109.322 72.7415 L123.089 72.7415 L123.089 75.6929 L112.534 75.6929 L112.534 82.047 Q113.298 81.7866 114.062 81.6651 Q114.825 81.5262 115.589 81.5262 Q119.93 81.5262 122.464 83.9046 Q124.999 86.2831 124.999 90.3456 Q124.999 94.5296 122.395 96.8559 Q119.791 99.165 115.051 99.165 Q113.419 99.165 111.718 98.8872 Q110.034 98.6094 108.228 98.0539 L108.228 94.5296 Q109.791 95.3803 111.457 95.7969 Q113.124 96.2136 114.982 96.2136 Q117.985 96.2136 119.739 94.6337 Q121.492 93.0539 121.492 90.3456 Q121.492 87.6372 119.739 86.0574 Q117.985 84.4775 114.982 84.4775 Q113.575 84.4775 112.169 84.79 Q110.78 85.1025 109.322 85.7623 L109.322 72.7415 Z" fill="#000000" fill-rule="evenodd" fill-opacity="1" /><path clip-path="url(#clip410)" d="M59.3744 8.80082 Q56.6661 8.80082 55.2946 11.4744 Q53.9404 14.1306 53.9404 19.4778 Q53.9404 24.8077 55.2946 27.4813 Q56.6661 30.1375 59.3744 30.1375 Q62.1001 30.1375 63.4542 27.4813 Q64.8258 24.8077 64.8258 19.4778 Q64.8258 14.1306 63.4542 11.4744 Q62.1001 8.80082 59.3744 8.80082 M59.3744 6.02305 Q63.732 6.02305 66.0237 9.4779 Q68.3327 12.9154 68.3327 19.4778 Q68.3327 26.0229 66.0237 29.4778 Q63.732 32.9153 59.3744 32.9153 Q55.0168 32.9153 52.7078 29.4778 Q50.4161 26.0229 50.4161 19.4778 Q50.4161 12.9154 52.7078 9.4779 Q55.0168 6.02305 59.3744 6.02305 Z" fill="#000000" fill-rule="evenodd" fill-opacity="1" /><path clip-path="url(#clip410)" d="M74.4958 28.0021 L78.159 28.0021 L78.159 32.4118 L74.4958 32.4118 L74.4958 28.0021 Z" fill="#000000" fill-rule="evenodd" fill-opacity="1" /><path clip-path="url(#clip410)" d="M93.2978 8.80082 Q90.5895 8.80082 89.218 11.4744 Q87.8638 14.1306 87.8638 19.4778 Q87.8638 24.8077 89.218 27.4813 Q90.5895 30.1375 93.2978 30.1375 Q96.0235 30.1375 97.3777 27.4813 Q98.7492 24.8077 98.7492 19.4778 Q98.7492 14.1306 97.3777 11.4744 Q96.0235 8.80082 93.2978 8.80082 M93.2978 6.02305 Q97.6554 6.02305 99.9471 9.4779 Q102.256 12.9154 102.256 19.4778 Q102.256 26.0229 99.9471 29.4778 Q97.6554 32.9153 93.2978 32.9153 Q88.9402 32.9153 86.6312 29.4778 Q84.3395 26.0229 84.3395 19.4778 Q84.3395 12.9154 86.6312 9.4779 Q88.9402 6.02305 93.2978 6.02305 Z" fill="#000000" fill-rule="evenodd" fill-opacity="1" /><path clip-path="url(#clip410)" d="M116.353 18.0542 Q113.992 18.0542 112.603 19.6688 Q111.232 21.2834 111.232 24.0959 Q111.232 26.891 112.603 28.5229 Q113.992 30.1375 116.353 30.1375 Q118.714 30.1375 120.086 28.5229 Q121.475 26.891 121.475 24.0959 Q121.475 21.2834 120.086 19.6688 Q118.714 18.0542 116.353 18.0542 M123.315 7.06471 L123.315 10.2591 Q121.996 9.63415 120.641 9.30429 Q119.305 8.97443 117.985 8.97443 Q114.513 8.97443 112.673 11.3182 Q110.85 13.6619 110.589 18.4015 Q111.614 16.8911 113.159 16.0924 Q114.704 15.2765 116.562 15.2765 Q120.468 15.2765 122.725 17.6549 Q124.999 20.016 124.999 24.0959 Q124.999 28.0889 122.638 30.5021 Q120.277 32.9153 116.353 32.9153 Q111.857 32.9153 109.478 29.4778 Q107.1 26.0229 107.1 19.4778 Q107.1 13.332 110.016 9.68623 Q112.933 6.02305 117.846 6.02305 Q119.166 6.02305 120.503 6.28347 Q121.857 6.54388 123.315 7.06471 Z" fill="#000000" fill-rule="evenodd" fill-opacity="1" /><path clip-path="url(#clip410)" d="M7.77706 374.56 L7.77706 371.053 L18.402 371.053 L18.402 358.31 L7.77706 358.31 L7.77706 354.803 L33.6971 354.803 L33.6971 358.31 L21.3534 358.31 L21.3534 371.053 L33.6971 371.053 L33.6971 374.56 L7.77706 374.56 Z" fill="#000000" fill-rule="evenodd" fill-opacity="1" /><path clip-path="url(#clip410)" d="M23.1763 331.331 L24.7388 331.331 L24.7388 346.018 Q28.0374 345.81 29.7735 344.039 Q31.4922 342.251 31.4922 339.074 Q31.4922 337.234 31.0408 335.515 Q30.5894 333.779 29.6867 332.078 L32.7075 332.078 Q33.4366 333.796 33.8186 335.602 Q34.2005 337.407 34.2005 339.265 Q34.2005 343.918 31.4922 346.643 Q28.7839 349.352 24.1659 349.352 Q19.3916 349.352 16.5965 346.782 Q13.784 344.196 13.784 339.821 Q13.784 335.897 16.3187 333.623 Q18.836 331.331 23.1763 331.331 M22.2388 334.525 Q19.6173 334.56 18.0548 336.001 Q16.4923 337.425 16.4923 339.786 Q16.4923 342.459 18.0027 344.074 Q19.5131 345.671 22.2561 345.914 L22.2388 334.525 Z" fill="#000000" fill-rule="evenodd" fill-opacity="1" /><path clip-path="url(#clip410)" d="M6.68332 326.088 L6.68332 322.894 L33.6971 322.894 L33.6971 326.088 L6.68332 326.088 Z" fill="#000000" fill-rule="evenodd" fill-opacity="1" /><path clip-path="url(#clip410)" d="M6.68332 316.21 L6.68332 313.015 L33.6971 313.015 L33.6971 316.21 L6.68332 316.21 Z" fill="#000000" fill-rule="evenodd" fill-opacity="1" /><path clip-path="url(#clip410)" d="M14.2527 306.331 L14.2527 303.137 L33.6971 303.137 L33.6971 306.331 L14.2527 306.331 M6.68332 306.331 L6.68332 303.137 L10.7284 303.137 L10.7284 306.331 L6.68332 306.331 Z" fill="#000000" fill-rule="evenodd" fill-opacity="1" /><path clip-path="url(#clip410)" d="M21.961 280.29 L33.6971 280.29 L33.6971 283.484 L22.0652 283.484 Q19.3048 283.484 17.9333 284.56 Q16.5617 285.637 16.5617 287.79 Q16.5617 290.376 18.211 291.869 Q19.8603 293.362 22.7075 293.362 L33.6971 293.362 L33.6971 296.574 L14.2527 296.574 L14.2527 293.362 L17.2735 293.362 Q15.5201 292.217 14.652 290.672 Q13.784 289.109 13.784 287.078 Q13.784 283.727 15.8673 282.008 Q17.9333 280.29 21.961 280.29 Z" fill="#000000" fill-rule="evenodd" fill-opacity="1" /><path clip-path="url(#clip410)" d="M23.7492 261.123 Q20.277 261.123 18.3673 262.564 Q16.4576 263.988 16.4576 266.574 Q16.4576 269.144 18.3673 270.585 Q20.277 272.008 23.7492 272.008 Q27.204 272.008 29.1138 270.585 Q31.0235 269.144 31.0235 266.574 Q31.0235 263.988 29.1138 262.564 Q27.204 261.123 23.7492 261.123 M31.2839 257.929 Q36.2491 257.929 38.6623 260.133 Q41.0929 262.338 41.0929 266.887 Q41.0929 268.571 40.8324 270.064 Q40.5894 271.557 40.0686 272.963 L36.9609 272.963 Q37.7248 271.557 38.0894 270.186 Q38.454 268.814 38.454 267.39 Q38.454 264.248 36.8047 262.686 Q35.1727 261.123 31.8568 261.123 L30.2769 261.123 Q31.9957 262.113 32.8464 263.658 Q33.6971 265.203 33.6971 267.356 Q33.6971 270.932 30.9714 273.12 Q28.2457 275.307 23.7492 275.307 Q19.2353 275.307 16.5097 273.12 Q13.784 270.932 13.784 267.356 Q13.784 265.203 14.6347 263.658 Q15.4854 262.113 17.2041 261.123 L14.2527 261.123 L14.2527 257.929 L31.2839 257.929 Z" fill="#000000" fill-rule="evenodd" fill-opacity="1" /><path clip-path="url(#clip410)" d="M23.1763 234.717 L24.7388 234.717 L24.7388 249.404 Q28.0374 249.196 29.7735 247.425 Q31.4922 245.637 31.4922 242.46 Q31.4922 240.62 31.0408 238.901 Q30.5894 237.165 29.6867 235.463 L32.7075 235.463 Q33.4366 237.182 33.8186 238.988 Q34.2005 240.793 34.2005 242.651 Q34.2005 247.304 31.4922 250.029 Q28.7839 252.738 24.1659 252.738 Q19.3916 252.738 16.5965 250.168 Q13.784 247.581 13.784 243.206 Q13.784 239.283 16.3187 237.009 Q18.836 234.717 23.1763 234.717 M22.2388 237.911 Q19.6173 237.946 18.0548 239.387 Q16.4923 240.811 16.4923 243.172 Q16.4923 245.845 18.0027 247.46 Q19.5131 249.057 22.2561 249.3 L22.2388 237.911 Z" fill="#000000" fill-rule="evenodd" fill-opacity="1" /><path clip-path="url(#clip410)" d="M17.2388 218.207 Q16.9263 218.745 16.7874 219.387 Q16.6312 220.012 16.6312 220.776 Q16.6312 223.484 18.402 224.943 Q20.1555 226.384 23.4541 226.384 L33.6971 226.384 L33.6971 229.595 L14.2527 229.595 L14.2527 226.384 L17.2735 226.384 Q15.5027 225.377 14.652 223.762 Q13.784 222.148 13.784 219.839 Q13.784 219.509 13.8361 219.109 Q13.8708 218.71 13.9576 218.224 L17.2388 218.207 Z" fill="#000000" fill-rule="evenodd" fill-opacity="1" /><path clip-path="url(#clip410)" d="M17.2041 190.759 L6.68332 190.759 L6.68332 187.564 L33.6971 187.564 L33.6971 190.759 L30.7804 190.759 Q32.5165 191.766 33.3672 193.311 Q34.2005 194.839 34.2005 196.991 Q34.2005 200.516 31.388 202.738 Q28.5756 204.943 23.9923 204.943 Q19.4089 204.943 16.5965 202.738 Q13.784 200.516 13.784 196.991 Q13.784 194.839 14.6347 193.311 Q15.468 191.766 17.2041 190.759 M23.9923 201.644 Q27.5165 201.644 29.5304 200.203 Q31.5269 198.745 31.5269 196.21 Q31.5269 193.675 29.5304 192.217 Q27.5165 190.759 23.9923 190.759 Q20.468 190.759 18.4714 192.217 Q16.4576 193.675 16.4576 196.21 Q16.4576 198.745 18.4714 200.203 Q20.468 201.644 23.9923 201.644 Z" fill="#000000" fill-rule="evenodd" fill-opacity="1" /><path clip-path="url(#clip410)" d="M14.2527 180.985 L14.2527 177.79 L33.6971 177.79 L33.6971 180.985 L14.2527 180.985 M6.68332 180.985 L6.68332 177.79 L10.7284 177.79 L10.7284 180.985 L6.68332 180.985 Z" fill="#000000" fill-rule="evenodd" fill-opacity="1" /><path clip-path="url(#clip410)" d="M14.8256 158.71 L17.8465 158.71 Q17.152 160.065 16.8048 161.523 Q16.4576 162.981 16.4576 164.544 Q16.4576 166.922 17.1867 168.12 Q17.9159 169.301 19.3742 169.301 Q20.4853 169.301 21.1277 168.45 Q21.7527 167.599 22.3256 165.03 L22.5686 163.936 Q23.2978 160.533 24.6346 159.11 Q25.954 157.669 28.3325 157.669 Q31.0408 157.669 32.6207 159.822 Q34.2005 161.957 34.2005 165.707 Q34.2005 167.269 33.888 168.971 Q33.5929 170.655 32.9853 172.53 L29.6867 172.53 Q30.6068 170.759 31.0755 169.04 Q31.5269 167.321 31.5269 165.637 Q31.5269 163.381 30.763 162.165 Q29.9818 160.95 28.5756 160.95 Q27.2735 160.95 26.579 161.835 Q25.8846 162.703 25.2422 165.672 L24.9818 166.783 Q24.3568 169.752 23.0721 171.071 Q21.77 172.391 19.5131 172.391 Q16.7701 172.391 15.277 170.446 Q13.784 168.502 13.784 164.926 Q13.784 163.155 14.0444 161.592 Q14.3048 160.03 14.8256 158.71 Z" fill="#000000" fill-rule="evenodd" fill-opacity="1" /><path clip-path="url(#clip410)" d="M8.73192 149.422 L14.2527 149.422 L14.2527 142.842 L16.7353 142.842 L16.7353 149.422 L27.2908 149.422 Q29.6693 149.422 30.3464 148.78 Q31.0235 148.12 31.0235 146.124 L31.0235 142.842 L33.6971 142.842 L33.6971 146.124 Q33.6971 149.822 32.3255 151.228 Q30.9367 152.634 27.2908 152.634 L16.7353 152.634 L16.7353 154.978 L14.2527 154.978 L14.2527 152.634 L8.73192 152.634 L8.73192 149.422 Z" fill="#000000" fill-rule="evenodd" fill-opacity="1" /><path clip-path="url(#clip410)" d="M23.9228 129.804 Q23.9228 133.676 24.8082 135.169 Q25.6936 136.662 27.829 136.662 Q29.5304 136.662 30.5374 135.551 Q31.5269 134.422 31.5269 132.495 Q31.5269 129.839 29.6519 128.242 Q27.7596 126.627 24.6346 126.627 L23.9228 126.627 L23.9228 129.804 M22.6034 123.433 L33.6971 123.433 L33.6971 126.627 L30.7457 126.627 Q32.5165 127.721 33.3672 129.353 Q34.2005 130.985 34.2005 133.346 Q34.2005 136.332 32.5339 138.103 Q30.8499 139.856 28.0374 139.856 Q24.7561 139.856 23.0895 137.669 Q21.4228 135.464 21.4228 131.106 L21.4228 126.627 L21.1103 126.627 Q18.9055 126.627 17.7076 128.086 Q16.4923 129.527 16.4923 132.148 Q16.4923 133.815 16.8916 135.395 Q17.2909 136.974 18.0895 138.433 L15.1381 138.433 Q14.4611 136.679 14.1312 135.03 Q13.784 133.381 13.784 131.818 Q13.784 127.599 15.9715 125.516 Q18.1589 123.433 22.6034 123.433 Z" fill="#000000" fill-rule="evenodd" fill-opacity="1" /><path clip-path="url(#clip410)" d="M21.961 100.69 L33.6971 100.69 L33.6971 103.884 L22.0652 103.884 Q19.3048 103.884 17.9333 104.961 Q16.5617 106.037 16.5617 108.19 Q16.5617 110.777 18.211 112.27 Q19.8603 113.763 22.7075 113.763 L33.6971 113.763 L33.6971 116.975 L14.2527 116.975 L14.2527 113.763 L17.2735 113.763 Q15.5201 112.617 14.652 111.072 Q13.784 109.509 13.784 107.478 Q13.784 104.127 15.8673 102.409 Q17.9333 100.69 21.961 100.69 Z" fill="#000000" fill-rule="evenodd" fill-opacity="1" /><path clip-path="url(#clip410)" d="M14.9992 80.3254 L17.9853 80.3254 Q17.2388 81.6796 16.8742 83.0511 Q16.4923 84.4052 16.4923 85.7941 Q16.4923 88.9018 18.4714 90.6205 Q20.4332 92.3392 23.9923 92.3392 Q27.5513 92.3392 29.5304 90.6205 Q31.4922 88.9018 31.4922 85.7941 Q31.4922 84.4052 31.1276 83.0511 Q30.7457 81.6796 29.9992 80.3254 L32.9505 80.3254 Q33.5755 81.6622 33.888 83.1032 Q34.2005 84.5268 34.2005 86.1414 Q34.2005 90.5337 31.4401 93.1205 Q28.6797 95.7073 23.9923 95.7073 Q19.2353 95.7073 16.5097 93.1031 Q13.784 90.4816 13.784 85.933 Q13.784 84.4573 14.0965 83.0511 Q14.3916 81.6448 14.9992 80.3254 Z" fill="#000000" fill-rule="evenodd" fill-opacity="1" /><path clip-path="url(#clip410)" d="M23.1763 58.138 L24.7388 58.138 L24.7388 72.8255 Q28.0374 72.6171 29.7735 70.8463 Q31.4922 69.0581 31.4922 65.881 Q31.4922 64.0408 31.0408 62.322 Q30.5894 60.5859 29.6867 58.8846 L32.7075 58.8846 Q33.4366 60.6033 33.8186 62.4088 Q34.2005 64.2144 34.2005 66.072 Q34.2005 70.7248 31.4922 73.4504 Q28.7839 76.1588 24.1659 76.1588 Q19.3916 76.1588 16.5965 73.5893 Q13.784 71.0025 13.784 66.6276 Q13.784 62.704 16.3187 60.4297 Q18.836 58.138 23.1763 58.138 M22.2388 61.3325 Q19.6173 61.3672 18.0548 62.8081 Q16.4923 64.2317 16.4923 66.5928 Q16.4923 69.2664 18.0027 70.881 Q19.5131 72.4782 22.2561 72.7213 L22.2388 61.3325 Z" fill="#000000" fill-rule="evenodd" fill-opacity="1" /><polyline clip-path="url(#clip412)" style="stroke:#0088c3; stroke-linecap:butt; stroke-linejoin:round; stroke-width:6; stroke-opacity:1; fill:none" points="
  199.485,63.7583 247.872,179.854 344.645,259.668 441.417,288.857 538.19,304.523 634.963,306.157 876.895,326.411 1118.83,328.439 
  "/>
<polyline clip-path="url(#clip412)" style="stroke:#0088c3; stroke-linecap:butt; stroke-linejoin:round; stroke-width:6; stroke-opacity:1; fill:none" points="
  199.485,107.796 199.485,19.7203 
  "/>
<polyline clip-path="url(#clip412)" style="stroke:#0088c3; stroke-linecap:butt; stroke-linejoin:round; stroke-width:6; stroke-opacity:1; fill:none" points="
  247.872,213.902 247.872,145.806 
  "/>
<polyline clip-path="url(#clip412)" style="stroke:#0088c3; stroke-linecap:butt; stroke-linejoin:round; stroke-width:6; stroke-opacity:1; fill:none" points="
  344.645,275.794 344.645,243.543 
  "/>
<polyline clip-path="url(#clip412)" style="stroke:#0088c3; stroke-linecap:butt; stroke-linejoin:round; stroke-width:6; stroke-opacity:1; fill:none" points="
  441.417,298.035 441.417,279.679 
  "/>
<polyline clip-path="url(#clip412)" style="stroke:#0088c3; stroke-linecap:butt; stroke-linejoin:round; stroke-width:6; stroke-opacity:1; fill:none" points="
  538.19,314.228 538.19,294.818 
  "/>
<polyline clip-path="url(#clip412)" style="stroke:#0088c3; stroke-linecap:butt; stroke-linejoin:round; stroke-width:6; stroke-opacity:1; fill:none" points="
  634.963,318.709 634.963,293.604 
  "/>
<polyline clip-path="url(#clip412)" style="stroke:#0088c3; stroke-linecap:butt; stroke-linejoin:round; stroke-width:6; stroke-opacity:1; fill:none" points="
  876.895,332.844 876.895,319.978 
  "/>
<polyline clip-path="url(#clip412)" style="stroke:#0088c3; stroke-linecap:butt; stroke-linejoin:round; stroke-width:6; stroke-opacity:1; fill:none" points="
  1118.83,333.919 1118.83,322.959 
  "/>
<line clip-path="url(#clip412)" x1="215.485" y1="107.796" x2="183.485" y2="107.796" style="stroke:#0088c3; stroke-width:1.04; stroke-opacity:1"/>
<line clip-path="url(#clip412)" x1="215.485" y1="19.7203" x2="183.485" y2="19.7203" style="stroke:#0088c3; stroke-width:1.04; stroke-opacity:1"/>
<line clip-path="url(#clip412)" x1="263.872" y1="213.902" x2="231.872" y2="213.902" style="stroke:#0088c3; stroke-width:1.04; stroke-opacity:1"/>
<line clip-path="url(#clip412)" x1="263.872" y1="145.806" x2="231.872" y2="145.806" style="stroke:#0088c3; stroke-width:1.04; stroke-opacity:1"/>
<line clip-path="url(#clip412)" x1="360.645" y1="275.794" x2="328.645" y2="275.794" style="stroke:#0088c3; stroke-width:1.04; stroke-opacity:1"/>
<line clip-path="url(#clip412)" x1="360.645" y1="243.543" x2="328.645" y2="243.543" style="stroke:#0088c3; stroke-width:1.04; stroke-opacity:1"/>
<line clip-path="url(#clip412)" x1="457.417" y1="298.035" x2="425.417" y2="298.035" style="stroke:#0088c3; stroke-width:1.04; stroke-opacity:1"/>
<line clip-path="url(#clip412)" x1="457.417" y1="279.679" x2="425.417" y2="279.679" style="stroke:#0088c3; stroke-width:1.04; stroke-opacity:1"/>
<line clip-path="url(#clip412)" x1="554.19" y1="314.228" x2="522.19" y2="314.228" style="stroke:#0088c3; stroke-width:1.04; stroke-opacity:1"/>
<line clip-path="url(#clip412)" x1="554.19" y1="294.818" x2="522.19" y2="294.818" style="stroke:#0088c3; stroke-width:1.04; stroke-opacity:1"/>
<line clip-path="url(#clip412)" x1="650.963" y1="318.709" x2="618.963" y2="318.709" style="stroke:#0088c3; stroke-width:1.04; stroke-opacity:1"/>
<line clip-path="url(#clip412)" x1="650.963" y1="293.604" x2="618.963" y2="293.604" style="stroke:#0088c3; stroke-width:1.04; stroke-opacity:1"/>
<line clip-path="url(#clip412)" x1="892.895" y1="332.844" x2="860.895" y2="332.844" style="stroke:#0088c3; stroke-width:1.04; stroke-opacity:1"/>
<line clip-path="url(#clip412)" x1="892.895" y1="319.978" x2="860.895" y2="319.978" style="stroke:#0088c3; stroke-width:1.04; stroke-opacity:1"/>
<line clip-path="url(#clip412)" x1="1134.83" y1="333.919" x2="1102.83" y2="333.919" style="stroke:#0088c3; stroke-width:1.04; stroke-opacity:1"/>
<line clip-path="url(#clip412)" x1="1134.83" y1="322.959" x2="1102.83" y2="322.959" style="stroke:#0088c3; stroke-width:1.04; stroke-opacity:1"/>
</svg>
