<?xml version="1.0" encoding="utf-8"?>
<svg xmlns="http://www.w3.org/2000/svg" xmlns:xlink="http://www.w3.org/1999/xlink" width="290" height="130" viewBox="0 0 1160 520">
<defs>
  <clipPath id="clip930">
    <rect x="0" y="0" width="1160" height="520"/>
  </clipPath>
</defs>
<path clip-path="url(#clip930)" d="
M0 520 L1160 520 L1160 0 L0 0  Z
  " fill="#ffffff" fill-rule="evenodd" fill-opacity="1"/>
<defs>
  <clipPath id="clip931">
    <rect x="232" y="0" width="813" height="520"/>
  </clipPath>
</defs>
<path clip-path="url(#clip930)" d="
M150.734 416.95 L1144.25 416.95 L1144.25 15.748 L150.734 15.748  Z
  " fill="#ffffff" fill-rule="evenodd" fill-opacity="1"/>
<defs>
  <clipPath id="clip932">
    <rect x="150" y="15" width="995" height="402"/>
  </clipPath>
</defs>
<polyline clip-path="url(#clip930)" style="stroke:#000000; stroke-linecap:butt; stroke-linejoin:round; stroke-width:4; stroke-opacity:1; fill:none" points="
  150.734,416.95 1144.25,416.95 
  "/>
<polyline clip-path="url(#clip930)" style="stroke:#000000; stroke-linecap:butt; stroke-linejoin:round; stroke-width:4; stroke-opacity:1; fill:none" points="
  178.853,416.95 178.853,435.848 
  "/>
<polyline clip-path="url(#clip930)" style="stroke:#000000; stroke-linecap:butt; stroke-linejoin:round; stroke-width:4; stroke-opacity:1; fill:none" points="
  282.995,416.95 282.995,435.848 
  "/>
<polyline clip-path="url(#clip930)" style="stroke:#000000; stroke-linecap:butt; stroke-linejoin:round; stroke-width:4; stroke-opacity:1; fill:none" points="
  387.137,416.95 387.137,435.848 
  "/>
<polyline clip-path="url(#clip930)" style="stroke:#000000; stroke-linecap:butt; stroke-linejoin:round; stroke-width:4; stroke-opacity:1; fill:none" points="
  491.28,416.95 491.28,435.848 
  "/>
<polyline clip-path="url(#clip930)" style="stroke:#000000; stroke-linecap:butt; stroke-linejoin:round; stroke-width:4; stroke-opacity:1; fill:none" points="
  595.422,416.95 595.422,435.848 
  "/>
<polyline clip-path="url(#clip930)" style="stroke:#000000; stroke-linecap:butt; stroke-linejoin:round; stroke-width:4; stroke-opacity:1; fill:none" points="
  699.564,416.95 699.564,435.848 
  "/>
<polyline clip-path="url(#clip930)" style="stroke:#000000; stroke-linecap:butt; stroke-linejoin:round; stroke-width:4; stroke-opacity:1; fill:none" points="
  803.707,416.95 803.707,435.848 
  "/>
<polyline clip-path="url(#clip930)" style="stroke:#000000; stroke-linecap:butt; stroke-linejoin:round; stroke-width:4; stroke-opacity:1; fill:none" points="
  907.849,416.95 907.849,435.848 
  "/>
<polyline clip-path="url(#clip930)" style="stroke:#000000; stroke-linecap:butt; stroke-linejoin:round; stroke-width:4; stroke-opacity:1; fill:none" points="
  1011.99,416.95 1011.99,435.848 
  "/>
<polyline clip-path="url(#clip930)" style="stroke:#000000; stroke-linecap:butt; stroke-linejoin:round; stroke-width:4; stroke-opacity:1; fill:none" points="
  1116.13,416.95 1116.13,435.848 
  "/>
<path clip-path="url(#clip930)" d="M174.842 460.319 L187.082 460.319 L187.082 463.27 L170.624 463.27 L170.624 460.319 Q172.62 458.253 176.058 454.78 Q179.513 451.291 180.398 450.284 Q182.082 448.392 182.742 447.089 Q183.419 445.77 183.419 444.503 Q183.419 442.437 181.961 441.135 Q180.52 439.833 178.193 439.833 Q176.544 439.833 174.704 440.405 Q172.881 440.978 170.797 442.142 L170.797 438.6 Q172.915 437.749 174.756 437.315 Q176.596 436.881 178.124 436.881 Q182.151 436.881 184.547 438.895 Q186.943 440.909 186.943 444.277 Q186.943 445.874 186.335 447.315 Q185.745 448.739 184.165 450.683 Q183.731 451.187 181.405 453.6 Q179.079 455.996 174.842 460.319 Z" fill="#000000" fill-rule="evenodd" fill-opacity="1" /><path clip-path="url(#clip930)" d="M285.252 440.405 L276.398 454.242 L285.252 454.242 L285.252 440.405 M284.332 437.35 L288.742 437.35 L288.742 454.242 L292.44 454.242 L292.44 457.159 L288.742 457.159 L288.742 463.27 L285.252 463.27 L285.252 457.159 L273.551 457.159 L273.551 453.773 L284.332 437.35 Z" fill="#000000" fill-rule="evenodd" fill-opacity="1" /><path clip-path="url(#clip930)" d="M387.137 450.961 Q384.637 450.961 383.197 452.298 Q381.773 453.635 381.773 455.978 Q381.773 458.322 383.197 459.659 Q384.637 460.996 387.137 460.996 Q389.637 460.996 391.078 459.659 Q392.519 458.305 392.519 455.978 Q392.519 453.635 391.078 452.298 Q389.655 450.961 387.137 450.961 M383.631 449.468 Q381.374 448.912 380.106 447.367 Q378.856 445.822 378.856 443.6 Q378.856 440.492 381.061 438.687 Q383.283 436.881 387.137 436.881 Q391.009 436.881 393.214 438.687 Q395.419 440.492 395.419 443.6 Q395.419 445.822 394.151 447.367 Q392.901 448.912 390.662 449.468 Q393.196 450.058 394.603 451.777 Q396.026 453.496 396.026 455.978 Q396.026 459.746 393.717 461.76 Q391.426 463.773 387.137 463.773 Q382.849 463.773 380.54 461.76 Q378.249 459.746 378.249 455.978 Q378.249 453.496 379.672 451.777 Q381.096 450.058 383.631 449.468 M382.346 443.93 Q382.346 445.944 383.596 447.072 Q384.863 448.201 387.137 448.201 Q389.394 448.201 390.662 447.072 Q391.946 445.944 391.946 443.93 Q391.946 441.916 390.662 440.787 Q389.394 439.659 387.137 439.659 Q384.863 439.659 383.596 440.787 Q382.346 441.916 382.346 443.93 Z" fill="#000000" fill-rule="evenodd" fill-opacity="1" /><path clip-path="url(#clip930)" d="M472.235 460.319 L477.964 460.319 L477.964 440.544 L471.731 441.794 L471.731 438.6 L477.929 437.35 L481.436 437.35 L481.436 460.319 L487.165 460.319 L487.165 463.27 L472.235 463.27 L472.235 460.319 Z" fill="#000000" fill-rule="evenodd" fill-opacity="1" /><path clip-path="url(#clip930)" d="M502.182 448.912 Q499.821 448.912 498.433 450.527 Q497.061 452.142 497.061 454.954 Q497.061 457.749 498.433 459.381 Q499.821 460.996 502.182 460.996 Q504.544 460.996 505.915 459.381 Q507.304 457.749 507.304 454.954 Q507.304 452.142 505.915 450.527 Q504.544 448.912 502.182 448.912 M509.144 437.923 L509.144 441.117 Q507.825 440.492 506.471 440.162 Q505.134 439.833 503.814 439.833 Q500.342 439.833 498.502 442.176 Q496.679 444.52 496.419 449.26 Q497.443 447.749 498.988 446.951 Q500.533 446.135 502.391 446.135 Q506.297 446.135 508.554 448.513 Q510.828 450.874 510.828 454.954 Q510.828 458.947 508.467 461.36 Q506.106 463.773 502.182 463.773 Q497.686 463.773 495.308 460.336 Q492.929 456.881 492.929 450.336 Q492.929 444.19 495.846 440.544 Q498.762 436.881 503.676 436.881 Q504.995 436.881 506.332 437.142 Q507.686 437.402 509.144 437.923 Z" fill="#000000" fill-rule="evenodd" fill-opacity="1" /><path clip-path="url(#clip930)" d="M587.653 449.294 Q590.17 449.833 591.577 451.534 Q593 453.235 593 455.735 Q593 459.572 590.361 461.673 Q587.722 463.773 582.861 463.773 Q581.229 463.773 579.493 463.444 Q577.775 463.131 575.934 462.489 L575.934 459.103 Q577.393 459.954 579.129 460.388 Q580.865 460.822 582.757 460.822 Q586.056 460.822 587.775 459.52 Q589.511 458.218 589.511 455.735 Q589.511 453.444 587.896 452.159 Q586.299 450.857 583.434 450.857 L580.413 450.857 L580.413 447.975 L583.573 447.975 Q586.16 447.975 587.531 446.951 Q588.903 445.909 588.903 443.964 Q588.903 441.968 587.479 440.909 Q586.073 439.833 583.434 439.833 Q581.993 439.833 580.344 440.145 Q578.695 440.458 576.716 441.117 L576.716 437.992 Q578.712 437.437 580.448 437.159 Q582.202 436.881 583.747 436.881 Q587.74 436.881 590.066 438.704 Q592.393 440.51 592.393 443.6 Q592.393 445.753 591.16 447.246 Q589.927 448.721 587.653 449.294 Z" fill="#000000" fill-rule="evenodd" fill-opacity="1" /><path clip-path="url(#clip930)" d="M602.67 460.319 L614.91 460.319 L614.91 463.27 L598.452 463.27 L598.452 460.319 Q600.448 458.253 603.886 454.78 Q607.34 451.291 608.226 450.284 Q609.91 448.392 610.57 447.089 Q611.247 445.77 611.247 444.503 Q611.247 442.437 609.788 441.135 Q608.347 439.833 606.021 439.833 Q604.372 439.833 602.531 440.405 Q600.708 440.978 598.625 442.142 L598.625 438.6 Q600.743 437.749 602.583 437.315 Q604.424 436.881 605.952 436.881 Q609.979 436.881 612.375 438.895 Q614.771 440.909 614.771 444.277 Q614.771 445.874 614.163 447.315 Q613.573 448.739 611.993 450.683 Q611.559 451.187 609.233 453.6 Q606.906 455.996 602.67 460.319 Z" fill="#000000" fill-rule="evenodd" fill-opacity="1" /><path clip-path="url(#clip930)" d="M688.436 448.912 Q686.075 448.912 684.686 450.527 Q683.314 452.142 683.314 454.954 Q683.314 457.749 684.686 459.381 Q686.075 460.996 688.436 460.996 Q690.797 460.996 692.169 459.381 Q693.557 457.749 693.557 454.954 Q693.557 452.142 692.169 450.527 Q690.797 448.912 688.436 448.912 M695.398 437.923 L695.398 441.117 Q694.078 440.492 692.724 440.162 Q691.387 439.833 690.068 439.833 Q686.596 439.833 684.755 442.176 Q682.933 444.52 682.672 449.26 Q683.696 447.749 685.242 446.951 Q686.787 446.135 688.644 446.135 Q692.551 446.135 694.807 448.513 Q697.082 450.874 697.082 454.954 Q697.082 458.947 694.721 461.36 Q692.36 463.773 688.436 463.773 Q683.939 463.773 681.561 460.336 Q679.183 456.881 679.183 450.336 Q679.183 444.19 682.099 440.544 Q685.016 436.881 689.929 436.881 Q691.248 436.881 692.585 437.142 Q693.939 437.402 695.398 437.923 Z" fill="#000000" fill-rule="evenodd" fill-opacity="1" /><path clip-path="url(#clip930)" d="M712.759 440.405 L703.905 454.242 L712.759 454.242 L712.759 440.405 M711.839 437.35 L716.248 437.35 L716.248 454.242 L719.946 454.242 L719.946 457.159 L716.248 457.159 L716.248 463.27 L712.759 463.27 L712.759 457.159 L701.057 457.159 L701.057 453.773 L711.839 437.35 Z" fill="#000000" fill-rule="evenodd" fill-opacity="1" /><path clip-path="url(#clip930)" d="M773.446 460.319 L779.176 460.319 L779.176 440.544 L772.943 441.794 L772.943 438.6 L779.141 437.35 L782.648 437.35 L782.648 460.319 L788.377 460.319 L788.377 463.27 L773.446 463.27 L773.446 460.319 Z" fill="#000000" fill-rule="evenodd" fill-opacity="1" /><path clip-path="url(#clip930)" d="M798.481 460.319 L810.721 460.319 L810.721 463.27 L794.262 463.27 L794.262 460.319 Q796.259 458.253 799.696 454.78 Q803.151 451.291 804.037 450.284 Q805.721 448.392 806.38 447.089 Q807.057 445.77 807.057 444.503 Q807.057 442.437 805.599 441.135 Q804.158 439.833 801.832 439.833 Q800.182 439.833 798.342 440.405 Q796.519 440.978 794.436 442.142 L794.436 438.6 Q796.554 437.749 798.394 437.315 Q800.234 436.881 801.762 436.881 Q805.79 436.881 808.186 438.895 Q810.582 440.909 810.582 444.277 Q810.582 445.874 809.974 447.315 Q809.384 448.739 807.804 450.683 Q807.37 451.187 805.043 453.6 Q802.717 455.996 798.481 460.319 Z" fill="#000000" fill-rule="evenodd" fill-opacity="1" /><path clip-path="url(#clip930)" d="M825.582 450.961 Q823.082 450.961 821.641 452.298 Q820.217 453.635 820.217 455.978 Q820.217 458.322 821.641 459.659 Q823.082 460.996 825.582 460.996 Q828.082 460.996 829.522 459.659 Q830.963 458.305 830.963 455.978 Q830.963 453.635 829.522 452.298 Q828.099 450.961 825.582 450.961 M822.075 449.468 Q819.818 448.912 818.55 447.367 Q817.3 445.822 817.3 443.6 Q817.3 440.492 819.505 438.687 Q821.727 436.881 825.582 436.881 Q829.453 436.881 831.658 438.687 Q833.863 440.492 833.863 443.6 Q833.863 445.822 832.595 447.367 Q831.345 448.912 829.106 449.468 Q831.641 450.058 833.047 451.777 Q834.47 453.496 834.47 455.978 Q834.47 459.746 832.161 461.76 Q829.87 463.773 825.582 463.773 Q821.293 463.773 818.984 461.76 Q816.693 459.746 816.693 455.978 Q816.693 453.496 818.116 451.777 Q819.54 450.058 822.075 449.468 M820.79 443.93 Q820.79 445.944 822.04 447.072 Q823.307 448.201 825.582 448.201 Q827.838 448.201 829.106 447.072 Q830.391 445.944 830.391 443.93 Q830.391 441.916 829.106 440.787 Q827.838 439.659 825.582 439.659 Q823.307 439.659 822.04 440.787 Q820.79 441.916 820.79 443.93 Z" fill="#000000" fill-rule="evenodd" fill-opacity="1" /><path clip-path="url(#clip930)" d="M880.557 460.319 L892.797 460.319 L892.797 463.27 L876.339 463.27 L876.339 460.319 Q878.335 458.253 881.773 454.78 Q885.228 451.291 886.113 450.284 Q887.797 448.392 888.457 447.089 Q889.134 445.77 889.134 444.503 Q889.134 442.437 887.675 441.135 Q886.234 439.833 883.908 439.833 Q882.259 439.833 880.419 440.405 Q878.596 440.978 876.512 442.142 L876.512 438.6 Q878.63 437.749 880.471 437.315 Q882.311 436.881 883.839 436.881 Q887.866 436.881 890.262 438.895 Q892.658 440.909 892.658 444.277 Q892.658 445.874 892.05 447.315 Q891.46 448.739 889.88 450.683 Q889.446 451.187 887.12 453.6 Q884.794 455.996 880.557 460.319 Z" fill="#000000" fill-rule="evenodd" fill-opacity="1" /><path clip-path="url(#clip930)" d="M900.193 437.35 L913.96 437.35 L913.96 440.301 L903.405 440.301 L903.405 446.655 Q904.168 446.395 904.932 446.274 Q905.696 446.135 906.46 446.135 Q910.8 446.135 913.335 448.513 Q915.87 450.892 915.87 454.954 Q915.87 459.138 913.266 461.464 Q910.661 463.773 905.922 463.773 Q904.29 463.773 902.589 463.496 Q900.905 463.218 899.099 462.662 L899.099 459.138 Q900.661 459.989 902.328 460.405 Q903.995 460.822 905.852 460.822 Q908.856 460.822 910.609 459.242 Q912.363 457.662 912.363 454.954 Q912.363 452.246 910.609 450.666 Q908.856 449.086 905.852 449.086 Q904.446 449.086 903.04 449.398 Q901.651 449.711 900.193 450.371 L900.193 437.35 Z" fill="#000000" fill-rule="evenodd" fill-opacity="1" /><path clip-path="url(#clip930)" d="M930.713 448.912 Q928.352 448.912 926.963 450.527 Q925.592 452.142 925.592 454.954 Q925.592 457.749 926.963 459.381 Q928.352 460.996 930.713 460.996 Q933.075 460.996 934.446 459.381 Q935.835 457.749 935.835 454.954 Q935.835 452.142 934.446 450.527 Q933.075 448.912 930.713 448.912 M937.675 437.923 L937.675 441.117 Q936.356 440.492 935.002 440.162 Q933.665 439.833 932.345 439.833 Q928.873 439.833 927.033 442.176 Q925.21 444.52 924.95 449.26 Q925.974 447.749 927.519 446.951 Q929.064 446.135 930.922 446.135 Q934.828 446.135 937.085 448.513 Q939.359 450.874 939.359 454.954 Q939.359 458.947 936.998 461.36 Q934.637 463.773 930.713 463.773 Q926.217 463.773 923.838 460.336 Q921.46 456.881 921.46 450.336 Q921.46 444.19 924.377 440.544 Q927.293 436.881 932.206 436.881 Q933.526 436.881 934.863 437.142 Q936.217 437.402 937.675 437.923 Z" fill="#000000" fill-rule="evenodd" fill-opacity="1" /><path clip-path="url(#clip930)" d="M982.304 437.35 L996.071 437.35 L996.071 440.301 L985.516 440.301 L985.516 446.655 Q986.28 446.395 987.043 446.274 Q987.807 446.135 988.571 446.135 Q992.911 446.135 995.446 448.513 Q997.981 450.892 997.981 454.954 Q997.981 459.138 995.377 461.464 Q992.773 463.773 988.033 463.773 Q986.401 463.773 984.7 463.496 Q983.016 463.218 981.21 462.662 L981.21 459.138 Q982.773 459.989 984.439 460.405 Q986.106 460.822 987.964 460.822 Q990.967 460.822 992.721 459.242 Q994.474 457.662 994.474 454.954 Q994.474 452.246 992.721 450.666 Q990.967 449.086 987.964 449.086 Q986.557 449.086 985.151 449.398 Q983.762 449.711 982.304 450.371 L982.304 437.35 Z" fill="#000000" fill-rule="evenodd" fill-opacity="1" /><path clip-path="url(#clip930)" d="M1005.5 460.319 L1011.23 460.319 L1011.23 440.544 L1004.99 441.794 L1004.99 438.6 L1011.19 437.35 L1014.7 437.35 L1014.7 460.319 L1020.43 460.319 L1020.43 463.27 L1005.5 463.27 L1005.5 460.319 Z" fill="#000000" fill-rule="evenodd" fill-opacity="1" /><path clip-path="url(#clip930)" d="M1030.53 460.319 L1042.77 460.319 L1042.77 463.27 L1026.31 463.27 L1026.31 460.319 Q1028.31 458.253 1031.75 454.78 Q1035.2 451.291 1036.09 450.284 Q1037.77 448.392 1038.43 447.089 Q1039.11 445.77 1039.11 444.503 Q1039.11 442.437 1037.65 441.135 Q1036.21 439.833 1033.88 439.833 Q1032.23 439.833 1030.39 440.405 Q1028.57 440.978 1026.49 442.142 L1026.49 438.6 Q1028.61 437.749 1030.45 437.315 Q1032.29 436.881 1033.81 436.881 Q1037.84 436.881 1040.24 438.895 Q1042.63 440.909 1042.63 444.277 Q1042.63 445.874 1042.03 447.315 Q1041.44 448.739 1039.86 450.683 Q1039.42 451.187 1037.1 453.6 Q1034.77 455.996 1030.53 460.319 Z" fill="#000000" fill-rule="evenodd" fill-opacity="1" /><path clip-path="url(#clip930)" d="M1074.35 460.319 L1080.07 460.319 L1080.07 440.544 L1073.84 441.794 L1073.84 438.6 L1080.04 437.35 L1083.55 437.35 L1083.55 460.319 L1089.28 460.319 L1089.28 463.27 L1074.35 463.27 L1074.35 460.319 Z" fill="#000000" fill-rule="evenodd" fill-opacity="1" /><path clip-path="url(#clip930)" d="M1103.86 439.659 Q1101.15 439.659 1099.78 442.333 Q1098.43 444.989 1098.43 450.336 Q1098.43 455.666 1099.78 458.339 Q1101.15 460.996 1103.86 460.996 Q1106.58 460.996 1107.94 458.339 Q1109.31 455.666 1109.31 450.336 Q1109.31 444.989 1107.94 442.333 Q1106.58 439.659 1103.86 439.659 M1103.86 436.881 Q1108.22 436.881 1110.51 440.336 Q1112.82 443.774 1112.82 450.336 Q1112.82 456.881 1110.51 460.336 Q1108.22 463.773 1103.86 463.773 Q1099.5 463.773 1097.19 460.336 Q1094.9 456.881 1094.9 450.336 Q1094.9 443.774 1097.19 440.336 Q1099.5 436.881 1103.86 436.881 Z" fill="#000000" fill-rule="evenodd" fill-opacity="1" /><path clip-path="url(#clip930)" d="M1122 460.319 L1134.24 460.319 L1134.24 463.27 L1117.78 463.27 L1117.78 460.319 Q1119.78 458.253 1123.22 454.78 Q1126.67 451.291 1127.56 450.284 Q1129.24 448.392 1129.9 447.089 Q1130.58 445.77 1130.58 444.503 Q1130.58 442.437 1129.12 441.135 Q1127.68 439.833 1125.35 439.833 Q1123.7 439.833 1121.86 440.405 Q1120.04 440.978 1117.96 442.142 L1117.96 438.6 Q1120.07 437.749 1121.91 437.315 Q1123.76 436.881 1125.28 436.881 Q1129.31 436.881 1131.71 438.895 Q1134.1 440.909 1134.1 444.277 Q1134.1 445.874 1133.49 447.315 Q1132.9 448.739 1131.32 450.683 Q1130.89 451.187 1128.56 453.6 Q1126.24 455.996 1122 460.319 Z" fill="#000000" fill-rule="evenodd" fill-opacity="1" /><path clip-path="url(#clip930)" d="M1151.24 440.405 L1142.38 454.242 L1151.24 454.242 L1151.24 440.405 M1150.32 437.35 L1154.73 437.35 L1154.73 454.242 L1158.42 454.242 L1158.42 457.159 L1154.73 457.159 L1154.73 463.27 L1151.24 463.27 L1151.24 457.159 L1139.54 457.159 L1139.54 453.773 L1150.32 437.35 Z" fill="#000000" fill-rule="evenodd" fill-opacity="1" /><path clip-path="url(#clip930)" d="M496.643 492.598 L496.643 504.334 L493.449 504.334 L493.449 492.702 Q493.449 489.942 492.373 488.57 Q491.296 487.199 489.143 487.199 Q486.557 487.199 485.064 488.848 Q483.57 490.497 483.57 493.344 L483.57 504.334 L480.359 504.334 L480.359 484.89 L483.57 484.89 L483.57 487.91 Q484.716 486.157 486.261 485.289 Q487.824 484.421 489.855 484.421 Q493.206 484.421 494.925 486.504 Q496.643 488.57 496.643 492.598 Z" fill="#000000" fill-rule="evenodd" fill-opacity="1" /><path clip-path="url(#clip930)" d="M502.685 496.66 L502.685 484.89 L505.879 484.89 L505.879 496.539 Q505.879 499.299 506.956 500.688 Q508.032 502.06 510.185 502.06 Q512.772 502.06 514.265 500.41 Q515.775 498.761 515.775 495.914 L515.775 484.89 L518.97 484.89 L518.97 504.334 L515.775 504.334 L515.775 501.348 Q514.612 503.119 513.067 503.987 Q511.539 504.837 509.508 504.837 Q506.157 504.837 504.421 502.754 Q502.685 500.671 502.685 496.66 M510.723 484.421 L510.723 484.421 Z" fill="#000000" fill-rule="evenodd" fill-opacity="1" /><path clip-path="url(#clip930)" d="M540.688 488.622 Q541.886 486.469 543.553 485.445 Q545.219 484.421 547.476 484.421 Q550.515 484.421 552.164 486.556 Q553.813 488.674 553.813 492.598 L553.813 504.334 L550.601 504.334 L550.601 492.702 Q550.601 489.907 549.612 488.553 Q548.622 487.199 546.591 487.199 Q544.108 487.199 542.667 488.848 Q541.226 490.497 541.226 493.344 L541.226 504.334 L538.015 504.334 L538.015 492.702 Q538.015 489.89 537.025 488.553 Q536.035 487.199 533.97 487.199 Q531.522 487.199 530.081 488.865 Q528.64 490.515 528.64 493.344 L528.64 504.334 L525.428 504.334 L525.428 484.89 L528.64 484.89 L528.64 487.91 Q529.733 486.122 531.261 485.272 Q532.789 484.421 534.89 484.421 Q537.008 484.421 538.483 485.497 Q539.976 486.574 540.688 488.622 Z" fill="#000000" fill-rule="evenodd" fill-opacity="1" /><path clip-path="url(#clip930)" d="M574.143 494.629 Q574.143 491.105 572.685 489.108 Q571.244 487.094 568.709 487.094 Q566.174 487.094 564.716 489.108 Q563.275 491.105 563.275 494.629 Q563.275 498.153 564.716 500.167 Q566.174 502.164 568.709 502.164 Q571.244 502.164 572.685 500.167 Q574.143 498.153 574.143 494.629 M563.275 487.841 Q564.282 486.105 565.81 485.272 Q567.355 484.421 569.49 484.421 Q573.032 484.421 575.237 487.233 Q577.459 490.046 577.459 494.629 Q577.459 499.212 575.237 502.025 Q573.032 504.837 569.49 504.837 Q567.355 504.837 565.81 504.004 Q564.282 503.153 563.275 501.417 L563.275 504.334 L560.063 504.334 L560.063 477.32 L563.275 477.32 L563.275 487.841 Z" fill="#000000" fill-rule="evenodd" fill-opacity="1" /><path clip-path="url(#clip930)" d="M599.386 493.813 L599.386 495.376 L584.698 495.376 Q584.907 498.674 586.678 500.41 Q588.466 502.129 591.643 502.129 Q593.483 502.129 595.202 501.678 Q596.938 501.226 598.639 500.324 L598.639 503.344 Q596.921 504.074 595.115 504.455 Q593.309 504.837 591.452 504.837 Q586.799 504.837 584.073 502.129 Q581.365 499.421 581.365 494.803 Q581.365 490.028 583.935 487.233 Q586.521 484.421 590.896 484.421 Q594.82 484.421 597.094 486.956 Q599.386 489.473 599.386 493.813 M596.191 492.876 Q596.157 490.254 594.716 488.692 Q593.292 487.129 590.931 487.129 Q588.257 487.129 586.643 488.64 Q585.046 490.15 584.803 492.893 L596.191 492.876 Z" fill="#000000" fill-rule="evenodd" fill-opacity="1" /><path clip-path="url(#clip930)" d="M615.896 487.876 Q615.358 487.563 614.716 487.424 Q614.091 487.268 613.327 487.268 Q610.618 487.268 609.16 489.039 Q607.719 490.792 607.719 494.091 L607.719 504.334 L604.507 504.334 L604.507 484.89 L607.719 484.89 L607.719 487.91 Q608.726 486.14 610.341 485.289 Q611.955 484.421 614.264 484.421 Q614.594 484.421 614.993 484.473 Q615.393 484.508 615.879 484.594 L615.896 487.876 Z" fill="#000000" fill-rule="evenodd" fill-opacity="1" /><path clip-path="url(#clip930)" d="M638.084 487.129 Q635.514 487.129 634.021 489.143 Q632.528 491.14 632.528 494.629 Q632.528 498.119 634.004 500.133 Q635.497 502.129 638.084 502.129 Q640.636 502.129 642.129 500.115 Q643.622 498.101 643.622 494.629 Q643.622 491.174 642.129 489.16 Q640.636 487.129 638.084 487.129 M638.084 484.421 Q642.25 484.421 644.629 487.129 Q647.007 489.837 647.007 494.629 Q647.007 499.403 644.629 502.129 Q642.25 504.837 638.084 504.837 Q633.9 504.837 631.521 502.129 Q629.16 499.403 629.16 494.629 Q629.16 489.837 631.521 487.129 Q633.9 484.421 638.084 484.421 Z" fill="#000000" fill-rule="evenodd" fill-opacity="1" /><path clip-path="url(#clip930)" d="M662.146 477.32 L662.146 479.976 L659.09 479.976 Q657.372 479.976 656.695 480.671 Q656.035 481.365 656.035 483.171 L656.035 484.89 L661.295 484.89 L661.295 487.372 L656.035 487.372 L656.035 504.334 L652.823 504.334 L652.823 487.372 L649.768 487.372 L649.768 484.89 L652.823 484.89 L652.823 483.535 Q652.823 480.289 654.333 478.813 Q655.844 477.32 659.125 477.32 L662.146 477.32 Z" fill="#000000" fill-rule="evenodd" fill-opacity="1" /><path clip-path="url(#clip930)" d="M692.285 492.598 L692.285 504.334 L689.09 504.334 L689.09 492.702 Q689.09 489.942 688.014 488.57 Q686.937 487.199 684.785 487.199 Q682.198 487.199 680.705 488.848 Q679.212 490.497 679.212 493.344 L679.212 504.334 L676 504.334 L676 484.89 L679.212 484.89 L679.212 487.91 Q680.358 486.157 681.903 485.289 Q683.465 484.421 685.496 484.421 Q688.847 484.421 690.566 486.504 Q692.285 488.57 692.285 492.598 Z" fill="#000000" fill-rule="evenodd" fill-opacity="1" /><path clip-path="url(#clip930)" d="M715.288 493.813 L715.288 495.376 L700.601 495.376 Q700.809 498.674 702.58 500.41 Q704.368 502.129 707.545 502.129 Q709.385 502.129 711.104 501.678 Q712.84 501.226 714.541 500.324 L714.541 503.344 Q712.823 504.074 711.017 504.455 Q709.212 504.837 707.354 504.837 Q702.701 504.837 699.976 502.129 Q697.267 499.421 697.267 494.803 Q697.267 490.028 699.837 487.233 Q702.423 484.421 706.798 484.421 Q710.722 484.421 712.996 486.956 Q715.288 489.473 715.288 493.813 M712.094 492.876 Q712.059 490.254 710.618 488.692 Q709.194 487.129 706.833 487.129 Q704.16 487.129 702.545 488.64 Q700.948 490.15 700.705 492.893 L712.094 492.876 Z" fill="#000000" fill-rule="evenodd" fill-opacity="1" /><path clip-path="url(#clip930)" d="M720.201 496.66 L720.201 484.89 L723.396 484.89 L723.396 496.539 Q723.396 499.299 724.472 500.688 Q725.548 502.06 727.701 502.06 Q730.288 502.06 731.781 500.41 Q733.291 498.761 733.291 495.914 L733.291 484.89 L736.486 484.89 L736.486 504.334 L733.291 504.334 L733.291 501.348 Q732.128 503.119 730.583 503.987 Q729.055 504.837 727.024 504.837 Q723.673 504.837 721.937 502.754 Q720.201 500.671 720.201 496.66 M728.239 484.421 L728.239 484.421 Z" fill="#000000" fill-rule="evenodd" fill-opacity="1" /><path clip-path="url(#clip930)" d="M754.333 487.876 Q753.795 487.563 753.152 487.424 Q752.527 487.268 751.763 487.268 Q749.055 487.268 747.597 489.039 Q746.156 490.792 746.156 494.091 L746.156 504.334 L742.944 504.334 L742.944 484.89 L746.156 484.89 L746.156 487.91 Q747.163 486.14 748.777 485.289 Q750.392 484.421 752.701 484.421 Q753.031 484.421 753.43 484.473 Q753.829 484.508 754.316 484.594 L754.333 487.876 Z" fill="#000000" fill-rule="evenodd" fill-opacity="1" /><path clip-path="url(#clip930)" d="M764.437 487.129 Q761.868 487.129 760.375 489.143 Q758.882 491.14 758.882 494.629 Q758.882 498.119 760.357 500.133 Q761.85 502.129 764.437 502.129 Q766.989 502.129 768.482 500.115 Q769.975 498.101 769.975 494.629 Q769.975 491.174 768.482 489.16 Q766.989 487.129 764.437 487.129 M764.437 484.421 Q768.604 484.421 770.982 487.129 Q773.361 489.837 773.361 494.629 Q773.361 499.403 770.982 502.129 Q768.604 504.837 764.437 504.837 Q760.253 504.837 757.875 502.129 Q755.513 499.403 755.513 494.629 Q755.513 489.837 757.875 487.129 Q760.253 484.421 764.437 484.421 Z" fill="#000000" fill-rule="evenodd" fill-opacity="1" /><path clip-path="url(#clip930)" d="M794.819 492.598 L794.819 504.334 L791.624 504.334 L791.624 492.702 Q791.624 489.942 790.548 488.57 Q789.472 487.199 787.319 487.199 Q784.732 487.199 783.239 488.848 Q781.746 490.497 781.746 493.344 L781.746 504.334 L778.534 504.334 L778.534 484.89 L781.746 484.89 L781.746 487.91 Q782.892 486.157 784.437 485.289 Q785.999 484.421 788.031 484.421 Q791.381 484.421 793.1 486.504 Q794.819 488.57 794.819 492.598 Z" fill="#000000" fill-rule="evenodd" fill-opacity="1" /><path clip-path="url(#clip930)" d="M813.586 485.463 L813.586 488.483 Q812.232 487.789 810.774 487.442 Q809.315 487.094 807.753 487.094 Q805.374 487.094 804.176 487.824 Q802.996 488.553 802.996 490.011 Q802.996 491.122 803.847 491.765 Q804.697 492.39 807.267 492.962 L808.36 493.206 Q811.763 493.935 813.187 495.271 Q814.628 496.591 814.628 498.969 Q814.628 501.678 812.475 503.258 Q810.34 504.837 806.59 504.837 Q805.027 504.837 803.326 504.525 Q801.642 504.23 799.767 503.622 L799.767 500.324 Q801.538 501.244 803.256 501.712 Q804.975 502.164 806.659 502.164 Q808.916 502.164 810.131 501.4 Q811.347 500.619 811.347 499.212 Q811.347 497.91 810.461 497.216 Q809.593 496.521 806.624 495.879 L805.513 495.619 Q802.544 494.994 801.225 493.709 Q799.906 492.407 799.906 490.15 Q799.906 487.407 801.85 485.914 Q803.794 484.421 807.371 484.421 Q809.142 484.421 810.704 484.681 Q812.267 484.942 813.586 485.463 Z" fill="#000000" fill-rule="evenodd" fill-opacity="1" /><polyline clip-path="url(#clip930)" style="stroke:#000000; stroke-linecap:butt; stroke-linejoin:round; stroke-width:4; stroke-opacity:1; fill:none" points="
  150.734,416.95 150.734,15.748 
  "/>
<polyline clip-path="url(#clip930)" style="stroke:#000000; stroke-linecap:butt; stroke-linejoin:round; stroke-width:4; stroke-opacity:1; fill:none" points="
  150.734,416.95 131.837,416.95 
  "/>
<polyline clip-path="url(#clip930)" style="stroke:#000000; stroke-linecap:butt; stroke-linejoin:round; stroke-width:4; stroke-opacity:1; fill:none" points="
  150.734,329.236 131.837,329.236 
  "/>
<polyline clip-path="url(#clip930)" style="stroke:#000000; stroke-linecap:butt; stroke-linejoin:round; stroke-width:4; stroke-opacity:1; fill:none" points="
  150.734,241.522 131.837,241.522 
  "/>
<polyline clip-path="url(#clip930)" style="stroke:#000000; stroke-linecap:butt; stroke-linejoin:round; stroke-width:4; stroke-opacity:1; fill:none" points="
  150.734,153.808 131.837,153.808 
  "/>
<polyline clip-path="url(#clip930)" style="stroke:#000000; stroke-linecap:butt; stroke-linejoin:round; stroke-width:4; stroke-opacity:1; fill:none" points="
  150.734,66.0939 131.837,66.0939 
  "/>
<path clip-path="url(#clip930)" d="M59.1313 406.299 Q56.423 406.299 55.0515 408.973 Q53.6973 411.629 53.6973 416.976 Q53.6973 422.306 55.0515 424.979 Q56.423 427.636 59.1313 427.636 Q61.857 427.636 63.2112 424.979 Q64.5827 422.306 64.5827 416.976 Q64.5827 411.629 63.2112 408.973 Q61.857 406.299 59.1313 406.299 M59.1313 403.521 Q63.489 403.521 65.7806 406.976 Q68.0896 410.414 68.0896 416.976 Q68.0896 423.521 65.7806 426.976 Q63.489 430.413 59.1313 430.413 Q54.7737 430.413 52.4647 426.976 Q50.1731 423.521 50.1731 416.976 Q50.1731 410.414 52.4647 406.976 Q54.7737 403.521 59.1313 403.521 Z" fill="#000000" fill-rule="evenodd" fill-opacity="1" /><path clip-path="url(#clip930)" d="M74.2528 425.5 L77.916 425.5 L77.916 429.91 L74.2528 429.91 L74.2528 425.5 Z" fill="#000000" fill-rule="evenodd" fill-opacity="1" /><path clip-path="url(#clip930)" d="M93.0548 406.299 Q90.3465 406.299 88.9749 408.973 Q87.6208 411.629 87.6208 416.976 Q87.6208 422.306 88.9749 424.979 Q90.3465 427.636 93.0548 427.636 Q95.7805 427.636 97.1346 424.979 Q98.5061 422.306 98.5061 416.976 Q98.5061 411.629 97.1346 408.973 Q95.7805 406.299 93.0548 406.299 M93.0548 403.521 Q97.4124 403.521 99.704 406.976 Q102.013 410.414 102.013 416.976 Q102.013 423.521 99.704 426.976 Q97.4124 430.413 93.0548 430.413 Q88.6972 430.413 86.3881 426.976 Q84.0965 423.521 84.0965 416.976 Q84.0965 410.414 86.3881 406.976 Q88.6972 403.521 93.0548 403.521 Z" fill="#000000" fill-rule="evenodd" fill-opacity="1" /><path clip-path="url(#clip930)" d="M115.676 406.299 Q112.968 406.299 111.596 408.973 Q110.242 411.629 110.242 416.976 Q110.242 422.306 111.596 424.979 Q112.968 427.636 115.676 427.636 Q118.402 427.636 119.756 424.979 Q121.128 422.306 121.128 416.976 Q121.128 411.629 119.756 408.973 Q118.402 406.299 115.676 406.299 M115.676 403.521 Q120.034 403.521 122.325 406.976 Q124.634 410.414 124.634 416.976 Q124.634 423.521 122.325 426.976 Q120.034 430.413 115.676 430.413 Q111.319 430.413 109.01 426.976 Q106.718 423.521 106.718 416.976 Q106.718 410.414 109.01 406.976 Q111.319 403.521 115.676 403.521 Z" fill="#000000" fill-rule="evenodd" fill-opacity="1" /><path clip-path="url(#clip930)" d="M59.8779 318.585 Q57.1696 318.585 55.798 321.259 Q54.4439 323.915 54.4439 329.262 Q54.4439 334.592 55.798 337.265 Q57.1696 339.922 59.8779 339.922 Q62.6035 339.922 63.9577 337.265 Q65.3292 334.592 65.3292 329.262 Q65.3292 323.915 63.9577 321.259 Q62.6035 318.585 59.8779 318.585 M59.8779 315.807 Q64.2355 315.807 66.5271 319.262 Q68.8362 322.7 68.8362 329.262 Q68.8362 335.807 66.5271 339.262 Q64.2355 342.699 59.8779 342.699 Q55.5203 342.699 53.2112 339.262 Q50.9196 335.807 50.9196 329.262 Q50.9196 322.7 53.2112 319.262 Q55.5203 315.807 59.8779 315.807 Z" fill="#000000" fill-rule="evenodd" fill-opacity="1" /><path clip-path="url(#clip930)" d="M74.9993 337.786 L78.6625 337.786 L78.6625 342.196 L74.9993 342.196 L74.9993 337.786 Z" fill="#000000" fill-rule="evenodd" fill-opacity="1" /><path clip-path="url(#clip930)" d="M93.8013 318.585 Q91.093 318.585 89.7215 321.259 Q88.3673 323.915 88.3673 329.262 Q88.3673 334.592 89.7215 337.265 Q91.093 339.922 93.8013 339.922 Q96.527 339.922 97.8811 337.265 Q99.2527 334.592 99.2527 329.262 Q99.2527 323.915 97.8811 321.259 Q96.527 318.585 93.8013 318.585 M93.8013 315.807 Q98.1589 315.807 100.451 319.262 Q102.76 322.7 102.76 329.262 Q102.76 335.807 100.451 339.262 Q98.1589 342.699 93.8013 342.699 Q89.4437 342.699 87.1347 339.262 Q84.843 335.807 84.843 329.262 Q84.843 322.7 87.1347 319.262 Q89.4437 315.807 93.8013 315.807 Z" fill="#000000" fill-rule="evenodd" fill-opacity="1" /><path clip-path="url(#clip930)" d="M108.957 316.276 L122.725 316.276 L122.725 319.227 L112.169 319.227 L112.169 325.581 Q112.933 325.321 113.697 325.2 Q114.461 325.061 115.225 325.061 Q119.565 325.061 122.1 327.439 Q124.634 329.818 124.634 333.88 Q124.634 338.064 122.03 340.39 Q119.426 342.699 114.687 342.699 Q113.055 342.699 111.353 342.422 Q109.669 342.144 107.864 341.588 L107.864 338.064 Q109.426 338.915 111.093 339.331 Q112.76 339.748 114.617 339.748 Q117.621 339.748 119.374 338.168 Q121.128 336.588 121.128 333.88 Q121.128 331.172 119.374 329.592 Q117.621 328.012 114.617 328.012 Q113.211 328.012 111.805 328.324 Q110.416 328.637 108.957 329.297 L108.957 316.276 Z" fill="#000000" fill-rule="evenodd" fill-opacity="1" /><path clip-path="url(#clip930)" d="M59.1313 230.871 Q56.423 230.871 55.0515 233.545 Q53.6973 236.201 53.6973 241.548 Q53.6973 246.878 55.0515 249.551 Q56.423 252.208 59.1313 252.208 Q61.857 252.208 63.2112 249.551 Q64.5827 246.878 64.5827 241.548 Q64.5827 236.201 63.2112 233.545 Q61.857 230.871 59.1313 230.871 M59.1313 228.093 Q63.489 228.093 65.7806 231.548 Q68.0896 234.986 68.0896 241.548 Q68.0896 248.093 65.7806 251.548 Q63.489 254.985 59.1313 254.985 Q54.7737 254.985 52.4647 251.548 Q50.1731 248.093 50.1731 241.548 Q50.1731 234.986 52.4647 231.548 Q54.7737 228.093 59.1313 228.093 Z" fill="#000000" fill-rule="evenodd" fill-opacity="1" /><path clip-path="url(#clip930)" d="M74.2528 250.072 L77.916 250.072 L77.916 254.482 L74.2528 254.482 L74.2528 250.072 Z" fill="#000000" fill-rule="evenodd" fill-opacity="1" /><path clip-path="url(#clip930)" d="M86.1625 251.531 L91.8916 251.531 L91.8916 231.756 L85.659 233.006 L85.659 229.812 L91.8569 228.562 L95.3638 228.562 L95.3638 251.531 L101.093 251.531 L101.093 254.482 L86.1625 254.482 L86.1625 251.531 Z" fill="#000000" fill-rule="evenodd" fill-opacity="1" /><path clip-path="url(#clip930)" d="M115.676 230.871 Q112.968 230.871 111.596 233.545 Q110.242 236.201 110.242 241.548 Q110.242 246.878 111.596 249.551 Q112.968 252.208 115.676 252.208 Q118.402 252.208 119.756 249.551 Q121.128 246.878 121.128 241.548 Q121.128 236.201 119.756 233.545 Q118.402 230.871 115.676 230.871 M115.676 228.093 Q120.034 228.093 122.325 231.548 Q124.634 234.986 124.634 241.548 Q124.634 248.093 122.325 251.548 Q120.034 254.985 115.676 254.985 Q111.319 254.985 109.01 251.548 Q106.718 248.093 106.718 241.548 Q106.718 234.986 109.01 231.548 Q111.319 228.093 115.676 228.093 Z" fill="#000000" fill-rule="evenodd" fill-opacity="1" /><path clip-path="url(#clip930)" d="M59.8779 143.157 Q57.1696 143.157 55.798 145.831 Q54.4439 148.487 54.4439 153.834 Q54.4439 159.164 55.798 161.837 Q57.1696 164.494 59.8779 164.494 Q62.6035 164.494 63.9577 161.837 Q65.3292 159.164 65.3292 153.834 Q65.3292 148.487 63.9577 145.831 Q62.6035 143.157 59.8779 143.157 M59.8779 140.379 Q64.2355 140.379 66.5271 143.834 Q68.8362 147.272 68.8362 153.834 Q68.8362 160.379 66.5271 163.834 Q64.2355 167.271 59.8779 167.271 Q55.5203 167.271 53.2112 163.834 Q50.9196 160.379 50.9196 153.834 Q50.9196 147.272 53.2112 143.834 Q55.5203 140.379 59.8779 140.379 Z" fill="#000000" fill-rule="evenodd" fill-opacity="1" /><path clip-path="url(#clip930)" d="M74.9993 162.358 L78.6625 162.358 L78.6625 166.768 L74.9993 166.768 L74.9993 162.358 Z" fill="#000000" fill-rule="evenodd" fill-opacity="1" /><path clip-path="url(#clip930)" d="M86.909 163.817 L92.6381 163.817 L92.6381 144.042 L86.4055 145.292 L86.4055 142.098 L92.6034 140.848 L96.1103 140.848 L96.1103 163.817 L101.839 163.817 L101.839 166.768 L86.909 166.768 L86.909 163.817 Z" fill="#000000" fill-rule="evenodd" fill-opacity="1" /><path clip-path="url(#clip930)" d="M108.957 140.848 L122.725 140.848 L122.725 143.799 L112.169 143.799 L112.169 150.153 Q112.933 149.893 113.697 149.771 Q114.461 149.633 115.225 149.633 Q119.565 149.633 122.1 152.011 Q124.634 154.39 124.634 158.452 Q124.634 162.636 122.03 164.962 Q119.426 167.271 114.687 167.271 Q113.055 167.271 111.353 166.994 Q109.669 166.716 107.864 166.16 L107.864 162.636 Q109.426 163.487 111.093 163.903 Q112.76 164.32 114.617 164.32 Q117.621 164.32 119.374 162.74 Q121.128 161.16 121.128 158.452 Q121.128 155.744 119.374 154.164 Q117.621 152.584 114.617 152.584 Q113.211 152.584 111.805 152.896 Q110.416 153.209 108.957 153.869 L108.957 140.848 Z" fill="#000000" fill-rule="evenodd" fill-opacity="1" /><path clip-path="url(#clip930)" d="M59.1313 55.4429 Q56.423 55.4429 55.0515 58.1165 Q53.6973 60.7728 53.6973 66.12 Q53.6973 71.4498 55.0515 74.1234 Q56.423 76.7796 59.1313 76.7796 Q61.857 76.7796 63.2112 74.1234 Q64.5827 71.4498 64.5827 66.12 Q64.5827 60.7728 63.2112 58.1165 Q61.857 55.4429 59.1313 55.4429 M59.1313 52.6652 Q63.489 52.6652 65.7806 56.12 Q68.0896 59.5575 68.0896 66.12 Q68.0896 72.6651 65.7806 76.1199 Q63.489 79.5574 59.1313 79.5574 Q54.7737 79.5574 52.4647 76.1199 Q50.1731 72.6651 50.1731 66.12 Q50.1731 59.5575 52.4647 56.12 Q54.7737 52.6652 59.1313 52.6652 Z" fill="#000000" fill-rule="evenodd" fill-opacity="1" /><path clip-path="url(#clip930)" d="M74.2528 74.6442 L77.916 74.6442 L77.916 79.0539 L74.2528 79.0539 L74.2528 74.6442 Z" fill="#000000" fill-rule="evenodd" fill-opacity="1" /><path clip-path="url(#clip930)" d="M88.5756 76.1025 L100.815 76.1025 L100.815 79.0539 L84.3569 79.0539 L84.3569 76.1025 Q86.3534 74.0366 89.7909 70.5644 Q93.2457 67.0748 94.1312 66.0679 Q95.8152 64.1755 96.4749 62.8735 Q97.152 61.554 97.152 60.2867 Q97.152 58.2207 95.6936 56.9186 Q94.2527 55.6165 91.9263 55.6165 Q90.277 55.6165 88.4367 56.1895 Q86.6138 56.7624 84.5305 57.9256 L84.5305 54.3839 Q86.6486 53.5332 88.4888 53.0992 Q90.3291 52.6652 91.8569 52.6652 Q95.8846 52.6652 98.2804 54.6791 Q100.676 56.6929 100.676 60.061 Q100.676 61.6582 100.069 63.0991 Q99.4784 64.5227 97.8985 66.4672 Q97.4645 66.9707 95.1381 69.3838 Q92.8117 71.7797 88.5756 76.1025 Z" fill="#000000" fill-rule="evenodd" fill-opacity="1" /><path clip-path="url(#clip930)" d="M115.676 55.4429 Q112.968 55.4429 111.596 58.1165 Q110.242 60.7728 110.242 66.12 Q110.242 71.4498 111.596 74.1234 Q112.968 76.7796 115.676 76.7796 Q118.402 76.7796 119.756 74.1234 Q121.128 71.4498 121.128 66.12 Q121.128 60.7728 119.756 58.1165 Q118.402 55.4429 115.676 55.4429 M115.676 52.6652 Q120.034 52.6652 122.325 56.12 Q124.634 59.5575 124.634 66.12 Q124.634 72.6651 122.325 76.1199 Q120.034 79.5574 115.676 79.5574 Q111.319 79.5574 109.01 76.1199 Q106.718 72.6651 106.718 66.12 Q106.718 59.5575 109.01 56.12 Q111.319 52.6652 115.676 52.6652 Z" fill="#000000" fill-rule="evenodd" fill-opacity="1" /><path clip-path="url(#clip930)" d="M7.77706 374.56 L7.77706 371.053 L18.402 371.053 L18.402 358.31 L7.77706 358.31 L7.77706 354.803 L33.6971 354.803 L33.6971 358.31 L21.3534 358.31 L21.3534 371.053 L33.6971 371.053 L33.6971 374.56 L7.77706 374.56 Z" fill="#000000" fill-rule="evenodd" fill-opacity="1" /><path clip-path="url(#clip930)" d="M23.1763 331.331 L24.7388 331.331 L24.7388 346.018 Q28.0374 345.81 29.7735 344.039 Q31.4922 342.251 31.4922 339.074 Q31.4922 337.234 31.0408 335.515 Q30.5894 333.779 29.6867 332.078 L32.7075 332.078 Q33.4366 333.796 33.8186 335.602 Q34.2005 337.407 34.2005 339.265 Q34.2005 343.918 31.4922 346.643 Q28.7839 349.352 24.1659 349.352 Q19.3916 349.352 16.5965 346.782 Q13.784 344.196 13.784 339.821 Q13.784 335.897 16.3187 333.623 Q18.836 331.331 23.1763 331.331 M22.2388 334.525 Q19.6173 334.56 18.0548 336.001 Q16.4923 337.425 16.4923 339.786 Q16.4923 342.459 18.0027 344.074 Q19.5131 345.671 22.2561 345.914 L22.2388 334.525 Z" fill="#000000" fill-rule="evenodd" fill-opacity="1" /><path clip-path="url(#clip930)" d="M6.68332 326.088 L6.68332 322.894 L33.6971 322.894 L33.6971 326.088 L6.68332 326.088 Z" fill="#000000" fill-rule="evenodd" fill-opacity="1" /><path clip-path="url(#clip930)" d="M6.68332 316.21 L6.68332 313.015 L33.6971 313.015 L33.6971 316.21 L6.68332 316.21 Z" fill="#000000" fill-rule="evenodd" fill-opacity="1" /><path clip-path="url(#clip930)" d="M14.2527 306.331 L14.2527 303.137 L33.6971 303.137 L33.6971 306.331 L14.2527 306.331 M6.68332 306.331 L6.68332 303.137 L10.7284 303.137 L10.7284 306.331 L6.68332 306.331 Z" fill="#000000" fill-rule="evenodd" fill-opacity="1" /><path clip-path="url(#clip930)" d="M21.961 280.29 L33.6971 280.29 L33.6971 283.484 L22.0652 283.484 Q19.3048 283.484 17.9333 284.56 Q16.5617 285.637 16.5617 287.79 Q16.5617 290.376 18.211 291.869 Q19.8603 293.362 22.7075 293.362 L33.6971 293.362 L33.6971 296.574 L14.2527 296.574 L14.2527 293.362 L17.2735 293.362 Q15.5201 292.217 14.652 290.672 Q13.784 289.109 13.784 287.078 Q13.784 283.727 15.8673 282.008 Q17.9333 280.29 21.961 280.29 Z" fill="#000000" fill-rule="evenodd" fill-opacity="1" /><path clip-path="url(#clip930)" d="M23.7492 261.123 Q20.277 261.123 18.3673 262.564 Q16.4576 263.988 16.4576 266.574 Q16.4576 269.144 18.3673 270.585 Q20.277 272.008 23.7492 272.008 Q27.204 272.008 29.1138 270.585 Q31.0235 269.144 31.0235 266.574 Q31.0235 263.988 29.1138 262.564 Q27.204 261.123 23.7492 261.123 M31.2839 257.929 Q36.2491 257.929 38.6623 260.133 Q41.0929 262.338 41.0929 266.887 Q41.0929 268.571 40.8324 270.064 Q40.5894 271.557 40.0686 272.963 L36.9609 272.963 Q37.7248 271.557 38.0894 270.186 Q38.454 268.814 38.454 267.39 Q38.454 264.248 36.8047 262.686 Q35.1727 261.123 31.8568 261.123 L30.2769 261.123 Q31.9957 262.113 32.8464 263.658 Q33.6971 265.203 33.6971 267.356 Q33.6971 270.932 30.9714 273.12 Q28.2457 275.307 23.7492 275.307 Q19.2353 275.307 16.5097 273.12 Q13.784 270.932 13.784 267.356 Q13.784 265.203 14.6347 263.658 Q15.4854 262.113 17.2041 261.123 L14.2527 261.123 L14.2527 257.929 L31.2839 257.929 Z" fill="#000000" fill-rule="evenodd" fill-opacity="1" /><path clip-path="url(#clip930)" d="M23.1763 234.717 L24.7388 234.717 L24.7388 249.404 Q28.0374 249.196 29.7735 247.425 Q31.4922 245.637 31.4922 242.46 Q31.4922 240.62 31.0408 238.901 Q30.5894 237.165 29.6867 235.463 L32.7075 235.463 Q33.4366 237.182 33.8186 238.988 Q34.2005 240.793 34.2005 242.651 Q34.2005 247.304 31.4922 250.029 Q28.7839 252.738 24.1659 252.738 Q19.3916 252.738 16.5965 250.168 Q13.784 247.581 13.784 243.206 Q13.784 239.283 16.3187 237.009 Q18.836 234.717 23.1763 234.717 M22.2388 237.911 Q19.6173 237.946 18.0548 239.387 Q16.4923 240.811 16.4923 243.172 Q16.4923 245.845 18.0027 247.46 Q19.5131 249.057 22.2561 249.3 L22.2388 237.911 Z" fill="#000000" fill-rule="evenodd" fill-opacity="1" /><path clip-path="url(#clip930)" d="M17.2388 218.207 Q16.9263 218.745 16.7874 219.387 Q16.6312 220.012 16.6312 220.776 Q16.6312 223.484 18.402 224.943 Q20.1555 226.384 23.4541 226.384 L33.6971 226.384 L33.6971 229.595 L14.2527 229.595 L14.2527 226.384 L17.2735 226.384 Q15.5027 225.377 14.652 223.762 Q13.784 222.148 13.784 219.839 Q13.784 219.509 13.8361 219.109 Q13.8708 218.71 13.9576 218.224 L17.2388 218.207 Z" fill="#000000" fill-rule="evenodd" fill-opacity="1" /><path clip-path="url(#clip930)" d="M17.2041 190.759 L6.68332 190.759 L6.68332 187.564 L33.6971 187.564 L33.6971 190.759 L30.7804 190.759 Q32.5165 191.766 33.3672 193.311 Q34.2005 194.839 34.2005 196.991 Q34.2005 200.516 31.388 202.738 Q28.5756 204.943 23.9923 204.943 Q19.4089 204.943 16.5965 202.738 Q13.784 200.516 13.784 196.991 Q13.784 194.839 14.6347 193.311 Q15.468 191.766 17.2041 190.759 M23.9923 201.644 Q27.5165 201.644 29.5304 200.203 Q31.5269 198.745 31.5269 196.21 Q31.5269 193.675 29.5304 192.217 Q27.5165 190.759 23.9923 190.759 Q20.468 190.759 18.4714 192.217 Q16.4576 193.675 16.4576 196.21 Q16.4576 198.745 18.4714 200.203 Q20.468 201.644 23.9923 201.644 Z" fill="#000000" fill-rule="evenodd" fill-opacity="1" /><path clip-path="url(#clip930)" d="M14.2527 180.985 L14.2527 177.79 L33.6971 177.79 L33.6971 180.985 L14.2527 180.985 M6.68332 180.985 L6.68332 177.79 L10.7284 177.79 L10.7284 180.985 L6.68332 180.985 Z" fill="#000000" fill-rule="evenodd" fill-opacity="1" /><path clip-path="url(#clip930)" d="M14.8256 158.71 L17.8465 158.71 Q17.152 160.065 16.8048 161.523 Q16.4576 162.981 16.4576 164.544 Q16.4576 166.922 17.1867 168.12 Q17.9159 169.301 19.3742 169.301 Q20.4853 169.301 21.1277 168.45 Q21.7527 167.599 22.3256 165.03 L22.5686 163.936 Q23.2978 160.533 24.6346 159.11 Q25.954 157.669 28.3325 157.669 Q31.0408 157.669 32.6207 159.822 Q34.2005 161.957 34.2005 165.707 Q34.2005 167.269 33.888 168.971 Q33.5929 170.655 32.9853 172.53 L29.6867 172.53 Q30.6068 170.759 31.0755 169.04 Q31.5269 167.321 31.5269 165.637 Q31.5269 163.381 30.763 162.165 Q29.9818 160.95 28.5756 160.95 Q27.2735 160.95 26.579 161.835 Q25.8846 162.703 25.2422 165.672 L24.9818 166.783 Q24.3568 169.752 23.0721 171.071 Q21.77 172.391 19.5131 172.391 Q16.7701 172.391 15.277 170.446 Q13.784 168.502 13.784 164.926 Q13.784 163.155 14.0444 161.592 Q14.3048 160.03 14.8256 158.71 Z" fill="#000000" fill-rule="evenodd" fill-opacity="1" /><path clip-path="url(#clip930)" d="M8.73192 149.422 L14.2527 149.422 L14.2527 142.842 L16.7353 142.842 L16.7353 149.422 L27.2908 149.422 Q29.6693 149.422 30.3464 148.78 Q31.0235 148.12 31.0235 146.124 L31.0235 142.842 L33.6971 142.842 L33.6971 146.124 Q33.6971 149.822 32.3255 151.228 Q30.9367 152.634 27.2908 152.634 L16.7353 152.634 L16.7353 154.978 L14.2527 154.978 L14.2527 152.634 L8.73192 152.634 L8.73192 149.422 Z" fill="#000000" fill-rule="evenodd" fill-opacity="1" /><path clip-path="url(#clip930)" d="M23.9228 129.804 Q23.9228 133.676 24.8082 135.169 Q25.6936 136.662 27.829 136.662 Q29.5304 136.662 30.5374 135.551 Q31.5269 134.422 31.5269 132.495 Q31.5269 129.839 29.6519 128.242 Q27.7596 126.627 24.6346 126.627 L23.9228 126.627 L23.9228 129.804 M22.6034 123.433 L33.6971 123.433 L33.6971 126.627 L30.7457 126.627 Q32.5165 127.721 33.3672 129.353 Q34.2005 130.985 34.2005 133.346 Q34.2005 136.332 32.5339 138.103 Q30.8499 139.856 28.0374 139.856 Q24.7561 139.856 23.0895 137.669 Q21.4228 135.464 21.4228 131.106 L21.4228 126.627 L21.1103 126.627 Q18.9055 126.627 17.7076 128.086 Q16.4923 129.527 16.4923 132.148 Q16.4923 133.815 16.8916 135.395 Q17.2909 136.974 18.0895 138.433 L15.1381 138.433 Q14.4611 136.679 14.1312 135.03 Q13.784 133.381 13.784 131.818 Q13.784 127.599 15.9715 125.516 Q18.1589 123.433 22.6034 123.433 Z" fill="#000000" fill-rule="evenodd" fill-opacity="1" /><path clip-path="url(#clip930)" d="M21.961 100.69 L33.6971 100.69 L33.6971 103.884 L22.0652 103.884 Q19.3048 103.884 17.9333 104.961 Q16.5617 106.037 16.5617 108.19 Q16.5617 110.777 18.211 112.27 Q19.8603 113.763 22.7075 113.763 L33.6971 113.763 L33.6971 116.975 L14.2527 116.975 L14.2527 113.763 L17.2735 113.763 Q15.5201 112.617 14.652 111.072 Q13.784 109.509 13.784 107.478 Q13.784 104.127 15.8673 102.409 Q17.9333 100.69 21.961 100.69 Z" fill="#000000" fill-rule="evenodd" fill-opacity="1" /><path clip-path="url(#clip930)" d="M14.9992 80.3254 L17.9853 80.3254 Q17.2388 81.6796 16.8742 83.0511 Q16.4923 84.4052 16.4923 85.7941 Q16.4923 88.9018 18.4714 90.6205 Q20.4332 92.3392 23.9923 92.3392 Q27.5513 92.3392 29.5304 90.6205 Q31.4922 88.9018 31.4922 85.7941 Q31.4922 84.4052 31.1276 83.0511 Q30.7457 81.6796 29.9992 80.3254 L32.9505 80.3254 Q33.5755 81.6622 33.888 83.1032 Q34.2005 84.5268 34.2005 86.1414 Q34.2005 90.5337 31.4401 93.1205 Q28.6797 95.7073 23.9923 95.7073 Q19.2353 95.7073 16.5097 93.1031 Q13.784 90.4816 13.784 85.933 Q13.784 84.4573 14.0965 83.0511 Q14.3916 81.6448 14.9992 80.3254 Z" fill="#000000" fill-rule="evenodd" fill-opacity="1" /><path clip-path="url(#clip930)" d="M23.1763 58.138 L24.7388 58.138 L24.7388 72.8255 Q28.0374 72.6171 29.7735 70.8463 Q31.4922 69.0581 31.4922 65.881 Q31.4922 64.0408 31.0408 62.322 Q30.5894 60.5859 29.6867 58.8846 L32.7075 58.8846 Q33.4366 60.6033 33.8186 62.4088 Q34.2005 64.2144 34.2005 66.072 Q34.2005 70.7248 31.4922 73.4504 Q28.7839 76.1588 24.1659 76.1588 Q19.3916 76.1588 16.5965 73.5893 Q13.784 71.0025 13.784 66.6276 Q13.784 62.704 16.3187 60.4297 Q18.836 58.138 23.1763 58.138 M22.2388 61.3325 Q19.6173 61.3672 18.0548 62.8081 Q16.4923 64.2317 16.4923 66.5928 Q16.4923 69.2664 18.0027 70.881 Q19.5131 72.4782 22.2561 72.7213 L22.2388 61.3325 Z" fill="#000000" fill-rule="evenodd" fill-opacity="1" /><polyline clip-path="url(#clip932)" style="stroke:#0088c3; stroke-linecap:butt; stroke-linejoin:round; stroke-width:6; stroke-opacity:1; fill:none" points="
  178.853,90.7069 282.995,269.888 387.137,335.442 491.28,365.655 595.422,383.865 699.564,390.1 803.707,393.841 907.849,393.969 1011.99,394.879 1116.13,387.59 
  
  "/>
<polyline clip-path="url(#clip932)" style="stroke:#0088c3; stroke-linecap:butt; stroke-linejoin:round; stroke-width:6; stroke-opacity:1; fill:none" points="
  178.853,161.693 178.853,19.7203 
  "/>
<polyline clip-path="url(#clip932)" style="stroke:#0088c3; stroke-linecap:butt; stroke-linejoin:round; stroke-width:6; stroke-opacity:1; fill:none" points="
  282.995,335.158 282.995,204.618 
  "/>
<polyline clip-path="url(#clip932)" style="stroke:#0088c3; stroke-linecap:butt; stroke-linejoin:round; stroke-width:6; stroke-opacity:1; fill:none" points="
  387.137,345.805 387.137,325.08 
  "/>
<polyline clip-path="url(#clip932)" style="stroke:#0088c3; stroke-linecap:butt; stroke-linejoin:round; stroke-width:6; stroke-opacity:1; fill:none" points="
  491.28,370.267 491.28,361.044 
  "/>
<polyline clip-path="url(#clip932)" style="stroke:#0088c3; stroke-linecap:butt; stroke-linejoin:round; stroke-width:6; stroke-opacity:1; fill:none" points="
  595.422,386.188 595.422,381.542 
  "/>
<polyline clip-path="url(#clip932)" style="stroke:#0088c3; stroke-linecap:butt; stroke-linejoin:round; stroke-width:6; stroke-opacity:1; fill:none" points="
  699.564,392.932 699.564,387.269 
  "/>
<polyline clip-path="url(#clip932)" style="stroke:#0088c3; stroke-linecap:butt; stroke-linejoin:round; stroke-width:6; stroke-opacity:1; fill:none" points="
  803.707,395.961 803.707,391.72 
  "/>
<polyline clip-path="url(#clip932)" style="stroke:#0088c3; stroke-linecap:butt; stroke-linejoin:round; stroke-width:6; stroke-opacity:1; fill:none" points="
  907.849,397.124 907.849,390.814 
  "/>
<polyline clip-path="url(#clip932)" style="stroke:#0088c3; stroke-linecap:butt; stroke-linejoin:round; stroke-width:6; stroke-opacity:1; fill:none" points="
  1011.99,396.297 1011.99,393.461 
  "/>
<polyline clip-path="url(#clip932)" style="stroke:#0088c3; stroke-linecap:butt; stroke-linejoin:round; stroke-width:6; stroke-opacity:1; fill:none" points="
  1116.13,395.574 1116.13,379.607 
  "/>
<line clip-path="url(#clip932)" x1="194.853" y1="161.693" x2="162.853" y2="161.693" style="stroke:#0088c3; stroke-width:1.04; stroke-opacity:1"/>
<line clip-path="url(#clip932)" x1="194.853" y1="19.7203" x2="162.853" y2="19.7203" style="stroke:#0088c3; stroke-width:1.04; stroke-opacity:1"/>
<line clip-path="url(#clip932)" x1="298.995" y1="335.158" x2="266.995" y2="335.158" style="stroke:#0088c3; stroke-width:1.04; stroke-opacity:1"/>
<line clip-path="url(#clip932)" x1="298.995" y1="204.618" x2="266.995" y2="204.618" style="stroke:#0088c3; stroke-width:1.04; stroke-opacity:1"/>
<line clip-path="url(#clip932)" x1="403.137" y1="345.805" x2="371.137" y2="345.805" style="stroke:#0088c3; stroke-width:1.04; stroke-opacity:1"/>
<line clip-path="url(#clip932)" x1="403.137" y1="325.08" x2="371.137" y2="325.08" style="stroke:#0088c3; stroke-width:1.04; stroke-opacity:1"/>
<line clip-path="url(#clip932)" x1="507.28" y1="370.267" x2="475.28" y2="370.267" style="stroke:#0088c3; stroke-width:1.04; stroke-opacity:1"/>
<line clip-path="url(#clip932)" x1="507.28" y1="361.044" x2="475.28" y2="361.044" style="stroke:#0088c3; stroke-width:1.04; stroke-opacity:1"/>
<line clip-path="url(#clip932)" x1="611.422" y1="386.188" x2="579.422" y2="386.188" style="stroke:#0088c3; stroke-width:1.04; stroke-opacity:1"/>
<line clip-path="url(#clip932)" x1="611.422" y1="381.542" x2="579.422" y2="381.542" style="stroke:#0088c3; stroke-width:1.04; stroke-opacity:1"/>
<line clip-path="url(#clip932)" x1="715.564" y1="392.932" x2="683.564" y2="392.932" style="stroke:#0088c3; stroke-width:1.04; stroke-opacity:1"/>
<line clip-path="url(#clip932)" x1="715.564" y1="387.269" x2="683.564" y2="387.269" style="stroke:#0088c3; stroke-width:1.04; stroke-opacity:1"/>
<line clip-path="url(#clip932)" x1="819.707" y1="395.961" x2="787.707" y2="395.961" style="stroke:#0088c3; stroke-width:1.04; stroke-opacity:1"/>
<line clip-path="url(#clip932)" x1="819.707" y1="391.72" x2="787.707" y2="391.72" style="stroke:#0088c3; stroke-width:1.04; stroke-opacity:1"/>
<line clip-path="url(#clip932)" x1="923.849" y1="397.124" x2="891.849" y2="397.124" style="stroke:#0088c3; stroke-width:1.04; stroke-opacity:1"/>
<line clip-path="url(#clip932)" x1="923.849" y1="390.814" x2="891.849" y2="390.814" style="stroke:#0088c3; stroke-width:1.04; stroke-opacity:1"/>
<line clip-path="url(#clip932)" x1="1027.99" y1="396.297" x2="995.991" y2="396.297" style="stroke:#0088c3; stroke-width:1.04; stroke-opacity:1"/>
<line clip-path="url(#clip932)" x1="1027.99" y1="393.461" x2="995.991" y2="393.461" style="stroke:#0088c3; stroke-width:1.04; stroke-opacity:1"/>
<line clip-path="url(#clip932)" x1="1132.13" y1="395.574" x2="1100.13" y2="395.574" style="stroke:#0088c3; stroke-width:1.04; stroke-opacity:1"/>
<line clip-path="url(#clip932)" x1="1132.13" y1="379.607" x2="1100.13" y2="379.607" style="stroke:#0088c3; stroke-width:1.04; stroke-opacity:1"/>
</svg>
