<?xml version="1.0" encoding="utf-8"?>
<svg xmlns="http://www.w3.org/2000/svg" xmlns:xlink="http://www.w3.org/1999/xlink" width="190" height="130" viewBox="0 0 760 520">
<defs>
  <clipPath id="clip810">
    <rect x="0" y="0" width="760" height="520"/>
  </clipPath>
</defs>
<path clip-path="url(#clip810)" d="
M0 520 L760 520 L760 0 L0 0  Z
  " fill="#ffffff" fill-rule="evenodd" fill-opacity="1"/>
<defs>
  <clipPath id="clip811">
    <rect x="152" y="0" width="533" height="520"/>
  </clipPath>
</defs>
<path clip-path="url(#clip810)" d="
M162.781 412.771 L744.252 412.771 L744.252 0 L162.781 0  Z
  " fill="#ffffff" fill-rule="evenodd" fill-opacity="1"/>
<defs>
  <clipPath id="clip812">
    <rect x="162" y="0" width="582" height="414"/>
  </clipPath>
</defs>
<polyline clip-path="url(#clip810)" style="stroke:#000000; stroke-linecap:butt; stroke-linejoin:round; stroke-width:4; stroke-opacity:1; fill:none" points="
  162.781,412.771 744.252,412.771 
  "/>
<polyline clip-path="url(#clip810)" style="stroke:#000000; stroke-linecap:butt; stroke-linejoin:round; stroke-width:4; stroke-opacity:1; fill:none" points="
  176.275,412.771 176.275,431.669 
  "/>
<polyline clip-path="url(#clip810)" style="stroke:#000000; stroke-linecap:butt; stroke-linejoin:round; stroke-width:4; stroke-opacity:1; fill:none" points="
  315.513,412.771 315.513,431.669 
  "/>
<polyline clip-path="url(#clip810)" style="stroke:#000000; stroke-linecap:butt; stroke-linejoin:round; stroke-width:4; stroke-opacity:1; fill:none" points="
  454.751,412.771 454.751,431.669 
  "/>
<polyline clip-path="url(#clip810)" style="stroke:#000000; stroke-linecap:butt; stroke-linejoin:round; stroke-width:4; stroke-opacity:1; fill:none" points="
  593.989,412.771 593.989,431.669 
  "/>
<polyline clip-path="url(#clip810)" style="stroke:#000000; stroke-linecap:butt; stroke-linejoin:round; stroke-width:4; stroke-opacity:1; fill:none" points="
  733.227,412.771 733.227,431.669 
  "/>
<path clip-path="url(#clip810)" d="M150.012 463.085 L155.741 463.085 L155.741 443.31 L149.508 444.56 L149.508 441.366 L155.706 440.116 L159.213 440.116 L159.213 463.085 L164.942 463.085 L164.942 466.036 L150.012 466.036 L150.012 463.085 Z" fill="#000000" fill-rule="evenodd" fill-opacity="1" /><path clip-path="url(#clip810)" d="M179.525 442.425 Q176.817 442.425 175.446 445.098 Q174.091 447.755 174.091 453.102 Q174.091 458.432 175.446 461.105 Q176.817 463.762 179.525 463.762 Q182.251 463.762 183.605 461.105 Q184.977 458.432 184.977 453.102 Q184.977 447.755 183.605 445.098 Q182.251 442.425 179.525 442.425 M179.525 439.647 Q183.883 439.647 186.175 443.102 Q188.484 446.539 188.484 453.102 Q188.484 459.647 186.175 463.102 Q183.883 466.539 179.525 466.539 Q175.168 466.539 172.859 463.102 Q170.567 459.647 170.567 453.102 Q170.567 446.539 172.859 443.102 Q175.168 439.647 179.525 439.647 Z" fill="#000000" fill-rule="evenodd" fill-opacity="1" /><path clip-path="url(#clip810)" d="M195.762 426.294 Q193.562 426.294 192.447 428.466 Q191.347 430.625 191.347 434.969 Q191.347 439.3 192.447 441.472 Q193.562 443.63 195.762 443.63 Q197.977 443.63 199.077 441.472 Q200.192 439.3 200.192 434.969 Q200.192 430.625 199.077 428.466 Q197.977 426.294 195.762 426.294 M195.762 424.037 Q199.303 424.037 201.165 426.844 Q203.041 429.637 203.041 434.969 Q203.041 440.287 201.165 443.094 Q199.303 445.887 195.762 445.887 Q192.222 445.887 190.346 443.094 Q188.484 440.287 188.484 434.969 Q188.484 429.637 190.346 426.844 Q192.222 424.037 195.762 424.037 Z" fill="#000000" fill-rule="evenodd" fill-opacity="1" /><path clip-path="url(#clip810)" d="M290.258 463.085 L295.987 463.085 L295.987 443.31 L289.755 444.56 L289.755 441.366 L295.953 440.116 L299.46 440.116 L299.46 463.085 L305.189 463.085 L305.189 466.036 L290.258 466.036 L290.258 463.085 Z" fill="#000000" fill-rule="evenodd" fill-opacity="1" /><path clip-path="url(#clip810)" d="M319.772 442.425 Q317.064 442.425 315.692 445.098 Q314.338 447.755 314.338 453.102 Q314.338 458.432 315.692 461.105 Q317.064 463.762 319.772 463.762 Q322.498 463.762 323.852 461.105 Q325.223 458.432 325.223 453.102 Q325.223 447.755 323.852 445.098 Q322.498 442.425 319.772 442.425 M319.772 439.647 Q324.13 439.647 326.421 443.102 Q328.73 446.539 328.73 453.102 Q328.73 459.647 326.421 463.102 Q324.13 466.539 319.772 466.539 Q315.414 466.539 313.105 463.102 Q310.814 459.647 310.814 453.102 Q310.814 446.539 313.105 443.102 Q315.414 439.647 319.772 439.647 Z" fill="#000000" fill-rule="evenodd" fill-opacity="1" /><path clip-path="url(#clip810)" d="M329.139 443.08 L333.794 443.08 L333.794 427.014 L328.73 428.029 L328.73 425.434 L333.766 424.418 L336.616 424.418 L336.616 443.08 L341.27 443.08 L341.27 445.478 L329.139 445.478 L329.139 443.08 Z" fill="#000000" fill-rule="evenodd" fill-opacity="1" /><path clip-path="url(#clip810)" d="M429.08 463.085 L434.809 463.085 L434.809 443.31 L428.577 444.56 L428.577 441.366 L434.775 440.116 L438.282 440.116 L438.282 463.085 L444.011 463.085 L444.011 466.036 L429.08 466.036 L429.08 463.085 Z" fill="#000000" fill-rule="evenodd" fill-opacity="1" /><path clip-path="url(#clip810)" d="M458.594 442.425 Q455.886 442.425 454.514 445.098 Q453.16 447.755 453.16 453.102 Q453.16 458.432 454.514 461.105 Q455.886 463.762 458.594 463.762 Q461.32 463.762 462.674 461.105 Q464.045 458.432 464.045 453.102 Q464.045 447.755 462.674 445.098 Q461.32 442.425 458.594 442.425 M458.594 439.647 Q462.952 439.647 465.243 443.102 Q467.552 446.539 467.552 453.102 Q467.552 459.647 465.243 463.102 Q462.952 466.539 458.594 466.539 Q454.236 466.539 451.927 463.102 Q449.636 459.647 449.636 453.102 Q449.636 446.539 451.927 443.102 Q454.236 439.647 458.594 439.647 Z" fill="#000000" fill-rule="evenodd" fill-opacity="1" /><path clip-path="url(#clip810)" d="M470.98 443.08 L480.925 443.08 L480.925 445.478 L467.552 445.478 L467.552 443.08 Q469.174 441.401 471.967 438.58 Q474.774 435.745 475.494 434.927 Q476.862 433.389 477.398 432.331 Q477.948 431.259 477.948 430.23 Q477.948 428.551 476.763 427.493 Q475.593 426.435 473.702 426.435 Q472.362 426.435 470.867 426.901 Q469.386 427.366 467.693 428.311 L467.693 425.434 Q469.414 424.743 470.91 424.39 Q472.405 424.037 473.646 424.037 Q476.919 424.037 478.865 425.673 Q480.812 427.31 480.812 430.046 Q480.812 431.344 480.318 432.515 Q479.838 433.672 478.555 435.251 Q478.202 435.66 476.312 437.621 Q474.422 439.568 470.98 443.08 Z" fill="#000000" fill-rule="evenodd" fill-opacity="1" /><path clip-path="url(#clip810)" d="M568.072 463.085 L573.801 463.085 L573.801 443.31 L567.568 444.56 L567.568 441.366 L573.766 440.116 L577.273 440.116 L577.273 463.085 L583.002 463.085 L583.002 466.036 L568.072 466.036 L568.072 463.085 Z" fill="#000000" fill-rule="evenodd" fill-opacity="1" /><path clip-path="url(#clip810)" d="M597.585 442.425 Q594.877 442.425 593.505 445.098 Q592.151 447.755 592.151 453.102 Q592.151 458.432 593.505 461.105 Q594.877 463.762 597.585 463.762 Q600.311 463.762 601.665 461.105 Q603.037 458.432 603.037 453.102 Q603.037 447.755 601.665 445.098 Q600.311 442.425 597.585 442.425 M597.585 439.647 Q601.943 439.647 604.235 443.102 Q606.544 446.539 606.544 453.102 Q606.544 459.647 604.235 463.102 Q601.943 466.539 597.585 466.539 Q593.228 466.539 590.919 463.102 Q588.627 459.647 588.627 453.102 Q588.627 446.539 590.919 443.102 Q593.228 439.647 597.585 439.647 Z" fill="#000000" fill-rule="evenodd" fill-opacity="1" /><path clip-path="url(#clip810)" d="M616.065 434.123 Q618.11 434.56 619.253 435.943 Q620.41 437.325 620.41 439.356 Q620.41 442.474 618.265 444.18 Q616.121 445.887 612.172 445.887 Q610.846 445.887 609.435 445.619 Q608.039 445.365 606.544 444.843 L606.544 442.093 Q607.728 442.784 609.139 443.137 Q610.55 443.489 612.087 443.489 Q614.767 443.489 616.164 442.431 Q617.574 441.373 617.574 439.356 Q617.574 437.494 616.262 436.45 Q614.965 435.392 612.637 435.392 L610.183 435.392 L610.183 433.051 L612.75 433.051 Q614.852 433.051 615.966 432.219 Q617.081 431.372 617.081 429.792 Q617.081 428.17 615.924 427.31 Q614.781 426.435 612.637 426.435 Q611.466 426.435 610.126 426.689 Q608.786 426.943 607.178 427.479 L607.178 424.94 Q608.8 424.489 610.211 424.263 Q611.636 424.037 612.891 424.037 Q616.136 424.037 618.026 425.518 Q619.916 426.985 619.916 429.496 Q619.916 431.245 618.914 432.458 Q617.913 433.657 616.065 434.123 Z" fill="#000000" fill-rule="evenodd" fill-opacity="1" /><path clip-path="url(#clip810)" d="M706.569 463.085 L712.298 463.085 L712.298 443.31 L706.066 444.56 L706.066 441.366 L712.263 440.116 L715.77 440.116 L715.77 463.085 L721.5 463.085 L721.5 466.036 L706.569 466.036 L706.569 463.085 Z" fill="#000000" fill-rule="evenodd" fill-opacity="1" /><path clip-path="url(#clip810)" d="M736.083 442.425 Q733.374 442.425 732.003 445.098 Q730.649 447.755 730.649 453.102 Q730.649 458.432 732.003 461.105 Q733.374 463.762 736.083 463.762 Q738.808 463.762 740.163 461.105 Q741.534 458.432 741.534 453.102 Q741.534 447.755 740.163 445.098 Q738.808 442.425 736.083 442.425 M736.083 439.647 Q740.44 439.647 742.732 443.102 Q745.041 446.539 745.041 453.102 Q745.041 459.647 742.732 463.102 Q740.44 466.539 736.083 466.539 Q731.725 466.539 729.416 463.102 Q727.125 459.647 727.125 453.102 Q727.125 446.539 729.416 443.102 Q731.725 439.647 736.083 439.647 Z" fill="#000000" fill-rule="evenodd" fill-opacity="1" /><path clip-path="url(#clip810)" d="M754.548 426.901 L747.354 438.143 L754.548 438.143 L754.548 426.901 M753.801 424.418 L757.384 424.418 L757.384 438.143 L760.388 438.143 L760.388 440.513 L757.384 440.513 L757.384 445.478 L754.548 445.478 L754.548 440.513 L745.041 440.513 L745.041 437.762 L753.801 424.418 Z" fill="#000000" fill-rule="evenodd" fill-opacity="1" /><path clip-path="url(#clip810)" d="M259.854 496.237 L259.854 507.973 L256.66 507.973 L256.66 496.342 Q256.66 493.581 255.584 492.21 Q254.507 490.838 252.354 490.838 Q249.768 490.838 248.275 492.487 Q246.781 494.137 246.781 496.984 L246.781 507.973 L243.57 507.973 L243.57 488.529 L246.781 488.529 L246.781 491.55 Q247.927 489.796 249.472 488.928 Q251.035 488.06 253.066 488.06 Q256.417 488.06 258.136 490.144 Q259.854 492.21 259.854 496.237 Z" fill="#000000" fill-rule="evenodd" fill-opacity="1" /><path clip-path="url(#clip810)" d="M265.896 500.3 L265.896 488.529 L269.09 488.529 L269.09 500.178 Q269.09 502.939 270.167 504.328 Q271.243 505.699 273.396 505.699 Q275.983 505.699 277.476 504.05 Q278.986 502.401 278.986 499.553 L278.986 488.529 L282.181 488.529 L282.181 507.973 L278.986 507.973 L278.986 504.987 Q277.823 506.758 276.278 507.626 Q274.75 508.477 272.719 508.477 Q269.368 508.477 267.632 506.394 Q265.896 504.31 265.896 500.3 M273.934 488.06 L273.934 488.06 Z" fill="#000000" fill-rule="evenodd" fill-opacity="1" /><path clip-path="url(#clip810)" d="M303.899 492.262 Q305.097 490.109 306.764 489.085 Q308.43 488.06 310.687 488.06 Q313.726 488.06 315.375 490.196 Q317.024 492.314 317.024 496.237 L317.024 507.973 L313.812 507.973 L313.812 496.342 Q313.812 493.546 312.823 492.192 Q311.833 490.838 309.802 490.838 Q307.319 490.838 305.878 492.487 Q304.437 494.137 304.437 496.984 L304.437 507.973 L301.226 507.973 L301.226 496.342 Q301.226 493.529 300.236 492.192 Q299.246 490.838 297.181 490.838 Q294.733 490.838 293.292 492.505 Q291.851 494.154 291.851 496.984 L291.851 507.973 L288.639 507.973 L288.639 488.529 L291.851 488.529 L291.851 491.55 Q292.944 489.762 294.472 488.911 Q296 488.06 298.101 488.06 Q300.219 488.06 301.694 489.137 Q303.187 490.213 303.899 492.262 Z" fill="#000000" fill-rule="evenodd" fill-opacity="1" /><path clip-path="url(#clip810)" d="M337.354 498.269 Q337.354 494.744 335.896 492.748 Q334.455 490.734 331.92 490.734 Q329.385 490.734 327.927 492.748 Q326.486 494.744 326.486 498.269 Q326.486 501.793 327.927 503.807 Q329.385 505.803 331.92 505.803 Q334.455 505.803 335.896 503.807 Q337.354 501.793 337.354 498.269 M326.486 491.481 Q327.493 489.744 329.021 488.911 Q330.566 488.06 332.701 488.06 Q336.243 488.06 338.448 490.873 Q340.67 493.685 340.67 498.269 Q340.67 502.852 338.448 505.664 Q336.243 508.477 332.701 508.477 Q330.566 508.477 329.021 507.644 Q327.493 506.793 326.486 505.057 L326.486 507.973 L323.274 507.973 L323.274 480.96 L326.486 480.96 L326.486 491.481 Z" fill="#000000" fill-rule="evenodd" fill-opacity="1" /><path clip-path="url(#clip810)" d="M362.597 497.453 L362.597 499.015 L347.909 499.015 Q348.118 502.314 349.889 504.05 Q351.677 505.769 354.854 505.769 Q356.694 505.769 358.413 505.317 Q360.149 504.866 361.85 503.963 L361.85 506.984 Q360.132 507.713 358.326 508.095 Q356.52 508.477 354.663 508.477 Q350.01 508.477 347.284 505.769 Q344.576 503.06 344.576 498.442 Q344.576 493.668 347.146 490.873 Q349.732 488.06 354.107 488.06 Q358.031 488.06 360.305 490.595 Q362.597 493.112 362.597 497.453 M359.402 496.515 Q359.368 493.894 357.927 492.331 Q356.503 490.769 354.142 490.769 Q351.468 490.769 349.854 492.279 Q348.257 493.79 348.014 496.533 L359.402 496.515 Z" fill="#000000" fill-rule="evenodd" fill-opacity="1" /><path clip-path="url(#clip810)" d="M379.107 491.515 Q378.569 491.203 377.927 491.064 Q377.302 490.908 376.538 490.908 Q373.829 490.908 372.371 492.678 Q370.93 494.432 370.93 497.73 L370.93 507.973 L367.718 507.973 L367.718 488.529 L370.93 488.529 L370.93 491.55 Q371.937 489.779 373.552 488.928 Q375.166 488.06 377.475 488.06 Q377.805 488.06 378.204 488.112 Q378.604 488.147 379.09 488.234 L379.107 491.515 Z" fill="#000000" fill-rule="evenodd" fill-opacity="1" /><path clip-path="url(#clip810)" d="M401.295 490.769 Q398.725 490.769 397.232 492.783 Q395.739 494.779 395.739 498.269 Q395.739 501.758 397.215 503.772 Q398.708 505.769 401.295 505.769 Q403.847 505.769 405.34 503.755 Q406.833 501.741 406.833 498.269 Q406.833 494.814 405.34 492.8 Q403.847 490.769 401.295 490.769 M401.295 488.06 Q405.461 488.06 407.84 490.769 Q410.218 493.477 410.218 498.269 Q410.218 503.043 407.84 505.769 Q405.461 508.477 401.295 508.477 Q397.111 508.477 394.732 505.769 Q392.371 503.043 392.371 498.269 Q392.371 493.477 394.732 490.769 Q397.111 488.06 401.295 488.06 Z" fill="#000000" fill-rule="evenodd" fill-opacity="1" /><path clip-path="url(#clip810)" d="M425.357 480.96 L425.357 483.616 L422.301 483.616 Q420.583 483.616 419.906 484.31 Q419.246 485.005 419.246 486.81 L419.246 488.529 L424.506 488.529 L424.506 491.012 L419.246 491.012 L419.246 507.973 L416.034 507.973 L416.034 491.012 L412.978 491.012 L412.978 488.529 L416.034 488.529 L416.034 487.175 Q416.034 483.928 417.544 482.453 Q419.055 480.96 422.336 480.96 L425.357 480.96 Z" fill="#000000" fill-rule="evenodd" fill-opacity="1" /><path clip-path="url(#clip810)" d="M455.01 482.904 L455.01 486.324 Q453.013 485.369 451.242 484.901 Q449.471 484.432 447.822 484.432 Q444.957 484.432 443.395 485.543 Q441.85 486.654 441.85 488.703 Q441.85 490.421 442.874 491.307 Q443.916 492.175 446.798 492.713 L448.916 493.147 Q452.839 493.894 454.697 495.786 Q456.572 497.661 456.572 500.821 Q456.572 504.588 454.037 506.533 Q451.52 508.477 446.642 508.477 Q444.801 508.477 442.718 508.06 Q440.652 507.644 438.43 506.828 L438.43 503.217 Q440.565 504.414 442.614 505.022 Q444.662 505.63 446.642 505.63 Q449.645 505.63 451.277 504.449 Q452.909 503.269 452.909 501.081 Q452.909 499.171 451.728 498.095 Q450.565 497.019 447.892 496.48 L445.756 496.064 Q441.833 495.283 440.079 493.616 Q438.326 491.949 438.326 488.981 Q438.326 485.543 440.739 483.564 Q443.169 481.585 447.423 481.585 Q449.246 481.585 451.138 481.915 Q453.03 482.244 455.01 482.904 Z" fill="#000000" fill-rule="evenodd" fill-opacity="1" /><path clip-path="url(#clip810)" d="M477.579 482.904 L477.579 486.324 Q475.582 485.369 473.812 484.901 Q472.041 484.432 470.391 484.432 Q467.527 484.432 465.964 485.543 Q464.419 486.654 464.419 488.703 Q464.419 490.421 465.443 491.307 Q466.485 492.175 469.367 492.713 L471.485 493.147 Q475.409 493.894 477.266 495.786 Q479.141 497.661 479.141 500.821 Q479.141 504.588 476.607 506.533 Q474.089 508.477 469.211 508.477 Q467.371 508.477 465.287 508.06 Q463.221 507.644 460.999 506.828 L460.999 503.217 Q463.134 504.414 465.183 505.022 Q467.232 505.63 469.211 505.63 Q472.214 505.63 473.846 504.449 Q475.478 503.269 475.478 501.081 Q475.478 499.171 474.298 498.095 Q473.134 497.019 470.461 496.48 L468.325 496.064 Q464.402 495.283 462.648 493.616 Q460.895 491.949 460.895 488.981 Q460.895 485.543 463.308 483.564 Q465.739 481.585 469.992 481.585 Q471.815 481.585 473.707 481.915 Q475.6 482.244 477.579 482.904 Z" fill="#000000" fill-rule="evenodd" fill-opacity="1" /><path clip-path="url(#clip810)" d="M493.933 485.508 L489.176 498.408 L498.707 498.408 L493.933 485.508 M491.954 482.053 L495.929 482.053 L505.808 507.973 L502.162 507.973 L499.801 501.324 L488.117 501.324 L485.756 507.973 L482.058 507.973 L491.954 482.053 Z" fill="#000000" fill-rule="evenodd" fill-opacity="1" /><path clip-path="url(#clip810)" d="M533.151 489.102 L533.151 492.123 Q531.797 491.428 530.339 491.081 Q528.881 490.734 527.318 490.734 Q524.94 490.734 523.742 491.463 Q522.561 492.192 522.561 493.651 Q522.561 494.762 523.412 495.404 Q524.263 496.029 526.832 496.602 L527.926 496.845 Q531.329 497.574 532.752 498.911 Q534.193 500.23 534.193 502.609 Q534.193 505.317 532.04 506.897 Q529.905 508.477 526.155 508.477 Q524.592 508.477 522.891 508.164 Q521.207 507.869 519.332 507.262 L519.332 503.963 Q521.103 504.883 522.822 505.352 Q524.54 505.803 526.224 505.803 Q528.481 505.803 529.697 505.039 Q530.912 504.258 530.912 502.852 Q530.912 501.55 530.026 500.855 Q529.158 500.161 526.19 499.519 L525.079 499.258 Q522.11 498.633 520.79 497.349 Q519.471 496.046 519.471 493.79 Q519.471 491.046 521.415 489.553 Q523.36 488.06 526.936 488.06 Q528.707 488.06 530.27 488.321 Q531.832 488.581 533.151 489.102 Z" fill="#000000" fill-rule="evenodd" fill-opacity="1" /><path clip-path="url(#clip810)" d="M548.117 498.199 Q544.245 498.199 542.752 499.085 Q541.259 499.97 541.259 502.105 Q541.259 503.807 542.37 504.814 Q543.499 505.803 545.426 505.803 Q548.082 505.803 549.679 503.928 Q551.294 502.036 551.294 498.911 L551.294 498.199 L548.117 498.199 M554.488 496.88 L554.488 507.973 L551.294 507.973 L551.294 505.022 Q550.2 506.793 548.568 507.644 Q546.936 508.477 544.575 508.477 Q541.589 508.477 539.818 506.81 Q538.065 505.126 538.065 502.314 Q538.065 499.033 540.252 497.366 Q542.457 495.699 546.815 495.699 L551.294 495.699 L551.294 495.387 Q551.294 493.182 549.835 491.984 Q548.394 490.769 545.773 490.769 Q544.106 490.769 542.526 491.168 Q540.947 491.567 539.488 492.366 L539.488 489.415 Q541.242 488.737 542.891 488.408 Q544.54 488.06 546.103 488.06 Q550.322 488.06 552.405 490.248 Q554.488 492.435 554.488 496.88 Z" fill="#000000" fill-rule="evenodd" fill-opacity="1" /><path clip-path="url(#clip810)" d="M576.207 492.262 Q577.405 490.109 579.071 489.085 Q580.738 488.06 582.995 488.06 Q586.033 488.06 587.682 490.196 Q589.332 492.314 589.332 496.237 L589.332 507.973 L586.12 507.973 L586.12 496.342 Q586.12 493.546 585.13 492.192 Q584.141 490.838 582.11 490.838 Q579.627 490.838 578.186 492.487 Q576.745 494.137 576.745 496.984 L576.745 507.973 L573.533 507.973 L573.533 496.342 Q573.533 493.529 572.544 492.192 Q571.554 490.838 569.488 490.838 Q567.04 490.838 565.599 492.505 Q564.158 494.154 564.158 496.984 L564.158 507.973 L560.946 507.973 L560.946 488.529 L564.158 488.529 L564.158 491.55 Q565.252 489.762 566.78 488.911 Q568.308 488.06 570.408 488.06 Q572.526 488.06 574.002 489.137 Q575.495 490.213 576.207 492.262 Z" fill="#000000" fill-rule="evenodd" fill-opacity="1" /><path clip-path="url(#clip810)" d="M598.793 505.057 L598.793 515.369 L595.582 515.369 L595.582 488.529 L598.793 488.529 L598.793 491.481 Q599.8 489.744 601.328 488.911 Q602.873 488.06 605.009 488.06 Q608.55 488.06 610.755 490.873 Q612.977 493.685 612.977 498.269 Q612.977 502.852 610.755 505.664 Q608.55 508.477 605.009 508.477 Q602.873 508.477 601.328 507.644 Q599.8 506.793 598.793 505.057 M609.661 498.269 Q609.661 494.744 608.203 492.748 Q606.762 490.734 604.227 490.734 Q601.693 490.734 600.234 492.748 Q598.793 494.744 598.793 498.269 Q598.793 501.793 600.234 503.807 Q601.693 505.803 604.227 505.803 Q606.762 505.803 608.203 503.807 Q609.661 501.793 609.661 498.269 Z" fill="#000000" fill-rule="evenodd" fill-opacity="1" /><path clip-path="url(#clip810)" d="M618.273 480.96 L621.467 480.96 L621.467 507.973 L618.273 507.973 L618.273 480.96 Z" fill="#000000" fill-rule="evenodd" fill-opacity="1" /><path clip-path="url(#clip810)" d="M644.783 497.453 L644.783 499.015 L630.095 499.015 Q630.304 502.314 632.075 504.05 Q633.863 505.769 637.04 505.769 Q638.88 505.769 640.599 505.317 Q642.335 504.866 644.036 503.963 L644.036 506.984 Q642.318 507.713 640.512 508.095 Q638.706 508.477 636.849 508.477 Q632.196 508.477 629.47 505.769 Q626.762 503.06 626.762 498.442 Q626.762 493.668 629.332 490.873 Q631.918 488.06 636.293 488.06 Q640.217 488.06 642.491 490.595 Q644.783 493.112 644.783 497.453 M641.588 496.515 Q641.554 493.894 640.113 492.331 Q638.689 490.769 636.328 490.769 Q633.654 490.769 632.04 492.279 Q630.443 493.79 630.2 496.533 L641.588 496.515 Z" fill="#000000" fill-rule="evenodd" fill-opacity="1" /><path clip-path="url(#clip810)" d="M662.422 489.102 L662.422 492.123 Q661.067 491.428 659.609 491.081 Q658.151 490.734 656.588 490.734 Q654.21 490.734 653.012 491.463 Q651.831 492.192 651.831 493.651 Q651.831 494.762 652.682 495.404 Q653.533 496.029 656.102 496.602 L657.196 496.845 Q660.599 497.574 662.022 498.911 Q663.463 500.23 663.463 502.609 Q663.463 505.317 661.311 506.897 Q659.175 508.477 655.425 508.477 Q653.863 508.477 652.161 508.164 Q650.477 507.869 648.602 507.262 L648.602 503.963 Q650.373 504.883 652.092 505.352 Q653.811 505.803 655.495 505.803 Q657.751 505.803 658.967 505.039 Q660.182 504.258 660.182 502.852 Q660.182 501.55 659.297 500.855 Q658.429 500.161 655.46 499.519 L654.349 499.258 Q651.38 498.633 650.061 497.349 Q648.741 496.046 648.741 493.79 Q648.741 491.046 650.686 489.553 Q652.63 488.06 656.206 488.06 Q657.977 488.06 659.54 488.321 Q661.102 488.581 662.422 489.102 Z" fill="#000000" fill-rule="evenodd" fill-opacity="1" /><polyline clip-path="url(#clip810)" style="stroke:#000000; stroke-linecap:butt; stroke-linejoin:round; stroke-width:4; stroke-opacity:1; fill:none" points="
  162.781,412.771 162.781,0 
  "/>
<polyline clip-path="url(#clip810)" style="stroke:#000000; stroke-linecap:butt; stroke-linejoin:round; stroke-width:4; stroke-opacity:1; fill:none" points="
  162.781,412.771 143.883,412.771 
  "/>
<polyline clip-path="url(#clip810)" style="stroke:#000000; stroke-linecap:butt; stroke-linejoin:round; stroke-width:4; stroke-opacity:1; fill:none" points="
  162.781,320.922 143.883,320.922 
  "/>
<polyline clip-path="url(#clip810)" style="stroke:#000000; stroke-linecap:butt; stroke-linejoin:round; stroke-width:4; stroke-opacity:1; fill:none" points="
  162.781,229.073 143.883,229.073 
  "/>
<polyline clip-path="url(#clip810)" style="stroke:#000000; stroke-linecap:butt; stroke-linejoin:round; stroke-width:4; stroke-opacity:1; fill:none" points="
  162.781,137.224 143.883,137.224 
  "/>
<polyline clip-path="url(#clip810)" style="stroke:#000000; stroke-linecap:butt; stroke-linejoin:round; stroke-width:4; stroke-opacity:1; fill:none" points="
  162.781,45.3748 143.883,45.3748 
  "/>
<path clip-path="url(#clip810)" d="M57.5565 402.12 Q54.8481 402.12 53.4766 404.793 Q52.1225 407.45 52.1225 412.797 Q52.1225 418.127 53.4766 420.8 Q54.8481 423.457 57.5565 423.457 Q60.2821 423.457 61.6363 420.8 Q63.0078 418.127 63.0078 412.797 Q63.0078 407.45 61.6363 404.793 Q60.2821 402.12 57.5565 402.12 M57.5565 399.342 Q61.9141 399.342 64.2057 402.797 Q66.5147 406.234 66.5147 412.797 Q66.5147 419.342 64.2057 422.797 Q61.9141 426.234 57.5565 426.234 Q53.1988 426.234 50.8898 422.797 Q48.5982 419.342 48.5982 412.797 Q48.5982 406.234 50.8898 402.797 Q53.1988 399.342 57.5565 399.342 Z" fill="#000000" fill-rule="evenodd" fill-opacity="1" /><path clip-path="url(#clip810)" d="M72.6779 421.321 L76.3411 421.321 L76.3411 425.731 L72.6779 425.731 L72.6779 421.321 Z" fill="#000000" fill-rule="evenodd" fill-opacity="1" /><path clip-path="url(#clip810)" d="M91.4799 402.12 Q88.7716 402.12 87.4 404.793 Q86.0459 407.45 86.0459 412.797 Q86.0459 418.127 87.4 420.8 Q88.7716 423.457 91.4799 423.457 Q94.2056 423.457 95.5597 420.8 Q96.9312 418.127 96.9312 412.797 Q96.9312 407.45 95.5597 404.793 Q94.2056 402.12 91.4799 402.12 M91.4799 399.342 Q95.8375 399.342 98.1292 402.797 Q100.438 406.234 100.438 412.797 Q100.438 419.342 98.1292 422.797 Q95.8375 426.234 91.4799 426.234 Q87.1223 426.234 84.8133 422.797 Q82.5216 419.342 82.5216 412.797 Q82.5216 406.234 84.8133 402.797 Q87.1223 399.342 91.4799 399.342 Z" fill="#000000" fill-rule="evenodd" fill-opacity="1" /><path clip-path="url(#clip810)" d="M114.101 402.12 Q111.393 402.12 110.021 404.793 Q108.667 407.45 108.667 412.797 Q108.667 418.127 110.021 420.8 Q111.393 423.457 114.101 423.457 Q116.827 423.457 118.181 420.8 Q119.553 418.127 119.553 412.797 Q119.553 407.45 118.181 404.793 Q116.827 402.12 114.101 402.12 M114.101 399.342 Q118.459 399.342 120.751 402.797 Q123.06 406.234 123.06 412.797 Q123.06 419.342 120.751 422.797 Q118.459 426.234 114.101 426.234 Q109.744 426.234 107.435 422.797 Q105.143 419.342 105.143 412.797 Q105.143 406.234 107.435 402.797 Q109.744 399.342 114.101 399.342 Z" fill="#000000" fill-rule="evenodd" fill-opacity="1" /><path clip-path="url(#clip810)" d="M136.723 402.12 Q134.014 402.12 132.643 404.793 Q131.289 407.45 131.289 412.797 Q131.289 418.127 132.643 420.8 Q134.014 423.457 136.723 423.457 Q139.448 423.457 140.803 420.8 Q142.174 418.127 142.174 412.797 Q142.174 407.45 140.803 404.793 Q139.448 402.12 136.723 402.12 M136.723 399.342 Q141.08 399.342 143.372 402.797 Q145.681 406.234 145.681 412.797 Q145.681 419.342 143.372 422.797 Q141.08 426.234 136.723 426.234 Q132.365 426.234 130.056 422.797 Q127.764 419.342 127.764 412.797 Q127.764 406.234 130.056 402.797 Q132.365 399.342 136.723 399.342 Z" fill="#000000" fill-rule="evenodd" fill-opacity="1" /><path clip-path="url(#clip810)" d="M58.303 310.271 Q55.5947 310.271 54.2231 312.944 Q52.869 315.601 52.869 320.948 Q52.869 326.278 54.2231 328.951 Q55.5947 331.608 58.303 331.608 Q61.0287 331.608 62.3828 328.951 Q63.7543 326.278 63.7543 320.948 Q63.7543 315.601 62.3828 312.944 Q61.0287 310.271 58.303 310.271 M58.303 307.493 Q62.6606 307.493 64.9522 310.948 Q67.2613 314.385 67.2613 320.948 Q67.2613 327.493 64.9522 330.948 Q62.6606 334.385 58.303 334.385 Q53.9454 334.385 51.6363 330.948 Q49.3447 327.493 49.3447 320.948 Q49.3447 314.385 51.6363 310.948 Q53.9454 307.493 58.303 307.493 Z" fill="#000000" fill-rule="evenodd" fill-opacity="1" /><path clip-path="url(#clip810)" d="M73.4244 329.472 L77.0876 329.472 L77.0876 333.882 L73.4244 333.882 L73.4244 329.472 Z" fill="#000000" fill-rule="evenodd" fill-opacity="1" /><path clip-path="url(#clip810)" d="M92.2264 310.271 Q89.5181 310.271 88.1466 312.944 Q86.7924 315.601 86.7924 320.948 Q86.7924 326.278 88.1466 328.951 Q89.5181 331.608 92.2264 331.608 Q94.9521 331.608 96.3062 328.951 Q97.6778 326.278 97.6778 320.948 Q97.6778 315.601 96.3062 312.944 Q94.9521 310.271 92.2264 310.271 M92.2264 307.493 Q96.584 307.493 98.8757 310.948 Q101.185 314.385 101.185 320.948 Q101.185 327.493 98.8757 330.948 Q96.584 334.385 92.2264 334.385 Q87.8688 334.385 85.5598 330.948 Q83.2681 327.493 83.2681 320.948 Q83.2681 314.385 85.5598 310.948 Q87.8688 307.493 92.2264 307.493 Z" fill="#000000" fill-rule="evenodd" fill-opacity="1" /><path clip-path="url(#clip810)" d="M110.369 330.93 L122.608 330.93 L122.608 333.882 L106.15 333.882 L106.15 330.93 Q108.146 328.865 111.584 325.392 Q115.039 321.903 115.924 320.896 Q117.608 319.003 118.268 317.701 Q118.945 316.382 118.945 315.115 Q118.945 313.049 117.487 311.747 Q116.046 310.444 113.719 310.444 Q112.07 310.444 110.23 311.017 Q108.407 311.59 106.324 312.753 L106.324 309.212 Q108.442 308.361 110.282 307.927 Q112.122 307.493 113.65 307.493 Q117.678 307.493 120.073 309.507 Q122.469 311.521 122.469 314.889 Q122.469 316.486 121.862 317.927 Q121.271 319.351 119.692 321.295 Q119.258 321.799 116.931 324.212 Q114.605 326.608 110.369 330.93 Z" fill="#000000" fill-rule="evenodd" fill-opacity="1" /><path clip-path="url(#clip810)" d="M130.004 307.962 L143.771 307.962 L143.771 310.913 L133.216 310.913 L133.216 317.267 Q133.98 317.007 134.744 316.885 Q135.507 316.747 136.271 316.747 Q140.612 316.747 143.146 319.125 Q145.681 321.503 145.681 325.566 Q145.681 329.75 143.077 332.076 Q140.473 334.385 135.733 334.385 Q134.101 334.385 132.4 334.108 Q130.716 333.83 128.91 333.274 L128.91 329.75 Q130.473 330.601 132.139 331.017 Q133.806 331.434 135.664 331.434 Q138.667 331.434 140.421 329.854 Q142.174 328.274 142.174 325.566 Q142.174 322.858 140.421 321.278 Q138.667 319.698 135.664 319.698 Q134.257 319.698 132.851 320.01 Q131.462 320.323 130.004 320.983 L130.004 307.962 Z" fill="#000000" fill-rule="evenodd" fill-opacity="1" /><path clip-path="url(#clip810)" d="M57.5565 218.422 Q54.8481 218.422 53.4766 221.095 Q52.1225 223.752 52.1225 229.099 Q52.1225 234.429 53.4766 237.102 Q54.8481 239.759 57.5565 239.759 Q60.2821 239.759 61.6363 237.102 Q63.0078 234.429 63.0078 229.099 Q63.0078 223.752 61.6363 221.095 Q60.2821 218.422 57.5565 218.422 M57.5565 215.644 Q61.9141 215.644 64.2057 219.099 Q66.5147 222.536 66.5147 229.099 Q66.5147 235.644 64.2057 239.099 Q61.9141 242.536 57.5565 242.536 Q53.1988 242.536 50.8898 239.099 Q48.5982 235.644 48.5982 229.099 Q48.5982 222.536 50.8898 219.099 Q53.1988 215.644 57.5565 215.644 Z" fill="#000000" fill-rule="evenodd" fill-opacity="1" /><path clip-path="url(#clip810)" d="M72.6779 237.623 L76.3411 237.623 L76.3411 242.033 L72.6779 242.033 L72.6779 237.623 Z" fill="#000000" fill-rule="evenodd" fill-opacity="1" /><path clip-path="url(#clip810)" d="M91.4799 218.422 Q88.7716 218.422 87.4 221.095 Q86.0459 223.752 86.0459 229.099 Q86.0459 234.429 87.4 237.102 Q88.7716 239.759 91.4799 239.759 Q94.2056 239.759 95.5597 237.102 Q96.9312 234.429 96.9312 229.099 Q96.9312 223.752 95.5597 221.095 Q94.2056 218.422 91.4799 218.422 M91.4799 215.644 Q95.8375 215.644 98.1292 219.099 Q100.438 222.536 100.438 229.099 Q100.438 235.644 98.1292 239.099 Q95.8375 242.536 91.4799 242.536 Q87.1223 242.536 84.8133 239.099 Q82.5216 235.644 82.5216 229.099 Q82.5216 222.536 84.8133 219.099 Q87.1223 215.644 91.4799 215.644 Z" fill="#000000" fill-rule="evenodd" fill-opacity="1" /><path clip-path="url(#clip810)" d="M106.636 216.113 L120.403 216.113 L120.403 219.064 L109.848 219.064 L109.848 225.418 Q110.612 225.158 111.376 225.036 Q112.139 224.898 112.903 224.898 Q117.244 224.898 119.778 227.276 Q122.313 229.654 122.313 233.717 Q122.313 237.901 119.709 240.227 Q117.105 242.536 112.365 242.536 Q110.733 242.536 109.032 242.259 Q107.348 241.981 105.542 241.425 L105.542 237.901 Q107.105 238.752 108.771 239.168 Q110.438 239.585 112.296 239.585 Q115.299 239.585 117.053 238.005 Q118.806 236.425 118.806 233.717 Q118.806 231.009 117.053 229.429 Q115.299 227.849 112.296 227.849 Q110.89 227.849 109.483 228.161 Q108.094 228.474 106.636 229.134 L106.636 216.113 Z" fill="#000000" fill-rule="evenodd" fill-opacity="1" /><path clip-path="url(#clip810)" d="M136.723 218.422 Q134.014 218.422 132.643 221.095 Q131.289 223.752 131.289 229.099 Q131.289 234.429 132.643 237.102 Q134.014 239.759 136.723 239.759 Q139.448 239.759 140.803 237.102 Q142.174 234.429 142.174 229.099 Q142.174 223.752 140.803 221.095 Q139.448 218.422 136.723 218.422 M136.723 215.644 Q141.08 215.644 143.372 219.099 Q145.681 222.536 145.681 229.099 Q145.681 235.644 143.372 239.099 Q141.08 242.536 136.723 242.536 Q132.365 242.536 130.056 239.099 Q127.764 235.644 127.764 229.099 Q127.764 222.536 130.056 219.099 Q132.365 215.644 136.723 215.644 Z" fill="#000000" fill-rule="evenodd" fill-opacity="1" /><path clip-path="url(#clip810)" d="M58.303 126.573 Q55.5947 126.573 54.2231 129.246 Q52.869 131.903 52.869 137.25 Q52.869 142.58 54.2231 145.253 Q55.5947 147.91 58.303 147.91 Q61.0287 147.91 62.3828 145.253 Q63.7543 142.58 63.7543 137.25 Q63.7543 131.903 62.3828 129.246 Q61.0287 126.573 58.303 126.573 M58.303 123.795 Q62.6606 123.795 64.9522 127.25 Q67.2613 130.687 67.2613 137.25 Q67.2613 143.795 64.9522 147.25 Q62.6606 150.687 58.303 150.687 Q53.9454 150.687 51.6363 147.25 Q49.3447 143.795 49.3447 137.25 Q49.3447 130.687 51.6363 127.25 Q53.9454 123.795 58.303 123.795 Z" fill="#000000" fill-rule="evenodd" fill-opacity="1" /><path clip-path="url(#clip810)" d="M73.4244 145.774 L77.0876 145.774 L77.0876 150.184 L73.4244 150.184 L73.4244 145.774 Z" fill="#000000" fill-rule="evenodd" fill-opacity="1" /><path clip-path="url(#clip810)" d="M92.2264 126.573 Q89.5181 126.573 88.1466 129.246 Q86.7924 131.903 86.7924 137.25 Q86.7924 142.58 88.1466 145.253 Q89.5181 147.91 92.2264 147.91 Q94.9521 147.91 96.3062 145.253 Q97.6778 142.58 97.6778 137.25 Q97.6778 131.903 96.3062 129.246 Q94.9521 126.573 92.2264 126.573 M92.2264 123.795 Q96.584 123.795 98.8757 127.25 Q101.185 130.687 101.185 137.25 Q101.185 143.795 98.8757 147.25 Q96.584 150.687 92.2264 150.687 Q87.8688 150.687 85.5598 147.25 Q83.2681 143.795 83.2681 137.25 Q83.2681 130.687 85.5598 127.25 Q87.8688 123.795 92.2264 123.795 Z" fill="#000000" fill-rule="evenodd" fill-opacity="1" /><path clip-path="url(#clip810)" d="M106.462 124.264 L123.129 124.264 L123.129 125.757 L113.719 150.184 L110.056 150.184 L118.91 127.215 L106.462 127.215 L106.462 124.264 Z" fill="#000000" fill-rule="evenodd" fill-opacity="1" /><path clip-path="url(#clip810)" d="M130.004 124.264 L143.771 124.264 L143.771 127.215 L133.216 127.215 L133.216 133.569 Q133.98 133.309 134.744 133.187 Q135.507 133.048 136.271 133.048 Q140.612 133.048 143.146 135.427 Q145.681 137.805 145.681 141.868 Q145.681 146.052 143.077 148.378 Q140.473 150.687 135.733 150.687 Q134.101 150.687 132.4 150.409 Q130.716 150.132 128.91 149.576 L128.91 146.052 Q130.473 146.903 132.139 147.319 Q133.806 147.736 135.664 147.736 Q138.667 147.736 140.421 146.156 Q142.174 144.576 142.174 141.868 Q142.174 139.16 140.421 137.58 Q138.667 136 135.664 136 Q134.257 136 132.851 136.312 Q131.462 136.625 130.004 137.285 L130.004 124.264 Z" fill="#000000" fill-rule="evenodd" fill-opacity="1" /><path clip-path="url(#clip810)" d="M57.5565 34.7238 Q54.8481 34.7238 53.4766 37.3974 Q52.1225 40.0536 52.1225 45.4008 Q52.1225 50.7306 53.4766 53.4042 Q54.8481 56.0605 57.5565 56.0605 Q60.2821 56.0605 61.6363 53.4042 Q63.0078 50.7306 63.0078 45.4008 Q63.0078 40.0536 61.6363 37.3974 Q60.2821 34.7238 57.5565 34.7238 M57.5565 31.946 Q61.9141 31.946 64.2057 35.4009 Q66.5147 38.8383 66.5147 45.4008 Q66.5147 51.9459 64.2057 55.4008 Q61.9141 58.8382 57.5565 58.8382 Q53.1988 58.8382 50.8898 55.4008 Q48.5982 51.9459 48.5982 45.4008 Q48.5982 38.8383 50.8898 35.4009 Q53.1988 31.946 57.5565 31.946 Z" fill="#000000" fill-rule="evenodd" fill-opacity="1" /><path clip-path="url(#clip810)" d="M72.6779 53.9251 L76.3411 53.9251 L76.3411 58.3348 L72.6779 58.3348 L72.6779 53.9251 Z" fill="#000000" fill-rule="evenodd" fill-opacity="1" /><path clip-path="url(#clip810)" d="M84.5876 55.3834 L90.3167 55.3834 L90.3167 35.6092 L84.0841 36.8592 L84.0841 33.6648 L90.282 32.4148 L93.7889 32.4148 L93.7889 55.3834 L99.518 55.3834 L99.518 58.3348 L84.5876 58.3348 L84.5876 55.3834 Z" fill="#000000" fill-rule="evenodd" fill-opacity="1" /><path clip-path="url(#clip810)" d="M114.101 34.7238 Q111.393 34.7238 110.021 37.3974 Q108.667 40.0536 108.667 45.4008 Q108.667 50.7306 110.021 53.4042 Q111.393 56.0605 114.101 56.0605 Q116.827 56.0605 118.181 53.4042 Q119.553 50.7306 119.553 45.4008 Q119.553 40.0536 118.181 37.3974 Q116.827 34.7238 114.101 34.7238 M114.101 31.946 Q118.459 31.946 120.751 35.4009 Q123.06 38.8383 123.06 45.4008 Q123.06 51.9459 120.751 55.4008 Q118.459 58.8382 114.101 58.8382 Q109.744 58.8382 107.435 55.4008 Q105.143 51.9459 105.143 45.4008 Q105.143 38.8383 107.435 35.4009 Q109.744 31.946 114.101 31.946 Z" fill="#000000" fill-rule="evenodd" fill-opacity="1" /><path clip-path="url(#clip810)" d="M136.723 34.7238 Q134.014 34.7238 132.643 37.3974 Q131.289 40.0536 131.289 45.4008 Q131.289 50.7306 132.643 53.4042 Q134.014 56.0605 136.723 56.0605 Q139.448 56.0605 140.803 53.4042 Q142.174 50.7306 142.174 45.4008 Q142.174 40.0536 140.803 37.3974 Q139.448 34.7238 136.723 34.7238 M136.723 31.946 Q141.08 31.946 143.372 35.4009 Q145.681 38.8383 145.681 45.4008 Q145.681 51.9459 143.372 55.4008 Q141.08 58.8382 136.723 58.8382 Q132.365 58.8382 130.056 55.4008 Q127.764 51.9459 127.764 45.4008 Q127.764 38.8383 130.056 35.4009 Q132.365 31.946 136.723 31.946 Z" fill="#000000" fill-rule="evenodd" fill-opacity="1" /><path clip-path="url(#clip810)" d="M9.20217 364.596 L9.20217 361.089 L19.8271 361.089 L19.8271 348.346 L9.20217 348.346 L9.20217 344.84 L35.1222 344.84 L35.1222 348.346 L22.7785 348.346 L22.7785 361.089 L35.1222 361.089 L35.1222 364.596 L9.20217 364.596 Z" fill="#000000" fill-rule="evenodd" fill-opacity="1" /><path clip-path="url(#clip810)" d="M24.6014 321.367 L26.1639 321.367 L26.1639 336.055 Q29.4625 335.847 31.1986 334.076 Q32.9173 332.288 32.9173 329.11 Q32.9173 327.27 32.4659 325.551 Q32.0145 323.815 31.1118 322.114 L34.1326 322.114 Q34.8618 323.833 35.2437 325.638 Q35.6256 327.444 35.6256 329.301 Q35.6256 333.954 32.9173 336.68 Q30.209 339.388 25.591 339.388 Q20.8167 339.388 18.0216 336.819 Q15.2091 334.232 15.2091 329.857 Q15.2091 325.933 17.7438 323.659 Q20.2611 321.367 24.6014 321.367 M23.6639 324.562 Q21.0424 324.597 19.4799 326.038 Q17.9174 327.461 17.9174 329.822 Q17.9174 332.496 19.4278 334.11 Q20.9382 335.708 23.6813 335.951 L23.6639 324.562 Z" fill="#000000" fill-rule="evenodd" fill-opacity="1" /><path clip-path="url(#clip810)" d="M8.10842 316.124 L8.10842 312.93 L35.1222 312.93 L35.1222 316.124 L8.10842 316.124 Z" fill="#000000" fill-rule="evenodd" fill-opacity="1" /><path clip-path="url(#clip810)" d="M8.10842 306.246 L8.10842 303.052 L35.1222 303.052 L35.1222 306.246 L8.10842 306.246 Z" fill="#000000" fill-rule="evenodd" fill-opacity="1" /><path clip-path="url(#clip810)" d="M15.6778 296.368 L15.6778 293.173 L35.1222 293.173 L35.1222 296.368 L15.6778 296.368 M8.10842 296.368 L8.10842 293.173 L12.1535 293.173 L12.1535 296.368 L8.10842 296.368 Z" fill="#000000" fill-rule="evenodd" fill-opacity="1" /><path clip-path="url(#clip810)" d="M23.3861 270.326 L35.1222 270.326 L35.1222 273.52 L23.4903 273.52 Q20.7299 273.52 19.3584 274.597 Q17.9868 275.673 17.9868 277.826 Q17.9868 280.413 19.6361 281.906 Q21.2854 283.399 24.1326 283.399 L35.1222 283.399 L35.1222 286.611 L15.6778 286.611 L15.6778 283.399 L18.6986 283.399 Q16.9452 282.253 16.0771 280.708 Q15.2091 279.145 15.2091 277.114 Q15.2091 273.764 17.2924 272.045 Q19.3584 270.326 23.3861 270.326 Z" fill="#000000" fill-rule="evenodd" fill-opacity="1" /><path clip-path="url(#clip810)" d="M25.1743 251.16 Q21.7021 251.16 19.7924 252.6 Q17.8827 254.024 17.8827 256.611 Q17.8827 259.18 19.7924 260.621 Q21.7021 262.045 25.1743 262.045 Q28.6291 262.045 30.5389 260.621 Q32.4486 259.18 32.4486 256.611 Q32.4486 254.024 30.5389 252.6 Q28.6291 251.16 25.1743 251.16 M32.709 247.965 Q37.6742 247.965 40.0874 250.17 Q42.518 252.375 42.518 256.923 Q42.518 258.607 42.2575 260.1 Q42.0145 261.593 41.4937 263 L38.386 263 Q39.1499 261.593 39.5145 260.222 Q39.8791 258.85 39.8791 257.427 Q39.8791 254.284 38.2298 252.722 Q36.5979 251.16 33.2819 251.16 L31.702 251.16 Q33.4208 252.149 34.2715 253.694 Q35.1222 255.239 35.1222 257.392 Q35.1222 260.968 32.3965 263.156 Q29.6708 265.343 25.1743 265.343 Q20.6604 265.343 17.9348 263.156 Q15.2091 260.968 15.2091 257.392 Q15.2091 255.239 16.0598 253.694 Q16.9105 252.149 18.6292 251.16 L15.6778 251.16 L15.6778 247.965 L32.709 247.965 Z" fill="#000000" fill-rule="evenodd" fill-opacity="1" /><path clip-path="url(#clip810)" d="M24.6014 224.753 L26.1639 224.753 L26.1639 239.441 Q29.4625 239.232 31.1986 237.462 Q32.9173 235.673 32.9173 232.496 Q32.9173 230.656 32.4659 228.937 Q32.0145 227.201 31.1118 225.5 L34.1326 225.5 Q34.8618 227.219 35.2437 229.024 Q35.6256 230.83 35.6256 232.687 Q35.6256 237.34 32.9173 240.066 Q30.209 242.774 25.591 242.774 Q20.8167 242.774 18.0216 240.205 Q15.2091 237.618 15.2091 233.243 Q15.2091 229.319 17.7438 227.045 Q20.2611 224.753 24.6014 224.753 M23.6639 227.948 Q21.0424 227.983 19.4799 229.424 Q17.9174 230.847 17.9174 233.208 Q17.9174 235.882 19.4278 237.496 Q20.9382 239.094 23.6813 239.337 L23.6639 227.948 Z" fill="#000000" fill-rule="evenodd" fill-opacity="1" /><path clip-path="url(#clip810)" d="M18.6639 208.243 Q18.3514 208.781 18.2125 209.424 Q18.0563 210.049 18.0563 210.812 Q18.0563 213.521 19.8271 214.979 Q21.5806 216.42 24.8792 216.42 L35.1222 216.42 L35.1222 219.632 L15.6778 219.632 L15.6778 216.42 L18.6986 216.42 Q16.9278 215.413 16.0771 213.799 Q15.2091 212.184 15.2091 209.875 Q15.2091 209.545 15.2612 209.146 Q15.2959 208.747 15.3827 208.26 L18.6639 208.243 Z" fill="#000000" fill-rule="evenodd" fill-opacity="1" /><path clip-path="url(#clip810)" d="M18.6292 180.795 L8.10842 180.795 L8.10842 177.601 L35.1222 177.601 L35.1222 180.795 L32.2055 180.795 Q33.9416 181.802 34.7923 183.347 Q35.6256 184.875 35.6256 187.028 Q35.6256 190.552 32.8132 192.774 Q30.0007 194.979 25.4174 194.979 Q20.8341 194.979 18.0216 192.774 Q15.2091 190.552 15.2091 187.028 Q15.2091 184.875 16.0598 183.347 Q16.8931 181.802 18.6292 180.795 M25.4174 191.681 Q28.9416 191.681 30.9555 190.24 Q32.952 188.781 32.952 186.247 Q32.952 183.712 30.9555 182.254 Q28.9416 180.795 25.4174 180.795 Q21.8931 180.795 19.8966 182.254 Q17.8827 183.712 17.8827 186.247 Q17.8827 188.781 19.8966 190.24 Q21.8931 191.681 25.4174 191.681 Z" fill="#000000" fill-rule="evenodd" fill-opacity="1" /><path clip-path="url(#clip810)" d="M15.6778 171.021 L15.6778 167.827 L35.1222 167.827 L35.1222 171.021 L15.6778 171.021 M8.10842 171.021 L8.10842 167.827 L12.1535 167.827 L12.1535 171.021 L8.10842 171.021 Z" fill="#000000" fill-rule="evenodd" fill-opacity="1" /><path clip-path="url(#clip810)" d="M16.2507 148.747 L19.2716 148.747 Q18.5771 150.101 18.2299 151.559 Q17.8827 153.018 17.8827 154.58 Q17.8827 156.959 18.6118 158.157 Q19.341 159.337 20.7993 159.337 Q21.9104 159.337 22.5528 158.486 Q23.1778 157.636 23.7507 155.066 L23.9938 153.973 Q24.7229 150.57 26.0597 149.146 Q27.3792 147.705 29.7576 147.705 Q32.4659 147.705 34.0458 149.858 Q35.6256 151.993 35.6256 155.743 Q35.6256 157.306 35.3131 159.007 Q35.018 160.691 34.4104 162.566 L31.1118 162.566 Q32.0319 160.795 32.5007 159.077 Q32.952 157.358 32.952 155.674 Q32.952 153.417 32.1882 152.202 Q31.4069 150.986 30.0007 150.986 Q28.6986 150.986 28.0042 151.872 Q27.3097 152.74 26.6674 155.709 L26.4069 156.82 Q25.7819 159.788 24.4972 161.108 Q23.1951 162.427 20.9382 162.427 Q18.1952 162.427 16.7021 160.483 Q15.2091 158.538 15.2091 154.962 Q15.2091 153.191 15.4695 151.629 Q15.7299 150.066 16.2507 148.747 Z" fill="#000000" fill-rule="evenodd" fill-opacity="1" /><path clip-path="url(#clip810)" d="M10.157 139.459 L15.6778 139.459 L15.6778 132.879 L18.1605 132.879 L18.1605 139.459 L28.716 139.459 Q31.0944 139.459 31.7715 138.816 Q32.4486 138.157 32.4486 136.16 L32.4486 132.879 L35.1222 132.879 L35.1222 136.16 Q35.1222 139.858 33.7506 141.264 Q32.3618 142.671 28.716 142.671 L18.1605 142.671 L18.1605 145.014 L15.6778 145.014 L15.6778 142.671 L10.157 142.671 L10.157 139.459 Z" fill="#000000" fill-rule="evenodd" fill-opacity="1" /><path clip-path="url(#clip810)" d="M25.3479 119.841 Q25.3479 123.712 26.2333 125.205 Q27.1187 126.698 29.2541 126.698 Q30.9555 126.698 31.9625 125.587 Q32.952 124.459 32.952 122.532 Q32.952 119.875 31.0771 118.278 Q29.1847 116.664 26.0597 116.664 L25.3479 116.664 L25.3479 119.841 M24.0285 113.469 L35.1222 113.469 L35.1222 116.664 L32.1708 116.664 Q33.9416 117.757 34.7923 119.389 Q35.6256 121.021 35.6256 123.382 Q35.6256 126.369 33.959 128.139 Q32.275 129.893 29.4625 129.893 Q26.1812 129.893 24.5146 127.705 Q22.8479 125.5 22.8479 121.143 L22.8479 116.664 L22.5354 116.664 Q20.3306 116.664 19.1327 118.122 Q17.9174 119.563 17.9174 122.185 Q17.9174 123.851 18.3167 125.431 Q18.716 127.011 19.5146 128.469 L16.5632 128.469 Q15.8862 126.716 15.5563 125.066 Q15.2091 123.417 15.2091 121.855 Q15.2091 117.636 17.3966 115.553 Q19.5841 113.469 24.0285 113.469 Z" fill="#000000" fill-rule="evenodd" fill-opacity="1" /><path clip-path="url(#clip810)" d="M23.3861 90.7263 L35.1222 90.7263 L35.1222 93.9208 L23.4903 93.9208 Q20.7299 93.9208 19.3584 94.9971 Q17.9868 96.0735 17.9868 98.2263 Q17.9868 100.813 19.6361 102.306 Q21.2854 103.799 24.1326 103.799 L35.1222 103.799 L35.1222 107.011 L15.6778 107.011 L15.6778 103.799 L18.6986 103.799 Q16.9452 102.653 16.0771 101.108 Q15.2091 99.5457 15.2091 97.5145 Q15.2091 94.1638 17.2924 92.4451 Q19.3584 90.7263 23.3861 90.7263 Z" fill="#000000" fill-rule="evenodd" fill-opacity="1" /><path clip-path="url(#clip810)" d="M16.4244 70.3619 L19.4104 70.3619 Q18.6639 71.716 18.2993 73.0875 Q17.9174 74.4417 17.9174 75.8306 Q17.9174 78.9382 19.8966 80.6569 Q21.8584 82.3757 25.4174 82.3757 Q28.9764 82.3757 30.9555 80.6569 Q32.9173 78.9382 32.9173 75.8306 Q32.9173 74.4417 32.5527 73.0875 Q32.1708 71.716 31.4243 70.3619 L34.3756 70.3619 Q35.0006 71.6987 35.3131 73.1396 Q35.6256 74.5632 35.6256 76.1778 Q35.6256 80.5701 32.8652 83.1569 Q30.1048 85.7437 25.4174 85.7437 Q20.6604 85.7437 17.9348 83.1396 Q15.2091 80.5181 15.2091 75.9695 Q15.2091 74.4938 15.5216 73.0875 Q15.8167 71.6813 16.4244 70.3619 Z" fill="#000000" fill-rule="evenodd" fill-opacity="1" /><path clip-path="url(#clip810)" d="M24.6014 48.1745 L26.1639 48.1745 L26.1639 62.8619 Q29.4625 62.6536 31.1986 60.8827 Q32.9173 59.0946 32.9173 55.9175 Q32.9173 54.0772 32.4659 52.3585 Q32.0145 50.6224 31.1118 48.921 L34.1326 48.921 Q34.8618 50.6397 35.2437 52.4453 Q35.6256 54.2508 35.6256 56.1085 Q35.6256 60.7612 32.9173 63.4869 Q30.209 66.1952 25.591 66.1952 Q20.8167 66.1952 18.0216 63.6258 Q15.2091 61.039 15.2091 56.664 Q15.2091 52.7404 17.7438 50.4661 Q20.2611 48.1745 24.6014 48.1745 M23.6639 51.3689 Q21.0424 51.4036 19.4799 52.8446 Q17.9174 54.2682 17.9174 56.6293 Q17.9174 59.3029 19.4278 60.9175 Q20.9382 62.5147 23.6813 62.7577 L23.6639 51.3689 Z" fill="#000000" fill-rule="evenodd" fill-opacity="1" /><polyline clip-path="url(#clip812)" style="stroke:#a93a45; stroke-linecap:butt; stroke-linejoin:round; stroke-width:4; stroke-opacity:1; fill:none" stroke-dasharray="16, 10" points="
  162.781,363.493 176.275,363.493 273.598,363.493 315.513,363.493 412.836,363.493 454.751,363.493 552.074,363.493 593.989,363.493 691.312,363.493 733.227,363.493 
  749.092,363.493 
  "/>
<polyline clip-path="url(#clip812)" style="stroke:#0088c3; stroke-linecap:butt; stroke-linejoin:round; stroke-width:6; stroke-opacity:1; fill:none" points="
  176.275,44.7287 273.598,201.045 315.513,247.729 412.836,319.194 454.751,331.648 552.074,352.7 593.989,351.817 691.312,361.93 733.227,360.802 
  "/>
<polyline clip-path="url(#clip812)" style="stroke:#0088c3; stroke-linecap:butt; stroke-linejoin:round; stroke-width:6; stroke-opacity:1; fill:none" points="
  176.275,69.8017 176.275,19.6558 
  "/>
<polyline clip-path="url(#clip812)" style="stroke:#0088c3; stroke-linecap:butt; stroke-linejoin:round; stroke-width:6; stroke-opacity:1; fill:none" points="
  273.598,221.758 273.598,180.331 
  "/>
<polyline clip-path="url(#clip812)" style="stroke:#0088c3; stroke-linecap:butt; stroke-linejoin:round; stroke-width:6; stroke-opacity:1; fill:none" points="
  315.513,260.277 315.513,235.182 
  "/>
<polyline clip-path="url(#clip812)" style="stroke:#0088c3; stroke-linecap:butt; stroke-linejoin:round; stroke-width:6; stroke-opacity:1; fill:none" points="
  412.836,325.403 412.836,312.986 
  "/>
<polyline clip-path="url(#clip812)" style="stroke:#0088c3; stroke-linecap:butt; stroke-linejoin:round; stroke-width:6; stroke-opacity:1; fill:none" points="
  454.751,341.595 454.751,321.702 
  "/>
<polyline clip-path="url(#clip812)" style="stroke:#0088c3; stroke-linecap:butt; stroke-linejoin:round; stroke-width:6; stroke-opacity:1; fill:none" points="
  552.074,358.422 552.074,346.977 
  "/>
<polyline clip-path="url(#clip812)" style="stroke:#0088c3; stroke-linecap:butt; stroke-linejoin:round; stroke-width:6; stroke-opacity:1; fill:none" points="
  593.989,361.855 593.989,341.779 
  "/>
<polyline clip-path="url(#clip812)" style="stroke:#0088c3; stroke-linecap:butt; stroke-linejoin:round; stroke-width:6; stroke-opacity:1; fill:none" points="
  691.312,366.731 691.312,357.129 
  "/>
<polyline clip-path="url(#clip812)" style="stroke:#0088c3; stroke-linecap:butt; stroke-linejoin:round; stroke-width:6; stroke-opacity:1; fill:none" points="
  733.227,364.839 733.227,356.764 
  "/>
<line clip-path="url(#clip812)" x1="192.275" y1="69.8017" x2="160.275" y2="69.8017" style="stroke:#0088c3; stroke-width:1.04; stroke-opacity:1"/>
<line clip-path="url(#clip812)" x1="192.275" y1="19.6558" x2="160.275" y2="19.6558" style="stroke:#0088c3; stroke-width:1.04; stroke-opacity:1"/>
<line clip-path="url(#clip812)" x1="289.598" y1="221.758" x2="257.598" y2="221.758" style="stroke:#0088c3; stroke-width:1.04; stroke-opacity:1"/>
<line clip-path="url(#clip812)" x1="289.598" y1="180.331" x2="257.598" y2="180.331" style="stroke:#0088c3; stroke-width:1.04; stroke-opacity:1"/>
<line clip-path="url(#clip812)" x1="331.513" y1="260.277" x2="299.513" y2="260.277" style="stroke:#0088c3; stroke-width:1.04; stroke-opacity:1"/>
<line clip-path="url(#clip812)" x1="331.513" y1="235.182" x2="299.513" y2="235.182" style="stroke:#0088c3; stroke-width:1.04; stroke-opacity:1"/>
<line clip-path="url(#clip812)" x1="428.836" y1="325.403" x2="396.836" y2="325.403" style="stroke:#0088c3; stroke-width:1.04; stroke-opacity:1"/>
<line clip-path="url(#clip812)" x1="428.836" y1="312.986" x2="396.836" y2="312.986" style="stroke:#0088c3; stroke-width:1.04; stroke-opacity:1"/>
<line clip-path="url(#clip812)" x1="470.751" y1="341.595" x2="438.751" y2="341.595" style="stroke:#0088c3; stroke-width:1.04; stroke-opacity:1"/>
<line clip-path="url(#clip812)" x1="470.751" y1="321.702" x2="438.751" y2="321.702" style="stroke:#0088c3; stroke-width:1.04; stroke-opacity:1"/>
<line clip-path="url(#clip812)" x1="568.074" y1="358.422" x2="536.074" y2="358.422" style="stroke:#0088c3; stroke-width:1.04; stroke-opacity:1"/>
<line clip-path="url(#clip812)" x1="568.074" y1="346.977" x2="536.074" y2="346.977" style="stroke:#0088c3; stroke-width:1.04; stroke-opacity:1"/>
<line clip-path="url(#clip812)" x1="609.989" y1="361.855" x2="577.989" y2="361.855" style="stroke:#0088c3; stroke-width:1.04; stroke-opacity:1"/>
<line clip-path="url(#clip812)" x1="609.989" y1="341.779" x2="577.989" y2="341.779" style="stroke:#0088c3; stroke-width:1.04; stroke-opacity:1"/>
<line clip-path="url(#clip812)" x1="707.312" y1="366.731" x2="675.312" y2="366.731" style="stroke:#0088c3; stroke-width:1.04; stroke-opacity:1"/>
<line clip-path="url(#clip812)" x1="707.312" y1="357.129" x2="675.312" y2="357.129" style="stroke:#0088c3; stroke-width:1.04; stroke-opacity:1"/>
<line clip-path="url(#clip812)" x1="749.227" y1="364.839" x2="717.227" y2="364.839" style="stroke:#0088c3; stroke-width:1.04; stroke-opacity:1"/>
<line clip-path="url(#clip812)" x1="749.227" y1="356.764" x2="717.227" y2="356.764" style="stroke:#0088c3; stroke-width:1.04; stroke-opacity:1"/>
</svg>
