<?xml version="1.0" encoding="utf-8"?>
<svg xmlns="http://www.w3.org/2000/svg" xmlns:xlink="http://www.w3.org/1999/xlink" width="290" height="130" viewBox="0 0 1160 520">
<defs>
  <clipPath id="clip050">
    <rect x="0" y="0" width="1160" height="520"/>
  </clipPath>
</defs>
<path clip-path="url(#clip050)" d="
M0 520 L1160 520 L1160 0 L0 0  Z
  " fill="#ffffff" fill-rule="evenodd" fill-opacity="1"/>
<defs>
  <clipPath id="clip051">
    <rect x="232" y="0" width="813" height="520"/>
  </clipPath>
</defs>
<path clip-path="url(#clip050)" d="
M195.977 324.206 L1160 324.206 L1160 7.87402 L195.977 7.87402  Z
  " fill="#ffffff" fill-rule="evenodd" fill-opacity="1"/>
<defs>
  <clipPath id="clip052">
    <rect x="195" y="7" width="965" height="317"/>
  </clipPath>
</defs>
<polyline clip-path="url(#clip050)" style="stroke:#000000; stroke-linecap:butt; stroke-linejoin:round; stroke-width:4; stroke-opacity:1; fill:none" points="
  195.977,324.206 1160,324.206 
  "/>
<polyline clip-path="url(#clip050)" style="stroke:#000000; stroke-linecap:butt; stroke-linejoin:round; stroke-width:4; stroke-opacity:1; fill:none" points="
  223.261,324.206 223.261,343.103 
  "/>
<polyline clip-path="url(#clip050)" style="stroke:#000000; stroke-linecap:butt; stroke-linejoin:round; stroke-width:4; stroke-opacity:1; fill:none" points="
  374.837,324.206 374.837,343.103 
  "/>
<polyline clip-path="url(#clip050)" style="stroke:#000000; stroke-linecap:butt; stroke-linejoin:round; stroke-width:4; stroke-opacity:1; fill:none" points="
  526.413,324.206 526.413,343.103 
  "/>
<polyline clip-path="url(#clip050)" style="stroke:#000000; stroke-linecap:butt; stroke-linejoin:round; stroke-width:4; stroke-opacity:1; fill:none" points="
  677.989,324.206 677.989,343.103 
  "/>
<polyline clip-path="url(#clip050)" style="stroke:#000000; stroke-linecap:butt; stroke-linejoin:round; stroke-width:4; stroke-opacity:1; fill:none" points="
  829.565,324.206 829.565,343.103 
  "/>
<polyline clip-path="url(#clip050)" style="stroke:#000000; stroke-linecap:butt; stroke-linejoin:round; stroke-width:4; stroke-opacity:1; fill:none" points="
  981.14,324.206 981.14,343.103 
  "/>
<polyline clip-path="url(#clip050)" style="stroke:#000000; stroke-linecap:butt; stroke-linejoin:round; stroke-width:4; stroke-opacity:1; fill:none" points="
  1132.72,324.206 1132.72,343.103 
  "/>
<path clip-path="url(#clip050)" d="M175.417 394.141 L180.379 391.276 L170.491 374.151 L165.719 378.35 L164.122 375.584 L168.864 371.402 L171.901 369.649 L183.386 389.54 L188.347 386.676 L189.823 389.232 L176.893 396.697 L175.417 394.141 Z" fill="#000000" fill-rule="evenodd" fill-opacity="1" /><path clip-path="url(#clip050)" d="M197.098 381.624 L207.697 375.504 L209.173 378.06 L194.92 386.289 L193.444 383.733 Q194.14 380.945 195.381 376.22 Q196.628 371.47 196.891 370.156 Q197.404 367.675 197.324 366.217 Q197.251 364.736 196.617 363.638 Q195.584 361.849 193.67 361.451 Q191.771 361.044 189.756 362.207 Q188.328 363.031 187.021 364.448 Q185.728 365.855 184.506 367.904 L182.735 364.837 Q184.144 363.041 185.521 361.745 Q186.897 360.449 188.22 359.686 Q191.709 357.672 194.79 358.218 Q197.872 358.764 199.556 361.681 Q200.355 363.064 200.549 364.616 Q200.75 366.144 200.354 368.618 Q200.23 369.271 199.421 372.524 Q198.605 375.762 197.098 381.624 Z" fill="#000000" fill-rule="evenodd" fill-opacity="1" /><path clip-path="url(#clip050)" d="M215.888 359.969 Q213.723 361.219 213.144 363.098 Q212.579 364.967 213.751 366.997 Q214.923 369.027 216.824 369.472 Q218.741 369.91 220.906 368.66 Q223.071 367.41 223.65 365.531 Q224.221 363.638 223.058 361.624 Q221.886 359.594 219.97 359.157 Q218.069 358.711 215.888 359.969 M212.105 360.43 Q209.873 361.077 208.002 360.373 Q206.147 359.66 205.036 357.735 Q203.482 355.044 204.489 352.378 Q205.511 349.703 208.849 347.776 Q212.201 345.84 215.014 346.301 Q217.826 346.763 219.38 349.454 Q220.491 351.378 220.166 353.35 Q219.856 355.313 218.194 356.914 Q220.684 356.158 222.762 356.943 Q224.854 357.72 226.095 359.87 Q227.979 363.133 226.986 366.031 Q226.008 368.921 222.295 371.065 Q218.581 373.209 215.574 372.62 Q212.583 372.022 210.699 368.759 Q209.458 366.609 209.831 364.409 Q210.205 362.208 212.105 360.43 M208.223 356.276 Q209.23 358.02 210.877 358.372 Q212.539 358.716 214.508 357.579 Q216.463 356.45 216.996 354.839 Q217.545 353.22 216.538 351.476 Q215.531 349.732 213.854 349.397 Q212.192 349.053 210.237 350.182 Q208.268 351.319 207.735 352.93 Q207.216 354.532 208.223 356.276 Z" fill="#000000" fill-rule="evenodd" fill-opacity="1" /><path clip-path="url(#clip050)" d="M257.11 434.488 L262.071 431.623 L252.184 414.498 L247.412 418.697 L245.814 415.931 L250.557 411.749 L253.594 409.996 L265.078 429.887 L270.04 427.023 L271.516 429.579 L258.585 437.044 L257.11 434.488 Z" fill="#000000" fill-rule="evenodd" fill-opacity="1" /><path clip-path="url(#clip050)" d="M278.79 421.971 L289.39 415.851 L290.866 418.407 L276.613 426.636 L275.137 424.08 Q275.833 421.292 277.074 416.567 Q278.321 411.817 278.584 410.503 Q279.096 408.022 279.017 406.564 Q278.943 405.083 278.31 403.985 Q277.277 402.196 275.363 401.798 Q273.464 401.391 271.449 402.554 Q270.021 403.378 268.714 404.795 Q267.421 406.202 266.199 408.251 L264.428 405.184 Q265.837 403.388 267.214 402.092 Q268.59 400.796 269.913 400.033 Q273.401 398.019 276.483 398.565 Q279.565 399.111 281.249 402.028 Q282.048 403.411 282.242 404.963 Q282.442 406.491 282.047 408.965 Q281.922 409.618 281.114 412.871 Q280.297 416.109 278.79 421.971 Z" fill="#000000" fill-rule="evenodd" fill-opacity="1" /><path clip-path="url(#clip050)" d="M297.581 400.316 Q295.416 401.566 294.837 403.445 Q294.272 405.314 295.444 407.344 Q296.616 409.374 298.517 409.819 Q300.434 410.257 302.599 409.007 Q304.764 407.757 305.343 405.878 Q305.914 403.985 304.751 401.971 Q303.579 399.941 301.663 399.504 Q299.761 399.058 297.581 400.316 M293.798 400.777 Q291.565 401.424 289.695 400.72 Q287.84 400.007 286.729 398.082 Q285.175 395.391 286.182 392.725 Q287.204 390.05 290.541 388.123 Q293.894 386.187 296.706 386.648 Q299.519 387.11 301.073 389.801 Q302.184 391.725 301.859 393.697 Q301.549 395.66 299.887 397.261 Q302.377 396.505 304.454 397.29 Q306.547 398.067 307.788 400.217 Q309.672 403.48 308.679 406.378 Q307.701 409.268 303.988 411.412 Q300.274 413.556 297.267 412.967 Q294.276 412.369 292.392 409.106 Q291.151 406.956 291.524 404.756 Q291.898 402.555 293.798 400.777 M289.916 396.623 Q290.923 398.367 292.57 398.719 Q294.232 399.063 296.201 397.926 Q298.156 396.797 298.689 395.186 Q299.237 393.567 298.23 391.823 Q297.224 390.079 295.547 389.744 Q293.885 389.4 291.93 390.529 Q289.961 391.666 289.427 393.277 Q288.909 394.879 289.916 396.623 Z" fill="#000000" fill-rule="evenodd" fill-opacity="1" /><path clip-path="url(#clip050)" d="M309.461 394.781 L317.565 390.102 L318.988 392.568 L310.884 397.247 L309.461 394.781 Z" fill="#000000" fill-rule="evenodd" fill-opacity="1" /><path clip-path="url(#clip050)" d="M326.993 394.141 L331.954 391.276 L322.067 374.151 L317.295 378.35 L315.698 375.584 L320.44 371.402 L323.477 369.649 L334.961 389.54 L339.923 386.676 L341.399 389.232 L328.469 396.697 L326.993 394.141 Z" fill="#000000" fill-rule="evenodd" fill-opacity="1" /><path clip-path="url(#clip050)" d="M348.673 381.624 L359.273 375.504 L360.749 378.06 L346.496 386.289 L345.02 383.733 Q345.716 380.945 346.957 376.22 Q348.204 371.47 348.467 370.156 Q348.98 367.675 348.9 366.217 Q348.826 364.736 348.193 363.638 Q347.16 361.849 345.246 361.451 Q343.347 361.044 341.332 362.207 Q339.904 363.031 338.597 364.448 Q337.304 365.855 336.082 367.904 L334.311 364.837 Q335.72 363.041 337.097 361.745 Q338.473 360.449 339.796 359.686 Q343.285 357.672 346.366 358.218 Q349.448 358.764 351.132 361.681 Q351.931 363.064 352.125 364.616 Q352.326 366.144 351.93 368.618 Q351.805 369.271 350.997 372.524 Q350.181 375.762 348.673 381.624 Z" fill="#000000" fill-rule="evenodd" fill-opacity="1" /><path clip-path="url(#clip050)" d="M367.464 359.969 Q365.299 361.219 364.72 363.098 Q364.155 364.967 365.327 366.997 Q366.499 369.027 368.4 369.472 Q370.317 369.91 372.482 368.66 Q374.647 367.41 375.226 365.531 Q375.797 363.638 374.634 361.624 Q373.462 359.594 371.546 359.157 Q369.644 358.711 367.464 359.969 M363.681 360.43 Q361.448 361.077 359.578 360.373 Q357.723 359.66 356.612 357.735 Q355.058 355.044 356.065 352.378 Q357.087 349.703 360.425 347.776 Q363.777 345.84 366.59 346.301 Q369.402 346.763 370.956 349.454 Q372.067 351.378 371.742 353.35 Q371.432 355.313 369.77 356.914 Q372.26 356.158 374.337 356.943 Q376.43 357.72 377.671 359.87 Q379.555 363.133 378.562 366.031 Q377.584 368.921 373.871 371.065 Q370.157 373.209 367.15 372.62 Q364.159 372.022 362.275 368.759 Q361.034 366.609 361.407 364.409 Q361.781 362.208 363.681 360.43 M359.799 356.276 Q360.806 358.02 362.453 358.372 Q364.115 358.716 366.084 357.579 Q368.039 356.45 368.572 354.839 Q369.12 353.22 368.114 351.476 Q367.107 349.732 365.43 349.397 Q363.768 349.053 361.813 350.182 Q359.844 351.319 359.31 352.93 Q358.792 354.532 359.799 356.276 Z" fill="#000000" fill-rule="evenodd" fill-opacity="1" /><path clip-path="url(#clip050)" d="M448.343 398.421 Q446.299 399.601 445.903 401.694 Q445.523 403.778 446.929 406.214 Q448.326 408.634 450.33 409.362 Q452.34 410.066 454.385 408.885 Q456.43 407.705 456.81 405.621 Q457.197 403.513 455.8 401.092 Q454.393 398.656 452.383 397.953 Q450.388 397.24 448.343 398.421 M448.878 385.423 L450.475 388.189 Q449.02 388.308 447.682 388.699 Q446.359 389.082 445.217 389.741 Q442.21 391.477 441.788 394.427 Q441.381 397.369 443.525 401.603 Q443.657 399.783 444.596 398.319 Q445.526 396.84 447.135 395.911 Q450.518 393.958 453.662 394.889 Q456.812 395.797 458.852 399.33 Q460.848 402.788 460.01 406.059 Q459.172 409.329 455.774 411.291 Q451.88 413.539 448.101 411.751 Q444.314 409.949 441.042 404.28 Q437.969 398.958 438.672 394.342 Q439.366 389.711 443.621 387.255 Q444.764 386.595 446.051 386.152 Q447.354 385.701 448.878 385.423 Z" fill="#000000" fill-rule="evenodd" fill-opacity="1" /><path clip-path="url(#clip050)" d="M465.154 378.892 L464.405 395.302 L472.072 390.875 L465.154 378.892 M462.829 376.706 L466.648 374.501 L475.095 389.13 L478.297 387.281 L479.755 389.807 L476.553 391.656 L479.608 396.949 L476.586 398.693 L473.531 393.401 L463.397 399.252 L461.704 396.32 L462.829 376.706 Z" fill="#000000" fill-rule="evenodd" fill-opacity="1" /><path clip-path="url(#clip050)" d="M480.462 383.566 L488.566 378.887 L489.989 381.353 L481.885 386.031 L480.462 383.566 Z" fill="#000000" fill-rule="evenodd" fill-opacity="1" /><path clip-path="url(#clip050)" d="M497.994 382.926 L502.956 380.061 L493.069 362.936 L488.296 367.135 L486.699 364.368 L491.441 360.187 L494.478 358.434 L505.963 378.325 L510.924 375.46 L512.4 378.016 L499.47 385.482 L497.994 382.926 Z" fill="#000000" fill-rule="evenodd" fill-opacity="1" /><path clip-path="url(#clip050)" d="M518.226 358.074 Q516.182 359.254 515.786 361.347 Q515.406 363.431 516.812 365.867 Q518.21 368.287 520.213 369.015 Q522.223 369.719 524.268 368.538 Q526.313 367.358 526.693 365.274 Q527.08 363.166 525.683 360.745 Q524.276 358.309 522.266 357.606 Q520.271 356.893 518.226 358.074 M518.761 345.076 L520.358 347.842 Q518.903 347.961 517.565 348.352 Q516.243 348.735 515.1 349.394 Q512.093 351.13 511.671 354.08 Q511.264 357.022 513.408 361.256 Q513.54 359.436 514.479 357.972 Q515.409 356.493 517.018 355.564 Q520.401 353.611 523.545 354.542 Q526.695 355.45 528.735 358.983 Q530.731 362.441 529.893 365.712 Q529.055 368.982 525.657 370.944 Q521.763 373.192 517.984 371.404 Q514.197 369.602 510.925 363.933 Q507.852 358.611 508.555 353.995 Q509.249 349.364 513.504 346.908 Q514.647 346.248 515.934 345.805 Q517.237 345.354 518.761 345.076 Z" fill="#000000" fill-rule="evenodd" fill-opacity="1" /><path clip-path="url(#clip050)" d="M530.537 451.649 L535.499 448.785 L525.612 431.66 L520.839 435.859 L519.242 433.092 L523.984 428.911 L527.021 427.157 L538.506 447.049 L543.467 444.184 L544.943 446.74 L532.013 454.205 L530.537 451.649 Z" fill="#000000" fill-rule="evenodd" fill-opacity="1" /><path clip-path="url(#clip050)" d="M552.218 439.132 L562.818 433.012 L564.293 435.568 L550.04 443.797 L548.564 441.241 Q549.26 438.454 550.501 433.728 Q551.748 428.979 552.012 427.664 Q552.524 425.183 552.444 423.726 Q552.371 422.244 551.737 421.147 Q550.704 419.358 548.79 418.959 Q546.891 418.552 544.877 419.715 Q543.448 420.54 542.141 421.956 Q540.849 423.364 539.626 425.413 L537.855 422.346 Q539.264 420.55 540.641 419.254 Q542.018 417.958 543.341 417.194 Q546.829 415.18 549.911 415.726 Q552.992 416.272 554.676 419.189 Q555.475 420.572 555.669 422.124 Q555.87 423.652 555.474 426.126 Q555.35 426.779 554.542 430.032 Q553.725 433.27 552.218 439.132 Z" fill="#000000" fill-rule="evenodd" fill-opacity="1" /><path clip-path="url(#clip050)" d="M571.009 417.478 Q568.844 418.728 568.264 420.606 Q567.7 422.475 568.872 424.505 Q570.043 426.535 571.945 426.981 Q573.861 427.418 576.026 426.168 Q578.191 424.918 578.771 423.04 Q579.342 421.147 578.178 419.132 Q577.006 417.102 575.09 416.665 Q573.189 416.219 571.009 417.478 M567.225 417.938 Q564.993 418.586 563.123 417.881 Q561.268 417.168 560.157 415.243 Q558.603 412.552 559.609 409.886 Q560.631 407.211 563.969 405.284 Q567.322 403.349 570.134 403.81 Q572.946 404.271 574.5 406.962 Q575.611 408.887 575.286 410.859 Q574.976 412.822 573.314 414.423 Q575.805 413.666 577.882 414.452 Q579.974 415.228 581.215 417.378 Q583.099 420.641 582.106 423.54 Q581.129 426.43 577.415 428.574 Q573.701 430.718 570.695 430.128 Q567.703 429.53 565.819 426.267 Q564.578 424.117 564.952 421.917 Q565.325 419.717 567.225 417.938 M563.343 413.784 Q564.35 415.528 565.997 415.881 Q567.659 416.224 569.629 415.087 Q571.583 413.959 572.116 412.348 Q572.665 410.728 571.658 408.984 Q570.651 407.24 568.974 406.905 Q567.312 406.561 565.358 407.69 Q563.388 408.827 562.855 410.438 Q562.337 412.04 563.343 413.784 Z" fill="#000000" fill-rule="evenodd" fill-opacity="1" /><path clip-path="url(#clip050)" d="M582.888 411.942 L590.992 407.264 L592.416 409.729 L584.312 414.408 L582.888 411.942 Z" fill="#000000" fill-rule="evenodd" fill-opacity="1" /><path clip-path="url(#clip050)" d="M601.062 397.761 Q599.017 398.942 598.622 401.034 Q598.241 403.118 599.647 405.554 Q601.045 407.975 603.049 408.702 Q605.059 409.406 607.104 408.225 Q609.148 407.045 609.529 404.961 Q609.916 402.853 608.518 400.432 Q607.112 397.997 605.102 397.293 Q603.107 396.58 601.062 397.761 M601.596 384.763 L603.194 387.529 Q601.738 387.648 600.401 388.039 Q599.078 388.422 597.935 389.082 Q594.928 390.818 594.507 393.768 Q594.1 396.709 596.244 400.944 Q596.376 399.123 597.315 397.659 Q598.245 396.18 599.854 395.251 Q603.236 393.298 606.38 394.229 Q609.53 395.137 611.57 398.67 Q613.567 402.128 612.729 405.399 Q611.89 408.669 608.493 410.631 Q604.598 412.879 600.82 411.092 Q597.033 409.289 593.76 403.621 Q590.687 398.298 591.39 393.682 Q592.084 389.052 596.339 386.595 Q597.482 385.935 598.77 385.493 Q600.073 385.041 601.596 384.763 Z" fill="#000000" fill-rule="evenodd" fill-opacity="1" /><path clip-path="url(#clip050)" d="M617.873 378.232 L617.123 394.642 L624.791 390.215 L617.873 378.232 M615.548 376.046 L619.367 373.841 L627.813 388.471 L631.016 386.622 L632.474 389.148 L629.271 390.996 L632.327 396.289 L629.305 398.034 L626.249 392.741 L616.116 398.592 L614.423 395.66 L615.548 376.046 Z" fill="#000000" fill-rule="evenodd" fill-opacity="1" /><path clip-path="url(#clip050)" d="M633.18 382.906 L641.284 378.227 L642.708 380.693 L634.604 385.372 L633.18 382.906 Z" fill="#000000" fill-rule="evenodd" fill-opacity="1" /><path clip-path="url(#clip050)" d="M653.876 367.71 Q656.325 366.917 658.393 367.688 Q660.477 368.449 661.727 370.614 Q663.645 373.937 662.41 377.076 Q661.175 380.215 656.966 382.645 Q655.552 383.461 653.884 384.043 Q652.239 384.632 650.324 384.996 L648.632 382.064 Q650.32 382.072 652.04 381.58 Q653.761 381.087 655.4 380.141 Q658.256 378.492 659.094 376.505 Q659.946 374.509 658.705 372.359 Q657.559 370.375 655.519 370.069 Q653.484 369.74 651.003 371.172 L648.387 372.683 L646.946 370.187 L649.683 368.607 Q651.923 367.314 652.599 365.741 Q653.266 364.153 652.293 362.469 Q651.295 360.74 649.533 360.535 Q647.777 360.306 645.491 361.625 Q644.243 362.346 642.971 363.441 Q641.699 364.536 640.315 366.097 L638.753 363.391 Q640.204 361.911 641.569 360.803 Q642.948 359.686 644.286 358.913 Q647.744 356.916 650.671 357.332 Q653.588 357.732 655.133 360.409 Q656.21 362.273 655.889 364.182 Q655.559 366.077 653.876 367.71 Z" fill="#000000" fill-rule="evenodd" fill-opacity="1" /><path clip-path="url(#clip050)" d="M672.393 369.749 L682.993 363.629 L684.469 366.185 L670.215 374.414 L668.74 371.858 Q669.436 369.071 670.677 364.345 Q671.924 359.595 672.187 358.281 Q672.699 355.8 672.62 354.342 Q672.546 352.861 671.913 351.763 Q670.88 349.974 668.966 349.576 Q667.067 349.169 665.052 350.332 Q663.624 351.157 662.316 352.573 Q661.024 353.98 659.802 356.029 L658.031 352.962 Q659.44 351.167 660.816 349.871 Q662.193 348.575 663.516 347.811 Q667.004 345.797 670.086 346.343 Q673.168 346.889 674.852 349.806 Q675.65 351.189 675.845 352.741 Q676.045 354.269 675.649 356.743 Q675.525 357.396 674.717 360.649 Q673.9 363.887 672.393 369.749 Z" fill="#000000" fill-rule="evenodd" fill-opacity="1" /><path clip-path="url(#clip050)" d="M701.203 427.457 Q699.158 428.638 698.763 430.73 Q698.382 432.814 699.788 435.25 Q701.186 437.671 703.19 438.398 Q705.2 439.102 707.245 437.921 Q709.289 436.741 709.67 434.657 Q710.057 432.549 708.659 430.128 Q707.253 427.693 705.243 426.989 Q703.248 426.276 701.203 427.457 M701.737 414.459 L703.334 417.225 Q701.879 417.344 700.542 417.735 Q699.219 418.118 698.076 418.778 Q695.069 420.514 694.647 423.464 Q694.241 426.405 696.385 430.64 Q696.517 428.819 697.456 427.355 Q698.386 425.876 699.994 424.947 Q703.377 422.994 706.521 423.925 Q709.671 424.833 711.711 428.366 Q713.708 431.824 712.869 435.095 Q712.031 438.365 708.633 440.327 Q704.739 442.575 700.961 440.788 Q697.174 438.985 693.901 433.317 Q690.828 427.994 691.531 423.378 Q692.225 418.748 696.48 416.291 Q697.623 415.631 698.911 415.189 Q700.214 414.737 701.737 414.459 Z" fill="#000000" fill-rule="evenodd" fill-opacity="1" /><path clip-path="url(#clip050)" d="M718.014 407.928 L717.264 424.338 L724.932 419.911 L718.014 407.928 M715.689 405.742 L719.508 403.537 L727.954 418.167 L731.156 416.318 L732.615 418.844 L729.412 420.692 L732.468 425.985 L729.446 427.73 L726.39 422.437 L716.257 428.288 L714.564 425.356 L715.689 405.742 Z" fill="#000000" fill-rule="evenodd" fill-opacity="1" /><path clip-path="url(#clip050)" d="M733.321 412.602 L741.425 407.923 L742.849 410.389 L734.745 415.068 L733.321 412.602 Z" fill="#000000" fill-rule="evenodd" fill-opacity="1" /><path clip-path="url(#clip050)" d="M754.017 397.406 Q756.466 396.613 758.534 397.384 Q760.618 398.145 761.868 400.31 Q763.786 403.633 762.551 406.772 Q761.316 409.911 757.106 412.341 Q755.693 413.157 754.025 413.739 Q752.38 414.328 750.465 414.692 L748.772 411.76 Q750.461 411.768 752.181 411.276 Q753.902 410.783 755.541 409.837 Q758.397 408.188 759.235 406.201 Q760.087 404.205 758.846 402.055 Q757.7 400.071 755.659 399.765 Q753.625 399.436 751.144 400.869 L748.528 402.379 L747.087 399.883 L749.824 398.303 Q752.064 397.01 752.74 395.437 Q753.406 393.849 752.434 392.165 Q751.436 390.436 749.674 390.231 Q747.918 390.002 745.632 391.321 Q744.384 392.042 743.112 393.137 Q741.84 394.232 740.456 395.793 L738.894 393.087 Q740.345 391.607 741.709 390.499 Q743.089 389.382 744.427 388.609 Q747.885 386.613 750.811 387.028 Q753.729 387.428 755.274 390.105 Q756.35 391.969 756.029 393.878 Q755.7 395.773 754.017 397.406 Z" fill="#000000" fill-rule="evenodd" fill-opacity="1" /><path clip-path="url(#clip050)" d="M772.534 399.445 L783.134 393.325 L784.61 395.881 L770.356 404.11 L768.881 401.554 Q769.577 398.767 770.817 394.041 Q772.065 389.291 772.328 387.977 Q772.84 385.496 772.761 384.038 Q772.687 382.557 772.053 381.46 Q771.021 379.67 769.107 379.272 Q767.208 378.865 765.193 380.028 Q763.765 380.853 762.457 382.269 Q761.165 383.676 759.942 385.725 L758.172 382.658 Q759.581 380.863 760.957 379.567 Q762.334 378.271 763.657 377.507 Q767.145 375.493 770.227 376.039 Q773.309 376.585 774.993 379.502 Q775.791 380.885 775.986 382.437 Q776.186 383.965 775.79 386.439 Q775.666 387.092 774.858 390.345 Q774.041 393.583 772.534 399.445 Z" fill="#000000" fill-rule="evenodd" fill-opacity="1" /><path clip-path="url(#clip050)" d="M783.614 383.566 L791.718 378.887 L793.141 381.353 L785.037 386.031 L783.614 383.566 Z" fill="#000000" fill-rule="evenodd" fill-opacity="1" /><path clip-path="url(#clip050)" d="M801.146 382.926 L806.107 380.061 L796.22 362.936 L791.448 367.135 L789.851 364.368 L794.593 360.187 L797.63 358.434 L809.114 378.325 L814.076 375.46 L815.552 378.016 L802.622 385.482 L801.146 382.926 Z" fill="#000000" fill-rule="evenodd" fill-opacity="1" /><path clip-path="url(#clip050)" d="M821.378 358.074 Q819.334 359.254 818.938 361.347 Q818.558 363.431 819.964 365.867 Q821.361 368.287 823.365 369.015 Q825.375 369.719 827.42 368.538 Q829.465 367.358 829.845 365.274 Q830.232 363.166 828.834 360.745 Q827.428 358.309 825.418 357.606 Q823.423 356.893 821.378 358.074 M821.913 345.076 L823.51 347.842 Q822.055 347.961 820.717 348.352 Q819.394 348.735 818.252 349.394 Q815.245 351.13 814.823 354.08 Q814.416 357.022 816.56 361.256 Q816.692 359.436 817.631 357.972 Q818.561 356.493 820.17 355.564 Q823.553 353.611 826.697 354.542 Q829.847 355.45 831.887 358.983 Q833.883 362.441 833.045 365.712 Q832.207 368.982 828.809 370.944 Q824.915 373.192 821.136 371.404 Q817.349 369.602 814.076 363.933 Q811.003 358.611 811.706 353.995 Q812.401 349.364 816.656 346.908 Q817.798 346.248 819.086 345.805 Q820.389 345.354 821.913 345.076 Z" fill="#000000" fill-rule="evenodd" fill-opacity="1" /><path clip-path="url(#clip050)" d="M803.629 455.834 Q801.584 457.014 801.189 459.107 Q800.808 461.191 802.215 463.627 Q803.612 466.047 805.616 466.775 Q807.626 467.479 809.671 466.298 Q811.715 465.117 812.096 463.033 Q812.483 460.926 811.085 458.505 Q809.679 456.069 807.669 455.366 Q805.674 454.653 803.629 455.834 M804.163 442.835 L805.761 445.602 Q804.305 445.72 802.968 446.112 Q801.645 446.495 800.502 447.154 Q797.495 448.89 797.074 451.84 Q796.667 454.781 798.811 459.016 Q798.943 457.196 799.882 455.732 Q800.812 454.253 802.421 453.324 Q805.804 451.371 808.947 452.302 Q812.097 453.21 814.137 456.743 Q816.134 460.201 815.296 463.471 Q814.458 466.742 811.06 468.704 Q807.166 470.952 803.387 469.164 Q799.6 467.361 796.327 461.693 Q793.254 456.371 793.957 451.755 Q794.652 447.124 798.907 444.668 Q800.049 444.008 801.337 443.565 Q802.64 443.114 804.163 442.835 Z" fill="#000000" fill-rule="evenodd" fill-opacity="1" /><path clip-path="url(#clip050)" d="M820.44 436.305 L819.69 452.715 L827.358 448.288 L820.44 436.305 M818.115 434.119 L821.934 431.914 L830.38 446.543 L833.583 444.694 L835.041 447.22 L831.839 449.069 L834.894 454.361 L831.872 456.106 L828.816 450.814 L818.683 456.665 L816.99 453.733 L818.115 434.119 Z" fill="#000000" fill-rule="evenodd" fill-opacity="1" /><path clip-path="url(#clip050)" d="M835.748 440.979 L843.851 436.3 L845.275 438.766 L837.171 443.444 L835.748 440.979 Z" fill="#000000" fill-rule="evenodd" fill-opacity="1" /><path clip-path="url(#clip050)" d="M853.921 426.797 Q851.877 427.978 851.481 430.071 Q851.101 432.155 852.507 434.59 Q853.904 437.011 855.908 437.738 Q857.918 438.442 859.963 437.262 Q862.008 436.081 862.388 433.997 Q862.775 431.889 861.378 429.469 Q859.971 427.033 857.961 426.329 Q855.966 425.617 853.921 426.797 M854.456 413.799 L856.053 416.566 Q854.598 416.684 853.26 417.076 Q851.937 417.458 850.795 418.118 Q847.788 419.854 847.366 422.804 Q846.959 425.745 849.103 429.98 Q849.235 428.16 850.174 426.696 Q851.104 425.216 852.713 424.288 Q856.096 422.334 859.24 423.266 Q862.39 424.173 864.43 427.707 Q866.426 431.165 865.588 434.435 Q864.75 437.706 861.352 439.667 Q857.458 441.916 853.679 440.128 Q849.892 438.325 846.62 432.657 Q843.547 427.334 844.25 422.719 Q844.944 418.088 849.199 415.631 Q850.342 414.972 851.629 414.529 Q852.932 414.077 854.456 413.799 Z" fill="#000000" fill-rule="evenodd" fill-opacity="1" /><path clip-path="url(#clip050)" d="M870.732 407.269 L869.983 423.679 L877.651 419.252 L870.732 407.269 M868.408 405.083 L872.226 402.878 L880.673 417.507 L883.875 415.658 L885.333 418.184 L882.131 420.033 L885.186 425.325 L882.164 427.07 L879.109 421.778 L868.975 427.628 L867.282 424.696 L868.408 405.083 Z" fill="#000000" fill-rule="evenodd" fill-opacity="1" /><path clip-path="url(#clip050)" d="M886.04 411.942 L894.144 407.264 L895.567 409.729 L887.463 414.408 L886.04 411.942 Z" fill="#000000" fill-rule="evenodd" fill-opacity="1" /><path clip-path="url(#clip050)" d="M906.735 396.746 Q909.184 395.954 911.253 396.724 Q913.336 397.486 914.586 399.651 Q916.505 402.973 915.27 406.112 Q914.035 409.251 909.825 411.681 Q908.412 412.497 906.743 413.08 Q905.099 413.668 903.184 414.032 L901.491 411.1 Q903.179 411.108 904.9 410.616 Q906.62 410.124 908.259 409.177 Q911.116 407.528 911.953 405.541 Q912.806 403.545 911.564 401.395 Q910.419 399.411 908.378 399.106 Q906.344 398.777 903.863 400.209 L901.247 401.719 L899.806 399.223 L902.542 397.644 Q904.782 396.35 905.458 394.777 Q906.125 393.189 905.153 391.506 Q904.155 389.776 902.392 389.571 Q900.636 389.342 898.351 390.662 Q897.103 391.382 895.831 392.477 Q894.559 393.573 893.175 395.133 L891.612 392.427 Q893.063 390.948 894.428 389.839 Q895.808 388.722 897.146 387.949 Q900.604 385.953 903.53 386.368 Q906.447 386.769 907.993 389.445 Q909.069 391.309 908.748 393.219 Q908.418 395.113 906.735 396.746 Z" fill="#000000" fill-rule="evenodd" fill-opacity="1" /><path clip-path="url(#clip050)" d="M925.253 398.785 L935.852 392.665 L937.328 395.221 L923.075 403.45 L921.599 400.894 Q922.295 398.107 923.536 393.381 Q924.783 388.632 925.047 387.317 Q925.559 384.836 925.479 383.379 Q925.406 381.897 924.772 380.8 Q923.739 379.011 921.825 378.612 Q919.926 378.205 917.911 379.368 Q916.483 380.193 915.176 381.609 Q913.884 383.017 912.661 385.066 L910.89 381.999 Q912.299 380.203 913.676 378.907 Q915.053 377.611 916.376 376.847 Q919.864 374.833 922.946 375.379 Q926.027 375.925 927.711 378.842 Q928.51 380.225 928.704 381.777 Q928.905 383.305 928.509 385.779 Q928.385 386.432 927.577 389.685 Q926.76 392.923 925.253 398.785 Z" fill="#000000" fill-rule="evenodd" fill-opacity="1" /><path clip-path="url(#clip050)" d="M936.332 382.906 L944.436 378.227 L945.86 380.693 L937.756 385.372 L936.332 382.906 Z" fill="#000000" fill-rule="evenodd" fill-opacity="1" /><path clip-path="url(#clip050)" d="M957.028 367.71 Q959.477 366.917 961.545 367.688 Q963.629 368.449 964.879 370.614 Q966.797 373.937 965.562 377.076 Q964.327 380.215 960.117 382.645 Q958.704 383.461 957.036 384.043 Q955.391 384.632 953.476 384.996 L951.783 382.064 Q953.472 382.072 955.192 381.58 Q956.913 381.087 958.552 380.141 Q961.408 378.492 962.246 376.505 Q963.098 374.509 961.857 372.359 Q960.711 370.375 958.67 370.069 Q956.636 369.74 954.155 371.172 L951.539 372.683 L950.098 370.187 L952.835 368.607 Q955.075 367.314 955.75 365.741 Q956.417 364.153 955.445 362.469 Q954.447 360.74 952.685 360.535 Q950.928 360.306 948.643 361.625 Q947.395 362.346 946.123 363.441 Q944.851 364.536 943.467 366.097 L941.904 363.391 Q943.356 361.911 944.72 360.803 Q946.1 359.686 947.438 358.913 Q950.896 356.916 953.822 357.332 Q956.74 357.732 958.285 360.409 Q959.361 362.273 959.04 364.182 Q958.711 366.077 957.028 367.71 Z" fill="#000000" fill-rule="evenodd" fill-opacity="1" /><path clip-path="url(#clip050)" d="M975.545 369.749 L986.145 363.629 L987.62 366.185 L973.367 374.414 L971.891 371.858 Q972.588 369.071 973.828 364.345 Q975.076 359.595 975.339 358.281 Q975.851 355.8 975.771 354.342 Q975.698 352.861 975.064 351.763 Q974.031 349.974 972.117 349.576 Q970.218 349.169 968.204 350.332 Q966.775 351.157 965.468 352.573 Q964.176 353.98 962.953 356.029 L961.183 352.962 Q962.591 351.167 963.968 349.871 Q965.345 348.575 966.668 347.811 Q970.156 345.797 973.238 346.343 Q976.32 346.889 978.004 349.806 Q978.802 351.189 978.997 352.741 Q979.197 354.269 978.801 356.743 Q978.677 357.396 977.869 360.649 Q977.052 363.887 975.545 369.749 Z" fill="#000000" fill-rule="evenodd" fill-opacity="1" /><path clip-path="url(#clip050)" d="M953.421 470.035 L958.382 467.17 L948.495 450.045 L943.722 454.244 L942.125 451.477 L946.868 447.296 L949.905 445.542 L961.389 465.434 L966.351 462.569 L967.826 465.125 L954.896 472.59 L953.421 470.035 Z" fill="#000000" fill-rule="evenodd" fill-opacity="1" /><path clip-path="url(#clip050)" d="M973.653 445.183 Q971.608 446.363 971.213 448.456 Q970.832 450.54 972.238 452.976 Q973.636 455.396 975.64 456.124 Q977.65 456.828 979.695 455.647 Q981.739 454.466 982.12 452.382 Q982.507 450.275 981.109 447.854 Q979.703 445.418 977.693 444.715 Q975.698 444.002 973.653 445.183 M974.187 432.185 L975.785 434.951 Q974.329 435.069 972.992 435.461 Q971.669 435.844 970.526 436.503 Q967.519 438.239 967.098 441.189 Q966.691 444.13 968.835 448.365 Q968.967 446.545 969.906 445.081 Q970.836 443.602 972.445 442.673 Q975.827 440.72 978.971 441.651 Q982.121 442.559 984.161 446.092 Q986.158 449.55 985.32 452.82 Q984.481 456.091 981.084 458.053 Q977.189 460.301 973.411 458.513 Q969.624 456.71 966.351 451.042 Q963.278 445.72 963.981 441.104 Q964.676 436.473 968.93 434.017 Q970.073 433.357 971.361 432.914 Q972.664 432.463 974.187 432.185 Z" fill="#000000" fill-rule="evenodd" fill-opacity="1" /><path clip-path="url(#clip050)" d="M986.181 441.638 L994.285 436.96 L995.708 439.425 L987.604 444.104 L986.181 441.638 Z" fill="#000000" fill-rule="evenodd" fill-opacity="1" /><path clip-path="url(#clip050)" d="M1003.71 440.998 L1008.67 438.134 L998.787 421.009 L994.015 425.208 L992.418 422.441 L997.16 418.26 L1000.2 416.506 L1011.68 436.398 L1016.64 433.533 L1018.12 436.089 L1005.19 443.554 L1003.71 440.998 Z" fill="#000000" fill-rule="evenodd" fill-opacity="1" /><path clip-path="url(#clip050)" d="M1023.95 416.146 Q1021.9 417.327 1021.51 419.42 Q1021.12 421.504 1022.53 423.939 Q1023.93 426.36 1025.93 427.087 Q1027.94 427.791 1029.99 426.611 Q1032.03 425.43 1032.41 423.346 Q1032.8 421.238 1031.4 418.818 Q1030 416.382 1027.99 415.678 Q1025.99 414.966 1023.95 416.146 M1024.48 403.148 L1026.08 405.915 Q1024.62 406.033 1023.28 406.425 Q1021.96 406.807 1020.82 407.467 Q1017.81 409.203 1017.39 412.153 Q1016.98 415.094 1019.13 419.329 Q1019.26 417.509 1020.2 416.045 Q1021.13 414.565 1022.74 413.637 Q1026.12 411.683 1029.26 412.615 Q1032.41 413.522 1034.45 417.056 Q1036.45 420.514 1035.61 423.784 Q1034.77 427.055 1031.38 429.016 Q1027.48 431.265 1023.7 429.477 Q1019.92 427.674 1016.64 422.006 Q1013.57 416.683 1014.27 412.068 Q1014.97 407.437 1019.22 404.98 Q1020.37 404.321 1021.65 403.878 Q1022.96 403.426 1024.48 403.148 Z" fill="#000000" fill-rule="evenodd" fill-opacity="1" /><path clip-path="url(#clip050)" d="M1036.47 412.602 L1044.58 407.923 L1046 410.389 L1037.9 415.068 L1036.47 412.602 Z" fill="#000000" fill-rule="evenodd" fill-opacity="1" /><path clip-path="url(#clip050)" d="M1054.01 411.962 L1058.97 409.097 L1049.08 391.972 L1044.31 396.171 L1042.71 393.405 L1047.45 389.223 L1050.49 387.47 L1061.97 407.361 L1066.94 404.497 L1068.41 407.053 L1055.48 414.518 L1054.01 411.962 Z" fill="#000000" fill-rule="evenodd" fill-opacity="1" /><path clip-path="url(#clip050)" d="M1074.24 387.11 Q1072.19 388.291 1071.8 390.383 Q1071.42 392.467 1072.82 394.903 Q1074.22 397.324 1076.22 398.051 Q1078.23 398.755 1080.28 397.574 Q1082.32 396.394 1082.7 394.31 Q1083.09 392.202 1081.69 389.781 Q1080.29 387.346 1078.28 386.642 Q1076.28 385.929 1074.24 387.11 M1074.77 374.112 L1076.37 376.878 Q1074.91 376.997 1073.58 377.388 Q1072.25 377.771 1071.11 378.431 Q1068.1 380.167 1067.68 383.117 Q1067.28 386.058 1069.42 390.293 Q1069.55 388.472 1070.49 387.008 Q1071.42 385.529 1073.03 384.6 Q1076.41 382.647 1079.56 383.578 Q1082.71 384.486 1084.75 388.019 Q1086.74 391.477 1085.9 394.748 Q1085.07 398.018 1081.67 399.98 Q1077.77 402.228 1074 400.441 Q1070.21 398.638 1066.94 392.97 Q1063.86 387.647 1064.57 383.031 Q1065.26 378.401 1069.52 375.944 Q1070.66 375.284 1071.95 374.842 Q1073.25 374.39 1074.77 374.112 Z" fill="#000000" fill-rule="evenodd" fill-opacity="1" /><path clip-path="url(#clip050)" d="M1086.77 383.566 L1094.87 378.887 L1096.29 381.353 L1088.19 386.031 L1086.77 383.566 Z" fill="#000000" fill-rule="evenodd" fill-opacity="1" /><path clip-path="url(#clip050)" d="M1104.3 382.926 L1109.26 380.061 L1099.37 362.936 L1094.6 367.135 L1093 364.368 L1097.74 360.187 L1100.78 358.434 L1112.27 378.325 L1117.23 375.46 L1118.7 378.016 L1105.77 385.482 L1104.3 382.926 Z" fill="#000000" fill-rule="evenodd" fill-opacity="1" /><path clip-path="url(#clip050)" d="M1124.53 358.074 Q1122.49 359.254 1122.09 361.347 Q1121.71 363.431 1123.12 365.867 Q1124.51 368.287 1126.52 369.015 Q1128.53 369.719 1130.57 368.538 Q1132.62 367.358 1133 365.274 Q1133.38 363.166 1131.99 360.745 Q1130.58 358.309 1128.57 357.606 Q1126.57 356.893 1124.53 358.074 M1125.06 345.076 L1126.66 347.842 Q1125.21 347.961 1123.87 348.352 Q1122.55 348.735 1121.4 349.394 Q1118.4 351.13 1117.97 354.08 Q1117.57 357.022 1119.71 361.256 Q1119.84 359.436 1120.78 357.972 Q1121.71 356.493 1123.32 355.564 Q1126.7 353.611 1129.85 354.542 Q1133 355.45 1135.04 358.983 Q1137.03 362.441 1136.2 365.712 Q1135.36 368.982 1131.96 370.944 Q1128.07 373.192 1124.29 371.404 Q1120.5 369.602 1117.23 363.933 Q1114.16 358.611 1114.86 353.995 Q1115.55 349.364 1119.81 346.908 Q1120.95 346.248 1122.24 345.805 Q1123.54 345.354 1125.06 345.076 Z" fill="#000000" fill-rule="evenodd" fill-opacity="1" /><path clip-path="url(#clip050)" d="M472.382 501.354 L472.382 513.09 L469.188 513.09 L469.188 501.458 Q469.188 498.698 468.111 497.326 Q467.035 495.955 464.882 495.955 Q462.295 495.955 460.802 497.604 Q459.309 499.253 459.309 502.101 L459.309 513.09 L456.097 513.09 L456.097 486.076 L459.309 486.076 L459.309 496.667 Q460.455 494.913 462 494.045 Q463.563 493.177 465.594 493.177 Q468.945 493.177 470.663 495.26 Q472.382 497.326 472.382 501.354 Z" fill="#000000" fill-rule="evenodd" fill-opacity="1" /><path clip-path="url(#clip050)" d="M478.754 493.646 L481.948 493.646 L481.948 513.09 L478.754 513.09 L478.754 493.646 M478.754 486.076 L481.948 486.076 L481.948 490.122 L478.754 490.122 L478.754 486.076 Z" fill="#000000" fill-rule="evenodd" fill-opacity="1" /><path clip-path="url(#clip050)" d="M501.427 496.597 L501.427 486.076 L504.622 486.076 L504.622 513.09 L501.427 513.09 L501.427 510.174 Q500.42 511.91 498.875 512.76 Q497.347 513.594 495.194 513.594 Q491.67 513.594 489.448 510.781 Q487.243 507.969 487.243 503.385 Q487.243 498.802 489.448 495.99 Q491.67 493.177 495.194 493.177 Q497.347 493.177 498.875 494.028 Q500.42 494.861 501.427 496.597 M490.542 503.385 Q490.542 506.91 491.983 508.924 Q493.441 510.92 495.976 510.92 Q498.51 510.92 499.969 508.924 Q501.427 506.91 501.427 503.385 Q501.427 499.861 499.969 497.865 Q498.51 495.851 495.976 495.851 Q493.441 495.851 491.983 497.865 Q490.542 499.861 490.542 503.385 Z" fill="#000000" fill-rule="evenodd" fill-opacity="1" /><path clip-path="url(#clip050)" d="M523.996 496.597 L523.996 486.076 L527.191 486.076 L527.191 513.09 L523.996 513.09 L523.996 510.174 Q522.989 511.91 521.444 512.76 Q519.917 513.594 517.764 513.594 Q514.24 513.594 512.017 510.781 Q509.812 507.969 509.812 503.385 Q509.812 498.802 512.017 495.99 Q514.24 493.177 517.764 493.177 Q519.917 493.177 521.444 494.028 Q522.989 494.861 523.996 496.597 M513.111 503.385 Q513.111 506.91 514.552 508.924 Q516.01 510.92 518.545 510.92 Q521.08 510.92 522.538 508.924 Q523.996 506.91 523.996 503.385 Q523.996 499.861 522.538 497.865 Q521.08 495.851 518.545 495.851 Q516.01 495.851 514.552 497.865 Q513.111 499.861 513.111 503.385 Z" fill="#000000" fill-rule="evenodd" fill-opacity="1" /><path clip-path="url(#clip050)" d="M550.403 502.569 L550.403 504.132 L535.715 504.132 Q535.923 507.43 537.694 509.167 Q539.482 510.885 542.66 510.885 Q544.5 510.885 546.219 510.434 Q547.955 509.983 549.656 509.08 L549.656 512.101 Q547.937 512.83 546.132 513.212 Q544.326 513.594 542.469 513.594 Q537.816 513.594 535.09 510.885 Q532.382 508.177 532.382 503.559 Q532.382 498.785 534.951 495.99 Q537.538 493.177 541.913 493.177 Q545.837 493.177 548.111 495.712 Q550.403 498.229 550.403 502.569 M547.208 501.632 Q547.173 499.01 545.732 497.448 Q544.309 495.885 541.948 495.885 Q539.274 495.885 537.66 497.396 Q536.062 498.906 535.819 501.649 L547.208 501.632 Z" fill="#000000" fill-rule="evenodd" fill-opacity="1" /><path clip-path="url(#clip050)" d="M571.809 501.354 L571.809 513.09 L568.614 513.09 L568.614 501.458 Q568.614 498.698 567.538 497.326 Q566.461 495.955 564.309 495.955 Q561.722 495.955 560.229 497.604 Q558.736 499.253 558.736 502.101 L558.736 513.09 L555.524 513.09 L555.524 493.646 L558.736 493.646 L558.736 496.667 Q559.882 494.913 561.427 494.045 Q562.989 493.177 565.02 493.177 Q568.371 493.177 570.09 495.26 Q571.809 497.326 571.809 501.354 Z" fill="#000000" fill-rule="evenodd" fill-opacity="1" /><path clip-path="url(#clip050)" d="M589.482 486.076 L592.677 486.076 L592.677 513.09 L589.482 513.09 L589.482 486.076 Z" fill="#000000" fill-rule="evenodd" fill-opacity="1" /><path clip-path="url(#clip050)" d="M608.197 503.316 Q604.326 503.316 602.833 504.201 Q601.34 505.087 601.34 507.222 Q601.34 508.924 602.451 509.93 Q603.579 510.92 605.506 510.92 Q608.163 510.92 609.76 509.045 Q611.374 507.153 611.374 504.028 L611.374 503.316 L608.197 503.316 M614.569 501.996 L614.569 513.09 L611.374 513.09 L611.374 510.139 Q610.281 511.91 608.649 512.76 Q607.017 513.594 604.656 513.594 Q601.67 513.594 599.899 511.927 Q598.145 510.243 598.145 507.43 Q598.145 504.149 600.333 502.483 Q602.538 500.816 606.895 500.816 L611.374 500.816 L611.374 500.503 Q611.374 498.299 609.916 497.101 Q608.475 495.885 605.854 495.885 Q604.187 495.885 602.607 496.285 Q601.027 496.684 599.569 497.483 L599.569 494.531 Q601.322 493.854 602.972 493.524 Q604.621 493.177 606.183 493.177 Q610.402 493.177 612.486 495.365 Q614.569 497.552 614.569 501.996 Z" fill="#000000" fill-rule="evenodd" fill-opacity="1" /><path clip-path="url(#clip050)" d="M629.239 514.896 Q627.885 518.368 626.6 519.427 Q625.315 520.486 623.163 520.486 L620.61 520.486 L620.61 517.812 L622.485 517.812 Q623.805 517.812 624.534 517.187 Q625.263 516.562 626.149 514.236 L626.722 512.778 L618.857 493.646 L622.242 493.646 L628.319 508.854 L634.395 493.646 L637.781 493.646 L629.239 514.896 Z" fill="#000000" fill-rule="evenodd" fill-opacity="1" /><path clip-path="url(#clip050)" d="M658.822 502.569 L658.822 504.132 L644.135 504.132 Q644.343 507.43 646.114 509.167 Q647.902 510.885 651.079 510.885 Q652.919 510.885 654.638 510.434 Q656.374 509.983 658.076 509.08 L658.076 512.101 Q656.357 512.83 654.551 513.212 Q652.746 513.594 650.888 513.594 Q646.235 513.594 643.51 510.885 Q640.801 508.177 640.801 503.559 Q640.801 498.785 643.371 495.99 Q645.958 493.177 650.333 493.177 Q654.256 493.177 656.53 495.712 Q658.822 498.229 658.822 502.569 M655.628 501.632 Q655.593 499.01 654.152 497.448 Q652.728 495.885 650.367 495.885 Q647.694 495.885 646.079 497.396 Q644.482 498.906 644.239 501.649 L655.628 501.632 Z" fill="#000000" fill-rule="evenodd" fill-opacity="1" /><path clip-path="url(#clip050)" d="M675.332 496.632 Q674.794 496.319 674.152 496.181 Q673.527 496.024 672.763 496.024 Q670.055 496.024 668.596 497.795 Q667.155 499.549 667.155 502.847 L667.155 513.09 L663.944 513.09 L663.944 493.646 L667.155 493.646 L667.155 496.667 Q668.162 494.896 669.777 494.045 Q671.391 493.177 673.7 493.177 Q674.03 493.177 674.43 493.229 Q674.829 493.264 675.315 493.351 L675.332 496.632 Z" fill="#000000" fill-rule="evenodd" fill-opacity="1" /><path clip-path="url(#clip050)" d="M698.822 503.316 Q694.95 503.316 693.457 504.201 Q691.964 505.087 691.964 507.222 Q691.964 508.924 693.075 509.93 Q694.204 510.92 696.131 510.92 Q698.787 510.92 700.384 509.045 Q701.999 507.153 701.999 504.028 L701.999 503.316 L698.822 503.316 M705.193 501.996 L705.193 513.09 L701.999 513.09 L701.999 510.139 Q700.905 511.91 699.273 512.76 Q697.641 513.594 695.28 513.594 Q692.294 513.594 690.523 511.927 Q688.77 510.243 688.77 507.43 Q688.77 504.149 690.957 502.483 Q693.162 500.816 697.52 500.816 L701.999 500.816 L701.999 500.503 Q701.999 498.299 700.541 497.101 Q699.1 495.885 696.478 495.885 Q694.811 495.885 693.232 496.285 Q691.652 496.684 690.193 497.483 L690.193 494.531 Q691.947 493.854 693.596 493.524 Q695.245 493.177 696.808 493.177 Q701.027 493.177 703.11 495.365 Q705.193 497.552 705.193 501.996 Z" fill="#000000" fill-rule="evenodd" fill-opacity="1" /><path clip-path="url(#clip050)" d="M723.04 496.632 Q722.502 496.319 721.86 496.181 Q721.235 496.024 720.471 496.024 Q717.763 496.024 716.304 497.795 Q714.863 499.549 714.863 502.847 L714.863 513.09 L711.652 513.09 L711.652 493.646 L714.863 493.646 L714.863 496.667 Q715.87 494.896 717.485 494.045 Q719.1 493.177 721.409 493.177 Q721.738 493.177 722.138 493.229 Q722.537 493.264 723.023 493.351 L723.04 496.632 Z" fill="#000000" fill-rule="evenodd" fill-opacity="1" /><path clip-path="url(#clip050)" d="M739.603 494.392 L739.603 497.378 Q738.249 496.632 736.877 496.267 Q735.523 495.885 734.134 495.885 Q731.027 495.885 729.308 497.865 Q727.589 499.826 727.589 503.385 Q727.589 506.944 729.308 508.924 Q731.027 510.885 734.134 510.885 Q735.523 510.885 736.877 510.521 Q738.249 510.139 739.603 509.392 L739.603 512.344 Q738.266 512.969 736.825 513.281 Q735.402 513.594 733.787 513.594 Q729.395 513.594 726.808 510.833 Q724.221 508.073 724.221 503.385 Q724.221 498.628 726.825 495.903 Q729.447 493.177 733.995 493.177 Q735.471 493.177 736.877 493.49 Q738.283 493.785 739.603 494.392 Z" fill="#000000" fill-rule="evenodd" fill-opacity="1" /><path clip-path="url(#clip050)" d="M761.322 501.354 L761.322 513.09 L758.127 513.09 L758.127 501.458 Q758.127 498.698 757.051 497.326 Q755.974 495.955 753.822 495.955 Q751.235 495.955 749.742 497.604 Q748.249 499.253 748.249 502.101 L748.249 513.09 L745.037 513.09 L745.037 486.076 L748.249 486.076 L748.249 496.667 Q749.395 494.913 750.94 494.045 Q752.502 493.177 754.533 493.177 Q757.884 493.177 759.603 495.26 Q761.322 497.326 761.322 501.354 Z" fill="#000000" fill-rule="evenodd" fill-opacity="1" /><path clip-path="url(#clip050)" d="M767.693 493.646 L770.887 493.646 L770.887 513.09 L767.693 513.09 L767.693 493.646 M767.693 486.076 L770.887 486.076 L770.887 490.122 L767.693 490.122 L767.693 486.076 Z" fill="#000000" fill-rule="evenodd" fill-opacity="1" /><path clip-path="url(#clip050)" d="M780.731 488.125 L780.731 493.646 L787.311 493.646 L787.311 496.128 L780.731 496.128 L780.731 506.684 Q780.731 509.062 781.374 509.739 Q782.033 510.417 784.03 510.417 L787.311 510.417 L787.311 513.09 L784.03 513.09 Q780.332 513.09 778.926 511.719 Q777.519 510.33 777.519 506.684 L777.519 496.128 L775.176 496.128 L775.176 493.646 L777.519 493.646 L777.519 488.125 L780.731 488.125 Z" fill="#000000" fill-rule="evenodd" fill-opacity="1" /><path clip-path="url(#clip050)" d="M808.144 502.569 L808.144 504.132 L793.457 504.132 Q793.665 507.43 795.436 509.167 Q797.224 510.885 800.401 510.885 Q802.241 510.885 803.96 510.434 Q805.696 509.983 807.398 509.08 L807.398 512.101 Q805.679 512.83 803.873 513.212 Q802.068 513.594 800.21 513.594 Q795.557 513.594 792.832 510.885 Q790.123 508.177 790.123 503.559 Q790.123 498.785 792.693 495.99 Q795.28 493.177 799.655 493.177 Q803.578 493.177 805.853 495.712 Q808.144 498.229 808.144 502.569 M804.95 501.632 Q804.915 499.01 803.474 497.448 Q802.05 495.885 799.689 495.885 Q797.016 495.885 795.401 497.396 Q793.804 498.906 793.561 501.649 L804.95 501.632 Z" fill="#000000" fill-rule="evenodd" fill-opacity="1" /><path clip-path="url(#clip050)" d="M827.38 494.392 L827.38 497.378 Q826.026 496.632 824.655 496.267 Q823.3 495.885 821.911 495.885 Q818.804 495.885 817.085 497.865 Q815.366 499.826 815.366 503.385 Q815.366 506.944 817.085 508.924 Q818.804 510.885 821.911 510.885 Q823.3 510.885 824.655 510.521 Q826.026 510.139 827.38 509.392 L827.38 512.344 Q826.043 512.969 824.602 513.281 Q823.179 513.594 821.564 513.594 Q817.172 513.594 814.585 510.833 Q811.998 508.073 811.998 503.385 Q811.998 498.628 814.602 495.903 Q817.224 493.177 821.773 493.177 Q823.248 493.177 824.655 493.49 Q826.061 493.785 827.38 494.392 Z" fill="#000000" fill-rule="evenodd" fill-opacity="1" /><path clip-path="url(#clip050)" d="M836.095 488.125 L836.095 493.646 L842.675 493.646 L842.675 496.128 L836.095 496.128 L836.095 506.684 Q836.095 509.062 836.738 509.739 Q837.398 510.417 839.394 510.417 L842.675 510.417 L842.675 513.09 L839.394 513.09 Q835.696 513.09 834.29 511.719 Q832.884 510.33 832.884 506.684 L832.884 496.128 L830.54 496.128 L830.54 493.646 L832.884 493.646 L832.884 488.125 L836.095 488.125 Z" fill="#000000" fill-rule="evenodd" fill-opacity="1" /><path clip-path="url(#clip050)" d="M846.547 505.417 L846.547 493.646 L849.741 493.646 L849.741 505.295 Q849.741 508.055 850.818 509.444 Q851.894 510.816 854.047 510.816 Q856.634 510.816 858.127 509.167 Q859.637 507.517 859.637 504.67 L859.637 493.646 L862.831 493.646 L862.831 513.09 L859.637 513.09 L859.637 510.104 Q858.474 511.875 856.929 512.743 Q855.401 513.594 853.37 513.594 Q850.019 513.594 848.283 511.51 Q846.547 509.427 846.547 505.417 M854.585 493.177 L854.585 493.177 Z" fill="#000000" fill-rule="evenodd" fill-opacity="1" /><path clip-path="url(#clip050)" d="M880.679 496.632 Q880.14 496.319 879.498 496.181 Q878.873 496.024 878.109 496.024 Q875.401 496.024 873.942 497.795 Q872.501 499.549 872.501 502.847 L872.501 513.09 L869.29 513.09 L869.29 493.646 L872.501 493.646 L872.501 496.667 Q873.508 494.896 875.123 494.045 Q876.738 493.177 879.047 493.177 Q879.376 493.177 879.776 493.229 Q880.175 493.264 880.661 493.351 L880.679 496.632 Z" fill="#000000" fill-rule="evenodd" fill-opacity="1" /><path clip-path="url(#clip050)" d="M899.88 502.569 L899.88 504.132 L885.192 504.132 Q885.401 507.43 887.172 509.167 Q888.96 510.885 892.137 510.885 Q893.977 510.885 895.696 510.434 Q897.432 509.983 899.133 509.08 L899.133 512.101 Q897.415 512.83 895.609 513.212 Q893.803 513.594 891.946 513.594 Q887.293 513.594 884.567 510.885 Q881.859 508.177 881.859 503.559 Q881.859 498.785 884.429 495.99 Q887.015 493.177 891.39 493.177 Q895.314 493.177 897.588 495.712 Q899.88 498.229 899.88 502.569 M896.685 501.632 Q896.651 499.01 895.21 497.448 Q893.786 495.885 891.425 495.885 Q888.751 495.885 887.137 497.396 Q885.54 498.906 885.297 501.649 L896.685 501.632 Z" fill="#000000" fill-rule="evenodd" fill-opacity="1" /><polyline clip-path="url(#clip050)" style="stroke:#000000; stroke-linecap:butt; stroke-linejoin:round; stroke-width:4; stroke-opacity:1; fill:none" points="
  195.977,324.206 195.977,7.87402 
  "/>
<polyline clip-path="url(#clip050)" style="stroke:#000000; stroke-linecap:butt; stroke-linejoin:round; stroke-width:4; stroke-opacity:1; fill:none" points="
  195.977,273.149 177.08,273.149 
  "/>
<polyline clip-path="url(#clip050)" style="stroke:#000000; stroke-linecap:butt; stroke-linejoin:round; stroke-width:4; stroke-opacity:1; fill:none" points="
  195.977,216.761 177.08,216.761 
  "/>
<polyline clip-path="url(#clip050)" style="stroke:#000000; stroke-linecap:butt; stroke-linejoin:round; stroke-width:4; stroke-opacity:1; fill:none" points="
  195.977,160.373 177.08,160.373 
  "/>
<polyline clip-path="url(#clip050)" style="stroke:#000000; stroke-linecap:butt; stroke-linejoin:round; stroke-width:4; stroke-opacity:1; fill:none" points="
  195.977,103.985 177.08,103.985 
  "/>
<polyline clip-path="url(#clip050)" style="stroke:#000000; stroke-linecap:butt; stroke-linejoin:round; stroke-width:4; stroke-opacity:1; fill:none" points="
  195.977,47.5969 177.08,47.5969 
  "/>
<path clip-path="url(#clip050)" d="M59.8779 262.498 Q57.1696 262.498 55.798 265.172 Q54.4439 267.828 54.4439 273.175 Q54.4439 278.505 55.798 281.179 Q57.1696 283.835 59.8779 283.835 Q62.6035 283.835 63.9577 281.179 Q65.3292 278.505 65.3292 273.175 Q65.3292 267.828 63.9577 265.172 Q62.6035 262.498 59.8779 262.498 M59.8779 259.721 Q64.2355 259.721 66.5271 263.175 Q68.8362 266.613 68.8362 273.175 Q68.8362 279.721 66.5271 283.175 Q64.2355 286.613 59.8779 286.613 Q55.5203 286.613 53.2112 283.175 Q50.9196 279.721 50.9196 273.175 Q50.9196 266.613 53.2112 263.175 Q55.5203 259.721 59.8779 259.721 Z" fill="#000000" fill-rule="evenodd" fill-opacity="1" /><path clip-path="url(#clip050)" d="M74.9993 281.7 L78.6625 281.7 L78.6625 286.109 L74.9993 286.109 L74.9993 281.7 Z" fill="#000000" fill-rule="evenodd" fill-opacity="1" /><path clip-path="url(#clip050)" d="M93.8013 262.498 Q91.093 262.498 89.7215 265.172 Q88.3673 267.828 88.3673 273.175 Q88.3673 278.505 89.7215 281.179 Q91.093 283.835 93.8013 283.835 Q96.527 283.835 97.8811 281.179 Q99.2527 278.505 99.2527 273.175 Q99.2527 267.828 97.8811 265.172 Q96.527 262.498 93.8013 262.498 M93.8013 259.721 Q98.1589 259.721 100.451 263.175 Q102.76 266.613 102.76 273.175 Q102.76 279.721 100.451 283.175 Q98.1589 286.613 93.8013 286.613 Q89.4437 286.613 87.1347 283.175 Q84.843 279.721 84.843 273.175 Q84.843 266.613 87.1347 263.175 Q89.4437 259.721 93.8013 259.721 Z" fill="#000000" fill-rule="evenodd" fill-opacity="1" /><path clip-path="url(#clip050)" d="M109.53 283.158 L115.26 283.158 L115.26 263.384 L109.027 264.634 L109.027 261.439 L115.225 260.189 L118.732 260.189 L118.732 283.158 L124.461 283.158 L124.461 286.109 L109.53 286.109 L109.53 283.158 Z" fill="#000000" fill-rule="evenodd" fill-opacity="1" /><path clip-path="url(#clip050)" d="M134.565 283.158 L146.804 283.158 L146.804 286.109 L130.346 286.109 L130.346 283.158 Q132.343 281.092 135.78 277.62 Q139.235 274.13 140.12 273.123 Q141.805 271.231 142.464 269.929 Q143.141 268.609 143.141 267.342 Q143.141 265.276 141.683 263.974 Q140.242 262.672 137.916 262.672 Q136.266 262.672 134.426 263.245 Q132.603 263.818 130.52 264.981 L130.52 261.439 Q132.638 260.589 134.478 260.155 Q136.318 259.721 137.846 259.721 Q141.874 259.721 144.27 261.735 Q146.666 263.748 146.666 267.116 Q146.666 268.714 146.058 270.155 Q145.468 271.578 143.888 273.523 Q143.454 274.026 141.127 276.439 Q138.801 278.835 134.565 283.158 Z" fill="#000000" fill-rule="evenodd" fill-opacity="1" /><path clip-path="url(#clip050)" d="M154.2 260.189 L167.968 260.189 L167.968 263.141 L157.412 263.141 L157.412 269.495 Q158.176 269.234 158.94 269.113 Q159.704 268.974 160.468 268.974 Q164.808 268.974 167.343 271.353 Q169.877 273.731 169.877 277.793 Q169.877 281.977 167.273 284.304 Q164.669 286.613 159.929 286.613 Q158.297 286.613 156.596 286.335 Q154.912 286.057 153.107 285.502 L153.107 281.977 Q154.669 282.828 156.336 283.245 Q158.002 283.661 159.86 283.661 Q162.863 283.661 164.617 282.082 Q166.37 280.502 166.37 277.793 Q166.37 275.085 164.617 273.505 Q162.863 271.925 159.86 271.925 Q158.454 271.925 157.047 272.238 Q155.659 272.55 154.2 273.21 L154.2 260.189 Z" fill="#000000" fill-rule="evenodd" fill-opacity="1" /><path clip-path="url(#clip050)" d="M59.1313 206.11 Q56.423 206.11 55.0515 208.784 Q53.6973 211.44 53.6973 216.787 Q53.6973 222.117 55.0515 224.791 Q56.423 227.447 59.1313 227.447 Q61.857 227.447 63.2112 224.791 Q64.5827 222.117 64.5827 216.787 Q64.5827 211.44 63.2112 208.784 Q61.857 206.11 59.1313 206.11 M59.1313 203.333 Q63.489 203.333 65.7806 206.787 Q68.0896 210.225 68.0896 216.787 Q68.0896 223.332 65.7806 226.787 Q63.489 230.225 59.1313 230.225 Q54.7737 230.225 52.4647 226.787 Q50.1731 223.332 50.1731 216.787 Q50.1731 210.225 52.4647 206.787 Q54.7737 203.333 59.1313 203.333 Z" fill="#000000" fill-rule="evenodd" fill-opacity="1" /><path clip-path="url(#clip050)" d="M74.2528 225.312 L77.916 225.312 L77.916 229.721 L74.2528 229.721 L74.2528 225.312 Z" fill="#000000" fill-rule="evenodd" fill-opacity="1" /><path clip-path="url(#clip050)" d="M93.0548 206.11 Q90.3465 206.11 88.9749 208.784 Q87.6208 211.44 87.6208 216.787 Q87.6208 222.117 88.9749 224.791 Q90.3465 227.447 93.0548 227.447 Q95.7805 227.447 97.1346 224.791 Q98.5061 222.117 98.5061 216.787 Q98.5061 211.44 97.1346 208.784 Q95.7805 206.11 93.0548 206.11 M93.0548 203.333 Q97.4124 203.333 99.704 206.787 Q102.013 210.225 102.013 216.787 Q102.013 223.332 99.704 226.787 Q97.4124 230.225 93.0548 230.225 Q88.6972 230.225 86.3881 226.787 Q84.0965 223.332 84.0965 216.787 Q84.0965 210.225 86.3881 206.787 Q88.6972 203.333 93.0548 203.333 Z" fill="#000000" fill-rule="evenodd" fill-opacity="1" /><path clip-path="url(#clip050)" d="M108.784 226.77 L114.513 226.77 L114.513 206.996 L108.28 208.246 L108.28 205.051 L114.478 203.801 L117.985 203.801 L117.985 226.77 L123.714 226.77 L123.714 229.721 L108.784 229.721 L108.784 226.77 Z" fill="#000000" fill-rule="evenodd" fill-opacity="1" /><path clip-path="url(#clip050)" d="M130.832 203.801 L144.6 203.801 L144.6 206.753 L134.044 206.753 L134.044 213.107 Q134.808 212.846 135.572 212.725 Q136.336 212.586 137.1 212.586 Q141.44 212.586 143.975 214.964 Q146.509 217.343 146.509 221.405 Q146.509 225.589 143.905 227.916 Q141.301 230.225 136.561 230.225 Q134.93 230.225 133.228 229.947 Q131.544 229.669 129.739 229.114 L129.739 225.589 Q131.301 226.44 132.968 226.857 Q134.634 227.273 136.492 227.273 Q139.495 227.273 141.249 225.693 Q143.002 224.114 143.002 221.405 Q143.002 218.697 141.249 217.117 Q139.495 215.537 136.492 215.537 Q135.086 215.537 133.68 215.85 Q132.291 216.162 130.832 216.822 L130.832 203.801 Z" fill="#000000" fill-rule="evenodd" fill-opacity="1" /><path clip-path="url(#clip050)" d="M160.919 206.11 Q158.211 206.11 156.839 208.784 Q155.485 211.44 155.485 216.787 Q155.485 222.117 156.839 224.791 Q158.211 227.447 160.919 227.447 Q163.645 227.447 164.999 224.791 Q166.37 222.117 166.37 216.787 Q166.37 211.44 164.999 208.784 Q163.645 206.11 160.919 206.11 M160.919 203.333 Q165.277 203.333 167.568 206.787 Q169.877 210.225 169.877 216.787 Q169.877 223.332 167.568 226.787 Q165.277 230.225 160.919 230.225 Q156.561 230.225 154.252 226.787 Q151.961 223.332 151.961 216.787 Q151.961 210.225 154.252 206.787 Q156.561 203.333 160.919 203.333 Z" fill="#000000" fill-rule="evenodd" fill-opacity="1" /><path clip-path="url(#clip050)" d="M59.8779 149.722 Q57.1696 149.722 55.798 152.396 Q54.4439 155.052 54.4439 160.399 Q54.4439 165.729 55.798 168.403 Q57.1696 171.059 59.8779 171.059 Q62.6035 171.059 63.9577 168.403 Q65.3292 165.729 65.3292 160.399 Q65.3292 155.052 63.9577 152.396 Q62.6035 149.722 59.8779 149.722 M59.8779 146.944 Q64.2355 146.944 66.5271 150.399 Q68.8362 153.837 68.8362 160.399 Q68.8362 166.944 66.5271 170.399 Q64.2355 173.837 59.8779 173.837 Q55.5203 173.837 53.2112 170.399 Q50.9196 166.944 50.9196 160.399 Q50.9196 153.837 53.2112 150.399 Q55.5203 146.944 59.8779 146.944 Z" fill="#000000" fill-rule="evenodd" fill-opacity="1" /><path clip-path="url(#clip050)" d="M74.9993 168.923 L78.6625 168.923 L78.6625 173.333 L74.9993 173.333 L74.9993 168.923 Z" fill="#000000" fill-rule="evenodd" fill-opacity="1" /><path clip-path="url(#clip050)" d="M93.8013 149.722 Q91.093 149.722 89.7215 152.396 Q88.3673 155.052 88.3673 160.399 Q88.3673 165.729 89.7215 168.403 Q91.093 171.059 93.8013 171.059 Q96.527 171.059 97.8811 168.403 Q99.2527 165.729 99.2527 160.399 Q99.2527 155.052 97.8811 152.396 Q96.527 149.722 93.8013 149.722 M93.8013 146.944 Q98.1589 146.944 100.451 150.399 Q102.76 153.837 102.76 160.399 Q102.76 166.944 100.451 170.399 Q98.1589 173.837 93.8013 173.837 Q89.4437 173.837 87.1347 170.399 Q84.843 166.944 84.843 160.399 Q84.843 153.837 87.1347 150.399 Q89.4437 146.944 93.8013 146.944 Z" fill="#000000" fill-rule="evenodd" fill-opacity="1" /><path clip-path="url(#clip050)" d="M109.53 170.382 L115.26 170.382 L115.26 150.608 L109.027 151.858 L109.027 148.663 L115.225 147.413 L118.732 147.413 L118.732 170.382 L124.461 170.382 L124.461 173.333 L109.53 173.333 L109.53 170.382 Z" fill="#000000" fill-rule="evenodd" fill-opacity="1" /><path clip-path="url(#clip050)" d="M130.659 147.413 L147.325 147.413 L147.325 148.906 L137.916 173.333 L134.252 173.333 L143.107 150.365 L130.659 150.365 L130.659 147.413 Z" fill="#000000" fill-rule="evenodd" fill-opacity="1" /><path clip-path="url(#clip050)" d="M154.2 147.413 L167.968 147.413 L167.968 150.365 L157.412 150.365 L157.412 156.719 Q158.176 156.458 158.94 156.337 Q159.704 156.198 160.468 156.198 Q164.808 156.198 167.343 158.576 Q169.877 160.955 169.877 165.017 Q169.877 169.201 167.273 171.528 Q164.669 173.837 159.929 173.837 Q158.297 173.837 156.596 173.559 Q154.912 173.281 153.107 172.725 L153.107 169.201 Q154.669 170.052 156.336 170.469 Q158.002 170.885 159.86 170.885 Q162.863 170.885 164.617 169.305 Q166.37 167.726 166.37 165.017 Q166.37 162.309 164.617 160.729 Q162.863 159.149 159.86 159.149 Q158.454 159.149 157.047 159.462 Q155.659 159.774 154.2 160.434 L154.2 147.413 Z" fill="#000000" fill-rule="evenodd" fill-opacity="1" /><path clip-path="url(#clip050)" d="M59.1313 93.334 Q56.423 93.334 55.0515 96.0076 Q53.6973 98.6639 53.6973 104.011 Q53.6973 109.341 55.0515 112.014 Q56.423 114.671 59.1313 114.671 Q61.857 114.671 63.2112 112.014 Q64.5827 109.341 64.5827 104.011 Q64.5827 98.6639 63.2112 96.0076 Q61.857 93.334 59.1313 93.334 M59.1313 90.5563 Q63.489 90.5563 65.7806 94.0111 Q68.0896 97.4486 68.0896 104.011 Q68.0896 110.556 65.7806 114.011 Q63.489 117.448 59.1313 117.448 Q54.7737 117.448 52.4647 114.011 Q50.1731 110.556 50.1731 104.011 Q50.1731 97.4486 52.4647 94.0111 Q54.7737 90.5563 59.1313 90.5563 Z" fill="#000000" fill-rule="evenodd" fill-opacity="1" /><path clip-path="url(#clip050)" d="M74.2528 112.535 L77.916 112.535 L77.916 116.945 L74.2528 116.945 L74.2528 112.535 Z" fill="#000000" fill-rule="evenodd" fill-opacity="1" /><path clip-path="url(#clip050)" d="M93.0548 93.334 Q90.3465 93.334 88.9749 96.0076 Q87.6208 98.6639 87.6208 104.011 Q87.6208 109.341 88.9749 112.014 Q90.3465 114.671 93.0548 114.671 Q95.7805 114.671 97.1346 112.014 Q98.5061 109.341 98.5061 104.011 Q98.5061 98.6639 97.1346 96.0076 Q95.7805 93.334 93.0548 93.334 M93.0548 90.5563 Q97.4124 90.5563 99.704 94.0111 Q102.013 97.4486 102.013 104.011 Q102.013 110.556 99.704 114.011 Q97.4124 117.448 93.0548 117.448 Q88.6972 117.448 86.3881 114.011 Q84.0965 110.556 84.0965 104.011 Q84.0965 97.4486 86.3881 94.0111 Q88.6972 90.5563 93.0548 90.5563 Z" fill="#000000" fill-rule="evenodd" fill-opacity="1" /><path clip-path="url(#clip050)" d="M111.197 113.994 L123.437 113.994 L123.437 116.945 L106.978 116.945 L106.978 113.994 Q108.975 111.928 112.412 108.455 Q115.867 104.966 116.753 103.959 Q118.437 102.067 119.096 100.765 Q119.773 99.4451 119.773 98.1777 Q119.773 96.1118 118.315 94.8097 Q116.874 93.5076 114.548 93.5076 Q112.898 93.5076 111.058 94.0805 Q109.235 94.6535 107.152 95.8166 L107.152 92.275 Q109.27 91.4243 111.11 90.9903 Q112.951 90.5563 114.478 90.5563 Q118.506 90.5563 120.902 92.5701 Q123.298 94.584 123.298 97.9521 Q123.298 99.5493 122.69 100.99 Q122.1 102.414 120.52 104.358 Q120.086 104.862 117.76 107.275 Q115.433 109.671 111.197 113.994 Z" fill="#000000" fill-rule="evenodd" fill-opacity="1" /><path clip-path="url(#clip050)" d="M138.298 93.334 Q135.589 93.334 134.218 96.0076 Q132.864 98.6639 132.864 104.011 Q132.864 109.341 134.218 112.014 Q135.589 114.671 138.298 114.671 Q141.023 114.671 142.377 112.014 Q143.749 109.341 143.749 104.011 Q143.749 98.6639 142.377 96.0076 Q141.023 93.334 138.298 93.334 M138.298 90.5563 Q142.655 90.5563 144.947 94.0111 Q147.256 97.4486 147.256 104.011 Q147.256 110.556 144.947 114.011 Q142.655 117.448 138.298 117.448 Q133.94 117.448 131.631 114.011 Q129.339 110.556 129.339 104.011 Q129.339 97.4486 131.631 94.0111 Q133.94 90.5563 138.298 90.5563 Z" fill="#000000" fill-rule="evenodd" fill-opacity="1" /><path clip-path="url(#clip050)" d="M160.919 93.334 Q158.211 93.334 156.839 96.0076 Q155.485 98.6639 155.485 104.011 Q155.485 109.341 156.839 112.014 Q158.211 114.671 160.919 114.671 Q163.645 114.671 164.999 112.014 Q166.37 109.341 166.37 104.011 Q166.37 98.6639 164.999 96.0076 Q163.645 93.334 160.919 93.334 M160.919 90.5563 Q165.277 90.5563 167.568 94.0111 Q169.877 97.4486 169.877 104.011 Q169.877 110.556 167.568 114.011 Q165.277 117.448 160.919 117.448 Q156.561 117.448 154.252 114.011 Q151.961 110.556 151.961 104.011 Q151.961 97.4486 154.252 94.0111 Q156.561 90.5563 160.919 90.5563 Z" fill="#000000" fill-rule="evenodd" fill-opacity="1" /><path clip-path="url(#clip050)" d="M59.8779 36.9459 Q57.1696 36.9459 55.798 39.6195 Q54.4439 42.2757 54.4439 47.6229 Q54.4439 52.9528 55.798 55.6264 Q57.1696 58.2826 59.8779 58.2826 Q62.6035 58.2826 63.9577 55.6264 Q65.3292 52.9528 65.3292 47.6229 Q65.3292 42.2757 63.9577 39.6195 Q62.6035 36.9459 59.8779 36.9459 M59.8779 34.1681 Q64.2355 34.1681 66.5271 37.623 Q68.8362 41.0605 68.8362 47.6229 Q68.8362 54.168 66.5271 57.6229 Q64.2355 61.0604 59.8779 61.0604 Q55.5203 61.0604 53.2112 57.6229 Q50.9196 54.168 50.9196 47.6229 Q50.9196 41.0605 53.2112 37.623 Q55.5203 34.1681 59.8779 34.1681 Z" fill="#000000" fill-rule="evenodd" fill-opacity="1" /><path clip-path="url(#clip050)" d="M74.9993 56.1472 L78.6625 56.1472 L78.6625 60.5569 L74.9993 60.5569 L74.9993 56.1472 Z" fill="#000000" fill-rule="evenodd" fill-opacity="1" /><path clip-path="url(#clip050)" d="M93.8013 36.9459 Q91.093 36.9459 89.7215 39.6195 Q88.3673 42.2757 88.3673 47.6229 Q88.3673 52.9528 89.7215 55.6264 Q91.093 58.2826 93.8013 58.2826 Q96.527 58.2826 97.8811 55.6264 Q99.2527 52.9528 99.2527 47.6229 Q99.2527 42.2757 97.8811 39.6195 Q96.527 36.9459 93.8013 36.9459 M93.8013 34.1681 Q98.1589 34.1681 100.451 37.623 Q102.76 41.0605 102.76 47.6229 Q102.76 54.168 100.451 57.6229 Q98.1589 61.0604 93.8013 61.0604 Q89.4437 61.0604 87.1347 57.6229 Q84.843 54.168 84.843 47.6229 Q84.843 41.0605 87.1347 37.623 Q89.4437 34.1681 93.8013 34.1681 Z" fill="#000000" fill-rule="evenodd" fill-opacity="1" /><path clip-path="url(#clip050)" d="M111.944 57.6055 L124.183 57.6055 L124.183 60.5569 L107.725 60.5569 L107.725 57.6055 Q109.721 55.5396 113.159 52.0673 Q116.614 48.5778 117.499 47.5708 Q119.183 45.6785 119.843 44.3764 Q120.52 43.057 120.52 41.7896 Q120.52 39.7237 119.062 38.4216 Q117.621 37.1195 115.294 37.1195 Q113.645 37.1195 111.805 37.6924 Q109.982 38.2653 107.898 39.4285 L107.898 35.8869 Q110.016 35.0362 111.857 34.6022 Q113.697 34.1681 115.225 34.1681 Q119.253 34.1681 121.648 36.182 Q124.044 38.1959 124.044 41.5639 Q124.044 43.1611 123.437 44.6021 Q122.846 46.0257 121.266 47.9701 Q120.832 48.4736 118.506 50.8868 Q116.18 53.2826 111.944 57.6055 Z" fill="#000000" fill-rule="evenodd" fill-opacity="1" /><path clip-path="url(#clip050)" d="M134.565 57.6055 L146.804 57.6055 L146.804 60.5569 L130.346 60.5569 L130.346 57.6055 Q132.343 55.5396 135.78 52.0673 Q139.235 48.5778 140.12 47.5708 Q141.805 45.6785 142.464 44.3764 Q143.141 43.057 143.141 41.7896 Q143.141 39.7237 141.683 38.4216 Q140.242 37.1195 137.916 37.1195 Q136.266 37.1195 134.426 37.6924 Q132.603 38.2653 130.52 39.4285 L130.52 35.8869 Q132.638 35.0362 134.478 34.6022 Q136.318 34.1681 137.846 34.1681 Q141.874 34.1681 144.27 36.182 Q146.666 38.1959 146.666 41.5639 Q146.666 43.1611 146.058 44.6021 Q145.468 46.0257 143.888 47.9701 Q143.454 48.4736 141.127 50.8868 Q138.801 53.2826 134.565 57.6055 Z" fill="#000000" fill-rule="evenodd" fill-opacity="1" /><path clip-path="url(#clip050)" d="M154.2 34.6369 L167.968 34.6369 L167.968 37.5883 L157.412 37.5883 L157.412 43.9424 Q158.176 43.682 158.94 43.5604 Q159.704 43.4216 160.468 43.4216 Q164.808 43.4216 167.343 45.8 Q169.877 48.1785 169.877 52.241 Q169.877 56.425 167.273 58.7513 Q164.669 61.0604 159.929 61.0604 Q158.297 61.0604 156.596 60.7826 Q154.912 60.5048 153.107 59.9492 L153.107 56.425 Q154.669 57.2757 156.336 57.6923 Q158.002 58.109 159.86 58.109 Q162.863 58.109 164.617 56.5291 Q166.37 54.9493 166.37 52.241 Q166.37 49.5326 164.617 47.9528 Q162.863 46.3729 159.86 46.3729 Q158.454 46.3729 157.047 46.6854 Q155.659 46.9979 154.2 47.6576 L154.2 34.6369 Z" fill="#000000" fill-rule="evenodd" fill-opacity="1" /><path clip-path="url(#clip050)" d="M7.77706 324.251 L7.77706 320.744 L18.402 320.744 L18.402 308.001 L7.77706 308.001 L7.77706 304.494 L33.6971 304.494 L33.6971 308.001 L21.3534 308.001 L21.3534 320.744 L33.6971 320.744 L33.6971 324.251 L7.77706 324.251 Z" fill="#000000" fill-rule="evenodd" fill-opacity="1" /><path clip-path="url(#clip050)" d="M23.1763 281.022 L24.7388 281.022 L24.7388 295.709 Q28.0374 295.501 29.7735 293.73 Q31.4922 291.942 31.4922 288.765 Q31.4922 286.925 31.0408 285.206 Q30.5894 283.47 29.6867 281.768 L32.7075 281.768 Q33.4366 283.487 33.8186 285.293 Q34.2005 287.098 34.2005 288.956 Q34.2005 293.609 31.4922 296.334 Q28.7839 299.043 24.1659 299.043 Q19.3916 299.043 16.5965 296.473 Q13.784 293.886 13.784 289.511 Q13.784 285.588 16.3187 283.313 Q18.836 281.022 23.1763 281.022 M22.2388 284.216 Q19.6173 284.251 18.0548 285.692 Q16.4923 287.116 16.4923 289.477 Q16.4923 292.15 18.0027 293.765 Q19.5131 295.362 22.2561 295.605 L22.2388 284.216 Z" fill="#000000" fill-rule="evenodd" fill-opacity="1" /><path clip-path="url(#clip050)" d="M6.68332 275.779 L6.68332 272.584 L33.6971 272.584 L33.6971 275.779 L6.68332 275.779 Z" fill="#000000" fill-rule="evenodd" fill-opacity="1" /><path clip-path="url(#clip050)" d="M6.68332 265.9 L6.68332 262.706 L33.6971 262.706 L33.6971 265.9 L6.68332 265.9 Z" fill="#000000" fill-rule="evenodd" fill-opacity="1" /><path clip-path="url(#clip050)" d="M14.2527 256.022 L14.2527 252.828 L33.6971 252.828 L33.6971 256.022 L14.2527 256.022 M6.68332 256.022 L6.68332 252.828 L10.7284 252.828 L10.7284 256.022 L6.68332 256.022 Z" fill="#000000" fill-rule="evenodd" fill-opacity="1" /><path clip-path="url(#clip050)" d="M21.961 229.98 L33.6971 229.98 L33.6971 233.175 L22.0652 233.175 Q19.3048 233.175 17.9333 234.251 Q16.5617 235.328 16.5617 237.48 Q16.5617 240.067 18.211 241.56 Q19.8603 243.053 22.7075 243.053 L33.6971 243.053 L33.6971 246.265 L14.2527 246.265 L14.2527 243.053 L17.2735 243.053 Q15.5201 241.907 14.652 240.362 Q13.784 238.8 13.784 236.769 Q13.784 233.418 15.8673 231.699 Q17.9333 229.98 21.961 229.98 Z" fill="#000000" fill-rule="evenodd" fill-opacity="1" /><path clip-path="url(#clip050)" d="M23.7492 210.814 Q20.277 210.814 18.3673 212.255 Q16.4576 213.678 16.4576 216.265 Q16.4576 218.835 18.3673 220.276 Q20.277 221.699 23.7492 221.699 Q27.204 221.699 29.1138 220.276 Q31.0235 218.835 31.0235 216.265 Q31.0235 213.678 29.1138 212.255 Q27.204 210.814 23.7492 210.814 M31.2839 207.619 Q36.2491 207.619 38.6623 209.824 Q41.0929 212.029 41.0929 216.578 Q41.0929 218.262 40.8324 219.755 Q40.5894 221.248 40.0686 222.654 L36.9609 222.654 Q37.7248 221.248 38.0894 219.876 Q38.454 218.505 38.454 217.081 Q38.454 213.939 36.8047 212.376 Q35.1727 210.814 31.8568 210.814 L30.2769 210.814 Q31.9957 211.803 32.8464 213.349 Q33.6971 214.894 33.6971 217.046 Q33.6971 220.623 30.9714 222.81 Q28.2457 224.998 23.7492 224.998 Q19.2353 224.998 16.5097 222.81 Q13.784 220.623 13.784 217.046 Q13.784 214.894 14.6347 213.349 Q15.4854 211.803 17.2041 210.814 L14.2527 210.814 L14.2527 207.619 L31.2839 207.619 Z" fill="#000000" fill-rule="evenodd" fill-opacity="1" /><path clip-path="url(#clip050)" d="M23.1763 184.408 L24.7388 184.408 L24.7388 199.095 Q28.0374 198.887 29.7735 197.116 Q31.4922 195.328 31.4922 192.151 Q31.4922 190.311 31.0408 188.592 Q30.5894 186.856 29.6867 185.154 L32.7075 185.154 Q33.4366 186.873 33.8186 188.679 Q34.2005 190.484 34.2005 192.342 Q34.2005 196.995 31.4922 199.72 Q28.7839 202.428 24.1659 202.428 Q19.3916 202.428 16.5965 199.859 Q13.784 197.272 13.784 192.897 Q13.784 188.974 16.3187 186.699 Q18.836 184.408 23.1763 184.408 M22.2388 187.602 Q19.6173 187.637 18.0548 189.078 Q16.4923 190.501 16.4923 192.863 Q16.4923 195.536 18.0027 197.151 Q19.5131 198.748 22.2561 198.991 L22.2388 187.602 Z" fill="#000000" fill-rule="evenodd" fill-opacity="1" /><path clip-path="url(#clip050)" d="M17.2388 167.897 Q16.9263 168.436 16.7874 169.078 Q16.6312 169.703 16.6312 170.467 Q16.6312 173.175 18.402 174.634 Q20.1555 176.074 23.4541 176.074 L33.6971 176.074 L33.6971 179.286 L14.2527 179.286 L14.2527 176.074 L17.2735 176.074 Q15.5027 175.068 14.652 173.453 Q13.784 171.838 13.784 169.529 Q13.784 169.2 13.8361 168.8 Q13.8708 168.401 13.9576 167.915 L17.2388 167.897 Z" fill="#000000" fill-rule="evenodd" fill-opacity="1" /><path clip-path="url(#clip050)" d="M17.2041 140.45 L6.68332 140.45 L6.68332 137.255 L33.6971 137.255 L33.6971 140.45 L30.7804 140.45 Q32.5165 141.457 33.3672 143.002 Q34.2005 144.53 34.2005 146.682 Q34.2005 150.207 31.388 152.429 Q28.5756 154.634 23.9923 154.634 Q19.4089 154.634 16.5965 152.429 Q13.784 150.207 13.784 146.682 Q13.784 144.53 14.6347 143.002 Q15.468 141.457 17.2041 140.45 M23.9923 151.335 Q27.5165 151.335 29.5304 149.894 Q31.5269 148.436 31.5269 145.901 Q31.5269 143.366 29.5304 141.908 Q27.5165 140.45 23.9923 140.45 Q20.468 140.45 18.4714 141.908 Q16.4576 143.366 16.4576 145.901 Q16.4576 148.436 18.4714 149.894 Q20.468 151.335 23.9923 151.335 Z" fill="#000000" fill-rule="evenodd" fill-opacity="1" /><path clip-path="url(#clip050)" d="M14.2527 130.675 L14.2527 127.481 L33.6971 127.481 L33.6971 130.675 L14.2527 130.675 M6.68332 130.675 L6.68332 127.481 L10.7284 127.481 L10.7284 130.675 L6.68332 130.675 Z" fill="#000000" fill-rule="evenodd" fill-opacity="1" /><path clip-path="url(#clip050)" d="M14.8256 108.401 L17.8465 108.401 Q17.152 109.755 16.8048 111.214 Q16.4576 112.672 16.4576 114.235 Q16.4576 116.613 17.1867 117.811 Q17.9159 118.991 19.3742 118.991 Q20.4853 118.991 21.1277 118.141 Q21.7527 117.29 22.3256 114.721 L22.5686 113.627 Q23.2978 110.224 24.6346 108.801 Q25.954 107.36 28.3325 107.36 Q31.0408 107.36 32.6207 109.512 Q34.2005 111.648 34.2005 115.398 Q34.2005 116.96 33.888 118.662 Q33.5929 120.346 32.9853 122.221 L29.6867 122.221 Q30.6068 120.45 31.0755 118.731 Q31.5269 117.012 31.5269 115.328 Q31.5269 113.071 30.763 111.856 Q29.9818 110.641 28.5756 110.641 Q27.2735 110.641 26.579 111.526 Q25.8846 112.394 25.2422 115.363 L24.9818 116.474 Q24.3568 119.443 23.0721 120.762 Q21.77 122.082 19.5131 122.082 Q16.7701 122.082 15.277 120.137 Q13.784 118.193 13.784 114.616 Q13.784 112.846 14.0444 111.283 Q14.3048 109.721 14.8256 108.401 Z" fill="#000000" fill-rule="evenodd" fill-opacity="1" /><path clip-path="url(#clip050)" d="M8.73192 99.1131 L14.2527 99.1131 L14.2527 92.5333 L16.7353 92.5333 L16.7353 99.1131 L27.2908 99.1131 Q29.6693 99.1131 30.3464 98.4707 Q31.0235 97.811 31.0235 95.8145 L31.0235 92.5333 L33.6971 92.5333 L33.6971 95.8145 Q33.6971 99.5124 32.3255 100.919 Q30.9367 102.325 27.2908 102.325 L16.7353 102.325 L16.7353 104.669 L14.2527 104.669 L14.2527 102.325 L8.73192 102.325 L8.73192 99.1131 Z" fill="#000000" fill-rule="evenodd" fill-opacity="1" /><path clip-path="url(#clip050)" d="M23.9228 79.4951 Q23.9228 83.3666 24.8082 84.8597 Q25.6936 86.3527 27.829 86.3527 Q29.5304 86.3527 30.5374 85.2416 Q31.5269 84.1132 31.5269 82.1861 Q31.5269 79.5299 29.6519 77.9326 Q27.7596 76.3181 24.6346 76.3181 L23.9228 76.3181 L23.9228 79.4951 M22.6034 73.1236 L33.6971 73.1236 L33.6971 76.3181 L30.7457 76.3181 Q32.5165 77.4118 33.3672 79.0437 Q34.2005 80.6757 34.2005 83.0368 Q34.2005 86.0229 32.5339 87.7937 Q30.8499 89.5472 28.0374 89.5472 Q24.7561 89.5472 23.0895 87.3597 Q21.4228 85.1548 21.4228 80.7972 L21.4228 76.3181 L21.1103 76.3181 Q18.9055 76.3181 17.7076 77.7764 Q16.4923 79.2174 16.4923 81.8389 Q16.4923 83.5055 16.8916 85.0854 Q17.2909 86.6652 18.0895 88.1236 L15.1381 88.1236 Q14.4611 86.3701 14.1312 84.7208 Q13.784 83.0715 13.784 81.509 Q13.784 77.2903 15.9715 75.207 Q18.1589 73.1236 22.6034 73.1236 Z" fill="#000000" fill-rule="evenodd" fill-opacity="1" /><path clip-path="url(#clip050)" d="M21.961 50.3807 L33.6971 50.3807 L33.6971 53.5751 L22.0652 53.5751 Q19.3048 53.5751 17.9333 54.6515 Q16.5617 55.7279 16.5617 57.8807 Q16.5617 60.4675 18.211 61.9605 Q19.8603 63.4535 22.7075 63.4535 L33.6971 63.4535 L33.6971 66.6653 L14.2527 66.6653 L14.2527 63.4535 L17.2735 63.4535 Q15.5201 62.3077 14.652 60.7626 Q13.784 59.2001 13.784 57.1689 Q13.784 53.8182 15.8673 52.0994 Q17.9333 50.3807 21.961 50.3807 Z" fill="#000000" fill-rule="evenodd" fill-opacity="1" /><path clip-path="url(#clip050)" d="M14.9992 30.0162 L17.9853 30.0162 Q17.2388 31.3704 16.8742 32.7419 Q16.4923 34.0961 16.4923 35.4849 Q16.4923 38.5926 18.4714 40.3113 Q20.4332 42.0301 23.9923 42.0301 Q27.5513 42.0301 29.5304 40.3113 Q31.4922 38.5926 31.4922 35.4849 Q31.4922 34.0961 31.1276 32.7419 Q30.7457 31.3704 29.9992 30.0162 L32.9505 30.0162 Q33.5755 31.353 33.888 32.794 Q34.2005 34.2176 34.2005 35.8322 Q34.2005 40.2245 31.4401 42.8113 Q28.6797 45.3981 23.9923 45.3981 Q19.2353 45.3981 16.5097 42.7939 Q13.784 40.1724 13.784 35.6238 Q13.784 34.1482 14.0965 32.7419 Q14.3916 31.3357 14.9992 30.0162 Z" fill="#000000" fill-rule="evenodd" fill-opacity="1" /><path clip-path="url(#clip050)" d="M23.1763 7.82885 L24.7388 7.82885 L24.7388 22.5163 Q28.0374 22.3079 29.7735 20.5371 Q31.4922 18.7489 31.4922 15.5719 Q31.4922 13.7316 31.0408 12.0129 Q30.5894 10.2768 29.6867 8.57537 L32.7075 8.57537 Q33.4366 10.2941 33.8186 12.0997 Q34.2005 13.9052 34.2005 15.7628 Q34.2005 20.4156 31.4922 23.1413 Q28.7839 25.8496 24.1659 25.8496 Q19.3916 25.8496 16.5965 23.2802 Q13.784 20.6934 13.784 16.3184 Q13.784 12.3948 16.3187 10.1205 Q18.836 7.82885 23.1763 7.82885 M22.2388 11.0233 Q19.6173 11.058 18.0548 12.499 Q16.4923 13.9226 16.4923 16.2837 Q16.4923 18.9573 18.0027 20.5718 Q19.5131 22.169 22.2561 22.4121 L22.2388 11.0233 Z" fill="#000000" fill-rule="evenodd" fill-opacity="1" /><polyline clip-path="url(#clip052)" style="stroke:#0088c3; stroke-linecap:butt; stroke-linejoin:round; stroke-width:6; stroke-opacity:1; fill:none" points="
  223.261,252.561 374.837,285.746 526.413,170.621 677.989,243.917 829.565,209.179 981.14,205.085 1132.72,76.6315 
  "/>
<polyline clip-path="url(#clip052)" style="stroke:#0088c3; stroke-linecap:butt; stroke-linejoin:round; stroke-width:6; stroke-opacity:1; fill:none" points="
  223.261,296.939 223.261,208.184 
  "/>
<polyline clip-path="url(#clip052)" style="stroke:#0088c3; stroke-linecap:butt; stroke-linejoin:round; stroke-width:6; stroke-opacity:1; fill:none" points="
  374.837,315.253 374.837,256.239 
  "/>
<polyline clip-path="url(#clip052)" style="stroke:#0088c3; stroke-linecap:butt; stroke-linejoin:round; stroke-width:6; stroke-opacity:1; fill:none" points="
  526.413,251.174 526.413,90.0674 
  "/>
<polyline clip-path="url(#clip052)" style="stroke:#0088c3; stroke-linecap:butt; stroke-linejoin:round; stroke-width:6; stroke-opacity:1; fill:none" points="
  677.989,283.294 677.989,204.54 
  "/>
<polyline clip-path="url(#clip052)" style="stroke:#0088c3; stroke-linecap:butt; stroke-linejoin:round; stroke-width:6; stroke-opacity:1; fill:none" points="
  829.565,237.009 829.565,181.349 
  "/>
<polyline clip-path="url(#clip052)" style="stroke:#0088c3; stroke-linecap:butt; stroke-linejoin:round; stroke-width:6; stroke-opacity:1; fill:none" points="
  981.14,235.197 981.14,174.973 
  "/>
<polyline clip-path="url(#clip052)" style="stroke:#0088c3; stroke-linecap:butt; stroke-linejoin:round; stroke-width:6; stroke-opacity:1; fill:none" points="
  1132.72,136.436 1132.72,16.8268 
  "/>
<line clip-path="url(#clip052)" x1="239.261" y1="296.939" x2="207.261" y2="296.939" style="stroke:#0088c3; stroke-width:1.04; stroke-opacity:1"/>
<line clip-path="url(#clip052)" x1="239.261" y1="208.184" x2="207.261" y2="208.184" style="stroke:#0088c3; stroke-width:1.04; stroke-opacity:1"/>
<line clip-path="url(#clip052)" x1="390.837" y1="315.253" x2="358.837" y2="315.253" style="stroke:#0088c3; stroke-width:1.04; stroke-opacity:1"/>
<line clip-path="url(#clip052)" x1="390.837" y1="256.239" x2="358.837" y2="256.239" style="stroke:#0088c3; stroke-width:1.04; stroke-opacity:1"/>
<line clip-path="url(#clip052)" x1="542.413" y1="251.174" x2="510.413" y2="251.174" style="stroke:#0088c3; stroke-width:1.04; stroke-opacity:1"/>
<line clip-path="url(#clip052)" x1="542.413" y1="90.0674" x2="510.413" y2="90.0674" style="stroke:#0088c3; stroke-width:1.04; stroke-opacity:1"/>
<line clip-path="url(#clip052)" x1="693.989" y1="283.294" x2="661.989" y2="283.294" style="stroke:#0088c3; stroke-width:1.04; stroke-opacity:1"/>
<line clip-path="url(#clip052)" x1="693.989" y1="204.54" x2="661.989" y2="204.54" style="stroke:#0088c3; stroke-width:1.04; stroke-opacity:1"/>
<line clip-path="url(#clip052)" x1="845.565" y1="237.009" x2="813.565" y2="237.009" style="stroke:#0088c3; stroke-width:1.04; stroke-opacity:1"/>
<line clip-path="url(#clip052)" x1="845.565" y1="181.349" x2="813.565" y2="181.349" style="stroke:#0088c3; stroke-width:1.04; stroke-opacity:1"/>
<line clip-path="url(#clip052)" x1="997.14" y1="235.197" x2="965.14" y2="235.197" style="stroke:#0088c3; stroke-width:1.04; stroke-opacity:1"/>
<line clip-path="url(#clip052)" x1="997.14" y1="174.973" x2="965.14" y2="174.973" style="stroke:#0088c3; stroke-width:1.04; stroke-opacity:1"/>
<line clip-path="url(#clip052)" x1="1148.72" y1="136.436" x2="1116.72" y2="136.436" style="stroke:#0088c3; stroke-width:1.04; stroke-opacity:1"/>
<line clip-path="url(#clip052)" x1="1148.72" y1="16.8268" x2="1116.72" y2="16.8268" style="stroke:#0088c3; stroke-width:1.04; stroke-opacity:1"/>
</svg>
