<?xml version="1.0" encoding="utf-8"?>
<svg xmlns="http://www.w3.org/2000/svg" xmlns:xlink="http://www.w3.org/1999/xlink" width="400" height="130" viewBox="0 0 1600 520">
<defs>
  <clipPath id="clip530">
    <rect x="0" y="0" width="1600" height="520"/>
  </clipPath>
</defs>
<path clip-path="url(#clip530)" d="
M0 520 L1600 520 L1600 0 L0 0  Z
  " fill="#ffffff" fill-rule="evenodd" fill-opacity="1"/>
<defs>
  <clipPath id="clip531">
    <rect x="320" y="0" width="1121" height="520"/>
  </clipPath>
</defs>
<path clip-path="url(#clip530)" d="
M83.5021 418.662 L552.256 418.662 L552.256 15.748 L83.5021 15.748  Z
  " fill="#ffffff" fill-rule="evenodd" fill-opacity="1"/>
<defs>
  <clipPath id="clip532">
    <rect x="83" y="15" width="470" height="404"/>
  </clipPath>
</defs>
<polyline clip-path="url(#clip530)" style="stroke:#000000; stroke-linecap:butt; stroke-linejoin:round; stroke-width:4; stroke-opacity:1; fill:none" points="
  83.5021,418.662 552.256,418.662 
  "/>
<polyline clip-path="url(#clip530)" style="stroke:#000000; stroke-linecap:butt; stroke-linejoin:round; stroke-width:4; stroke-opacity:1; fill:none" points="
  83.5021,418.662 83.5021,437.559 
  "/>
<polyline clip-path="url(#clip530)" style="stroke:#000000; stroke-linecap:butt; stroke-linejoin:round; stroke-width:4; stroke-opacity:1; fill:none" points="
  227.734,418.662 227.734,437.559 
  "/>
<polyline clip-path="url(#clip530)" style="stroke:#000000; stroke-linecap:butt; stroke-linejoin:round; stroke-width:4; stroke-opacity:1; fill:none" points="
  371.966,418.662 371.966,437.559 
  "/>
<polyline clip-path="url(#clip530)" style="stroke:#000000; stroke-linecap:butt; stroke-linejoin:round; stroke-width:4; stroke-opacity:1; fill:none" points="
  516.198,418.662 516.198,437.559 
  "/>
<path clip-path="url(#clip530)" d="M83.5021 446.651 Q80.7938 446.651 79.4223 449.324 Q78.0681 451.981 78.0681 457.328 Q78.0681 462.658 79.4223 465.331 Q80.7938 467.988 83.5021 467.988 Q86.2278 467.988 87.582 465.331 Q88.9535 462.658 88.9535 457.328 Q88.9535 451.981 87.582 449.324 Q86.2278 446.651 83.5021 446.651 M83.5021 443.873 Q87.8598 443.873 90.1514 447.328 Q92.4604 450.765 92.4604 457.328 Q92.4604 463.873 90.1514 467.328 Q87.8598 470.765 83.5021 470.765 Q79.1445 470.765 76.8355 467.328 Q74.5439 463.873 74.5439 457.328 Q74.5439 450.765 76.8355 447.328 Q79.1445 443.873 83.5021 443.873 Z" fill="#000000" fill-rule="evenodd" fill-opacity="1" /><path clip-path="url(#clip530)" d="M211.814 467.31 L224.054 467.31 L224.054 470.262 L207.595 470.262 L207.595 467.31 Q209.592 465.245 213.029 461.772 Q216.484 458.283 217.37 457.276 Q219.054 455.383 219.713 454.081 Q220.39 452.762 220.39 451.495 Q220.39 449.429 218.932 448.127 Q217.491 446.824 215.165 446.824 Q213.515 446.824 211.675 447.397 Q209.852 447.97 207.769 449.133 L207.769 445.592 Q209.887 444.741 211.727 444.307 Q213.568 443.873 215.095 443.873 Q219.123 443.873 221.519 445.887 Q223.915 447.901 223.915 451.269 Q223.915 452.866 223.307 454.307 Q222.717 455.731 221.137 457.675 Q220.703 458.179 218.377 460.592 Q216.05 462.988 211.814 467.31 Z" fill="#000000" fill-rule="evenodd" fill-opacity="1" /><path clip-path="url(#clip530)" d="M238.915 446.651 Q236.206 446.651 234.835 449.324 Q233.481 451.981 233.481 457.328 Q233.481 462.658 234.835 465.331 Q236.206 467.988 238.915 467.988 Q241.64 467.988 242.994 465.331 Q244.366 462.658 244.366 457.328 Q244.366 451.981 242.994 449.324 Q241.64 446.651 238.915 446.651 M238.915 443.873 Q243.272 443.873 245.564 447.328 Q247.873 450.765 247.873 457.328 Q247.873 463.873 245.564 467.328 Q243.272 470.765 238.915 470.765 Q234.557 470.765 232.248 467.328 Q229.956 463.873 229.956 457.328 Q229.956 450.765 232.248 447.328 Q234.557 443.873 238.915 443.873 Z" fill="#000000" fill-rule="evenodd" fill-opacity="1" /><path clip-path="url(#clip530)" d="M363.095 447.397 L354.24 461.234 L363.095 461.234 L363.095 447.397 M362.174 444.342 L366.584 444.342 L366.584 461.234 L370.282 461.234 L370.282 464.151 L366.584 464.151 L366.584 470.262 L363.095 470.262 L363.095 464.151 L351.393 464.151 L351.393 460.765 L362.174 444.342 Z" fill="#000000" fill-rule="evenodd" fill-opacity="1" /><path clip-path="url(#clip530)" d="M383.581 446.651 Q380.872 446.651 379.501 449.324 Q378.147 451.981 378.147 457.328 Q378.147 462.658 379.501 465.331 Q380.872 467.988 383.581 467.988 Q386.306 467.988 387.66 465.331 Q389.032 462.658 389.032 457.328 Q389.032 451.981 387.66 449.324 Q386.306 446.651 383.581 446.651 M383.581 443.873 Q387.938 443.873 390.23 447.328 Q392.539 450.765 392.539 457.328 Q392.539 463.873 390.23 467.328 Q387.938 470.765 383.581 470.765 Q379.223 470.765 376.914 467.328 Q374.622 463.873 374.622 457.328 Q374.622 450.765 376.914 447.328 Q379.223 443.873 383.581 443.873 Z" fill="#000000" fill-rule="evenodd" fill-opacity="1" /><path clip-path="url(#clip530)" d="M505.252 455.904 Q502.891 455.904 501.502 457.519 Q500.13 459.133 500.13 461.946 Q500.13 464.741 501.502 466.373 Q502.891 467.988 505.252 467.988 Q507.613 467.988 508.985 466.373 Q510.373 464.741 510.373 461.946 Q510.373 459.133 508.985 457.519 Q507.613 455.904 505.252 455.904 M512.214 444.915 L512.214 448.109 Q510.894 447.484 509.54 447.154 Q508.203 446.824 506.884 446.824 Q503.412 446.824 501.571 449.168 Q499.748 451.512 499.488 456.252 Q500.512 454.741 502.057 453.943 Q503.603 453.127 505.46 453.127 Q509.366 453.127 511.623 455.505 Q513.898 457.866 513.898 461.946 Q513.898 465.939 511.537 468.352 Q509.175 470.765 505.252 470.765 Q500.755 470.765 498.377 467.328 Q495.998 463.873 495.998 457.328 Q495.998 451.182 498.915 447.536 Q501.832 443.873 506.745 443.873 Q508.064 443.873 509.401 444.134 Q510.755 444.394 512.214 444.915 Z" fill="#000000" fill-rule="evenodd" fill-opacity="1" /><path clip-path="url(#clip530)" d="M527.439 446.651 Q524.731 446.651 523.359 449.324 Q522.005 451.981 522.005 457.328 Q522.005 462.658 523.359 465.331 Q524.731 467.988 527.439 467.988 Q530.165 467.988 531.519 465.331 Q532.891 462.658 532.891 457.328 Q532.891 451.981 531.519 449.324 Q530.165 446.651 527.439 446.651 M527.439 443.873 Q531.797 443.873 534.089 447.328 Q536.398 450.765 536.398 457.328 Q536.398 463.873 534.089 467.328 Q531.797 470.765 527.439 470.765 Q523.082 470.765 520.773 467.328 Q518.481 463.873 518.481 457.328 Q518.481 450.765 520.773 447.328 Q523.082 443.873 527.439 443.873 Z" fill="#000000" fill-rule="evenodd" fill-opacity="1" /><polyline clip-path="url(#clip530)" style="stroke:#000000; stroke-linecap:butt; stroke-linejoin:round; stroke-width:4; stroke-opacity:1; fill:none" points="
  83.5021,418.662 83.5021,15.748 
  "/>
<path clip-path="url(#clip530)" d="M4.68807 305.399 L14.4276 305.399 L14.4276 300.989 Q14.4276 298.541 13.1602 297.205 Q11.8929 295.868 9.54916 295.868 Q7.22278 295.868 5.95543 297.205 Q4.68807 298.541 4.68807 300.989 L4.68807 305.399 M1.80614 308.906 L1.80614 300.989 Q1.80614 296.632 3.7853 294.409 Q5.74709 292.17 9.54916 292.17 Q13.3859 292.17 15.3477 294.409 Q17.3095 296.632 17.3095 300.989 L17.3095 305.399 L27.7261 305.399 L27.7261 308.906 L1.80614 308.906 Z" fill="#000000" fill-rule="evenodd" fill-opacity="1" /><path clip-path="url(#clip530)" d="M11.2679 276.962 Q10.9554 277.5 10.8165 278.142 Q10.6603 278.767 10.6603 279.531 Q10.6603 282.239 12.4311 283.698 Q14.1845 285.139 17.4831 285.139 L27.7261 285.139 L27.7261 288.35 L8.2818 288.35 L8.2818 285.139 L11.3026 285.139 Q9.53179 284.132 8.6811 282.517 Q7.81305 280.903 7.81305 278.594 Q7.81305 278.264 7.86514 277.864 Q7.89986 277.465 7.98666 276.979 L11.2679 276.962 Z" fill="#000000" fill-rule="evenodd" fill-opacity="1" /><path clip-path="url(#clip530)" d="M10.5214 266.857 Q10.5214 269.427 12.5353 270.92 Q14.5318 272.413 18.0213 272.413 Q21.5109 272.413 23.5248 270.937 Q25.5213 269.444 25.5213 266.857 Q25.5213 264.305 23.5074 262.812 Q21.4935 261.319 18.0213 261.319 Q14.5665 261.319 12.5526 262.812 Q10.5214 264.305 10.5214 266.857 M7.81305 266.857 Q7.81305 262.691 10.5214 260.312 Q13.2297 257.934 18.0213 257.934 Q22.7956 257.934 25.5213 260.312 Q28.2296 262.691 28.2296 266.857 Q28.2296 271.041 25.5213 273.42 Q22.7956 275.781 18.0213 275.781 Q13.2297 275.781 10.5214 273.42 Q7.81305 271.041 7.81305 266.857 Z" fill="#000000" fill-rule="evenodd" fill-opacity="1" /><path clip-path="url(#clip530)" d="M18.0213 238.681 Q14.497 238.681 12.5005 240.139 Q10.4867 241.58 10.4867 244.115 Q10.4867 246.649 12.5005 248.108 Q14.497 249.549 18.0213 249.549 Q21.5456 249.549 23.5595 248.108 Q25.556 246.649 25.556 244.115 Q25.556 241.58 23.5595 240.139 Q21.5456 238.681 18.0213 238.681 M11.2332 249.549 Q9.49707 248.542 8.66374 247.014 Q7.81305 245.469 7.81305 243.333 Q7.81305 239.792 10.6255 237.587 Q13.438 235.365 18.0213 235.365 Q22.6046 235.365 25.4171 237.587 Q28.2296 239.792 28.2296 243.333 Q28.2296 245.469 27.3963 247.014 Q26.5456 248.542 24.8095 249.549 L27.7261 249.549 L27.7261 252.76 L0.712398 252.76 L0.712398 249.549 L11.2332 249.549 Z" fill="#000000" fill-rule="evenodd" fill-opacity="1" /><path clip-path="url(#clip530)" d="M17.9519 221.233 Q17.9519 225.104 18.8373 226.597 Q19.7227 228.09 21.8581 228.09 Q23.5595 228.09 24.5664 226.979 Q25.556 225.851 25.556 223.924 Q25.556 221.267 23.681 219.67 Q21.7887 218.056 18.6637 218.056 L17.9519 218.056 L17.9519 221.233 M16.6325 214.861 L27.7261 214.861 L27.7261 218.056 L24.7748 218.056 Q26.5456 219.149 27.3963 220.781 Q28.2296 222.413 28.2296 224.774 Q28.2296 227.76 26.563 229.531 Q24.8789 231.285 22.0664 231.285 Q18.7852 231.285 17.1186 229.097 Q15.4519 226.892 15.4519 222.535 L15.4519 218.056 L15.1394 218.056 Q12.9346 218.056 11.7366 219.514 Q10.5214 220.955 10.5214 223.576 Q10.5214 225.243 10.9207 226.823 Q11.32 228.403 12.1186 229.861 L9.16721 229.861 Q8.49013 228.108 8.16027 226.458 Q7.81305 224.809 7.81305 223.247 Q7.81305 219.028 10.0005 216.945 Q12.188 214.861 16.6325 214.861 Z" fill="#000000" fill-rule="evenodd" fill-opacity="1" /><path clip-path="url(#clip530)" d="M18.0213 194.323 Q14.497 194.323 12.5005 195.781 Q10.4867 197.222 10.4867 199.757 Q10.4867 202.292 12.5005 203.75 Q14.497 205.191 18.0213 205.191 Q21.5456 205.191 23.5595 203.75 Q25.556 202.292 25.556 199.757 Q25.556 197.222 23.5595 195.781 Q21.5456 194.323 18.0213 194.323 M11.2332 205.191 Q9.49707 204.184 8.66374 202.656 Q7.81305 201.111 7.81305 198.976 Q7.81305 195.434 10.6255 193.229 Q13.438 191.007 18.0213 191.007 Q22.6046 191.007 25.4171 193.229 Q28.2296 195.434 28.2296 198.976 Q28.2296 201.111 27.3963 202.656 Q26.5456 204.184 24.8095 205.191 L27.7261 205.191 L27.7261 208.403 L0.712398 208.403 L0.712398 205.191 L11.2332 205.191 Z" fill="#000000" fill-rule="evenodd" fill-opacity="1" /><path clip-path="url(#clip530)" d="M8.2818 185.712 L8.2818 182.518 L27.7261 182.518 L27.7261 185.712 L8.2818 185.712 M0.712398 185.712 L0.712398 182.518 L4.75751 182.518 L4.75751 185.712 L0.712398 185.712 Z" fill="#000000" fill-rule="evenodd" fill-opacity="1" /><path clip-path="url(#clip530)" d="M0.712398 175.834 L0.712398 172.639 L27.7261 172.639 L27.7261 175.834 L0.712398 175.834 Z" fill="#000000" fill-rule="evenodd" fill-opacity="1" /><path clip-path="url(#clip530)" d="M8.2818 165.955 L8.2818 162.761 L27.7261 162.761 L27.7261 165.955 L8.2818 165.955 M0.712398 165.955 L0.712398 162.761 L4.75751 162.761 L4.75751 165.955 L0.712398 165.955 Z" fill="#000000" fill-rule="evenodd" fill-opacity="1" /><path clip-path="url(#clip530)" d="M2.761 152.917 L8.2818 152.917 L8.2818 146.337 L10.7644 146.337 L10.7644 152.917 L21.3199 152.917 Q23.6984 152.917 24.3755 152.275 Q25.0525 151.615 25.0525 149.619 L25.0525 146.337 L27.7261 146.337 L27.7261 149.619 Q27.7261 153.316 26.3546 154.723 Q24.9657 156.129 21.3199 156.129 L10.7644 156.129 L10.7644 158.473 L8.2818 158.473 L8.2818 156.129 L2.761 156.129 L2.761 152.917 Z" fill="#000000" fill-rule="evenodd" fill-opacity="1" /><path clip-path="url(#clip530)" d="M29.5317 134.046 Q33.0039 135.4 34.0629 136.685 Q35.1219 137.969 35.1219 140.122 L35.1219 142.674 L32.4483 142.674 L32.4483 140.799 Q32.4483 139.48 31.8233 138.751 Q31.1983 138.021 28.872 137.136 L27.4136 136.563 L8.2818 144.428 L8.2818 141.042 L23.4901 134.966 L8.2818 128.889 L8.2818 125.504 L29.5317 134.046 Z" fill="#000000" fill-rule="evenodd" fill-opacity="1" /><path clip-path="url(#clip532)" d="
M79.8963 418.662 L87.1079 418.662 L87.1079 418.662 L94.3195 418.662 L94.3195 418.662 L101.531 418.662 L101.531 418.662 L108.743 418.662 L108.743 418.662 L115.954 418.662 
  L115.954 418.662 L123.166 418.662 L123.166 418.662 L130.378 418.662 L130.378 418.662 L137.589 418.662 L137.589 418.662 L144.801 418.662 L144.801 418.662 L152.012 418.662 
  L152.012 418.662 L159.224 418.662 L159.224 418.662 L166.436 418.662 L166.436 418.662 L173.647 418.662 L173.647 418.662 L180.859 418.662 L180.859 418.662 L188.07 418.662 
  L188.07 418.662 L195.282 418.662 L195.282 418.662 L202.494 418.662 L202.494 418.662 L209.705 418.662 L209.705 418.662 L216.917 418.662 L216.917 418.662 L224.128 418.662 
  L224.128 418.662 L231.34 418.662 L231.34 418.662 L238.552 418.662 L238.552 418.662 L245.763 418.662 L245.763 418.662 L252.975 418.662 L252.975 418.662 L260.186 418.662 
  L260.186 418.662 L267.398 418.662 L267.398 418.662 L274.609 418.662 L274.609 418.662 L281.821 418.662 L281.821 418.662 L289.033 418.662 L289.033 418.662 L296.244 418.662 
  L296.244 418.662 L303.456 418.662 L303.456 418.662 L310.667 418.662 L310.667 418.662 L317.879 418.662 L317.879 418.662 L325.091 418.662 L325.091 418.662 L332.302 418.662 
  L332.302 418.662 L339.514 418.662 L339.514 418.662 L346.725 418.662 L346.725 418.662 L353.937 418.662 L353.937 418.662 L361.149 418.662 L361.149 418.662 L368.36 418.662 
  L368.36 418.662 L375.572 418.662 L375.572 418.662 L382.783 418.662 L382.783 418.662 L389.995 418.662 L389.995 418.662 L397.207 418.662 L397.207 418.662 L404.418 418.662 
  L404.418 418.662 L411.63 418.662 L411.63 418.662 L418.841 418.662 L418.841 418.662 L426.053 418.662 L426.053 418.662 L433.265 418.662 L433.265 418.662 L440.476 418.662 
  L440.476 418.662 L447.688 418.662 L447.688 418.662 L454.899 418.662 L454.899 418.662 L462.111 418.662 L462.111 418.662 L469.323 418.662 L469.323 418.662 L476.534 418.662 
  L476.534 418.662 L483.746 418.662 L483.746 418.662 L490.957 418.662 L490.957 418.662 L498.169 418.662 L498.169 418.662 L505.381 418.662 L505.381 418.662 L512.592 418.662 
  L512.592 418.662 L519.804 418.662 L519.804 418.662 L527.015 418.662 L527.015 418.662 L534.227 418.662 L534.227 418.662 L541.439 418.662 L541.439 418.662 L548.65 418.662 
  L548.65 418.662 L555.862 418.662 L555.862 418.662 L555.862 418.662 L555.862 418.662 L548.65 418.662 L548.65 418.662 L541.439 418.662 L541.439 418.662 L534.227 418.662 
  L534.227 418.662 L527.015 418.662 L527.015 418.662 L519.804 418.662 L519.804 418.662 L512.592 418.662 L512.592 418.662 L505.381 418.662 L505.381 418.662 L498.169 418.662 
  L498.169 418.662 L490.957 418.662 L490.957 418.662 L483.746 418.662 L483.746 418.662 L476.534 418.662 L476.534 341.178 L469.323 341.178 L469.323 418.662 L462.111 418.662 
  L462.111 418.662 L454.899 418.662 L454.899 186.212 L447.688 186.212 L447.688 341.178 L440.476 341.178 L440.476 263.695 L433.265 263.695 L433.265 341.178 L426.053 341.178 
  L426.053 341.178 L418.841 341.178 L418.841 263.695 L411.63 263.695 L411.63 186.212 L404.418 186.212 L404.418 418.662 L397.207 418.662 L397.207 418.662 L389.995 418.662 
  L389.995 186.212 L382.783 186.212 L382.783 186.212 L375.572 186.212 L375.572 263.695 L368.36 263.695 L368.36 186.212 L361.149 186.212 L361.149 263.695 L353.937 263.695 
  L353.937 418.662 L346.725 418.662 L346.725 263.695 L339.514 263.695 L339.514 341.178 L332.302 341.178 L332.302 418.662 L325.091 418.662 L325.091 186.212 L317.879 186.212 
  L317.879 341.178 L310.667 341.178 L310.667 263.695 L303.456 263.695 L303.456 263.695 L296.244 263.695 L296.244 263.695 L289.033 263.695 L289.033 31.2447 L281.821 31.2447 
  L281.821 263.695 L274.609 263.695 L274.609 341.178 L267.398 341.178 L267.398 263.695 L260.186 263.695 L260.186 186.212 L252.975 186.212 L252.975 263.695 L245.763 263.695 
  L245.763 263.695 L238.552 263.695 L238.552 341.178 L231.34 341.178 L231.34 263.695 L224.128 263.695 L224.128 341.178 L216.917 341.178 L216.917 263.695 L209.705 263.695 
  L209.705 263.695 L202.494 263.695 L202.494 263.695 L195.282 263.695 L195.282 108.728 L188.07 108.728 L188.07 263.695 L180.859 263.695 L180.859 263.695 L173.647 263.695 
  L173.647 418.662 L166.436 418.662 L166.436 263.695 L159.224 263.695 L159.224 263.695 L152.012 263.695 L152.012 263.695 L144.801 263.695 L144.801 108.728 L137.589 108.728 
  L137.589 263.695 L130.378 263.695 L130.378 108.728 L123.166 108.728 L123.166 108.728 L115.954 108.728 L115.954 186.212 L108.743 186.212 L108.743 341.178 L101.531 341.178 
  L101.531 341.178 L94.3195 341.178 L94.3195 418.662 L87.1079 418.662 L87.1079 418.662 L79.8963 418.662  Z
  " fill="#e4f0f8" fill-rule="evenodd" fill-opacity="1"/>
<polyline clip-path="url(#clip532)" style="stroke:#000000; stroke-linecap:butt; stroke-linejoin:round; stroke-width:4; stroke-opacity:0; fill:none" points="
  79.8963,418.662 87.1079,418.662 94.3195,418.662 101.531,418.662 108.743,418.662 115.954,418.662 
  123.166,418.662 130.378,418.662 137.589,418.662 144.801,418.662 152.012,418.662 
  159.224,418.662 166.436,418.662 173.647,418.662 180.859,418.662 188.07,418.662 
  195.282,418.662 202.494,418.662 209.705,418.662 216.917,418.662 224.128,418.662 
  231.34,418.662 238.552,418.662 245.763,418.662 252.975,418.662 260.186,418.662 
  267.398,418.662 274.609,418.662 281.821,418.662 289.033,418.662 296.244,418.662 
  303.456,418.662 310.667,418.662 317.879,418.662 325.091,418.662 332.302,418.662 
  339.514,418.662 346.725,418.662 353.937,418.662 361.149,418.662 368.36,418.662 
  375.572,418.662 382.783,418.662 389.995,418.662 397.207,418.662 404.418,418.662 
  411.63,418.662 418.841,418.662 426.053,418.662 433.265,418.662 440.476,418.662 
  447.688,418.662 454.899,418.662 462.111,418.662 469.323,418.662 476.534,418.662 
  483.746,418.662 490.957,418.662 498.169,418.662 505.381,418.662 512.592,418.662 
  519.804,418.662 527.015,418.662 534.227,418.662 541.439,418.662 548.65,418.662 
  555.862,418.662 
  "/>
<polyline clip-path="url(#clip532)" style="stroke:#808080; stroke-linecap:butt; stroke-linejoin:round; stroke-width:2; stroke-opacity:0.8; fill:none" points="
  79.8963,418.662 87.1079,418.662 94.3195,418.662 94.3195,341.178 101.531,341.178 108.743,341.178 108.743,186.212 115.954,186.212 
  115.954,108.728 123.166,108.728 130.378,108.728 130.378,263.695 137.589,263.695 137.589,108.728 144.801,108.728 144.801,263.695 152.012,263.695 
  159.224,263.695 166.436,263.695 166.436,418.662 173.647,418.662 173.647,263.695 180.859,263.695 188.07,263.695 
  188.07,108.728 195.282,108.728 195.282,263.695 202.494,263.695 209.705,263.695 216.917,263.695 216.917,341.178 224.128,341.178 
  224.128,263.695 231.34,263.695 231.34,341.178 238.552,341.178 238.552,263.695 245.763,263.695 252.975,263.695 252.975,186.212 260.186,186.212 
  260.186,263.695 267.398,263.695 267.398,341.178 274.609,341.178 274.609,263.695 281.821,263.695 281.821,31.2447 289.033,31.2447 289.033,263.695 296.244,263.695 
  303.456,263.695 310.667,263.695 310.667,341.178 317.879,341.178 317.879,186.212 325.091,186.212 325.091,418.662 332.302,418.662 
  332.302,341.178 339.514,341.178 339.514,263.695 346.725,263.695 346.725,418.662 353.937,418.662 353.937,263.695 361.149,263.695 361.149,186.212 368.36,186.212 
  368.36,263.695 375.572,263.695 375.572,186.212 382.783,186.212 389.995,186.212 389.995,418.662 397.207,418.662 404.418,418.662 
  404.418,186.212 411.63,186.212 411.63,263.695 418.841,263.695 418.841,341.178 426.053,341.178 433.265,341.178 433.265,263.695 440.476,263.695 
  440.476,341.178 447.688,341.178 447.688,186.212 454.899,186.212 454.899,418.662 462.111,418.662 469.323,418.662 469.323,341.178 476.534,341.178 
  476.534,418.662 483.746,418.662 490.957,418.662 498.169,418.662 505.381,418.662 512.592,418.662 
  519.804,418.662 527.015,418.662 534.227,418.662 541.439,418.662 548.65,418.662 
  555.862,418.662 
  "/>
<polyline clip-path="url(#clip532)" style="stroke:#0088c3; stroke-linecap:butt; stroke-linejoin:round; stroke-width:6; stroke-opacity:0.9; fill:none" points="
  79.8963,416.325 87.1079,416.325 87.1079,404.172 94.3195,404.172 94.3195,371.43 101.531,371.43 101.531,312.374 108.743,312.374 108.743,234.081 115.954,234.081 
  115.954,155.352 123.166,155.352 123.166,97.0479 130.378,97.0479 130.378,71.6293 137.589,71.6293 137.589,78.9683 144.801,78.9683 144.801,109.338 152.012,109.338 
  152.012,149.768 159.224,149.768 159.224,189.441 166.436,189.441 166.436,222.118 173.647,222.118 173.647,245.89 180.859,245.89 180.859,261.636 188.07,261.636 
  188.07,271.384 195.282,271.384 195.282,277.199 202.494,277.199 202.494,280.666 209.705,280.666 209.705,282.79 216.917,282.79 216.917,284.113 224.128,284.113 
  224.128,284.884 231.34,284.884 231.34,285.2 238.552,285.2 238.552,285.102 245.763,285.102 245.763,284.632 252.975,284.632 252.975,283.846 260.186,283.846 
  260.186,282.814 267.398,282.814 267.398,281.615 274.609,281.615 274.609,280.324 281.821,280.324 281.821,279.002 289.033,279.002 289.033,277.706 296.244,277.706 
  296.244,276.482 303.456,276.482 303.456,275.374 310.667,275.374 310.667,274.442 317.879,274.442 317.879,273.76 325.091,273.76 325.091,273.423 332.302,273.423 
  332.302,273.549 339.514,273.549 339.514,274.268 346.725,274.268 346.725,275.719 353.937,275.719 353.937,278.027 361.149,278.027 361.149,281.291 368.36,281.291 
  368.36,285.575 375.572,285.575 375.572,290.892 382.783,290.892 382.783,297.201 389.995,297.201 389.995,304.409 397.207,304.409 397.207,312.371 404.418,312.371 
  404.418,320.907 411.63,320.907 411.63,329.817 418.841,329.817 418.841,338.876 426.053,338.876 426.053,347.88 433.265,347.88 433.265,356.629 440.476,356.629 
  440.476,364.958 447.688,364.958 447.688,372.731 454.899,372.731 454.899,379.85 462.111,379.85 462.111,386.257 469.323,386.257 469.323,391.922 476.534,391.922 
  476.534,396.852 483.746,396.852 483.746,401.075 490.957,401.075 490.957,404.638 498.169,404.638 498.169,407.601 505.381,407.601 505.381,410.031 512.592,410.031 
  512.592,411.996 519.804,411.996 519.804,413.566 527.015,413.566 527.015,414.805 534.227,414.805 534.227,415.77 541.439,415.77 541.439,416.513 548.65,416.513 
  548.65,417.079 555.862,417.079 555.862,417.506 
  "/>
<path clip-path="url(#clip530)" d="M264.954 44.5896 L272.593 44.5896 L272.593 18.224 L264.283 19.8906 L264.283 15.6314 L272.547 13.9647 L277.223 13.9647 L277.223 44.5896 L284.862 44.5896 L284.862 48.5247 L264.954 48.5247 L264.954 44.5896 Z" fill="#000000" fill-rule="evenodd" fill-opacity="1" /><path clip-path="url(#clip530)" d="M304.306 17.0434 Q300.695 17.0434 298.866 20.6082 Q297.061 24.1498 297.061 31.2794 Q297.061 38.3859 298.866 41.9507 Q300.695 45.4923 304.306 45.4923 Q307.94 45.4923 309.746 41.9507 Q311.575 38.3859 311.575 31.2794 Q311.575 24.1498 309.746 20.6082 Q307.94 17.0434 304.306 17.0434 M304.306 13.3397 Q310.116 13.3397 313.172 17.9462 Q316.25 22.5295 316.25 31.2794 Q316.25 40.0062 313.172 44.6127 Q310.116 49.196 304.306 49.196 Q298.496 49.196 295.417 44.6127 Q292.362 40.0062 292.362 31.2794 Q292.362 22.5295 295.417 17.9462 Q298.496 13.3397 304.306 13.3397 Z" fill="#000000" fill-rule="evenodd" fill-opacity="1" /><path clip-path="url(#clip530)" d="M325.602 30.423 L335.417 30.423 L335.417 33.0618 L321.575 33.0618 L321.575 30.5156 Q322.362 29.798 323.82 28.5017 Q331.783 21.4415 331.783 19.2656 Q331.783 17.7378 330.579 16.8119 Q329.375 15.8629 327.408 15.8629 Q326.204 15.8629 324.792 16.2795 Q323.38 16.673 321.713 17.4832 L321.713 14.636 Q323.496 13.9879 325.024 13.6638 Q326.574 13.3397 327.894 13.3397 Q331.25 13.3397 333.264 14.8675 Q335.278 16.3953 335.278 18.8952 Q335.278 22.1128 327.616 28.6869 Q326.32 29.798 325.602 30.423 Z" fill="#000000" fill-rule="evenodd" fill-opacity="1" /><path clip-path="url(#clip530)" d="
M607.374 418.662 L1076.13 418.662 L1076.13 15.748 L607.374 15.748  Z
  " fill="#ffffff" fill-rule="evenodd" fill-opacity="1"/>
<defs>
  <clipPath id="clip533">
    <rect x="607" y="15" width="470" height="404"/>
  </clipPath>
</defs>
<polyline clip-path="url(#clip530)" style="stroke:#000000; stroke-linecap:butt; stroke-linejoin:round; stroke-width:4; stroke-opacity:1; fill:none" points="
  607.374,418.662 1076.13,418.662 
  "/>
<polyline clip-path="url(#clip530)" style="stroke:#000000; stroke-linecap:butt; stroke-linejoin:round; stroke-width:4; stroke-opacity:1; fill:none" points="
  607.374,418.662 607.374,437.559 
  "/>
<polyline clip-path="url(#clip530)" style="stroke:#000000; stroke-linecap:butt; stroke-linejoin:round; stroke-width:4; stroke-opacity:1; fill:none" points="
  751.606,418.662 751.606,437.559 
  "/>
<polyline clip-path="url(#clip530)" style="stroke:#000000; stroke-linecap:butt; stroke-linejoin:round; stroke-width:4; stroke-opacity:1; fill:none" points="
  895.838,418.662 895.838,437.559 
  "/>
<polyline clip-path="url(#clip530)" style="stroke:#000000; stroke-linecap:butt; stroke-linejoin:round; stroke-width:4; stroke-opacity:1; fill:none" points="
  1040.07,418.662 1040.07,437.559 
  "/>
<path clip-path="url(#clip530)" d="M607.374 446.651 Q604.666 446.651 603.294 449.324 Q601.94 451.981 601.94 457.328 Q601.94 462.658 603.294 465.331 Q604.666 467.988 607.374 467.988 Q610.1 467.988 611.454 465.331 Q612.825 462.658 612.825 457.328 Q612.825 451.981 611.454 449.324 Q610.1 446.651 607.374 446.651 M607.374 443.873 Q611.732 443.873 614.023 447.328 Q616.332 450.765 616.332 457.328 Q616.332 463.873 614.023 467.328 Q611.732 470.765 607.374 470.765 Q603.017 470.765 600.708 467.328 Q598.416 463.873 598.416 457.328 Q598.416 450.765 600.708 447.328 Q603.017 443.873 607.374 443.873 Z" fill="#000000" fill-rule="evenodd" fill-opacity="1" /><path clip-path="url(#clip530)" d="M735.686 467.31 L747.926 467.31 L747.926 470.262 L731.467 470.262 L731.467 467.31 Q733.464 465.245 736.901 461.772 Q740.356 458.283 741.242 457.276 Q742.926 455.383 743.585 454.081 Q744.262 452.762 744.262 451.495 Q744.262 449.429 742.804 448.127 Q741.363 446.824 739.037 446.824 Q737.387 446.824 735.547 447.397 Q733.724 447.97 731.641 449.133 L731.641 445.592 Q733.759 444.741 735.599 444.307 Q737.44 443.873 738.967 443.873 Q742.995 443.873 745.391 445.887 Q747.787 447.901 747.787 451.269 Q747.787 452.866 747.179 454.307 Q746.589 455.731 745.009 457.675 Q744.575 458.179 742.249 460.592 Q739.922 462.988 735.686 467.31 Z" fill="#000000" fill-rule="evenodd" fill-opacity="1" /><path clip-path="url(#clip530)" d="M762.787 446.651 Q760.078 446.651 758.707 449.324 Q757.353 451.981 757.353 457.328 Q757.353 462.658 758.707 465.331 Q760.078 467.988 762.787 467.988 Q765.512 467.988 766.866 465.331 Q768.238 462.658 768.238 457.328 Q768.238 451.981 766.866 449.324 Q765.512 446.651 762.787 446.651 M762.787 443.873 Q767.144 443.873 769.436 447.328 Q771.745 450.765 771.745 457.328 Q771.745 463.873 769.436 467.328 Q767.144 470.765 762.787 470.765 Q758.429 470.765 756.12 467.328 Q753.828 463.873 753.828 457.328 Q753.828 450.765 756.12 447.328 Q758.429 443.873 762.787 443.873 Z" fill="#000000" fill-rule="evenodd" fill-opacity="1" /><path clip-path="url(#clip530)" d="M886.967 447.397 L878.112 461.234 L886.967 461.234 L886.967 447.397 M886.046 444.342 L890.456 444.342 L890.456 461.234 L894.154 461.234 L894.154 464.151 L890.456 464.151 L890.456 470.262 L886.967 470.262 L886.967 464.151 L875.265 464.151 L875.265 460.765 L886.046 444.342 Z" fill="#000000" fill-rule="evenodd" fill-opacity="1" /><path clip-path="url(#clip530)" d="M907.453 446.651 Q904.744 446.651 903.373 449.324 Q902.019 451.981 902.019 457.328 Q902.019 462.658 903.373 465.331 Q904.744 467.988 907.453 467.988 Q910.178 467.988 911.532 465.331 Q912.904 462.658 912.904 457.328 Q912.904 451.981 911.532 449.324 Q910.178 446.651 907.453 446.651 M907.453 443.873 Q911.81 443.873 914.102 447.328 Q916.411 450.765 916.411 457.328 Q916.411 463.873 914.102 467.328 Q911.81 470.765 907.453 470.765 Q903.095 470.765 900.786 467.328 Q898.494 463.873 898.494 457.328 Q898.494 450.765 900.786 447.328 Q903.095 443.873 907.453 443.873 Z" fill="#000000" fill-rule="evenodd" fill-opacity="1" /><path clip-path="url(#clip530)" d="M1029.12 455.904 Q1026.76 455.904 1025.37 457.519 Q1024 459.133 1024 461.946 Q1024 464.741 1025.37 466.373 Q1026.76 467.988 1029.12 467.988 Q1031.48 467.988 1032.86 466.373 Q1034.25 464.741 1034.25 461.946 Q1034.25 459.133 1032.86 457.519 Q1031.48 455.904 1029.12 455.904 M1036.09 444.915 L1036.09 448.109 Q1034.77 447.484 1033.41 447.154 Q1032.08 446.824 1030.76 446.824 Q1027.28 446.824 1025.44 449.168 Q1023.62 451.512 1023.36 456.252 Q1024.38 454.741 1025.93 453.943 Q1027.47 453.127 1029.33 453.127 Q1033.24 453.127 1035.5 455.505 Q1037.77 457.866 1037.77 461.946 Q1037.77 465.939 1035.41 468.352 Q1033.05 470.765 1029.12 470.765 Q1024.63 470.765 1022.25 467.328 Q1019.87 463.873 1019.87 457.328 Q1019.87 451.182 1022.79 447.536 Q1025.7 443.873 1030.62 443.873 Q1031.94 443.873 1033.27 444.134 Q1034.63 444.394 1036.09 444.915 Z" fill="#000000" fill-rule="evenodd" fill-opacity="1" /><path clip-path="url(#clip530)" d="M1051.31 446.651 Q1048.6 446.651 1047.23 449.324 Q1045.88 451.981 1045.88 457.328 Q1045.88 462.658 1047.23 465.331 Q1048.6 467.988 1051.31 467.988 Q1054.04 467.988 1055.39 465.331 Q1056.76 462.658 1056.76 457.328 Q1056.76 451.981 1055.39 449.324 Q1054.04 446.651 1051.31 446.651 M1051.31 443.873 Q1055.67 443.873 1057.96 447.328 Q1060.27 450.765 1060.27 457.328 Q1060.27 463.873 1057.96 467.328 Q1055.67 470.765 1051.31 470.765 Q1046.95 470.765 1044.64 467.328 Q1042.35 463.873 1042.35 457.328 Q1042.35 450.765 1044.64 447.328 Q1046.95 443.873 1051.31 443.873 Z" fill="#000000" fill-rule="evenodd" fill-opacity="1" /><path clip-path="url(#clip530)" d="M709.651 489.608 L709.651 499.347 L714.061 499.347 Q716.509 499.347 717.845 498.08 Q719.182 496.813 719.182 494.469 Q719.182 492.142 717.845 490.875 Q716.509 489.608 714.061 489.608 L709.651 489.608 M706.144 486.726 L714.061 486.726 Q718.418 486.726 720.641 488.705 Q722.88 490.667 722.88 494.469 Q722.88 498.306 720.641 500.267 Q718.418 502.229 714.061 502.229 L709.651 502.229 L709.651 512.646 L706.144 512.646 L706.144 486.726 Z" fill="#000000" fill-rule="evenodd" fill-opacity="1" /><path clip-path="url(#clip530)" d="M738.088 496.188 Q737.55 495.875 736.908 495.736 Q736.283 495.58 735.519 495.58 Q732.811 495.58 731.352 497.351 Q729.911 499.104 729.911 502.403 L729.911 512.646 L726.7 512.646 L726.7 493.202 L729.911 493.202 L729.911 496.222 Q730.918 494.452 732.533 493.601 Q734.147 492.733 736.456 492.733 Q736.786 492.733 737.186 492.785 Q737.585 492.82 738.071 492.906 L738.088 496.188 Z" fill="#000000" fill-rule="evenodd" fill-opacity="1" /><path clip-path="url(#clip530)" d="M748.193 495.441 Q745.623 495.441 744.13 497.455 Q742.637 499.451 742.637 502.941 Q742.637 506.431 744.113 508.444 Q745.606 510.441 748.193 510.441 Q750.745 510.441 752.238 508.427 Q753.731 506.413 753.731 502.941 Q753.731 499.486 752.238 497.472 Q750.745 495.441 748.193 495.441 M748.193 492.733 Q752.359 492.733 754.738 495.441 Q757.116 498.149 757.116 502.941 Q757.116 507.715 754.738 510.441 Q752.359 513.149 748.193 513.149 Q744.009 513.149 741.63 510.441 Q739.269 507.715 739.269 502.941 Q739.269 498.149 741.63 495.441 Q744.009 492.733 748.193 492.733 Z" fill="#000000" fill-rule="evenodd" fill-opacity="1" /><path clip-path="url(#clip530)" d="M765.571 487.681 L765.571 493.202 L772.151 493.202 L772.151 495.684 L765.571 495.684 L765.571 506.24 Q765.571 508.618 766.213 509.295 Q766.873 509.972 768.87 509.972 L772.151 509.972 L772.151 512.646 L768.87 512.646 Q765.172 512.646 763.765 511.274 Q762.359 509.885 762.359 506.24 L762.359 495.684 L760.015 495.684 L760.015 493.202 L762.359 493.202 L762.359 487.681 L765.571 487.681 Z" fill="#000000" fill-rule="evenodd" fill-opacity="1" /><path clip-path="url(#clip530)" d="M792.984 502.125 L792.984 503.688 L778.297 503.688 Q778.505 506.986 780.276 508.722 Q782.064 510.441 785.241 510.441 Q787.081 510.441 788.8 509.99 Q790.536 509.538 792.237 508.635 L792.237 511.656 Q790.519 512.385 788.713 512.767 Q786.908 513.149 785.05 513.149 Q780.397 513.149 777.672 510.441 Q774.963 507.733 774.963 503.115 Q774.963 498.34 777.533 495.545 Q780.119 492.733 784.494 492.733 Q788.418 492.733 790.692 495.267 Q792.984 497.785 792.984 502.125 M789.79 501.188 Q789.755 498.566 788.314 497.004 Q786.89 495.441 784.529 495.441 Q781.856 495.441 780.241 496.951 Q778.644 498.462 778.401 501.205 L789.79 501.188 Z" fill="#000000" fill-rule="evenodd" fill-opacity="1" /><path clip-path="url(#clip530)" d="M798.227 493.202 L801.421 493.202 L801.421 512.646 L798.227 512.646 L798.227 493.202 M798.227 485.632 L801.421 485.632 L801.421 489.677 L798.227 489.677 L798.227 485.632 Z" fill="#000000" fill-rule="evenodd" fill-opacity="1" /><path clip-path="url(#clip530)" d="M824.269 500.91 L824.269 512.646 L821.074 512.646 L821.074 501.014 Q821.074 498.254 819.998 496.882 Q818.921 495.511 816.769 495.511 Q814.182 495.511 812.689 497.16 Q811.196 498.809 811.196 501.656 L811.196 512.646 L807.984 512.646 L807.984 493.202 L811.196 493.202 L811.196 496.222 Q812.342 494.469 813.887 493.601 Q815.449 492.733 817.48 492.733 Q820.831 492.733 822.55 494.816 Q824.269 496.882 824.269 500.91 Z" fill="#000000" fill-rule="evenodd" fill-opacity="1" /><path clip-path="url(#clip530)" d="M858.105 500.91 L858.105 512.646 L854.911 512.646 L854.911 501.014 Q854.911 498.254 853.834 496.882 Q852.758 495.511 850.605 495.511 Q848.018 495.511 846.525 497.16 Q845.032 498.809 845.032 501.656 L845.032 512.646 L841.821 512.646 L841.821 493.202 L845.032 493.202 L845.032 496.222 Q846.178 494.469 847.723 493.601 Q849.286 492.733 851.317 492.733 Q854.668 492.733 856.386 494.816 Q858.105 496.882 858.105 500.91 Z" fill="#000000" fill-rule="evenodd" fill-opacity="1" /><path clip-path="url(#clip530)" d="M864.147 504.972 L864.147 493.202 L867.341 493.202 L867.341 504.851 Q867.341 507.611 868.418 509 Q869.494 510.372 871.647 510.372 Q874.234 510.372 875.727 508.722 Q877.237 507.073 877.237 504.226 L877.237 493.202 L880.431 493.202 L880.431 512.646 L877.237 512.646 L877.237 509.66 Q876.074 511.431 874.529 512.299 Q873.001 513.149 870.97 513.149 Q867.619 513.149 865.883 511.066 Q864.147 508.983 864.147 504.972 M872.185 492.733 L872.185 492.733 Z" fill="#000000" fill-rule="evenodd" fill-opacity="1" /><path clip-path="url(#clip530)" d="M902.15 496.934 Q903.348 494.781 905.015 493.757 Q906.681 492.733 908.938 492.733 Q911.976 492.733 913.626 494.868 Q915.275 496.986 915.275 500.91 L915.275 512.646 L912.063 512.646 L912.063 501.014 Q912.063 498.219 911.074 496.865 Q910.084 495.511 908.053 495.511 Q905.57 495.511 904.129 497.16 Q902.688 498.809 902.688 501.656 L902.688 512.646 L899.476 512.646 L899.476 501.014 Q899.476 498.201 898.487 496.865 Q897.497 495.511 895.431 495.511 Q892.983 495.511 891.542 497.177 Q890.102 498.826 890.102 501.656 L890.102 512.646 L886.89 512.646 L886.89 493.202 L890.102 493.202 L890.102 496.222 Q891.195 494.434 892.723 493.583 Q894.251 492.733 896.351 492.733 Q898.47 492.733 899.945 493.809 Q901.438 494.886 902.15 496.934 Z" fill="#000000" fill-rule="evenodd" fill-opacity="1" /><path clip-path="url(#clip530)" d="M935.605 502.941 Q935.605 499.417 934.146 497.42 Q932.705 495.406 930.171 495.406 Q927.636 495.406 926.178 497.42 Q924.737 499.417 924.737 502.941 Q924.737 506.465 926.178 508.479 Q927.636 510.476 930.171 510.476 Q932.705 510.476 934.146 508.479 Q935.605 506.465 935.605 502.941 M924.737 496.153 Q925.744 494.417 927.271 493.583 Q928.817 492.733 930.952 492.733 Q934.494 492.733 936.698 495.545 Q938.921 498.358 938.921 502.941 Q938.921 507.524 936.698 510.337 Q934.494 513.149 930.952 513.149 Q928.817 513.149 927.271 512.316 Q925.744 511.465 924.737 509.729 L924.737 512.646 L921.525 512.646 L921.525 485.632 L924.737 485.632 L924.737 496.153 Z" fill="#000000" fill-rule="evenodd" fill-opacity="1" /><path clip-path="url(#clip530)" d="M960.848 502.125 L960.848 503.688 L946.16 503.688 Q946.369 506.986 948.139 508.722 Q949.928 510.441 953.105 510.441 Q954.945 510.441 956.664 509.99 Q958.4 509.538 960.101 508.635 L960.101 511.656 Q958.382 512.385 956.577 512.767 Q954.771 513.149 952.914 513.149 Q948.261 513.149 945.535 510.441 Q942.827 507.733 942.827 503.115 Q942.827 498.34 945.396 495.545 Q947.983 492.733 952.358 492.733 Q956.282 492.733 958.556 495.267 Q960.848 497.785 960.848 502.125 M957.653 501.188 Q957.619 498.566 956.178 497.004 Q954.754 495.441 952.393 495.441 Q949.719 495.441 948.105 496.951 Q946.507 498.462 946.264 501.205 L957.653 501.188 Z" fill="#000000" fill-rule="evenodd" fill-opacity="1" /><path clip-path="url(#clip530)" d="M977.358 496.188 Q976.82 495.875 976.177 495.736 Q975.552 495.58 974.789 495.58 Q972.08 495.58 970.622 497.351 Q969.181 499.104 969.181 502.403 L969.181 512.646 L965.969 512.646 L965.969 493.202 L969.181 493.202 L969.181 496.222 Q970.188 494.452 971.802 493.601 Q973.417 492.733 975.726 492.733 Q976.056 492.733 976.455 492.785 Q976.855 492.82 977.341 492.906 L977.358 496.188 Z" fill="#000000" fill-rule="evenodd" fill-opacity="1" /><polyline clip-path="url(#clip530)" style="stroke:#000000; stroke-linecap:butt; stroke-linejoin:round; stroke-width:4; stroke-opacity:1; fill:none" points="
  607.374,418.662 607.374,15.748 
  "/>
<path clip-path="url(#clip533)" d="
M603.768 418.662 L610.98 418.662 L610.98 418.662 L618.192 418.662 L618.192 418.662 L625.403 418.662 L625.403 418.662 L632.615 418.662 L632.615 418.662 L639.826 418.662 
  L639.826 418.662 L647.038 418.662 L647.038 418.662 L654.25 418.662 L654.25 418.662 L661.461 418.662 L661.461 418.662 L668.673 418.662 L668.673 418.662 L675.884 418.662 
  L675.884 418.662 L683.096 418.662 L683.096 418.662 L690.308 418.662 L690.308 418.662 L697.519 418.662 L697.519 418.662 L704.731 418.662 L704.731 418.662 L711.942 418.662 
  L711.942 418.662 L719.154 418.662 L719.154 418.662 L726.366 418.662 L726.366 418.662 L733.577 418.662 L733.577 418.662 L740.789 418.662 L740.789 418.662 L748 418.662 
  L748 418.662 L755.212 418.662 L755.212 418.662 L762.423 418.662 L762.423 418.662 L769.635 418.662 L769.635 418.662 L776.847 418.662 L776.847 418.662 L784.058 418.662 
  L784.058 418.662 L791.27 418.662 L791.27 418.662 L798.481 418.662 L798.481 418.662 L805.693 418.662 L805.693 418.662 L812.905 418.662 L812.905 418.662 L820.116 418.662 
  L820.116 418.662 L827.328 418.662 L827.328 418.662 L834.539 418.662 L834.539 418.662 L841.751 418.662 L841.751 418.662 L848.963 418.662 L848.963 418.662 L856.174 418.662 
  L856.174 418.662 L863.386 418.662 L863.386 418.662 L870.597 418.662 L870.597 418.662 L877.809 418.662 L877.809 418.662 L885.021 418.662 L885.021 418.662 L892.232 418.662 
  L892.232 418.662 L899.444 418.662 L899.444 418.662 L906.655 418.662 L906.655 418.662 L913.867 418.662 L913.867 418.662 L921.079 418.662 L921.079 418.662 L928.29 418.662 
  L928.29 418.662 L935.502 418.662 L935.502 418.662 L942.713 418.662 L942.713 418.662 L949.925 418.662 L949.925 418.662 L957.137 418.662 L957.137 418.662 L964.348 418.662 
  L964.348 418.662 L971.56 418.662 L971.56 418.662 L978.771 418.662 L978.771 418.662 L985.983 418.662 L985.983 418.662 L993.195 418.662 L993.195 418.662 L1000.41 418.662 
  L1000.41 418.662 L1007.62 418.662 L1007.62 418.662 L1014.83 418.662 L1014.83 418.662 L1022.04 418.662 L1022.04 418.662 L1029.25 418.662 L1029.25 418.662 L1036.46 418.662 
  L1036.46 418.662 L1043.68 418.662 L1043.68 418.662 L1050.89 418.662 L1050.89 418.662 L1058.1 418.662 L1058.1 418.662 L1065.31 418.662 L1065.31 418.662 L1072.52 418.662 
  L1072.52 418.662 L1079.73 418.662 L1079.73 418.662 L1086.95 418.662 L1086.95 418.662 L1094.16 418.662 L1094.16 418.662 L1101.37 418.662 L1101.37 418.662 L1108.58 418.662 
  L1108.58 418.662 L1115.79 418.662 L1115.79 418.662 L1123 418.662 L1123 418.662 L1130.21 418.662 L1130.21 418.662 L1130.21 418.662 L1130.21 410.914 L1123 410.914 
  L1123 418.662 L1115.79 418.662 L1115.79 418.662 L1108.58 418.662 L1108.58 418.662 L1101.37 418.662 L1101.37 418.662 L1094.16 418.662 L1094.16 418.662 L1086.95 418.662 
  L1086.95 418.662 L1079.73 418.662 L1079.73 418.662 L1072.52 418.662 L1072.52 418.662 L1065.31 418.662 L1065.31 410.914 L1058.1 410.914 L1058.1 418.662 L1050.89 418.662 
  L1050.89 418.662 L1043.68 418.662 L1043.68 410.914 L1036.46 410.914 L1036.46 410.914 L1029.25 410.914 L1029.25 410.914 L1022.04 410.914 L1022.04 410.914 L1014.83 410.914 
  L1014.83 395.417 L1007.62 395.417 L1007.62 403.165 L1000.41 403.165 L1000.41 418.662 L993.195 418.662 L993.195 379.92 L985.983 379.92 L985.983 379.92 L978.771 379.92 
  L978.771 364.423 L971.56 364.423 L971.56 341.178 L964.348 341.178 L964.348 410.914 L957.137 410.914 L957.137 395.417 L949.925 395.417 L949.925 379.92 L942.713 379.92 
  L942.713 263.695 L935.502 263.695 L935.502 294.688 L928.29 294.688 L928.29 333.43 L921.079 333.43 L921.079 333.43 L913.867 333.43 L913.867 279.192 L906.655 279.192 
  L906.655 279.192 L899.444 279.192 L899.444 255.947 L892.232 255.947 L892.232 255.947 L885.021 255.947 L885.021 294.688 L877.809 294.688 L877.809 302.437 L870.597 302.437 
  L870.597 317.933 L863.386 317.933 L863.386 302.437 L856.174 302.437 L856.174 255.947 L848.963 255.947 L848.963 286.94 L841.751 286.94 L841.751 271.443 L834.539 271.443 
  L834.539 294.688 L827.328 294.688 L827.328 279.192 L820.116 279.192 L820.116 341.178 L812.905 341.178 L812.905 271.443 L805.693 271.443 L805.693 271.443 L798.481 271.443 
  L798.481 217.205 L791.27 217.205 L791.27 232.702 L784.058 232.702 L784.058 302.437 L776.847 302.437 L776.847 232.702 L769.635 232.702 L769.635 279.192 L762.423 279.192 
  L762.423 286.94 L755.212 286.94 L755.212 317.933 L748 317.933 L748 294.688 L740.789 294.688 L740.789 279.192 L733.577 279.192 L733.577 279.192 L726.366 279.192 
  L726.366 255.947 L719.154 255.947 L719.154 248.198 L711.942 248.198 L711.942 255.947 L704.731 255.947 L704.731 255.947 L697.519 255.947 L697.519 232.702 L690.308 232.702 
  L690.308 85.4831 L683.096 85.4831 L683.096 193.96 L675.884 193.96 L675.884 178.463 L668.673 178.463 L668.673 124.225 L661.461 124.225 L661.461 23.4964 L654.25 23.4964 
  L654.25 54.4898 L647.038 54.4898 L647.038 170.715 L639.826 170.715 L639.826 147.47 L632.615 147.47 L632.615 325.682 L625.403 325.682 L625.403 403.165 L618.192 403.165 
  L618.192 410.914 L610.98 410.914 L610.98 418.662 L603.768 418.662  Z
  " fill="#e4f0f8" fill-rule="evenodd" fill-opacity="1"/>
<polyline clip-path="url(#clip533)" style="stroke:#000000; stroke-linecap:butt; stroke-linejoin:round; stroke-width:4; stroke-opacity:0; fill:none" points="
  603.768,418.662 610.98,418.662 618.192,418.662 625.403,418.662 632.615,418.662 639.826,418.662 
  647.038,418.662 654.25,418.662 661.461,418.662 668.673,418.662 675.884,418.662 
  683.096,418.662 690.308,418.662 697.519,418.662 704.731,418.662 711.942,418.662 
  719.154,418.662 726.366,418.662 733.577,418.662 740.789,418.662 748,418.662 
  755.212,418.662 762.423,418.662 769.635,418.662 776.847,418.662 784.058,418.662 
  791.27,418.662 798.481,418.662 805.693,418.662 812.905,418.662 820.116,418.662 
  827.328,418.662 834.539,418.662 841.751,418.662 848.963,418.662 856.174,418.662 
  863.386,418.662 870.597,418.662 877.809,418.662 885.021,418.662 892.232,418.662 
  899.444,418.662 906.655,418.662 913.867,418.662 921.079,418.662 928.29,418.662 
  935.502,418.662 942.713,418.662 949.925,418.662 957.137,418.662 964.348,418.662 
  971.56,418.662 978.771,418.662 985.983,418.662 993.195,418.662 1000.41,418.662 
  1007.62,418.662 1014.83,418.662 1022.04,418.662 1029.25,418.662 1036.46,418.662 
  1043.68,418.662 1050.89,418.662 1058.1,418.662 1065.31,418.662 1072.52,418.662 
  1079.73,418.662 1086.95,418.662 1094.16,418.662 1101.37,418.662 1108.58,418.662 
  1115.79,418.662 1123,418.662 1130.21,418.662 
  "/>
<polyline clip-path="url(#clip533)" style="stroke:#808080; stroke-linecap:butt; stroke-linejoin:round; stroke-width:2; stroke-opacity:0.8; fill:none" points="
  603.768,418.662 610.98,418.662 610.98,410.914 618.192,410.914 618.192,403.165 625.403,403.165 625.403,325.682 632.615,325.682 632.615,147.47 639.826,147.47 
  639.826,170.715 647.038,170.715 647.038,54.4898 654.25,54.4898 654.25,23.4964 661.461,23.4964 661.461,124.225 668.673,124.225 668.673,178.463 675.884,178.463 
  675.884,193.96 683.096,193.96 683.096,85.4831 690.308,85.4831 690.308,232.702 697.519,232.702 697.519,255.947 704.731,255.947 711.942,255.947 
  711.942,248.198 719.154,248.198 719.154,255.947 726.366,255.947 726.366,279.192 733.577,279.192 740.789,279.192 740.789,294.688 748,294.688 
  748,317.933 755.212,317.933 755.212,286.94 762.423,286.94 762.423,279.192 769.635,279.192 769.635,232.702 776.847,232.702 776.847,302.437 784.058,302.437 
  784.058,232.702 791.27,232.702 791.27,217.205 798.481,217.205 798.481,271.443 805.693,271.443 812.905,271.443 812.905,341.178 820.116,341.178 
  820.116,279.192 827.328,279.192 827.328,294.688 834.539,294.688 834.539,271.443 841.751,271.443 841.751,286.94 848.963,286.94 848.963,255.947 856.174,255.947 
  856.174,302.437 863.386,302.437 863.386,317.933 870.597,317.933 870.597,302.437 877.809,302.437 877.809,294.688 885.021,294.688 885.021,255.947 892.232,255.947 
  899.444,255.947 899.444,279.192 906.655,279.192 913.867,279.192 913.867,333.43 921.079,333.43 928.29,333.43 
  928.29,294.688 935.502,294.688 935.502,263.695 942.713,263.695 942.713,379.92 949.925,379.92 949.925,395.417 957.137,395.417 957.137,410.914 964.348,410.914 
  964.348,341.178 971.56,341.178 971.56,364.423 978.771,364.423 978.771,379.92 985.983,379.92 993.195,379.92 993.195,418.662 1000.41,418.662 
  1000.41,403.165 1007.62,403.165 1007.62,395.417 1014.83,395.417 1014.83,410.914 1022.04,410.914 1029.25,410.914 1036.46,410.914 
  1043.68,410.914 1043.68,418.662 1050.89,418.662 1058.1,418.662 1058.1,410.914 1065.31,410.914 1065.31,418.662 1072.52,418.662 
  1079.73,418.662 1086.95,418.662 1094.16,418.662 1101.37,418.662 1108.58,418.662 
  1115.79,418.662 1123,418.662 1123,410.914 1130.21,410.914 1130.21,418.662 
  "/>
<polyline clip-path="url(#clip533)" style="stroke:#0088c3; stroke-linecap:butt; stroke-linejoin:round; stroke-width:6; stroke-opacity:0.9; fill:none" points="
  603.768,416.236 610.98,416.236 610.98,403.655 618.192,403.655 618.192,370.158 625.403,370.158 625.403,310.655 632.615,310.655 632.615,233.1 639.826,233.1 
  639.826,156.573 647.038,156.573 647.038,101.213 654.25,101.213 654.25,78.2017 661.461,78.2017 661.461,86.3893 668.673,86.3893 668.673,115.813 675.884,115.813 
  675.884,154.021 683.096,154.021 683.096,191.06 690.308,191.06 690.308,221.47 697.519,221.47 697.519,243.798 704.731,243.798 704.731,259.024 711.942,259.024 
  711.942,269.026 719.154,269.026 719.154,275.606 726.366,275.606 726.366,280.069 733.577,280.069 733.577,283.19 740.789,283.19 740.789,285.355 748,285.355 
  748,286.725 755.212,286.725 755.212,287.372 762.423,287.372 762.423,287.36 769.635,287.36 769.635,286.775 776.847,286.775 776.847,285.74 784.058,285.74 
  784.058,284.391 791.27,284.391 791.27,282.865 798.481,282.865 798.481,281.281 805.693,281.281 805.693,279.727 812.905,279.727 812.905,278.267 820.116,278.267 
  820.116,276.937 827.328,276.937 827.328,275.763 834.539,275.763 834.539,274.775 841.751,274.775 841.751,274.015 848.963,274.015 848.963,273.557 856.174,273.557 
  856.174,273.5 863.386,273.5 863.386,273.969 870.597,273.969 870.597,275.107 877.809,275.107 877.809,277.054 885.021,277.054 885.021,279.935 892.232,279.935 
  892.232,283.837 899.444,283.837 899.444,288.803 906.655,288.803 906.655,294.817 913.867,294.817 913.867,301.804 921.079,301.804 921.079,309.635 928.29,309.635 
  928.29,318.131 935.502,318.131 935.502,327.084 942.713,327.084 942.713,336.269 949.925,336.269 949.925,345.461 957.137,345.461 957.137,354.447 964.348,354.447 
  964.348,363.04 971.56,363.04 971.56,371.091 978.771,371.091 978.771,378.487 985.983,378.487 985.983,385.154 993.195,385.154 993.195,391.057 1000.41,391.057 
  1000.41,396.197 1007.62,396.197 1007.62,400.597 1014.83,400.597 1014.83,404.307 1022.04,404.307 1022.04,407.387 1029.25,407.387 1029.25,409.906 1036.46,409.906 
  1036.46,411.937 1043.68,411.937 1043.68,413.554 1050.89,413.554 1050.89,414.823 1058.1,414.823 1058.1,415.807 1065.31,415.807 1065.31,416.56 1072.52,416.56 
  1072.52,417.13 1079.73,417.13 1079.73,417.556 1086.95,417.556 1086.95,417.871 1094.16,417.871 1094.16,418.101 1101.37,418.101 1101.37,418.268 1108.58,418.268 
  1108.58,418.387 1115.79,418.387 1115.79,418.472 1123,418.472 1123,418.532 1130.21,418.532 1130.21,418.573 
  "/>
<path clip-path="url(#clip530)" d="
M896.527 145.818 L1060.5 145.818 L1060.5 29.1785 L896.527 29.1785  Z
  " fill="#ffffff" fill-rule="evenodd" fill-opacity="1"/>
<polyline clip-path="url(#clip530)" style="stroke:#000000; stroke-linecap:butt; stroke-linejoin:round; stroke-width:4; stroke-opacity:0; fill:none" points="
  896.527,145.818 1060.5,145.818 1060.5,29.1785 896.527,29.1785 896.527,145.818 
  "/>
<path clip-path="url(#clip530)" d="
M901.736 83.6105 L932.986 83.6105 L932.986 52.5065 L901.736 52.5065 L901.736 83.6105  Z
  " fill="#e4f0f8" fill-rule="evenodd" fill-opacity="1"/>
<polyline clip-path="url(#clip530)" style="stroke:#000000; stroke-linecap:butt; stroke-linejoin:round; stroke-width:4; stroke-opacity:0; fill:none" points="
  901.736,52.5065 932.986,52.5065 
  "/>
<path clip-path="url(#clip530)" d="M954.878 55.9492 L954.878 59.3693 Q952.882 58.4144 951.111 57.9457 Q949.34 57.477 947.691 57.477 Q944.826 57.477 943.264 58.5881 Q941.719 59.6992 941.719 61.7478 Q941.719 63.4665 942.743 64.3519 Q943.785 65.22 946.667 65.7582 L948.785 66.1922 Q952.708 66.9387 954.566 68.8311 Q956.441 70.706 956.441 73.8658 Q956.441 77.6331 953.906 79.5775 Q951.389 81.522 946.51 81.522 Q944.67 81.522 942.587 81.1053 Q940.521 80.6886 938.299 79.8727 L938.299 76.2616 Q940.434 77.4595 942.483 78.0671 Q944.531 78.6748 946.51 78.6748 Q949.514 78.6748 951.146 77.4942 Q952.778 76.3137 952.778 74.1262 Q952.778 72.2165 951.597 71.1401 Q950.434 70.0637 947.76 69.5255 L945.625 69.1088 Q941.701 68.3276 939.948 66.6609 Q938.194 64.9943 938.194 62.0255 Q938.194 58.5881 940.608 56.6089 Q943.038 54.6297 947.292 54.6297 Q949.114 54.6297 951.007 54.9596 Q952.899 55.2895 954.878 55.9492 Z" fill="#000000" fill-rule="evenodd" fill-opacity="1" /><path clip-path="url(#clip530)" d="M977.448 55.9492 L977.448 59.3693 Q975.451 58.4144 973.68 57.9457 Q971.909 57.477 970.26 57.477 Q967.396 57.477 965.833 58.5881 Q964.288 59.6992 964.288 61.7478 Q964.288 63.4665 965.312 64.3519 Q966.354 65.22 969.236 65.7582 L971.354 66.1922 Q975.278 66.9387 977.135 68.8311 Q979.01 70.706 979.01 73.8658 Q979.01 77.6331 976.475 79.5775 Q973.958 81.522 969.08 81.522 Q967.239 81.522 965.156 81.1053 Q963.09 80.6886 960.868 79.8727 L960.868 76.2616 Q963.003 77.4595 965.052 78.0671 Q967.1 78.6748 969.08 78.6748 Q972.083 78.6748 973.715 77.4942 Q975.347 76.3137 975.347 74.1262 Q975.347 72.2165 974.166 71.1401 Q973.003 70.0637 970.33 69.5255 L968.194 69.1088 Q964.271 68.3276 962.517 66.6609 Q960.764 64.9943 960.764 62.0255 Q960.764 58.5881 963.177 56.6089 Q965.607 54.6297 969.861 54.6297 Q971.684 54.6297 973.576 54.9596 Q975.468 55.2895 977.448 55.9492 Z" fill="#000000" fill-rule="evenodd" fill-opacity="1" /><path clip-path="url(#clip530)" d="M993.802 58.5533 L989.045 71.4526 L998.576 71.4526 L993.802 58.5533 M991.823 55.0985 L995.798 55.0985 L1005.68 81.0185 L1002.03 81.0185 L999.67 74.3692 L987.986 74.3692 L985.625 81.0185 L981.927 81.0185 L991.823 55.0985 Z" fill="#000000" fill-rule="evenodd" fill-opacity="1" /><polyline clip-path="url(#clip530)" style="stroke:#0088c3; stroke-linecap:butt; stroke-linejoin:round; stroke-width:3; stroke-opacity:0.9; fill:none" points="
  901.736,106.938 932.986,106.938 
  "/>
<path clip-path="url(#clip530)" d="M938.194 93.9785 L942.917 93.9785 L954.41 115.662 L954.41 93.9785 L957.812 93.9785 L957.812 119.898 L953.09 119.898 L941.597 98.2146 L941.597 119.898 L938.194 119.898 L938.194 93.9785 Z" fill="#000000" fill-rule="evenodd" fill-opacity="1" /><path clip-path="url(#clip530)" d="M981.284 109.378 L981.284 110.94 L966.597 110.94 Q966.805 114.239 968.576 115.975 Q970.364 117.694 973.541 117.694 Q975.382 117.694 977.1 117.242 Q978.837 116.791 980.538 115.888 L980.538 118.909 Q978.819 119.638 977.014 120.02 Q975.208 120.402 973.35 120.402 Q968.698 120.402 965.972 117.694 Q963.264 114.985 963.264 110.367 Q963.264 105.593 965.833 102.798 Q968.42 99.9854 972.795 99.9854 Q976.718 99.9854 978.993 102.52 Q981.284 105.037 981.284 109.378 M978.09 108.44 Q978.055 105.819 976.614 104.256 Q975.191 102.694 972.83 102.694 Q970.156 102.694 968.541 104.204 Q966.944 105.715 966.701 108.458 L978.09 108.44 Z" fill="#000000" fill-rule="evenodd" fill-opacity="1" /><path clip-path="url(#clip530)" d="M998.923 101.027 L998.923 104.048 Q997.569 103.353 996.111 103.006 Q994.652 102.659 993.09 102.659 Q990.711 102.659 989.514 103.388 Q988.333 104.117 988.333 105.576 Q988.333 106.687 989.184 107.329 Q990.034 107.954 992.604 108.527 L993.698 108.77 Q997.1 109.499 998.524 110.836 Q999.965 112.155 999.965 114.534 Q999.965 117.242 997.812 118.822 Q995.677 120.402 991.927 120.402 Q990.364 120.402 988.663 120.089 Q986.979 119.794 985.104 119.187 L985.104 115.888 Q986.875 116.808 988.593 117.277 Q990.312 117.728 991.996 117.728 Q994.253 117.728 995.468 116.964 Q996.684 116.183 996.684 114.777 Q996.684 113.475 995.798 112.78 Q994.93 112.086 991.961 111.444 L990.85 111.183 Q987.882 110.558 986.562 109.274 Q985.243 107.971 985.243 105.715 Q985.243 102.971 987.187 101.478 Q989.132 99.9854 992.708 99.9854 Q994.479 99.9854 996.041 100.246 Q997.604 100.506 998.923 101.027 Z" fill="#000000" fill-rule="evenodd" fill-opacity="1" /><path clip-path="url(#clip530)" d="M1017.45 101.027 L1017.45 104.048 Q1016.09 103.353 1014.63 103.006 Q1013.18 102.659 1011.61 102.659 Q1009.24 102.659 1008.04 103.388 Q1006.86 104.117 1006.86 105.576 Q1006.86 106.687 1007.71 107.329 Q1008.56 107.954 1011.13 108.527 L1012.22 108.77 Q1015.62 109.499 1017.05 110.836 Q1018.49 112.155 1018.49 114.534 Q1018.49 117.242 1016.34 118.822 Q1014.2 120.402 1010.45 120.402 Q1008.89 120.402 1007.19 120.089 Q1005.5 119.794 1003.63 119.187 L1003.63 115.888 Q1005.4 116.808 1007.12 117.277 Q1008.84 117.728 1010.52 117.728 Q1012.78 117.728 1013.99 116.964 Q1015.21 116.183 1015.21 114.777 Q1015.21 113.475 1014.32 112.78 Q1013.45 112.086 1010.49 111.444 L1009.37 111.183 Q1006.41 110.558 1005.09 109.274 Q1003.77 107.971 1003.77 105.715 Q1003.77 102.971 1005.71 101.478 Q1007.66 99.9854 1011.23 99.9854 Q1013 99.9854 1014.57 100.246 Q1016.13 100.506 1017.45 101.027 Z" fill="#000000" fill-rule="evenodd" fill-opacity="1" /><path clip-path="url(#clip530)" d="M1023.58 100.454 L1026.77 100.454 L1026.77 119.898 L1023.58 119.898 L1023.58 100.454 M1023.58 92.8847 L1026.77 92.8847 L1026.77 96.9299 L1023.58 96.9299 L1023.58 92.8847 Z" fill="#000000" fill-rule="evenodd" fill-opacity="1" /><path clip-path="url(#clip530)" d="M1050.09 109.378 L1050.09 110.94 L1035.4 110.94 Q1035.61 114.239 1037.38 115.975 Q1039.17 117.694 1042.34 117.694 Q1044.18 117.694 1045.9 117.242 Q1047.64 116.791 1049.34 115.888 L1049.34 118.909 Q1047.62 119.638 1045.82 120.02 Q1044.01 120.402 1042.15 120.402 Q1037.5 120.402 1034.77 117.694 Q1032.07 114.985 1032.07 110.367 Q1032.07 105.593 1034.63 102.798 Q1037.22 99.9854 1041.6 99.9854 Q1045.52 99.9854 1047.79 102.52 Q1050.09 105.037 1050.09 109.378 M1046.89 108.44 Q1046.86 105.819 1045.42 104.256 Q1043.99 102.694 1041.63 102.694 Q1038.96 102.694 1037.34 104.204 Q1035.75 105.715 1035.5 108.458 L1046.89 108.44 Z" fill="#000000" fill-rule="evenodd" fill-opacity="1" /><path clip-path="url(#clip530)" d="M810.172 44.5896 L817.811 44.5896 L817.811 18.224 L809.501 19.8906 L809.501 15.6314 L817.764 13.9647 L822.44 13.9647 L822.44 44.5896 L830.079 44.5896 L830.079 48.5247 L810.172 48.5247 L810.172 44.5896 Z" fill="#000000" fill-rule="evenodd" fill-opacity="1" /><path clip-path="url(#clip530)" d="M849.524 17.0434 Q845.912 17.0434 844.084 20.6082 Q842.278 24.1498 842.278 31.2794 Q842.278 38.3859 844.084 41.9507 Q845.912 45.4923 849.524 45.4923 Q853.158 45.4923 854.963 41.9507 Q856.792 38.3859 856.792 31.2794 Q856.792 24.1498 854.963 20.6082 Q853.158 17.0434 849.524 17.0434 M849.524 13.3397 Q855.334 13.3397 858.389 17.9462 Q861.468 22.5295 861.468 31.2794 Q861.468 40.0062 858.389 44.6127 Q855.334 49.196 849.524 49.196 Q843.713 49.196 840.635 44.6127 Q837.579 40.0062 837.579 31.2794 Q837.579 22.5295 840.635 17.9462 Q843.713 13.3397 849.524 13.3397 Z" fill="#000000" fill-rule="evenodd" fill-opacity="1" /><path clip-path="url(#clip530)" d="M876.746 22.5989 Q878.875 23.0156 880.033 24.2887 Q881.213 25.5387 881.213 27.4369 Q881.213 30.3072 879.014 31.8581 Q876.815 33.4091 872.718 33.4091 Q871.398 33.4091 869.94 33.1776 Q868.505 32.9229 866.885 32.46 L866.885 29.6591 Q868.088 30.2841 869.454 30.585 Q870.843 30.8859 872.394 30.8859 Q874.917 30.8859 876.306 29.9831 Q877.695 29.0572 877.695 27.4369 Q877.695 25.7239 876.398 24.8443 Q875.125 23.9647 872.625 23.9647 L870.635 23.9647 L870.635 21.4647 L872.81 21.4647 Q874.986 21.4647 876.097 20.7471 Q877.232 20.0064 877.232 18.6175 Q877.232 17.2749 876.074 16.5804 Q874.917 15.8629 872.718 15.8629 Q871.792 15.8629 870.611 16.0712 Q869.431 16.2795 867.556 16.8119 L867.556 14.1499 Q869.246 13.7564 870.727 13.5481 Q872.209 13.3397 873.482 13.3397 Q876.815 13.3397 878.759 14.7055 Q880.727 16.0712 880.727 18.3628 Q880.727 19.9601 879.685 21.0712 Q878.644 22.1823 876.746 22.5989 Z" fill="#000000" fill-rule="evenodd" fill-opacity="1" /><path clip-path="url(#clip530)" d="
M1131.25 418.662 L1600 418.662 L1600 15.748 L1131.25 15.748  Z
  " fill="#ffffff" fill-rule="evenodd" fill-opacity="1"/>
<defs>
  <clipPath id="clip534">
    <rect x="1131" y="15" width="470" height="404"/>
  </clipPath>
</defs>
<polyline clip-path="url(#clip530)" style="stroke:#000000; stroke-linecap:butt; stroke-linejoin:round; stroke-width:4; stroke-opacity:1; fill:none" points="
  1131.25,418.662 1600,418.662 
  "/>
<polyline clip-path="url(#clip530)" style="stroke:#000000; stroke-linecap:butt; stroke-linejoin:round; stroke-width:4; stroke-opacity:1; fill:none" points="
  1131.25,418.662 1131.25,437.559 
  "/>
<polyline clip-path="url(#clip530)" style="stroke:#000000; stroke-linecap:butt; stroke-linejoin:round; stroke-width:4; stroke-opacity:1; fill:none" points="
  1275.48,418.662 1275.48,437.559 
  "/>
<polyline clip-path="url(#clip530)" style="stroke:#000000; stroke-linecap:butt; stroke-linejoin:round; stroke-width:4; stroke-opacity:1; fill:none" points="
  1419.71,418.662 1419.71,437.559 
  "/>
<polyline clip-path="url(#clip530)" style="stroke:#000000; stroke-linecap:butt; stroke-linejoin:round; stroke-width:4; stroke-opacity:1; fill:none" points="
  1563.94,418.662 1563.94,437.559 
  "/>
<path clip-path="url(#clip530)" d="M1131.25 446.651 Q1128.54 446.651 1127.17 449.324 Q1125.81 451.981 1125.81 457.328 Q1125.81 462.658 1127.17 465.331 Q1128.54 467.988 1131.25 467.988 Q1133.97 467.988 1135.33 465.331 Q1136.7 462.658 1136.7 457.328 Q1136.7 451.981 1135.33 449.324 Q1133.97 446.651 1131.25 446.651 M1131.25 443.873 Q1135.6 443.873 1137.9 447.328 Q1140.2 450.765 1140.2 457.328 Q1140.2 463.873 1137.9 467.328 Q1135.6 470.765 1131.25 470.765 Q1126.89 470.765 1124.58 467.328 Q1122.29 463.873 1122.29 457.328 Q1122.29 450.765 1124.58 447.328 Q1126.89 443.873 1131.25 443.873 Z" fill="#000000" fill-rule="evenodd" fill-opacity="1" /><path clip-path="url(#clip530)" d="M1259.56 467.31 L1271.8 467.31 L1271.8 470.262 L1255.34 470.262 L1255.34 467.31 Q1257.34 465.245 1260.77 461.772 Q1264.23 458.283 1265.11 457.276 Q1266.8 455.383 1267.46 454.081 Q1268.13 452.762 1268.13 451.495 Q1268.13 449.429 1266.68 448.127 Q1265.24 446.824 1262.91 446.824 Q1261.26 446.824 1259.42 447.397 Q1257.6 447.97 1255.51 449.133 L1255.51 445.592 Q1257.63 444.741 1259.47 444.307 Q1261.31 443.873 1262.84 443.873 Q1266.87 443.873 1269.26 445.887 Q1271.66 447.901 1271.66 451.269 Q1271.66 452.866 1271.05 454.307 Q1270.46 455.731 1268.88 457.675 Q1268.45 458.179 1266.12 460.592 Q1263.79 462.988 1259.56 467.31 Z" fill="#000000" fill-rule="evenodd" fill-opacity="1" /><path clip-path="url(#clip530)" d="M1286.66 446.651 Q1283.95 446.651 1282.58 449.324 Q1281.22 451.981 1281.22 457.328 Q1281.22 462.658 1282.58 465.331 Q1283.95 467.988 1286.66 467.988 Q1289.38 467.988 1290.74 465.331 Q1292.11 462.658 1292.11 457.328 Q1292.11 451.981 1290.74 449.324 Q1289.38 446.651 1286.66 446.651 M1286.66 443.873 Q1291.02 443.873 1293.31 447.328 Q1295.62 450.765 1295.62 457.328 Q1295.62 463.873 1293.31 467.328 Q1291.02 470.765 1286.66 470.765 Q1282.3 470.765 1279.99 467.328 Q1277.7 463.873 1277.7 457.328 Q1277.7 450.765 1279.99 447.328 Q1282.3 443.873 1286.66 443.873 Z" fill="#000000" fill-rule="evenodd" fill-opacity="1" /><path clip-path="url(#clip530)" d="M1410.84 447.397 L1401.98 461.234 L1410.84 461.234 L1410.84 447.397 M1409.92 444.342 L1414.33 444.342 L1414.33 461.234 L1418.03 461.234 L1418.03 464.151 L1414.33 464.151 L1414.33 470.262 L1410.84 470.262 L1410.84 464.151 L1399.14 464.151 L1399.14 460.765 L1409.92 444.342 Z" fill="#000000" fill-rule="evenodd" fill-opacity="1" /><path clip-path="url(#clip530)" d="M1431.32 446.651 Q1428.62 446.651 1427.24 449.324 Q1425.89 451.981 1425.89 457.328 Q1425.89 462.658 1427.24 465.331 Q1428.62 467.988 1431.32 467.988 Q1434.05 467.988 1435.4 465.331 Q1436.78 462.658 1436.78 457.328 Q1436.78 451.981 1435.4 449.324 Q1434.05 446.651 1431.32 446.651 M1431.32 443.873 Q1435.68 443.873 1437.97 447.328 Q1440.28 450.765 1440.28 457.328 Q1440.28 463.873 1437.97 467.328 Q1435.68 470.765 1431.32 470.765 Q1426.97 470.765 1424.66 467.328 Q1422.37 463.873 1422.37 457.328 Q1422.37 450.765 1424.66 447.328 Q1426.97 443.873 1431.32 443.873 Z" fill="#000000" fill-rule="evenodd" fill-opacity="1" /><path clip-path="url(#clip530)" d="M1553 455.904 Q1550.63 455.904 1549.25 457.519 Q1547.87 459.133 1547.87 461.946 Q1547.87 464.741 1549.25 466.373 Q1550.63 467.988 1553 467.988 Q1555.36 467.988 1556.73 466.373 Q1558.12 464.741 1558.12 461.946 Q1558.12 459.133 1556.73 457.519 Q1555.36 455.904 1553 455.904 M1559.96 444.915 L1559.96 448.109 Q1558.64 447.484 1557.28 447.154 Q1555.95 446.824 1554.63 446.824 Q1551.16 446.824 1549.32 449.168 Q1547.49 451.512 1547.23 456.252 Q1548.26 454.741 1549.8 453.943 Q1551.35 453.127 1553.2 453.127 Q1557.11 453.127 1559.37 455.505 Q1561.64 457.866 1561.64 461.946 Q1561.64 465.939 1559.28 468.352 Q1556.92 470.765 1553 470.765 Q1548.5 470.765 1546.12 467.328 Q1543.74 463.873 1543.74 457.328 Q1543.74 451.182 1546.66 447.536 Q1549.58 443.873 1554.49 443.873 Q1555.81 443.873 1557.15 444.134 Q1558.5 444.394 1559.96 444.915 Z" fill="#000000" fill-rule="evenodd" fill-opacity="1" /><path clip-path="url(#clip530)" d="M1575.18 446.651 Q1572.47 446.651 1571.1 449.324 Q1569.75 451.981 1569.75 457.328 Q1569.75 462.658 1571.1 465.331 Q1572.47 467.988 1575.18 467.988 Q1577.91 467.988 1579.26 465.331 Q1580.63 462.658 1580.63 457.328 Q1580.63 451.981 1579.26 449.324 Q1577.91 446.651 1575.18 446.651 M1575.18 443.873 Q1579.54 443.873 1581.83 447.328 Q1584.14 450.765 1584.14 457.328 Q1584.14 463.873 1581.83 467.328 Q1579.54 470.765 1575.18 470.765 Q1570.83 470.765 1568.52 467.328 Q1566.22 463.873 1566.22 457.328 Q1566.22 450.765 1568.52 447.328 Q1570.83 443.873 1575.18 443.873 Z" fill="#000000" fill-rule="evenodd" fill-opacity="1" /><polyline clip-path="url(#clip530)" style="stroke:#000000; stroke-linecap:butt; stroke-linejoin:round; stroke-width:4; stroke-opacity:1; fill:none" points="
  1131.25,418.662 1131.25,15.748 
  "/>
<path clip-path="url(#clip534)" d="
M1127.64 418.662 L1134.85 418.662 L1134.85 418.662 L1142.06 418.662 L1142.06 418.662 L1149.28 418.662 L1149.28 418.662 L1156.49 418.662 L1156.49 418.662 L1163.7 418.662 
  L1163.7 418.662 L1170.91 418.662 L1170.91 418.662 L1178.12 418.662 L1178.12 418.662 L1185.33 418.662 L1185.33 418.662 L1192.54 418.662 L1192.54 418.662 L1199.76 418.662 
  L1199.76 418.662 L1206.97 418.662 L1206.97 418.662 L1214.18 418.662 L1214.18 418.662 L1221.39 418.662 L1221.39 418.662 L1228.6 418.662 L1228.6 418.662 L1235.81 418.662 
  L1235.81 418.662 L1243.03 418.662 L1243.03 418.662 L1250.24 418.662 L1250.24 418.662 L1257.45 418.662 L1257.45 418.662 L1264.66 418.662 L1264.66 418.662 L1271.87 418.662 
  L1271.87 418.662 L1279.08 418.662 L1279.08 418.662 L1286.3 418.662 L1286.3 418.662 L1293.51 418.662 L1293.51 418.662 L1300.72 418.662 L1300.72 418.662 L1307.93 418.662 
  L1307.93 418.662 L1315.14 418.662 L1315.14 418.662 L1322.35 418.662 L1322.35 418.662 L1329.57 418.662 L1329.57 418.662 L1336.78 418.662 L1336.78 418.662 L1343.99 418.662 
  L1343.99 418.662 L1351.2 418.662 L1351.2 418.662 L1358.41 418.662 L1358.41 418.662 L1365.62 418.662 L1365.62 418.662 L1372.83 418.662 L1372.83 418.662 L1380.05 418.662 
  L1380.05 418.662 L1387.26 418.662 L1387.26 418.662 L1394.47 418.662 L1394.47 418.662 L1401.68 418.662 L1401.68 418.662 L1408.89 418.662 L1408.89 418.662 L1416.1 418.662 
  L1416.1 418.662 L1423.32 418.662 L1423.32 418.662 L1430.53 418.662 L1430.53 418.662 L1437.74 418.662 L1437.74 418.662 L1444.95 418.662 L1444.95 418.662 L1452.16 418.662 
  L1452.16 418.662 L1459.37 418.662 L1459.37 418.662 L1466.59 418.662 L1466.59 418.662 L1473.8 418.662 L1473.8 418.662 L1481.01 418.662 L1481.01 418.662 L1488.22 418.662 
  L1488.22 418.662 L1495.43 418.662 L1495.43 418.662 L1502.64 418.662 L1502.64 418.662 L1509.86 418.662 L1509.86 418.662 L1517.07 418.662 L1517.07 418.662 L1524.28 418.662 
  L1524.28 418.662 L1531.49 418.662 L1531.49 418.662 L1538.7 418.662 L1538.7 418.662 L1545.91 418.662 L1545.91 418.662 L1553.12 418.662 L1553.12 418.662 L1560.34 418.662 
  L1560.34 418.662 L1567.55 418.662 L1567.55 418.662 L1574.76 418.662 L1574.76 418.662 L1581.97 418.662 L1581.97 418.662 L1589.18 418.662 L1589.18 418.662 L1596.39 418.662 
  L1596.39 418.662 L1603.61 418.662 L1603.61 418.662 L1603.61 418.662 L1603.61 417.112 L1596.39 417.112 L1596.39 416.337 L1589.18 416.337 L1589.18 417.112 L1581.97 417.112 
  L1581.97 417.112 L1574.76 417.112 L1574.76 415.563 L1567.55 415.563 L1567.55 414.788 L1560.34 414.788 L1560.34 409.364 L1553.12 409.364 L1553.12 405.49 L1545.91 405.49 
  L1545.91 406.265 L1538.7 406.265 L1538.7 404.715 L1531.49 404.715 L1531.49 405.49 L1524.28 405.49 L1524.28 392.317 L1517.07 392.317 L1517.07 390.768 L1509.86 390.768 
  L1509.86 382.245 L1502.64 382.245 L1502.64 373.721 L1495.43 373.721 L1495.43 365.973 L1488.22 365.973 L1488.22 361.324 L1481.01 361.324 L1481.01 345.827 L1473.8 345.827 
  L1473.8 334.205 L1466.59 334.205 L1466.59 331.106 L1459.37 331.106 L1459.37 312.51 L1452.16 312.51 L1452.16 286.94 L1444.95 286.94 L1444.95 310.96 L1437.74 310.96 
  L1437.74 290.039 L1430.53 290.039 L1430.53 286.94 L1423.32 286.94 L1423.32 274.543 L1416.1 274.543 L1416.1 297.013 L1408.89 297.013 L1408.89 283.066 L1401.68 283.066 
  L1401.68 273.768 L1394.47 273.768 L1394.47 283.066 L1387.26 283.066 L1387.26 302.437 L1380.05 302.437 L1380.05 283.066 L1372.83 283.066 L1372.83 293.914 L1365.62 293.914 
  L1365.62 264.47 L1358.41 264.47 L1358.41 279.192 L1351.2 279.192 L1351.2 287.715 L1343.99 287.715 L1343.99 282.291 L1336.78 282.291 L1336.78 295.463 L1329.57 295.463 
  L1329.57 278.417 L1322.35 278.417 L1322.35 293.914 L1315.14 293.914 L1315.14 282.291 L1307.93 282.291 L1307.93 292.364 L1300.72 292.364 L1300.72 286.165 L1293.51 286.165 
  L1293.51 265.245 L1286.3 265.245 L1286.3 260.596 L1279.08 260.596 L1279.08 282.291 L1271.87 282.291 L1271.87 293.139 L1264.66 293.139 L1264.66 278.417 L1257.45 278.417 
  L1257.45 280.741 L1250.24 280.741 L1250.24 276.867 L1243.03 276.867 L1243.03 252.847 L1235.81 252.847 L1235.81 251.298 L1228.6 251.298 L1228.6 231.152 L1221.39 231.152 
  L1221.39 204.033 L1214.18 204.033 L1214.18 198.609 L1206.97 198.609 L1206.97 149.794 L1199.76 149.794 L1199.76 117.251 L1192.54 117.251 L1192.54 66.1123 L1185.33 66.1123 
  L1185.33 90.907 L1178.12 90.907 L1178.12 77.7348 L1170.91 77.7348 L1170.91 139.722 L1163.7 139.722 L1163.7 237.351 L1156.49 237.351 L1156.49 300.887 L1149.28 300.887 
  L1149.28 376.046 L1142.06 376.046 L1142.06 407.039 L1134.85 407.039 L1134.85 417.887 L1127.64 417.887  Z
  " fill="#e4f0f8" fill-rule="evenodd" fill-opacity="1"/>
<polyline clip-path="url(#clip534)" style="stroke:#000000; stroke-linecap:butt; stroke-linejoin:round; stroke-width:4; stroke-opacity:0; fill:none" points="
  1127.64,418.662 1134.85,418.662 1142.06,418.662 1149.28,418.662 1156.49,418.662 1163.7,418.662 
  1170.91,418.662 1178.12,418.662 1185.33,418.662 1192.54,418.662 1199.76,418.662 
  1206.97,418.662 1214.18,418.662 1221.39,418.662 1228.6,418.662 1235.81,418.662 
  1243.03,418.662 1250.24,418.662 1257.45,418.662 1264.66,418.662 1271.87,418.662 
  1279.08,418.662 1286.3,418.662 1293.51,418.662 1300.72,418.662 1307.93,418.662 
  1315.14,418.662 1322.35,418.662 1329.57,418.662 1336.78,418.662 1343.99,418.662 
  1351.2,418.662 1358.41,418.662 1365.62,418.662 1372.83,418.662 1380.05,418.662 
  1387.26,418.662 1394.47,418.662 1401.68,418.662 1408.89,418.662 1416.1,418.662 
  1423.32,418.662 1430.53,418.662 1437.74,418.662 1444.95,418.662 1452.16,418.662 
  1459.37,418.662 1466.59,418.662 1473.8,418.662 1481.01,418.662 1488.22,418.662 
  1495.43,418.662 1502.64,418.662 1509.86,418.662 1517.07,418.662 1524.28,418.662 
  1531.49,418.662 1538.7,418.662 1545.91,418.662 1553.12,418.662 1560.34,418.662 
  1567.55,418.662 1574.76,418.662 1581.97,418.662 1589.18,418.662 1596.39,418.662 
  1603.61,418.662 
  "/>
<polyline clip-path="url(#clip534)" style="stroke:#808080; stroke-linecap:butt; stroke-linejoin:round; stroke-width:2; stroke-opacity:0.8; fill:none" points="
  1127.64,417.887 1134.85,417.887 1134.85,407.039 1142.06,407.039 1142.06,376.046 1149.28,376.046 1149.28,300.887 1156.49,300.887 1156.49,237.351 1163.7,237.351 
  1163.7,139.722 1170.91,139.722 1170.91,77.7348 1178.12,77.7348 1178.12,90.907 1185.33,90.907 1185.33,66.1123 1192.54,66.1123 1192.54,117.251 1199.76,117.251 
  1199.76,149.794 1206.97,149.794 1206.97,198.609 1214.18,198.609 1214.18,204.033 1221.39,204.033 1221.39,231.152 1228.6,231.152 1228.6,251.298 1235.81,251.298 
  1235.81,252.847 1243.03,252.847 1243.03,276.867 1250.24,276.867 1250.24,280.741 1257.45,280.741 1257.45,278.417 1264.66,278.417 1264.66,293.139 1271.87,293.139 
  1271.87,282.291 1279.08,282.291 1279.08,260.596 1286.3,260.596 1286.3,265.245 1293.51,265.245 1293.51,286.165 1300.72,286.165 1300.72,292.364 1307.93,292.364 
  1307.93,282.291 1315.14,282.291 1315.14,293.914 1322.35,293.914 1322.35,278.417 1329.57,278.417 1329.57,295.463 1336.78,295.463 1336.78,282.291 1343.99,282.291 
  1343.99,287.715 1351.2,287.715 1351.2,279.192 1358.41,279.192 1358.41,264.47 1365.62,264.47 1365.62,293.914 1372.83,293.914 1372.83,283.066 1380.05,283.066 
  1380.05,302.437 1387.26,302.437 1387.26,283.066 1394.47,283.066 1394.47,273.768 1401.68,273.768 1401.68,283.066 1408.89,283.066 1408.89,297.013 1416.1,297.013 
  1416.1,274.543 1423.32,274.543 1423.32,286.94 1430.53,286.94 1430.53,290.039 1437.74,290.039 1437.74,310.96 1444.95,310.96 1444.95,286.94 1452.16,286.94 
  1452.16,312.51 1459.37,312.51 1459.37,331.106 1466.59,331.106 1466.59,334.205 1473.8,334.205 1473.8,345.827 1481.01,345.827 1481.01,361.324 1488.22,361.324 
  1488.22,365.973 1495.43,365.973 1495.43,373.721 1502.64,373.721 1502.64,382.245 1509.86,382.245 1509.86,390.768 1517.07,390.768 1517.07,392.317 1524.28,392.317 
  1524.28,405.49 1531.49,405.49 1531.49,404.715 1538.7,404.715 1538.7,406.265 1545.91,406.265 1545.91,405.49 1553.12,405.49 1553.12,409.364 1560.34,409.364 
  1560.34,414.788 1567.55,414.788 1567.55,415.563 1574.76,415.563 1574.76,417.112 1581.97,417.112 1589.18,417.112 1589.18,416.337 1596.39,416.337 
  1596.39,417.112 1603.61,417.112 1603.61,418.662 
  "/>
<polyline clip-path="url(#clip534)" style="stroke:#0088c3; stroke-linecap:butt; stroke-linejoin:round; stroke-width:6; stroke-opacity:0.9; fill:none" points="
  1127.64,416.16 1134.85,416.16 1134.85,403.28 1142.06,403.28 1142.06,368.784 1149.28,368.784 1149.28,306.92 1156.49,306.92 1156.49,225.578 1163.7,225.578 
  1163.7,144.868 1170.91,144.868 1170.91,86.5349 1178.12,86.5349 1178.12,62.8855 1185.33,62.8855 1185.33,72.7649 1192.54,72.7649 1192.54,105.296 1199.76,105.296 
  1199.76,146.876 1206.97,146.876 1206.97,186.732 1214.18,186.732 1214.18,219.098 1221.39,219.098 1221.39,242.604 1228.6,242.604 1228.6,258.475 1235.81,258.475 
  1235.81,268.836 1243.03,268.836 1243.03,275.651 1250.24,275.651 1250.24,280.31 1257.45,280.31 1257.45,283.626 1264.66,283.626 1264.66,285.995 1271.87,285.995 
  1271.87,287.584 1279.08,287.584 1279.08,288.469 1286.3,288.469 1286.3,288.713 1293.51,288.713 1293.51,288.407 1300.72,288.407 1300.72,287.665 1307.93,287.665 
  1307.93,286.615 1315.14,286.615 1315.14,285.383 1322.35,285.383 1322.35,284.07 1329.57,284.07 1329.57,282.756 1336.78,282.756 1336.78,281.489 1343.99,281.489 
  1343.99,280.302 1351.2,280.302 1351.2,279.213 1358.41,279.213 1358.41,278.257 1365.62,278.257 1365.62,277.483 1372.83,277.483 1372.83,276.97 1380.05,276.97 
  1380.05,276.829 1387.26,276.829 1387.26,277.198 1394.47,277.198 1394.47,278.23 1401.68,278.23 1401.68,280.072 1408.89,280.072 1408.89,282.856 1416.1,282.856 
  1416.1,286.674 1423.32,286.674 1423.32,291.57 1430.53,291.57 1430.53,297.524 1437.74,297.524 1437.74,304.455 1444.95,304.455 1444.95,312.23 1452.16,312.23 
  1452.16,320.665 1459.37,320.665 1459.37,329.547 1466.59,329.547 1466.59,338.643 1473.8,338.643 1473.8,347.73 1481.01,347.73 1481.01,356.59 1488.22,356.59 
  1488.22,365.042 1495.43,365.042 1495.43,372.935 1502.64,372.935 1502.64,380.162 1509.86,380.162 1509.86,386.655 1517.07,386.655 1517.07,392.384 1524.28,392.384 
  1524.28,397.35 1531.49,397.35 1531.49,401.587 1538.7,401.587 1538.7,405.143 1545.91,405.143 1545.91,408.083 1553.12,408.083 1553.12,410.477 1560.34,410.477 
  1560.34,412.399 1567.55,412.399 1567.55,413.922 1574.76,413.922 1574.76,415.112 1581.97,415.112 1581.97,416.03 1589.18,416.03 1589.18,416.73 1596.39,416.73 
  1596.39,417.258 1603.61,417.258 1603.61,417.651 
  "/>
<path clip-path="url(#clip530)" d="M1333.59 44.5896 L1341.23 44.5896 L1341.23 18.224 L1332.92 19.8906 L1332.92 15.6314 L1341.19 13.9647 L1345.86 13.9647 L1345.86 44.5896 L1353.5 44.5896 L1353.5 48.5247 L1333.59 48.5247 L1333.59 44.5896 Z" fill="#000000" fill-rule="evenodd" fill-opacity="1" /><path clip-path="url(#clip530)" d="M1372.94 17.0434 Q1369.33 17.0434 1367.5 20.6082 Q1365.7 24.1498 1365.7 31.2794 Q1365.7 38.3859 1367.5 41.9507 Q1369.33 45.4923 1372.94 45.4923 Q1376.58 45.4923 1378.38 41.9507 Q1380.21 38.3859 1380.21 31.2794 Q1380.21 24.1498 1378.38 20.6082 Q1376.58 17.0434 1372.94 17.0434 M1372.94 13.3397 Q1378.75 13.3397 1381.81 17.9462 Q1384.89 22.5295 1384.89 31.2794 Q1384.89 40.0062 1381.81 44.6127 Q1378.75 49.196 1372.94 49.196 Q1367.13 49.196 1364.06 44.6127 Q1361 40.0062 1361 31.2794 Q1361 22.5295 1364.06 17.9462 Q1367.13 13.3397 1372.94 13.3397 Z" fill="#000000" fill-rule="evenodd" fill-opacity="1" /><path clip-path="url(#clip530)" d="M1399.08 16.5341 L1391.93 26.2332 L1399.08 26.2332 L1399.08 16.5341 M1398.57 13.7332 L1402.41 13.7332 L1402.41 26.2332 L1405.54 26.2332 L1405.54 28.7563 L1402.41 28.7563 L1402.41 33.0618 L1399.08 33.0618 L1399.08 28.7563 L1389.49 28.7563 L1389.49 25.9554 L1398.57 13.7332 Z" fill="#000000" fill-rule="evenodd" fill-opacity="1" /></svg>
