<?xml version="1.0" encoding="utf-8"?>
<svg xmlns="http://www.w3.org/2000/svg" xmlns:xlink="http://www.w3.org/1999/xlink" width="350" height="130" viewBox="0 0 1400 520">
<defs>
  <clipPath id="clip490">
    <rect x="0" y="0" width="1400" height="520"/>
  </clipPath>
</defs>
<path clip-path="url(#clip490)" d="
M0 520 L1400 520 L1400 0 L0 0  Z
  " fill="#ffffff" fill-rule="evenodd" fill-opacity="1"/>
<defs>
  <clipPath id="clip491">
    <rect x="280" y="0" width="981" height="520"/>
  </clipPath>
</defs>
<path clip-path="url(#clip490)" d="
M188.516 422.926 L1368.5 422.926 L1368.5 15.748 L188.516 15.748  Z
  " fill="#ffffff" fill-rule="evenodd" fill-opacity="1"/>
<defs>
  <clipPath id="clip492">
    <rect x="188" y="15" width="1181" height="408"/>
  </clipPath>
</defs>
<polyline clip-path="url(#clip490)" style="stroke:#000000; stroke-linecap:butt; stroke-linejoin:round; stroke-width:4; stroke-opacity:1; fill:none" points="
  188.516,422.926 1368.5,422.926 
  "/>
<polyline clip-path="url(#clip490)" style="stroke:#000000; stroke-linecap:butt; stroke-linejoin:round; stroke-width:4; stroke-opacity:1; fill:none" points="
  188.516,422.926 188.516,441.823 
  "/>
<polyline clip-path="url(#clip490)" style="stroke:#000000; stroke-linecap:butt; stroke-linejoin:round; stroke-width:4; stroke-opacity:1; fill:none" points="
  482.045,422.926 482.045,441.823 
  "/>
<polyline clip-path="url(#clip490)" style="stroke:#000000; stroke-linecap:butt; stroke-linejoin:round; stroke-width:4; stroke-opacity:1; fill:none" points="
  775.575,422.926 775.575,441.823 
  "/>
<polyline clip-path="url(#clip490)" style="stroke:#000000; stroke-linecap:butt; stroke-linejoin:round; stroke-width:4; stroke-opacity:1; fill:none" points="
  1069.1,422.926 1069.1,441.823 
  "/>
<polyline clip-path="url(#clip490)" style="stroke:#000000; stroke-linecap:butt; stroke-linejoin:round; stroke-width:4; stroke-opacity:1; fill:none" points="
  1362.63,422.926 1362.63,441.823 
  "/>
<polyline clip-path="url(#clip490)" style="stroke:#000000; stroke-linecap:butt; stroke-linejoin:round; stroke-width:4; stroke-opacity:1; fill:none" points="
  247.222,422.926 247.222,432.374 
  "/>
<polyline clip-path="url(#clip490)" style="stroke:#000000; stroke-linecap:butt; stroke-linejoin:round; stroke-width:4; stroke-opacity:1; fill:none" points="
  305.928,422.926 305.928,432.374 
  "/>
<polyline clip-path="url(#clip490)" style="stroke:#000000; stroke-linecap:butt; stroke-linejoin:round; stroke-width:4; stroke-opacity:1; fill:none" points="
  364.634,422.926 364.634,432.374 
  "/>
<polyline clip-path="url(#clip490)" style="stroke:#000000; stroke-linecap:butt; stroke-linejoin:round; stroke-width:4; stroke-opacity:1; fill:none" points="
  423.34,422.926 423.34,432.374 
  "/>
<polyline clip-path="url(#clip490)" style="stroke:#000000; stroke-linecap:butt; stroke-linejoin:round; stroke-width:4; stroke-opacity:1; fill:none" points="
  540.751,422.926 540.751,432.374 
  "/>
<polyline clip-path="url(#clip490)" style="stroke:#000000; stroke-linecap:butt; stroke-linejoin:round; stroke-width:4; stroke-opacity:1; fill:none" points="
  599.457,422.926 599.457,432.374 
  "/>
<polyline clip-path="url(#clip490)" style="stroke:#000000; stroke-linecap:butt; stroke-linejoin:round; stroke-width:4; stroke-opacity:1; fill:none" points="
  658.163,422.926 658.163,432.374 
  "/>
<polyline clip-path="url(#clip490)" style="stroke:#000000; stroke-linecap:butt; stroke-linejoin:round; stroke-width:4; stroke-opacity:1; fill:none" points="
  716.869,422.926 716.869,432.374 
  "/>
<polyline clip-path="url(#clip490)" style="stroke:#000000; stroke-linecap:butt; stroke-linejoin:round; stroke-width:4; stroke-opacity:1; fill:none" points="
  834.281,422.926 834.281,432.374 
  "/>
<polyline clip-path="url(#clip490)" style="stroke:#000000; stroke-linecap:butt; stroke-linejoin:round; stroke-width:4; stroke-opacity:1; fill:none" points="
  892.986,422.926 892.986,432.374 
  "/>
<polyline clip-path="url(#clip490)" style="stroke:#000000; stroke-linecap:butt; stroke-linejoin:round; stroke-width:4; stroke-opacity:1; fill:none" points="
  951.692,422.926 951.692,432.374 
  "/>
<polyline clip-path="url(#clip490)" style="stroke:#000000; stroke-linecap:butt; stroke-linejoin:round; stroke-width:4; stroke-opacity:1; fill:none" points="
  1010.4,422.926 1010.4,432.374 
  "/>
<polyline clip-path="url(#clip490)" style="stroke:#000000; stroke-linecap:butt; stroke-linejoin:round; stroke-width:4; stroke-opacity:1; fill:none" points="
  1127.81,422.926 1127.81,432.374 
  "/>
<polyline clip-path="url(#clip490)" style="stroke:#000000; stroke-linecap:butt; stroke-linejoin:round; stroke-width:4; stroke-opacity:1; fill:none" points="
  1186.52,422.926 1186.52,432.374 
  "/>
<polyline clip-path="url(#clip490)" style="stroke:#000000; stroke-linecap:butt; stroke-linejoin:round; stroke-width:4; stroke-opacity:1; fill:none" points="
  1245.22,422.926 1245.22,432.374 
  "/>
<polyline clip-path="url(#clip490)" style="stroke:#000000; stroke-linecap:butt; stroke-linejoin:round; stroke-width:4; stroke-opacity:1; fill:none" points="
  1303.93,422.926 1303.93,432.374 
  "/>
<path clip-path="url(#clip490)" d="M188.516 448.515 Q185.808 448.515 184.436 451.188 Q183.082 453.844 183.082 459.192 Q183.082 464.521 184.436 467.195 Q185.808 469.851 188.516 469.851 Q191.242 469.851 192.596 467.195 Q193.967 464.521 193.967 459.192 Q193.967 453.844 192.596 451.188 Q191.242 448.515 188.516 448.515 M188.516 445.737 Q192.874 445.737 195.165 449.192 Q197.474 452.629 197.474 459.192 Q197.474 465.737 195.165 469.192 Q192.874 472.629 188.516 472.629 Q184.158 472.629 181.849 469.192 Q179.558 465.737 179.558 459.192 Q179.558 452.629 181.849 449.192 Q184.158 445.737 188.516 445.737 Z" fill="#000000" fill-rule="evenodd" fill-opacity="1" /><path clip-path="url(#clip490)" d="M466.499 469.174 L478.738 469.174 L478.738 472.126 L462.28 472.126 L462.28 469.174 Q464.276 467.108 467.714 463.636 Q471.169 460.146 472.054 459.14 Q473.738 457.247 474.398 455.945 Q475.075 454.626 475.075 453.358 Q475.075 451.292 473.617 449.99 Q472.176 448.688 469.849 448.688 Q468.2 448.688 466.36 449.261 Q464.537 449.834 462.453 450.997 L462.453 447.456 Q464.572 446.605 466.412 446.171 Q468.252 445.737 469.78 445.737 Q473.808 445.737 476.203 447.751 Q478.599 449.765 478.599 453.133 Q478.599 454.73 477.992 456.171 Q477.401 457.594 475.821 459.539 Q475.387 460.042 473.061 462.456 Q470.735 464.851 466.499 469.174 Z" fill="#000000" fill-rule="evenodd" fill-opacity="1" /><path clip-path="url(#clip490)" d="M486.134 446.206 L499.901 446.206 L499.901 449.157 L489.346 449.157 L489.346 455.511 Q490.11 455.251 490.873 455.129 Q491.637 454.99 492.401 454.99 Q496.742 454.99 499.276 457.369 Q501.811 459.747 501.811 463.81 Q501.811 467.994 499.207 470.32 Q496.603 472.629 491.863 472.629 Q490.231 472.629 488.53 472.351 Q486.846 472.074 485.04 471.518 L485.04 467.994 Q486.603 468.844 488.269 469.261 Q489.936 469.678 491.794 469.678 Q494.797 469.678 496.551 468.098 Q498.304 466.518 498.304 463.81 Q498.304 461.101 496.551 459.521 Q494.797 457.942 491.794 457.942 Q490.387 457.942 488.981 458.254 Q487.592 458.567 486.134 459.226 L486.134 446.206 Z" fill="#000000" fill-rule="evenodd" fill-opacity="1" /><path clip-path="url(#clip490)" d="M756.599 446.206 L770.366 446.206 L770.366 449.157 L759.811 449.157 L759.811 455.511 Q760.575 455.251 761.339 455.129 Q762.103 454.99 762.866 454.99 Q767.207 454.99 769.741 457.369 Q772.276 459.747 772.276 463.81 Q772.276 467.994 769.672 470.32 Q767.068 472.629 762.328 472.629 Q760.696 472.629 758.995 472.351 Q757.311 472.074 755.505 471.518 L755.505 467.994 Q757.068 468.844 758.735 469.261 Q760.401 469.678 762.259 469.678 Q765.262 469.678 767.016 468.098 Q768.769 466.518 768.769 463.81 Q768.769 461.101 767.016 459.521 Q765.262 457.942 762.259 457.942 Q760.853 457.942 759.446 458.254 Q758.057 458.567 756.599 459.226 L756.599 446.206 Z" fill="#000000" fill-rule="evenodd" fill-opacity="1" /><path clip-path="url(#clip490)" d="M786.686 448.515 Q783.977 448.515 782.606 451.188 Q781.252 453.844 781.252 459.192 Q781.252 464.521 782.606 467.195 Q783.977 469.851 786.686 469.851 Q789.411 469.851 790.766 467.195 Q792.137 464.521 792.137 459.192 Q792.137 453.844 790.766 451.188 Q789.411 448.515 786.686 448.515 M786.686 445.737 Q791.043 445.737 793.335 449.192 Q795.644 452.629 795.644 459.192 Q795.644 465.737 793.335 469.192 Q791.043 472.629 786.686 472.629 Q782.328 472.629 780.019 469.192 Q777.727 465.737 777.727 459.192 Q777.727 452.629 780.019 449.192 Q782.328 445.737 786.686 445.737 Z" fill="#000000" fill-rule="evenodd" fill-opacity="1" /><path clip-path="url(#clip490)" d="M1049.49 446.206 L1066.16 446.206 L1066.16 447.699 L1056.75 472.126 L1053.09 472.126 L1061.94 449.157 L1049.49 449.157 L1049.49 446.206 Z" fill="#000000" fill-rule="evenodd" fill-opacity="1" /><path clip-path="url(#clip490)" d="M1073.04 446.206 L1086.8 446.206 L1086.8 449.157 L1076.25 449.157 L1076.25 455.511 Q1077.01 455.251 1077.78 455.129 Q1078.54 454.99 1079.3 454.99 Q1083.64 454.99 1086.18 457.369 Q1088.71 459.747 1088.71 463.81 Q1088.71 467.994 1086.11 470.32 Q1083.5 472.629 1078.77 472.629 Q1077.13 472.629 1075.43 472.351 Q1073.75 472.074 1071.94 471.518 L1071.94 467.994 Q1073.51 468.844 1075.17 469.261 Q1076.84 469.678 1078.7 469.678 Q1081.7 469.678 1083.45 468.098 Q1085.21 466.518 1085.21 463.81 Q1085.21 461.101 1083.45 459.521 Q1081.7 457.942 1078.7 457.942 Q1077.29 457.942 1075.88 458.254 Q1074.49 458.567 1073.04 459.226 L1073.04 446.206 Z" fill="#000000" fill-rule="evenodd" fill-opacity="1" /><path clip-path="url(#clip490)" d="M1332.34 469.174 L1338.07 469.174 L1338.07 449.4 L1331.83 450.65 L1331.83 447.456 L1338.03 446.206 L1341.54 446.206 L1341.54 469.174 L1347.27 469.174 L1347.27 472.126 L1332.34 472.126 L1332.34 469.174 Z" fill="#000000" fill-rule="evenodd" fill-opacity="1" /><path clip-path="url(#clip490)" d="M1361.85 448.515 Q1359.14 448.515 1357.77 451.188 Q1356.42 453.844 1356.42 459.192 Q1356.42 464.521 1357.77 467.195 Q1359.14 469.851 1361.85 469.851 Q1364.58 469.851 1365.93 467.195 Q1367.3 464.521 1367.3 459.192 Q1367.3 453.844 1365.93 451.188 Q1364.58 448.515 1361.85 448.515 M1361.85 445.737 Q1366.21 445.737 1368.5 449.192 Q1370.81 452.629 1370.81 459.192 Q1370.81 465.737 1368.5 469.192 Q1366.21 472.629 1361.85 472.629 Q1357.49 472.629 1355.19 469.192 Q1352.89 465.737 1352.89 459.192 Q1352.89 452.629 1355.19 449.192 Q1357.49 445.737 1361.85 445.737 Z" fill="#000000" fill-rule="evenodd" fill-opacity="1" /><path clip-path="url(#clip490)" d="M1384.47 448.515 Q1381.77 448.515 1380.39 451.188 Q1379.04 453.844 1379.04 459.192 Q1379.04 464.521 1380.39 467.195 Q1381.77 469.851 1384.47 469.851 Q1387.2 469.851 1388.55 467.195 Q1389.92 464.521 1389.92 459.192 Q1389.92 453.844 1388.55 451.188 Q1387.2 448.515 1384.47 448.515 M1384.47 445.737 Q1388.83 445.737 1391.12 449.192 Q1393.43 452.629 1393.43 459.192 Q1393.43 465.737 1391.12 469.192 Q1388.83 472.629 1384.47 472.629 Q1380.12 472.629 1377.81 469.192 Q1375.52 465.737 1375.52 459.192 Q1375.52 452.629 1377.81 449.192 Q1380.12 445.737 1384.47 445.737 Z" fill="#000000" fill-rule="evenodd" fill-opacity="1" /><path clip-path="url(#clip490)" d="M735.897 487.99 L757.824 487.99 L757.824 490.941 L748.623 490.941 L748.623 513.91 L745.099 513.91 L745.099 490.941 L735.897 490.941 L735.897 487.99 Z" fill="#000000" fill-rule="evenodd" fill-opacity="1" /><path clip-path="url(#clip490)" d="M759.977 494.465 L763.172 494.465 L763.172 513.91 L759.977 513.91 L759.977 494.465 M759.977 486.896 L763.172 486.896 L763.172 490.941 L759.977 490.941 L759.977 486.896 Z" fill="#000000" fill-rule="evenodd" fill-opacity="1" /><path clip-path="url(#clip490)" d="M784.994 498.198 Q786.192 496.045 787.859 495.021 Q789.526 493.997 791.783 493.997 Q794.821 493.997 796.47 496.132 Q798.119 498.25 798.119 502.174 L798.119 513.91 L794.907 513.91 L794.907 502.278 Q794.907 499.483 793.918 498.128 Q792.928 496.774 790.897 496.774 Q788.414 496.774 786.974 498.424 Q785.533 500.073 785.533 502.92 L785.533 513.91 L782.321 513.91 L782.321 502.278 Q782.321 499.465 781.331 498.128 Q780.342 496.774 778.276 496.774 Q775.828 496.774 774.387 498.441 Q772.946 500.09 772.946 502.92 L772.946 513.91 L769.734 513.91 L769.734 494.465 L772.946 494.465 L772.946 497.486 Q774.04 495.698 775.567 494.847 Q777.095 493.997 779.196 493.997 Q781.314 493.997 782.79 495.073 Q784.283 496.149 784.994 498.198 Z" fill="#000000" fill-rule="evenodd" fill-opacity="1" /><path clip-path="url(#clip490)" d="M821.123 503.389 L821.123 504.951 L806.435 504.951 Q806.644 508.25 808.414 509.986 Q810.203 511.705 813.38 511.705 Q815.22 511.705 816.939 511.253 Q818.675 510.802 820.376 509.899 L820.376 512.92 Q818.657 513.649 816.852 514.031 Q815.046 514.413 813.189 514.413 Q808.536 514.413 805.81 511.705 Q803.102 508.996 803.102 504.378 Q803.102 499.604 805.671 496.809 Q808.258 493.997 812.633 493.997 Q816.557 493.997 818.831 496.531 Q821.123 499.049 821.123 503.389 M817.928 502.451 Q817.893 499.83 816.453 498.267 Q815.029 496.705 812.668 496.705 Q809.994 496.705 808.38 498.215 Q806.782 499.726 806.539 502.469 L817.928 502.451 Z" fill="#000000" fill-rule="evenodd" fill-opacity="1" /><polyline clip-path="url(#clip490)" style="stroke:#000000; stroke-linecap:butt; stroke-linejoin:round; stroke-width:4; stroke-opacity:1; fill:none" points="
  188.516,422.926 188.516,15.748 
  "/>
<polyline clip-path="url(#clip490)" style="stroke:#000000; stroke-linecap:butt; stroke-linejoin:round; stroke-width:4; stroke-opacity:1; fill:none" points="
  188.516,422.926 169.618,422.926 
  "/>
<polyline clip-path="url(#clip490)" style="stroke:#000000; stroke-linecap:butt; stroke-linejoin:round; stroke-width:4; stroke-opacity:1; fill:none" points="
  188.516,303.167 169.618,303.167 
  "/>
<polyline clip-path="url(#clip490)" style="stroke:#000000; stroke-linecap:butt; stroke-linejoin:round; stroke-width:4; stroke-opacity:1; fill:none" points="
  188.516,183.409 169.618,183.409 
  "/>
<polyline clip-path="url(#clip490)" style="stroke:#000000; stroke-linecap:butt; stroke-linejoin:round; stroke-width:4; stroke-opacity:1; fill:none" points="
  188.516,63.6513 169.618,63.6513 
  "/>
<path clip-path="url(#clip490)" d="M68.8916 412.275 Q66.1832 412.275 64.8117 414.948 Q63.4576 417.604 63.4576 422.952 Q63.4576 428.281 64.8117 430.955 Q66.1832 433.611 68.8916 433.611 Q71.6172 433.611 72.9714 430.955 Q74.3429 428.281 74.3429 422.952 Q74.3429 417.604 72.9714 414.948 Q71.6172 412.275 68.8916 412.275 M68.8916 409.497 Q73.2492 409.497 75.5408 412.952 Q77.8498 416.389 77.8498 422.952 Q77.8498 429.497 75.5408 432.952 Q73.2492 436.389 68.8916 436.389 Q64.5339 436.389 62.2249 432.952 Q59.9333 429.497 59.9333 422.952 Q59.9333 416.389 62.2249 412.952 Q64.5339 409.497 68.8916 409.497 Z" fill="#000000" fill-rule="evenodd" fill-opacity="1" /><path clip-path="url(#clip490)" d="M84.013 431.476 L87.6762 431.476 L87.6762 435.886 L84.013 435.886 L84.013 431.476 Z" fill="#000000" fill-rule="evenodd" fill-opacity="1" /><path clip-path="url(#clip490)" d="M102.815 412.275 Q100.107 412.275 98.7351 414.948 Q97.381 417.604 97.381 422.952 Q97.381 428.281 98.7351 430.955 Q100.107 433.611 102.815 433.611 Q105.541 433.611 106.895 430.955 Q108.266 428.281 108.266 422.952 Q108.266 417.604 106.895 414.948 Q105.541 412.275 102.815 412.275 M102.815 409.497 Q107.173 409.497 109.464 412.952 Q111.773 416.389 111.773 422.952 Q111.773 429.497 109.464 432.952 Q107.173 436.389 102.815 436.389 Q98.4574 436.389 96.1484 432.952 Q93.8567 429.497 93.8567 422.952 Q93.8567 416.389 96.1484 412.952 Q98.4574 409.497 102.815 409.497 Z" fill="#000000" fill-rule="evenodd" fill-opacity="1" /><path clip-path="url(#clip490)" d="M128.561 421.91 Q131.079 422.448 132.485 424.15 Q133.909 425.851 133.909 428.351 Q133.909 432.188 131.27 434.288 Q128.631 436.389 123.77 436.389 Q122.138 436.389 120.402 436.059 Q118.683 435.747 116.843 435.104 L116.843 431.719 Q118.301 432.57 120.037 433.004 Q121.773 433.438 123.666 433.438 Q126.964 433.438 128.683 432.136 Q130.419 430.834 130.419 428.351 Q130.419 426.059 128.804 424.775 Q127.207 423.472 124.343 423.472 L121.322 423.472 L121.322 420.591 L124.482 420.591 Q127.068 420.591 128.44 419.566 Q129.811 418.525 129.811 416.58 Q129.811 414.584 128.388 413.525 Q126.982 412.448 124.343 412.448 Q122.902 412.448 121.252 412.761 Q119.603 413.073 117.624 413.733 L117.624 410.608 Q119.62 410.052 121.357 409.775 Q123.11 409.497 124.655 409.497 Q128.648 409.497 130.975 411.32 Q133.301 413.125 133.301 416.216 Q133.301 418.368 132.068 419.861 Q130.836 421.337 128.561 421.91 Z" fill="#000000" fill-rule="evenodd" fill-opacity="1" /><path clip-path="url(#clip490)" d="M148.058 412.275 Q145.349 412.275 143.978 414.948 Q142.624 417.604 142.624 422.952 Q142.624 428.281 143.978 430.955 Q145.349 433.611 148.058 433.611 Q150.783 433.611 152.138 430.955 Q153.509 428.281 153.509 422.952 Q153.509 417.604 152.138 414.948 Q150.783 412.275 148.058 412.275 M148.058 409.497 Q152.415 409.497 154.707 412.952 Q157.016 416.389 157.016 422.952 Q157.016 429.497 154.707 432.952 Q152.415 436.389 148.058 436.389 Q143.7 436.389 141.391 432.952 Q139.1 429.497 139.1 422.952 Q139.1 416.389 141.391 412.952 Q143.7 409.497 148.058 409.497 Z" fill="#000000" fill-rule="evenodd" fill-opacity="1" /><path clip-path="url(#clip490)" d="M69.6381 292.516 Q66.9298 292.516 65.5582 295.19 Q64.2041 297.846 64.2041 303.194 Q64.2041 308.523 65.5582 311.197 Q66.9298 313.853 69.6381 313.853 Q72.3638 313.853 73.7179 311.197 Q75.0894 308.523 75.0894 303.194 Q75.0894 297.846 73.7179 295.19 Q72.3638 292.516 69.6381 292.516 M69.6381 289.739 Q73.9957 289.739 76.2873 293.194 Q78.5964 296.631 78.5964 303.194 Q78.5964 309.739 76.2873 313.193 Q73.9957 316.631 69.6381 316.631 Q65.2805 316.631 62.9714 313.193 Q60.6798 309.739 60.6798 303.194 Q60.6798 296.631 62.9714 293.194 Q65.2805 289.739 69.6381 289.739 Z" fill="#000000" fill-rule="evenodd" fill-opacity="1" /><path clip-path="url(#clip490)" d="M84.7595 311.718 L88.4227 311.718 L88.4227 316.127 L84.7595 316.127 L84.7595 311.718 Z" fill="#000000" fill-rule="evenodd" fill-opacity="1" /><path clip-path="url(#clip490)" d="M103.562 292.516 Q100.853 292.516 99.4817 295.19 Q98.1275 297.846 98.1275 303.194 Q98.1275 308.523 99.4817 311.197 Q100.853 313.853 103.562 313.853 Q106.287 313.853 107.641 311.197 Q109.013 308.523 109.013 303.194 Q109.013 297.846 107.641 295.19 Q106.287 292.516 103.562 292.516 M103.562 289.739 Q107.919 289.739 110.211 293.194 Q112.52 296.631 112.52 303.194 Q112.52 309.739 110.211 313.193 Q107.919 316.631 103.562 316.631 Q99.2039 316.631 96.8949 313.193 Q94.6032 309.739 94.6032 303.194 Q94.6032 296.631 96.8949 293.194 Q99.2039 289.739 103.562 289.739 Z" fill="#000000" fill-rule="evenodd" fill-opacity="1" /><path clip-path="url(#clip490)" d="M129.308 302.152 Q131.825 302.69 133.231 304.391 Q134.655 306.093 134.655 308.593 Q134.655 312.43 132.016 314.53 Q129.377 316.631 124.516 316.631 Q122.884 316.631 121.148 316.301 Q119.429 315.989 117.589 315.346 L117.589 311.961 Q119.048 312.812 120.784 313.246 Q122.52 313.68 124.412 313.68 Q127.711 313.68 129.429 312.378 Q131.166 311.075 131.166 308.593 Q131.166 306.301 129.551 305.016 Q127.954 303.714 125.089 303.714 L122.068 303.714 L122.068 300.832 L125.228 300.832 Q127.815 300.832 129.186 299.808 Q130.558 298.766 130.558 296.822 Q130.558 294.826 129.134 293.766 Q127.728 292.69 125.089 292.69 Q123.648 292.69 121.999 293.003 Q120.35 293.315 118.37 293.975 L118.37 290.85 Q120.367 290.294 122.103 290.017 Q123.857 289.739 125.402 289.739 Q129.395 289.739 131.721 291.562 Q134.047 293.367 134.047 296.457 Q134.047 298.61 132.815 300.103 Q131.582 301.579 129.308 302.152 Z" fill="#000000" fill-rule="evenodd" fill-opacity="1" /><path clip-path="url(#clip490)" d="M141.339 290.207 L155.106 290.207 L155.106 293.159 L144.551 293.159 L144.551 299.513 Q145.315 299.253 146.079 299.131 Q146.843 298.992 147.606 298.992 Q151.947 298.992 154.481 301.371 Q157.016 303.749 157.016 307.812 Q157.016 311.996 154.412 314.322 Q151.808 316.631 147.068 316.631 Q145.436 316.631 143.735 316.353 Q142.051 316.075 140.245 315.52 L140.245 311.996 Q141.808 312.846 143.474 313.263 Q145.141 313.68 146.999 313.68 Q150.002 313.68 151.756 312.1 Q153.509 310.52 153.509 307.812 Q153.509 305.103 151.756 303.523 Q150.002 301.944 146.999 301.944 Q145.593 301.944 144.186 302.256 Q142.797 302.569 141.339 303.228 L141.339 290.207 Z" fill="#000000" fill-rule="evenodd" fill-opacity="1" /><path clip-path="url(#clip490)" d="M68.8916 172.758 Q66.1832 172.758 64.8117 175.432 Q63.4576 178.088 63.4576 183.435 Q63.4576 188.765 64.8117 191.439 Q66.1832 194.095 68.8916 194.095 Q71.6172 194.095 72.9714 191.439 Q74.3429 188.765 74.3429 183.435 Q74.3429 178.088 72.9714 175.432 Q71.6172 172.758 68.8916 172.758 M68.8916 169.981 Q73.2492 169.981 75.5408 173.435 Q77.8498 176.873 77.8498 183.435 Q77.8498 189.981 75.5408 193.435 Q73.2492 196.873 68.8916 196.873 Q64.5339 196.873 62.2249 193.435 Q59.9333 189.981 59.9333 183.435 Q59.9333 176.873 62.2249 173.435 Q64.5339 169.981 68.8916 169.981 Z" fill="#000000" fill-rule="evenodd" fill-opacity="1" /><path clip-path="url(#clip490)" d="M84.013 191.96 L87.6762 191.96 L87.6762 196.369 L84.013 196.369 L84.013 191.96 Z" fill="#000000" fill-rule="evenodd" fill-opacity="1" /><path clip-path="url(#clip490)" d="M102.815 172.758 Q100.107 172.758 98.7351 175.432 Q97.381 178.088 97.381 183.435 Q97.381 188.765 98.7351 191.439 Q100.107 194.095 102.815 194.095 Q105.541 194.095 106.895 191.439 Q108.266 188.765 108.266 183.435 Q108.266 178.088 106.895 175.432 Q105.541 172.758 102.815 172.758 M102.815 169.981 Q107.173 169.981 109.464 173.435 Q111.773 176.873 111.773 183.435 Q111.773 189.981 109.464 193.435 Q107.173 196.873 102.815 196.873 Q98.4574 196.873 96.1484 193.435 Q93.8567 189.981 93.8567 183.435 Q93.8567 176.873 96.1484 173.435 Q98.4574 169.981 102.815 169.981 Z" fill="#000000" fill-rule="evenodd" fill-opacity="1" /><path clip-path="url(#clip490)" d="M127.572 173.505 L118.718 187.342 L127.572 187.342 L127.572 173.505 M126.652 170.449 L131.061 170.449 L131.061 187.342 L134.759 187.342 L134.759 190.258 L131.061 190.258 L131.061 196.369 L127.572 196.369 L127.572 190.258 L115.87 190.258 L115.87 186.873 L126.652 170.449 Z" fill="#000000" fill-rule="evenodd" fill-opacity="1" /><path clip-path="url(#clip490)" d="M148.058 172.758 Q145.349 172.758 143.978 175.432 Q142.624 178.088 142.624 183.435 Q142.624 188.765 143.978 191.439 Q145.349 194.095 148.058 194.095 Q150.783 194.095 152.138 191.439 Q153.509 188.765 153.509 183.435 Q153.509 178.088 152.138 175.432 Q150.783 172.758 148.058 172.758 M148.058 169.981 Q152.415 169.981 154.707 173.435 Q157.016 176.873 157.016 183.435 Q157.016 189.981 154.707 193.435 Q152.415 196.873 148.058 196.873 Q143.7 196.873 141.391 193.435 Q139.1 189.981 139.1 183.435 Q139.1 176.873 141.391 173.435 Q143.7 169.981 148.058 169.981 Z" fill="#000000" fill-rule="evenodd" fill-opacity="1" /><path clip-path="url(#clip490)" d="M69.6381 53.0003 Q66.9298 53.0003 65.5582 55.6739 Q64.2041 58.3301 64.2041 63.6773 Q64.2041 69.0071 65.5582 71.6807 Q66.9298 74.337 69.6381 74.337 Q72.3638 74.337 73.7179 71.6807 Q75.0894 69.0071 75.0894 63.6773 Q75.0894 58.3301 73.7179 55.6739 Q72.3638 53.0003 69.6381 53.0003 M69.6381 50.2225 Q73.9957 50.2225 76.2873 53.6774 Q78.5964 57.1149 78.5964 63.6773 Q78.5964 70.2224 76.2873 73.6773 Q73.9957 77.1147 69.6381 77.1147 Q65.2805 77.1147 62.9714 73.6773 Q60.6798 70.2224 60.6798 63.6773 Q60.6798 57.1149 62.9714 53.6774 Q65.2805 50.2225 69.6381 50.2225 Z" fill="#000000" fill-rule="evenodd" fill-opacity="1" /><path clip-path="url(#clip490)" d="M84.7595 72.2016 L88.4227 72.2016 L88.4227 76.6113 L84.7595 76.6113 L84.7595 72.2016 Z" fill="#000000" fill-rule="evenodd" fill-opacity="1" /><path clip-path="url(#clip490)" d="M103.562 53.0003 Q100.853 53.0003 99.4817 55.6739 Q98.1275 58.3301 98.1275 63.6773 Q98.1275 69.0071 99.4817 71.6807 Q100.853 74.337 103.562 74.337 Q106.287 74.337 107.641 71.6807 Q109.013 69.0071 109.013 63.6773 Q109.013 58.3301 107.641 55.6739 Q106.287 53.0003 103.562 53.0003 M103.562 50.2225 Q107.919 50.2225 110.211 53.6774 Q112.52 57.1149 112.52 63.6773 Q112.52 70.2224 110.211 73.6773 Q107.919 77.1147 103.562 77.1147 Q99.2039 77.1147 96.8949 73.6773 Q94.6032 70.2224 94.6032 63.6773 Q94.6032 57.1149 96.8949 53.6774 Q99.2039 50.2225 103.562 50.2225 Z" fill="#000000" fill-rule="evenodd" fill-opacity="1" /><path clip-path="url(#clip490)" d="M128.318 53.7468 L119.464 67.5835 L128.318 67.5835 L128.318 53.7468 M127.398 50.6913 L131.808 50.6913 L131.808 67.5835 L135.506 67.5835 L135.506 70.5002 L131.808 70.5002 L131.808 76.6113 L128.318 76.6113 L128.318 70.5002 L116.617 70.5002 L116.617 67.1148 L127.398 50.6913 Z" fill="#000000" fill-rule="evenodd" fill-opacity="1" /><path clip-path="url(#clip490)" d="M141.339 50.6913 L155.106 50.6913 L155.106 53.6426 L144.551 53.6426 L144.551 59.9968 Q145.315 59.7364 146.079 59.6148 Q146.843 59.4759 147.606 59.4759 Q151.947 59.4759 154.481 61.8544 Q157.016 64.2329 157.016 68.2953 Q157.016 72.4794 154.412 74.8057 Q151.808 77.1147 147.068 77.1147 Q145.436 77.1147 143.735 76.837 Q142.051 76.5592 140.245 76.0036 L140.245 72.4794 Q141.808 73.33 143.474 73.7467 Q145.141 74.1634 146.999 74.1634 Q150.002 74.1634 151.756 72.5835 Q153.509 71.0037 153.509 68.2953 Q153.509 65.587 151.756 64.0072 Q150.002 62.4273 146.999 62.4273 Q145.593 62.4273 144.186 62.7398 Q142.797 63.0523 141.339 63.712 L141.339 50.6913 Z" fill="#000000" fill-rule="evenodd" fill-opacity="1" /><path clip-path="url(#clip490)" d="M15.7373 377.548 L15.7373 374.041 L26.3622 374.041 L26.3622 361.298 L15.7373 361.298 L15.7373 357.791 L41.6573 357.791 L41.6573 361.298 L29.3136 361.298 L29.3136 374.041 L41.6573 374.041 L41.6573 377.548 L15.7373 377.548 Z" fill="#000000" fill-rule="evenodd" fill-opacity="1" /><path clip-path="url(#clip490)" d="M31.1365 334.319 L32.699 334.319 L32.699 349.006 Q35.9976 348.798 37.7337 347.027 Q39.4524 345.239 39.4524 342.062 Q39.4524 340.222 39.001 338.503 Q38.5496 336.767 37.6469 335.065 L40.6677 335.065 Q41.3969 336.784 41.7788 338.59 Q42.1607 340.395 42.1607 342.253 Q42.1607 346.906 39.4524 349.631 Q36.7441 352.34 32.1261 352.34 Q27.3518 352.34 24.5567 349.77 Q21.7442 347.183 21.7442 342.808 Q21.7442 338.885 24.2789 336.61 Q26.7962 334.319 31.1365 334.319 M30.199 337.513 Q27.5775 337.548 26.015 338.989 Q24.4525 340.413 24.4525 342.774 Q24.4525 345.447 25.9629 347.062 Q27.4733 348.659 30.2164 348.902 L30.199 337.513 Z" fill="#000000" fill-rule="evenodd" fill-opacity="1" /><path clip-path="url(#clip490)" d="M14.6435 329.076 L14.6435 325.881 L41.6573 325.881 L41.6573 329.076 L14.6435 329.076 Z" fill="#000000" fill-rule="evenodd" fill-opacity="1" /><path clip-path="url(#clip490)" d="M14.6435 319.197 L14.6435 316.003 L41.6573 316.003 L41.6573 319.197 L14.6435 319.197 Z" fill="#000000" fill-rule="evenodd" fill-opacity="1" /><path clip-path="url(#clip490)" d="M22.2129 309.319 L22.2129 306.125 L41.6573 306.125 L41.6573 309.319 L22.2129 309.319 M14.6435 309.319 L14.6435 306.125 L18.6886 306.125 L18.6886 309.319 L14.6435 309.319 Z" fill="#000000" fill-rule="evenodd" fill-opacity="1" /><path clip-path="url(#clip490)" d="M29.9212 283.277 L41.6573 283.277 L41.6573 286.472 L30.0254 286.472 Q27.265 286.472 25.8935 287.548 Q24.5219 288.625 24.5219 290.777 Q24.5219 293.364 26.1712 294.857 Q27.8205 296.35 30.6677 296.35 L41.6573 296.35 L41.6573 299.562 L22.2129 299.562 L22.2129 296.35 L25.2337 296.35 Q23.4803 295.204 22.6122 293.659 Q21.7442 292.097 21.7442 290.066 Q21.7442 286.715 23.8275 284.996 Q25.8935 283.277 29.9212 283.277 Z" fill="#000000" fill-rule="evenodd" fill-opacity="1" /><path clip-path="url(#clip490)" d="M31.7094 264.111 Q28.2372 264.111 26.3275 265.552 Q24.4178 266.975 24.4178 269.562 Q24.4178 272.132 26.3275 273.573 Q28.2372 274.996 31.7094 274.996 Q35.1642 274.996 37.074 273.573 Q38.9837 272.132 38.9837 269.562 Q38.9837 266.975 37.074 265.552 Q35.1642 264.111 31.7094 264.111 M39.2441 260.916 Q44.2093 260.916 46.6225 263.121 Q49.0531 265.326 49.0531 269.875 Q49.0531 271.559 48.7926 273.052 Q48.5496 274.545 48.0288 275.951 L44.9211 275.951 Q45.685 274.545 46.0496 273.173 Q46.4142 271.802 46.4142 270.378 Q46.4142 267.236 44.7649 265.673 Q43.133 264.111 39.817 264.111 L38.2371 264.111 Q39.9559 265.1 40.8066 266.646 Q41.6573 268.191 41.6573 270.343 Q41.6573 273.92 38.9316 276.107 Q36.2059 278.295 31.7094 278.295 Q27.1955 278.295 24.4699 276.107 Q21.7442 273.92 21.7442 270.343 Q21.7442 268.191 22.5949 266.646 Q23.4456 265.1 25.1643 264.111 L22.2129 264.111 L22.2129 260.916 L39.2441 260.916 Z" fill="#000000" fill-rule="evenodd" fill-opacity="1" /><path clip-path="url(#clip490)" d="M31.1365 237.705 L32.699 237.705 L32.699 252.392 Q35.9976 252.184 37.7337 250.413 Q39.4524 248.625 39.4524 245.448 Q39.4524 243.608 39.001 241.889 Q38.5496 240.153 37.6469 238.451 L40.6677 238.451 Q41.3969 240.17 41.7788 241.976 Q42.1607 243.781 42.1607 245.639 Q42.1607 250.292 39.4524 253.017 Q36.7441 255.726 32.1261 255.726 Q27.3518 255.726 24.5567 253.156 Q21.7442 250.569 21.7442 246.194 Q21.7442 242.271 24.2789 239.996 Q26.7962 237.705 31.1365 237.705 M30.199 240.899 Q27.5775 240.934 26.015 242.375 Q24.4525 243.798 24.4525 246.16 Q24.4525 248.833 25.9629 250.448 Q27.4733 252.045 30.2164 252.288 L30.199 240.899 Z" fill="#000000" fill-rule="evenodd" fill-opacity="1" /><path clip-path="url(#clip490)" d="M25.199 221.194 Q24.8865 221.733 24.7476 222.375 Q24.5914 223 24.5914 223.764 Q24.5914 226.472 26.3622 227.931 Q28.1157 229.371 31.4143 229.371 L41.6573 229.371 L41.6573 232.583 L22.2129 232.583 L22.2129 229.371 L25.2337 229.371 Q23.4629 228.365 22.6122 226.75 Q21.7442 225.135 21.7442 222.826 Q21.7442 222.497 21.7963 222.097 Q21.831 221.698 21.9178 221.212 L25.199 221.194 Z" fill="#000000" fill-rule="evenodd" fill-opacity="1" /><path clip-path="url(#clip490)" d="M25.1643 193.747 L14.6435 193.747 L14.6435 190.552 L41.6573 190.552 L41.6573 193.747 L38.7406 193.747 Q40.4767 194.754 41.3274 196.299 Q42.1607 197.827 42.1607 199.979 Q42.1607 203.504 39.3483 205.726 Q36.5358 207.931 31.9525 207.931 Q27.3692 207.931 24.5567 205.726 Q21.7442 203.504 21.7442 199.979 Q21.7442 197.827 22.5949 196.299 Q23.4282 194.754 25.1643 193.747 M31.9525 204.632 Q35.4767 204.632 37.4906 203.191 Q39.4871 201.733 39.4871 199.198 Q39.4871 196.663 37.4906 195.205 Q35.4767 193.747 31.9525 193.747 Q28.4282 193.747 26.4317 195.205 Q24.4178 196.663 24.4178 199.198 Q24.4178 201.733 26.4317 203.191 Q28.4282 204.632 31.9525 204.632 Z" fill="#000000" fill-rule="evenodd" fill-opacity="1" /><path clip-path="url(#clip490)" d="M22.2129 183.972 L22.2129 180.778 L41.6573 180.778 L41.6573 183.972 L22.2129 183.972 M14.6435 183.972 L14.6435 180.778 L18.6886 180.778 L18.6886 183.972 L14.6435 183.972 Z" fill="#000000" fill-rule="evenodd" fill-opacity="1" /><path clip-path="url(#clip490)" d="M22.7858 161.698 L25.8067 161.698 Q25.1122 163.052 24.765 164.511 Q24.4178 165.969 24.4178 167.532 Q24.4178 169.91 25.1469 171.108 Q25.8761 172.288 27.3344 172.288 Q28.4455 172.288 29.0879 171.438 Q29.7129 170.587 30.2858 168.018 L30.5289 166.924 Q31.258 163.521 32.5948 162.098 Q33.9143 160.657 36.2927 160.657 Q39.001 160.657 40.5809 162.809 Q42.1607 164.945 42.1607 168.695 Q42.1607 170.257 41.8482 171.959 Q41.5531 173.643 40.9455 175.518 L37.6469 175.518 Q38.567 173.747 39.0358 172.028 Q39.4871 170.309 39.4871 168.625 Q39.4871 166.368 38.7233 165.153 Q37.942 163.938 36.5358 163.938 Q35.2337 163.938 34.5393 164.823 Q33.8448 165.691 33.2025 168.66 L32.942 169.771 Q32.317 172.74 31.0323 174.059 Q29.7302 175.379 27.4733 175.379 Q24.7303 175.379 23.2372 173.434 Q21.7442 171.49 21.7442 167.913 Q21.7442 166.143 22.0046 164.58 Q22.265 163.018 22.7858 161.698 Z" fill="#000000" fill-rule="evenodd" fill-opacity="1" /><path clip-path="url(#clip490)" d="M16.6921 152.41 L22.2129 152.41 L22.2129 145.83 L24.6956 145.83 L24.6956 152.41 L35.2511 152.41 Q37.6295 152.41 38.3066 151.768 Q38.9837 151.108 38.9837 149.111 L38.9837 145.83 L41.6573 145.83 L41.6573 149.111 Q41.6573 152.809 40.2857 154.216 Q38.8969 155.622 35.2511 155.622 L24.6956 155.622 L24.6956 157.966 L22.2129 157.966 L22.2129 155.622 L16.6921 155.622 L16.6921 152.41 Z" fill="#000000" fill-rule="evenodd" fill-opacity="1" /><path clip-path="url(#clip490)" d="M31.883 132.792 Q31.883 136.664 32.7684 138.157 Q33.6538 139.65 35.7892 139.65 Q37.4906 139.65 38.4976 138.539 Q39.4871 137.41 39.4871 135.483 Q39.4871 132.827 37.6122 131.23 Q35.7198 129.615 32.5948 129.615 L31.883 129.615 L31.883 132.792 M30.5636 126.421 L41.6573 126.421 L41.6573 129.615 L38.7059 129.615 Q40.4767 130.709 41.3274 132.341 Q42.1607 133.973 42.1607 136.334 Q42.1607 139.32 40.4941 141.091 Q38.8101 142.844 35.9976 142.844 Q32.7163 142.844 31.0497 140.657 Q29.383 138.452 29.383 134.094 L29.383 129.615 L29.0705 129.615 Q26.8657 129.615 25.6678 131.073 Q24.4525 132.514 24.4525 135.136 Q24.4525 136.803 24.8518 138.382 Q25.2511 139.962 26.0497 141.421 L23.0983 141.421 Q22.4213 139.667 22.0914 138.018 Q21.7442 136.369 21.7442 134.806 Q21.7442 130.587 23.9317 128.504 Q26.1192 126.421 30.5636 126.421 Z" fill="#000000" fill-rule="evenodd" fill-opacity="1" /><path clip-path="url(#clip490)" d="M29.9212 103.678 L41.6573 103.678 L41.6573 106.872 L30.0254 106.872 Q27.265 106.872 25.8935 107.949 Q24.5219 109.025 24.5219 111.178 Q24.5219 113.764 26.1712 115.258 Q27.8205 116.751 30.6677 116.751 L41.6573 116.751 L41.6573 119.962 L22.2129 119.962 L22.2129 116.751 L25.2337 116.751 Q23.4803 115.605 22.6122 114.06 Q21.7442 112.497 21.7442 110.466 Q21.7442 107.115 23.8275 105.396 Q25.8935 103.678 29.9212 103.678 Z" fill="#000000" fill-rule="evenodd" fill-opacity="1" /><path clip-path="url(#clip490)" d="M22.9595 83.3132 L25.9455 83.3132 Q25.199 84.6674 24.8344 86.0389 Q24.4525 87.3931 24.4525 88.782 Q24.4525 91.8896 26.4317 93.6083 Q28.3935 95.3271 31.9525 95.3271 Q35.5115 95.3271 37.4906 93.6083 Q39.4524 91.8896 39.4524 88.782 Q39.4524 87.3931 39.0878 86.0389 Q38.7059 84.6674 37.9594 83.3132 L40.9107 83.3132 Q41.5357 84.65 41.8482 86.091 Q42.1607 87.5146 42.1607 89.1292 Q42.1607 93.5215 39.4003 96.1083 Q36.6399 98.6951 31.9525 98.6951 Q27.1955 98.6951 24.4699 96.0909 Q21.7442 93.4694 21.7442 88.9208 Q21.7442 87.4452 22.0567 86.0389 Q22.3518 84.6327 22.9595 83.3132 Z" fill="#000000" fill-rule="evenodd" fill-opacity="1" /><path clip-path="url(#clip490)" d="M31.1365 61.1259 L32.699 61.1259 L32.699 75.8133 Q35.9976 75.6049 37.7337 73.8341 Q39.4524 72.0459 39.4524 68.8689 Q39.4524 67.0286 39.001 65.3099 Q38.5496 63.5738 37.6469 61.8724 L40.6677 61.8724 Q41.3969 63.5911 41.7788 65.3967 Q42.1607 67.2022 42.1607 69.0598 Q42.1607 73.7126 39.4524 76.4383 Q36.7441 79.1466 32.1261 79.1466 Q27.3518 79.1466 24.5567 76.5772 Q21.7442 73.9904 21.7442 69.6154 Q21.7442 65.6918 24.2789 63.4175 Q26.7962 61.1259 31.1365 61.1259 M30.199 64.3203 Q27.5775 64.355 26.015 65.796 Q24.4525 67.2196 24.4525 69.5807 Q24.4525 72.2543 25.9629 73.8688 Q27.4733 75.4661 30.2164 75.7091 L30.199 64.3203 Z" fill="#000000" fill-rule="evenodd" fill-opacity="1" /><polyline clip-path="url(#clip492)" style="stroke:#808080; stroke-linecap:butt; stroke-linejoin:round; stroke-width:6; stroke-opacity:0.9; fill:none" stroke-dasharray="24, 15" points="
  211.998,830.103 211.998,-391.43 
  "/>
<polyline clip-path="url(#clip492)" style="stroke:#808080; stroke-linecap:butt; stroke-linejoin:round; stroke-width:6; stroke-opacity:0.9; fill:none" stroke-dasharray="24, 15" points="
  235.481,830.103 235.481,-391.43 
  "/>
<polyline clip-path="url(#clip492)" style="stroke:#808080; stroke-linecap:butt; stroke-linejoin:round; stroke-width:6; stroke-opacity:0.9; fill:none" stroke-dasharray="24, 15" points="
  305.928,830.103 305.928,-391.43 
  "/>
<polyline clip-path="url(#clip492)" style="stroke:#808080; stroke-linecap:butt; stroke-linejoin:round; stroke-width:6; stroke-opacity:0.9; fill:none" stroke-dasharray="24, 15" points="
  376.375,830.103 376.375,-391.43 
  "/>
<polyline clip-path="url(#clip492)" style="stroke:#808080; stroke-linecap:butt; stroke-linejoin:round; stroke-width:6; stroke-opacity:0.9; fill:none" stroke-dasharray="24, 15" points="
  564.234,830.103 564.234,-391.43 
  "/>
<polyline clip-path="url(#clip492)" style="stroke:#808080; stroke-linecap:butt; stroke-linejoin:round; stroke-width:6; stroke-opacity:0.9; fill:none" stroke-dasharray="24, 15" points="
  775.575,830.103 775.575,-391.43 
  "/>
<polyline clip-path="url(#clip492)" style="stroke:#808080; stroke-linecap:butt; stroke-linejoin:round; stroke-width:6; stroke-opacity:0.9; fill:none" stroke-dasharray="24, 15" points="
  1057.36,830.103 1057.36,-391.43 
  "/>
<polyline clip-path="url(#clip492)" style="stroke:#808080; stroke-linecap:butt; stroke-linejoin:round; stroke-width:6; stroke-opacity:0.9; fill:none" stroke-dasharray="24, 15" points="
  1362.63,830.103 1362.63,-391.43 
  "/>
<polyline clip-path="url(#clip492)" style="stroke:#0d89c4; stroke-linecap:butt; stroke-linejoin:round; stroke-width:6; stroke-opacity:1; fill:none" points="
  200.257,-10455.6 211.998,344.553 223.74,175.352 235.481,293.946 247.222,214.539 258.963,191.012 270.704,203.891 282.445,212.649 294.187,214.245 305.928,213.481 
  317.669,209.67 329.41,203.723 341.151,199.431 352.892,192.016 364.634,185.924 376.375,179.636 388.116,173.324 399.857,168.707 411.598,164.009 423.34,161.066 
  435.081,158.715 446.822,155.861 458.563,150.724 470.304,149.798 482.045,145.835 493.787,143.813 505.528,139.469 517.269,139.176 529.01,136.946 540.751,134.349 
  552.492,130.52 564.234,130.933 575.975,129.676 587.716,127.307 599.457,126.212 611.198,124.191 622.939,120.264 634.681,120.099 646.422,115.746 658.163,117.011 
  669.904,115.637 681.645,116.362 693.387,113.474 705.128,111.598 716.869,110.592 728.61,109.273 740.351,109.284 752.092,107.978 763.834,106.895 775.575,104.485 
  787.316,104.793 799.057,103.194 810.798,100.049 822.539,98.6285 834.281,97.6985 846.022,96.8648 857.763,94.2551 869.504,94.4525 881.245,92.7973 892.986,92.0298 
  904.728,92.5009 916.469,89.4975 928.21,87.8112 939.951,87.7983 951.692,85.9237 963.433,84.8026 975.175,83.1776 986.916,81.8765 998.657,81.6916 1010.4,78.9257 
  1022.14,79.1962 1033.88,78.4763 1045.62,78.1073 1057.36,74.6694 1069.1,75.7241 1080.85,74.1586 1092.59,74.0619 1104.33,71.6559 1116.07,71.6054 1127.81,69.5473 
  1139.55,67.2084 1151.29,63.6341 1163.03,67.6489 1174.77,65.3406 1186.52,64.3186 1198.26,63.2573 1210,61.8496 1221.74,61.9683 1233.48,61.4366 1245.22,57.524 
  1256.96,56.1179 1268.7,55.7121 1280.45,55.1327 1292.19,52.9531 1303.93,54.9514 1315.67,51.602 1327.41,51.0877 1339.15,50.7414 1350.89,50.0663 1362.63,50.9596 
  
  "/>
<circle clip-path="url(#clip492)" cx="235.481" cy="293.946" r="14" fill="#bb6972" fill-rule="evenodd" fill-opacity="1" stroke="none"/>
<circle clip-path="url(#clip492)" cx="294.187" cy="214.245" r="14" fill="#bb6972" fill-rule="evenodd" fill-opacity="1" stroke="none"/>
<circle clip-path="url(#clip492)" cx="482.045" cy="145.835" r="14" fill="#bb6972" fill-rule="evenodd" fill-opacity="1" stroke="none"/>
<circle clip-path="url(#clip492)" cx="881.245" cy="92.7973" r="14" fill="#bb6972" fill-rule="evenodd" fill-opacity="1" stroke="none"/>
<circle clip-path="url(#clip492)" cx="1221.74" cy="61.9683" r="14" fill="#bb6972" fill-rule="evenodd" fill-opacity="1" stroke="none"/>
</svg>
